<?xml version="1.0" encoding="UTF-8"?>
<svg id="Layer_2" data-name="Layer 2" xmlns="http://www.w3.org/2000/svg" viewBox="0 0 121.01 139.73">
  <defs>
    <style>
      .cls-1 {
        fill: #fff;
      }

      .cls-2 {
        fill: #00c9ff;
      }
    </style>
  </defs>
  <g id="Layer_1-2" data-name="Layer 1">
    <polygon class="cls-2" points="0 34.93 0 104.8 60.51 139.73 121.01 104.8 121.01 34.93 60.51 0 0 34.93"/>
    <path class="cls-1" d="m26.22,76.01s0,0,0,0c-.99.51-1.38,1.73-.86,2.72.46.88,1.49,1.3,2.43.98l28.23-9.39-5.28,8.62c-.47.77-.23,1.78.54,2.25.49.3,1.1.32,1.61.06l5.54-2.88c.16-.08.3-.19.43-.32l16.4-17.13,20.24-10.56c7.66-4.13,6.78-7.31,6.32-8.18-.35-.68-1.14-1.59-2.89-2.07-1.78-.49-4.17-.45-7.33.12-1.05.19-1.64.17-2.25.16-2.17-.06-3.64.09-10.93,3.88l-39.9,20.74-15.48-8.03c-.58-.3-1.28-.3-1.86,0l-2.61,1.36c-.99.51-1.38,1.73-.86,2.72.06.12.13.23.22.33l10.74,13.38-2.42,1.24h0Zm73.49,16.25H24.16c-2.12,0-3.85,1.72-3.85,3.85s1.72,3.85,3.85,3.85h75.55c2.12,0,3.85-1.72,3.85-3.85,0-2.12-1.72-3.85-3.85-3.85Z"/>
  </g>
</svg>