<?xml version="1.0" encoding="UTF-8"?>
<svg id="Layer_2" data-name="Layer 2" xmlns="http://www.w3.org/2000/svg" viewBox="0 0 121.01 139.73">
  <defs>
    <style>
      .cls-1 {
        fill: #fff;
      }

      .cls-2 {
        fill: #0031ff;
      }
    </style>
  </defs>
  <g id="Layer_1-2" data-name="Layer 1">
    <polygon class="cls-2" points="0 34.93 0 104.8 60.51 139.73 121.01 104.8 121.01 34.93 60.51 0 0 34.93"/>
    <path class="cls-1" d="m93.17,89.04l-2.43-12.86c-.1-.53-.46-.98-.95-1.2-.5-.22-1.07-.19-1.53.09l-11.21,6.76c-.66.4-.96,1.19-.72,1.92.23.73.93,1.21,1.7,1.15l4.38-.31c-4.18,5.62-10.47,7.92-17.69,8.52v-36.79h3.6c.58.43,1.3.7,2.08.7,1.93,0,3.5-1.56,3.5-3.49s-1.57-3.5-3.5-3.5c-.78,0-1.5.27-2.08.7h-3.6v-5.05c2.05-1.36,3.41-3.69,3.41-6.33,0-4.19-3.41-7.6-7.6-7.6s-7.6,3.41-7.6,7.6c0,2.64,1.36,4.97,3.41,6.33v5.05h-3.6c-.58-.43-1.3-.7-2.08-.7-1.93,0-3.5,1.56-3.5,3.5s1.57,3.49,3.5,3.49c.78,0,1.49-.26,2.08-.7h3.6v36.79c-7.22-.59-13.51-2.9-17.69-8.52l4.38.31c.76.05,1.46-.42,1.7-1.15.23-.73-.07-1.52-.72-1.92l-11.21-6.76c-.46-.28-1.04-.31-1.53-.09-.5.22-.85.67-.95,1.2l-2.43,12.86c-.14.75.25,1.5.95,1.82.7.32,1.52.11,1.99-.5l2.62-3.37c5.11,8.28,13.15,15.21,22.42,17.01l3.51,3.51c.65.65,1.7.65,2.34,0l3.51-3.51c9.27-1.8,17.31-8.73,22.43-17.01l2.62,3.37c.47.61,1.29.81,1.99.5.7-.31,1.09-1.07.95-1.82Zm-32.66-51.72c1.11,0,2.01.9,2.01,2.01s-.9,2.01-2.01,2.01-2.01-.9-2.01-2.01c0-1.11.9-2.01,2.01-2.01Z"/>
  </g>
</svg>