<svg xmlns="http://www.w3.org/2000/svg" xmlns:xlink="http://www.w3.org/1999/xlink" version="1.1" id="Layer_1" x="0px" y="0px" viewBox="0 0 1000 1000" enable-background="new 0 0 1000 1000" xml:space="preserve" preserveAspectRatio="xMidYMid meet" style="width: 1000px;">
<g>
	<path fill="#FDBDC4" stroke="#474747" stroke-width="0.2" d="M183.6,93.3c-1-1.1-4.3-2.4-4.6-3.8c-0.3-1.5,1.4-4.8,2.7-5.7   c1.3-0.9,4.8,0,6.2-0.7c1.3-0.8,2.5-4.1,3.8-4.8c1.4-0.8,4.9,0,6.3-0.7c1.1-0.6,2.1-3.2,3.2-3.7c0.8-0.4,2.9,0.2,3.7-0.2   c1.3-0.8,2.5-3.7,3.1-5.1c0.5-1.1,0.6-3.8,1.5-4.7c0.7-0.8,3-1,4-1.4c2.2-0.8,6.6-2.2,8.6-3.3c1.5-0.8,4.6-2.5,5.6-3.9   c0.2-0.4,0.5-0.9,0.8-1.5c1.4,0.6,3.3,1,4,1.6c1.5,1.3,3,5.7,4.8,6.6c1.4,0.6,4.7-1.1,6.1-0.5c1.7,0.7,3.1,5.2,4.9,5.6   c1.5,0.3,3.9-3.1,5.4-3c1.7,0.1,3.8,4.6,5.4,4.1c1.1-0.4,1.1-3.3,1.2-4.5c0.2-1.3-0.3-4.2,0.2-5.4c0.5-1,2.3-2.2,3.2-2.8   c1.2-0.8,4.3-1.6,4.9-2.8c0.3-0.5,0.2-1.3,0-2.1c1.7,0.1,4.2-0.5,5.3-0.6c1.3-0.1,3.9-1.7,5.2-1.3c1.4,0.5,2.5,4,3.9,4.6   c1.6,0.8,5.9-1.2,7.2,0c0.9,0.9-0.3,4.1,0.4,5.2c0.9,1.5,4.7,2.5,5.9,3.7c0.8,0.8,1.7,3.1,2.4,4.1c1,1.3,2.8,4.5,4.5,4.8   c2,0.4,5.3-3,7.2-3.7c1.8-0.7,5.5-2.4,7.4-2c2.2,0.4,6.9,5,7,5.6c0.2,0.6,3.3,5.6,5.2,6.5c2.2,1.1,7.8-0.9,10,0.4   c1,0.5,2,2.7,2.4,3.7c0.6,1.5,0.1,5.2,1.1,6.5c1.6,1.9,8.9,3.5,8.9,4.6s0.2,3.5,0.9,4.3c1.8,1.8,7.3,2.1,9.6,3   c2.5,0.9,7.3,3.4,9.8,4.3c2.1,0.7,6.3,1.9,8.5,2c2.1,0.1,6.1-1.5,8.2-1.1c2.5,0.5,6.3,5.5,8.9,5.2c1.3-0.1,2.6-3.2,3.9-3.5   c0.2-0.1,0.5,0,0.8,0.1c0.8,1.3,1.9,3.2,2.2,4.1c0.3,0.9,0.5,2.5,0.7,3.6c0.2,1.1,2.5,3,3.6,3.6c1.5,0.8,5.8,2.2,6.3,2.5   c0.5,0.2,4.9,2.3,6.2,3.6c1,1,2.1,3.6,3,4.7c0.8,1,2.6,3,3.6,3.8c1.7,1.3,5.5,3.2,7.3,4.3c1.2,0.8,3.7,2.4,4.9,3.1   c0.9,0.5,2.6,1.2,3.2,2.5c0.6,1.2,1.9,4.1,3.2,4.7c1.3,0.6,4.2-0.7,5.6-0.4c1.4,0.3,3.7,2.4,5.1,3c2.4,0.9,7.8,0.8,9.9,2.2   c1.1,0.7,3,4,3.5,4.2c0.5,0.3,4,1.9,4.9,3c0.6,0.7,1.1,2.7,1.7,3.3c1.4,1.4,5.2,2.6,6.8,3.7c1.2,0.8,3.6,2.4,4.3,3.6   c0.6,1,1.1,4.1,1.2,4.5c0.1,0.4,3,2.2,3.8,3.1c0.4,0.5,1.1,1.4,1.5,2.3c0,0-0.1,0-0.1,0c-1,0-1.8,2.4-2.4,3.2   c-0.5,0.6-1.4,1.8-1.9,2.4c-0.9,1.1-2.7,3.1-3.7,4.1c-0.8,0.8-2.7,2.2-3.4,3.1c-0.4,0.5-1.3,1.5-1.5,2.1c-0.3,0.9-0.2,2.7-0.2,3.6   c0,1.3,0.7,4,0.3,5.2c-0.4,1.1-2.6,2.4-3,3.4c-0.4,0.9,0.1,3-0.1,4c-0.2,0.9-1.4,2.6-1.5,3.5c-0.1,0.8,0.2,2.6,0.6,3.3   c0.3,0.5,1.7,0.8,1.9,1.3c0.2,0.7-0.3,2.4-0.9,2.8c-0.6,0.4-2.3-0.6-3-0.3c-0.5,0.2-0.7,1.5-1.1,1.9c-0.6,0.5-2.6,0.6-2.9,1.3   c-0.3,0.8,0.9,2.3,1,3.2c0.1,1,0.2,3.1-0.5,3.8c-0.4,0.4-1.7,0.1-2.2,0.3c-0.5,0.2-1.5,1-2,0.9c-0.5,0-1.3-0.9-1.9-1   c-0.5-0.1-1.5-0.2-1.9,0c-1,0.5-2.1,2.8-2.6,3.8c-0.7,1.3-1.7,3.9-2,5.3c-0.4,1.5-0.4,4.5-0.8,5.9c-0.5,1.7-2.3,4.9-2.8,6.7   c-0.4,1.5-0.8,4.7-1.1,6.2c-0.3,1.9-1.2,5.8-1.4,7.7c-0.2,1.6-0.2,4.9-0.2,6.5c0,1.9,0.4,5.7,0.4,7.6c0,1-0.3,3-0.4,4   c-0.1,0.7,0.4,2.5-0.2,2.9c-0.4,0.3-1.6-0.9-2-0.6c-0.9,0.5-0.5,2.9-0.7,3.9c-0.3,1.1-1.6,3-1.7,4.2c-0.1,1.2,0.5,3.6,1,4.6   c0.4,0.8,1.6,2.1,2.3,2.6c0.5,0.3,1.9,0.2,2.3,0.6c0.6,0.6,0.6,2.9,0.6,3.3c0,0.5,1.3,2,1.4,2.8c0.1,0.6-0.5,1.8-0.7,2.4   c-0.3,0.6-1,1.5-1.5,2.2c-0.8-0.4-2.3-1.3-3-1.5c-1.2-0.3-3.8,0.2-4.9-0.2c-0.7-0.3-1.7-1.7-2.5-2c-1.7-0.7-5.6-0.6-7.4-0.5   c-1.8,0.1-5.4,1.2-7.2,1.2c-1.7,0-1-3-1-3.7c0-0.7-3.4-2.5-4.5-3.5c-1.3-1.1-2.9-4.5-4.5-5.2c-1.6-0.8-5.7,1.1-7.2,0   c-0.8-0.6-0.6-3.1-1.2-4c-1.3-1.7-5.7-3-6.9-4.7c-1.4-1.9-0.9-7.9-3-9.2c-1.2-0.7-4.1,1.1-5.4,1c-1.2-0.1-3.2-1.2-4.7-1.7   c-1.5-0.5-3.5,2.4-4.7,3.2c-1.2,0.8-4.2,2.4-5.7,2c-1.6-0.5-2.8-4.2-4.2-5.2c-1.8-1.3-7.1-1.1-8.4-3c-0.9-1.3,0.4-4.9,0-6.4   c-0.4-1.3-1.4-4.7-2.7-4.7c-1.5,0-1.9,4.4-3.2,5.2c-0.9,0.6-3.5-0.2-4.5,0.5c-1.1,0.8-1.1,4-2.2,4.7c-0.7,0.4-2.6,0.5-3.2,0   c-1.7-1.3-1.9-6.1-2.2-8.2c-0.1-1-0.2-3.2,0-4.2c0.2-1.3,1.6-3.6,1.7-4.9c0.2-1.7-0.2-5.1-0.7-6.7c-0.6-2-2.2-6.1-4-7.2   c-1.2-0.8-4.5,0.5-5.7-0.2c-1-0.7-1.2-3.7-2.2-4.5c-1.2-0.9-4.5-0.2-5.7-1c-0.8-0.5-1.4-2.5-2-3.2c-0.8-1.1-3.2-2.7-3.7-4   c-0.7-1.5,0.3-5.2-0.5-6.7c-0.7-1.3-4-2.2-4.7-3.5c-1.2-2.2-1.9-7.9-0.5-9.9c0.7-1,4-0.5,4.7-1.5c0.8-1.1-0.7-4.3,0-5.4   c0.8-1.3,4.5-1.3,5.4-2.5c0.7-0.9,1.1-3.6,0.7-4.7c-0.6-1.9-3.6-5.1-5.4-5.9c-1-0.4-3.4,0.3-4.5,0c-1.4-0.4-3.7-2.7-5.2-3   c-2.8-0.5-8.4,2.5-11.1,1.7c-1.6-0.5-3.6-3.5-4.9-4.5c-1.6-1.1-5.4-2.3-7.2-3.2c-2-1-5.6-3.8-7.7-4.5c-1.3-0.4-4.5,0.3-6.5,0.2   c0.7-1.3,2-3.1,2.6-4.1c0.8-1.4,2.3-4.3,3.3-5.6c1.2-1.4,4.5-3.1,5.6-4.6c0.7-1,2.2-3.5,1.9-4.7c-0.4-1.4-3.4-2.7-4.5-3.7   c-1.3-1.2-3.6-3.9-5.1-4.9c-1.3-0.9-4.1-2.4-5.7-2.6c-1.1-0.2-3.4,0.7-4.6,0.7c-1.7,0.1-5.2,0.6-6.8-0.1c-2.3-1-5-5.6-6.8-7.3   c-1.2-1.1-3.5-3.3-4.9-3.8c-1.8-0.7-5.7-0.4-7.5-0.6c-2.2-0.2-6.8-0.2-8.8-1.1c-1.7-0.8-4.9-4.2-5.8-4.7c-0.9-0.5-4.7-0.3-6.2-0.7   c-1.3-0.4-3.8-1.5-4.6-2.6c-1-1.4-1.3-5.2-1.2-6.9c0.1-1.9,1.6-5.6,2-7.5c0.3-1.7-0.3-5.4,0.6-6.9c0.5-0.8,2.5-1.5,3.2-2.1   c1.6-1.2,4.1-4.5,5.9-5.3c1.7-0.8,6.1,0.3,7.5-0.9c0.7-0.6,1.4-2.7,1.1-3.6c-0.3-1.1-2.5-2.2-3.3-3c-1.6-1.4-4.6-5-6.7-5.6   c-1.2-0.3-3.6,0.3-4.7,0.9c-1.4,0.8-3.5,3.5-4.6,4.7c-1.1,1.2-2.9,4.4-4.5,5.1c-1.5,0.7-5.1-0.3-6.7,0.1c-1.8,0.4-4.9,2.4-6.6,3.3   c-1.8,1-5.1,3.8-7.2,4.3c-2.2,0.6-6.8,0.5-8.9-0.3c-1.5-0.5-4.4-2.5-4.8-4c-0.2-0.9,1.3-2.5,1.2-3.3   C186.3,96.7,184.5,94.4,183.6,93.3L183.6,93.3z" data-stroke-width="0.2" style="stroke-width: 0.2;" class=" " id="thanh-hoa"></path>
	<path fill="#FDBDC4" stroke="#474747" stroke-width="0.2" d="M85.1,308.9c-0.4-0.9-0.4-3.1,0.3-3.8c1.1-1.4,5.3-0.9,6.9-1.6   c1.5-0.6,4.6-2.2,5.7-3.5c1.2-1.5,1.2-6.1,2.7-7.3c1.1-0.8,4.2-0.1,5.6-0.5c1.6-0.5,4.2-2.7,5.8-3.2c1.6-0.5,5.2,0.4,6.6-0.5   c1.1-0.7,1.9-3.2,2.5-4.3c0.6-1.2,1.6-3.5,2.2-4.7c0.7-1.3,2.5-3.7,3-5.1c0.4-1.4,0.4-4.4,0.4-5.8c-0.1-1.7-0.5-5-1-6.6   c-0.5-1.8-1.9-5.2-3-6.7c-1.2-1.7-5.7-3.9-5.9-5.9c-0.2-1.9,2.4-5.2,3.8-6.4c1.1-0.9,4.1-1.8,5.6-2c1.6-0.2,5,1.1,6.6,0.5   c1.8-0.8,3.3-5.1,4.9-6.2c2.3-1.6,7.8-3.5,10.6-3.5c1.9,0,5.4,1.9,7.3,2.4c2.2,0.6,6.8,0.9,9,1.6c1.9,0.6,5.4,3.3,7.4,3.3   c1.9,0.1,5.1-2.2,6.9-2.6c1.8-0.4,5.6-0.8,7.3-0.3c2.5,0.8,6,5.2,8.3,6.4c1.3,0.7,4.4,1,5.6,2c1.3,1.1,1.9,5.1,3.3,6.1   c1.9,1.2,6.9,0.8,9.2,0.5c1.7-0.2,4.9-1.8,6.6-2.2c1.2-0.3,3.5-0.9,4.7-0.9c1.5,0,4.4,1.4,5.8,1c1.3-0.4,3.1-2.6,3.7-3.7   c0.8-1.6,1-5.2,1.5-6.9c0.5-2,1.5-6.3,2.6-8c1.1-1.7,3.9-4.9,5.8-5.4c1.4-0.4,4.2,1.2,5.6,1c1.8-0.3,4.9-2.5,6.3-3.7   c0.9-0.9,2-3.4,3.1-4.1c1.8-1.2,6.9-0.3,8.4-1.9c1.8-1.8,2.2-7.3,2.2-9.8c0-1.9-1.8-5.5-1.7-7.4c0.1-2.4,1.2-7.3,2.6-9.1   c0.9-1.2,4-2.5,5.3-3.2c1.2-0.7,4-1.4,4.9-2.5c0.8-0.9,1-3.4,1.5-4.5c0.1-0.2,0.2-0.3,0.3-0.5c2,0.1,5.2-0.6,6.5-0.2   c2.1,0.7,5.7,3.4,7.7,4.5c1.7,0.9,5.5,2.1,7.2,3.2c1.4,0.9,3.4,4,4.9,4.5c2.7,0.8,8.4-2.2,11.1-1.7c1.5,0.3,3.8,2.6,5.2,3   c1.1,0.3,3.4-0.4,4.5,0c1.8,0.8,4.9,4,5.4,5.9c0.3,1.1,0,3.8-0.7,4.7c-0.9,1.2-4.6,1.2-5.4,2.5c-0.7,1.1,0.8,4.3,0,5.4   c-0.7,1-4,0.5-4.7,1.5c-1.4,2-0.7,7.7,0.5,9.9c0.7,1.3,4,2.2,4.7,3.5c0.8,1.5-0.2,5.1,0.5,6.7c0.5,1.2,2.9,2.9,3.7,4   c0.6,0.8,1.2,2.7,2,3.2c1.2,0.8,4.5,0.1,5.7,1c1,0.7,1.2,3.8,2.2,4.5c1.2,0.8,4.5-0.5,5.7,0.3c1.7,1.1,3.3,5.2,4,7.2   c0.5,1.6,0.9,5,0.7,6.7c-0.1,1.3-1.5,3.7-1.7,4.9c-0.2,1-0.1,3.2,0,4.2c0.3,2.1,0.5,6.9,2.2,8.2c0.6,0.5,2.5,0.4,3.2,0   c1.1-0.7,1.2-3.9,2.2-4.7c0.9-0.6,3.5,0.1,4.5-0.5c1.3-0.8,1.7-5.2,3.2-5.2c1.4,0,2.4,3.4,2.7,4.7c0.4,1.5-0.9,5.1,0,6.4   c1.3,1.8,6.6,1.7,8.4,3c1.4,1,2.6,4.7,4.2,5.2c1.4,0.4,4.4-1.1,5.7-2c1.2-0.8,3.2-3.7,4.7-3.2c1.5,0.5,3.4,1.6,4.7,1.7   c1.4,0.1,4.3-1.7,5.4-1c2.1,1.2,1.5,7.2,3,9.2c1.3,1.7,5.7,3,6.9,4.7c0.6,0.8,0.4,3.3,1.2,4c1.4,1.1,5.5-0.8,7.2,0   c1.6,0.7,3.1,4.1,4.5,5.2c1.1,0.9,4.5,2.7,4.5,3.5c0,0.7-0.7,3.7,1,3.7c1.7,0,5.4-1.1,7.2-1.2c1.9-0.1,5.7-0.2,7.4,0.5   c0.7,0.3,1.7,1.7,2.5,2c1.2,0.4,3.8-0.1,4.9,0.2c0.7,0.2,2.2,1,3,1.5c-0.3,0.4-0.5,0.7-0.7,0.9c-0.5,0.7-1.3,2.5-2.1,2.8   c-0.7,0.3-2.3-0.8-3-0.5c-0.9,0.4-1.6,2.4-1.9,3.3c-0.2,0.9,0.5,2.8,0.1,3.6c-0.3,0.8-1.8,1.7-2.5,2.1c-0.8,0.4-2.6,0.5-3.3,1   c-0.6,0.5-1.4,1.9-1.7,2.7c-0.5,1.7-0.3,5.4-0.3,7.1c0,1.3,0.5,4,0.5,5.3c0,1.7-0.1,5-0.6,6.6c-0.2,0.6-0.9,1.9-1.4,2.3   c-0.7,0.5-2.6,0.5-3.3,0.9c-0.5,0.3-1.1,1.7-1.7,1.9c-0.6,0.3-2.3,0.3-2.8-0.2c-0.3-0.3-0.1-1.3-0.4-1.6c-0.5-0.5-2.2-0.5-2.9-0.3   c-1.3,0.5-2.8,3.1-3.7,4.2c-0.9,1.1-2.6,3.4-3.2,4.6c-0.7,1.4-1.6,4.5-1.9,6c-0.4,2.2-0.5,6.7-0.5,8.9c0,1.4,0.2,4.3,0.5,5.7   c0.2,1.2,0.9,3.4,1.4,4.5c0.5,1.1,1.4,3.3,2.2,4.1c0.7,0.7,2.7,1.1,3.6,1.5c1.1,0.5,3.4,1.5,4.4,2.2c0.7,0.5,1.8,1.7,2.4,2.2   c0.6,0.6,2,1.8,2.5,2.6c0.8,1.2,1.7,4.1,2.3,5.5c0.6,1.5,1.8,4.6,2.6,5.9c0.7,1.1,2.7,2.8,3.2,4c0.3,0.6,0.9,1.8,0.6,2.4   c-0.3,0.6-2,0.7-2.4,1.2c-0.3,0.4-0.5,1.7-0.4,2.2c0.2,0.8,1.9,1.8,2.3,2.5c0.3,0.6,0.7,1.9,0.7,2.6c0,0.8-1,2.3-0.9,3.2   c0.1,0.8,0.7,2.3,1.3,2.8c0.3,0.2,1.3,0.4,1.6,0.1c0.7-0.8-0.5-3.1-0.6-4.2c0-0.9,0.4-2.7,0.2-3.5c-0.2-0.7-1.6-1.8-1.7-2.5   c-0.1-0.6,0.5-1.8,0.7-2.3c0.3-0.8,0.7-2.7,1.5-3.1c0.4-0.2,1.4,0,1.8,0.3c0.9,0.6,1.8,2.8,2.1,3.8c0.4,1.2,0.8,3.6,0.9,4.8   c0.2,1.5,0,4.5,0.3,5.9c0.1,0.6,0.4,1.5,0.7,2.5c-1.9-0.1-5.4,0.5-7.1,1.1c-2.4,0.8-7.2,2.8-8.9,4.6c-1.2,1.3-1.9,4.8-2.8,6.3   c-1,1.8-3.2,5.3-4.6,6.7c-0.8,0.8-2.8,2.2-3.9,2.4c-1.3,0.2-3.7-1-5-0.9c-1.4,0.1-3.9,2.1-5.4,2c-1.2,0-3.3-1.7-4.5-2   c-2.3-0.7-7.2-0.9-9.5-1.7c-1.3-0.5-3.7-2.2-5-2.8c-1.6-0.7-4.9-2-6.7-2c-2.1,0-6,1.7-8,2.4c-1.9,0.7-5.4,3.2-7.4,3.2   c-1.7,0-4.5-2.2-6.1-2.6c-1.3-0.3-4.1,0-5.4-0.6c-1.9-0.8-4.3-4.9-6.3-5.4c-2.1-0.5-6.4,1.1-8.2,2.2c-1.2,0.8-2.2,4-3.5,4.3   c-1.6,0.3-4.3-2.6-5.7-3.3c-0.5-0.3-1.6-0.4-2.5-0.7c0.9-1,1.7-3,1.6-4c-0.1-1.4-2.1-3.5-3-4.6c-1.5-1.8-5.1-5-6.8-6.7   c-1.2-1.2-3.2-4.2-4.7-4.9c-1.4-0.7-5.6-0.5-6.1-0.5c-0.5,0-4.2-0.5-5.4-1.1c-1.4-0.6-3.6-3.1-5.1-3.7c-2.4-1-7.7-1.3-10.3-1.6   c-1.4-0.1-4.4,0.4-5.6-0.3c-1.2-0.7-1.9-3.9-3-4.7c-2.7-1.9-9.4-3.2-12.7-3.3c-2.4-0.1-7,2.2-9.3,1.7c-1.8-0.3-4.4-3.4-6.2-3.8   c-1.7-0.4-6.6,0.3-6.9,0.3c-0.4,0-4.7-1.2-5.9-2.2c-1.3-1.1-2-4.7-3.3-5.7c-1.7-1.2-6.4-0.4-8.2-1.5c-1.9-1.2-3.6-6-5.6-7.2   c-1.2-0.8-4.4-0.5-5.7-1.1c-2.1-1-6.3-5.2-7.3-5.8c-1-0.6-3.7-4.5-4.8-6.1c-1.2-1.6-3.1-5.2-4.7-6.4c-1.2-0.9-4-2.3-5.4-2.4   c-1.3-0.1-3.9,1.2-5.2,1.5c-1.4,0.3-4.4,1.3-5.7,0.6c-1.5-0.7-2.6-4.1-3.3-5.6c-1-1.9-2.2-6.1-3.6-7.7c-1.3-1.5-4.9-3.8-6.8-4.5   c-2.2-0.8-7.3,0.3-9.4-0.9c-1.7-0.9-2.9-5.2-4.6-6.1c-1.6-0.8-5.3-0.1-7-0.5c-1.8-0.4-5.5-1.5-7-2.6c-1.4-1-3.3-4-4.3-5.4   c-0.7-1-1.8-3.3-2.7-4.1c-1.4-1.3-5-2.9-6.8-3.7c-1.8-0.8-5.7-1.6-7.4-2.6c-1.7-1-4.2-4.4-6.1-5.2c-1.3-0.6-4.3-0.6-5.7-0.6   c-2.7-0.1-8.1,0.9-10.8,0.5c-2-0.3-5.9-1.5-7.5-2.6c-2.1-1.4-5.1-5.7-6.9-7.4C89.5,312.5,85.9,310.6,85.1,308.9L85.1,308.9z" data-stroke-width="0.2" style="stroke-width: 0.2;" class=" " id="nghe-an"></path>
	<path fill="#FDBDC4" stroke="#474747" stroke-width="0.2" d="M324,481.7c-1.8-1.9-6.3-5.4-6.9-7.9c-0.7-2.9,1.7-8.7,2.6-11.5   c0.7-2.3,2.7-6.7,3.8-8.8c0.8-1.5,2.3-4.7,3.6-5.8c0.8-0.7,2.7-1.5,3.7-1.6c1.2-0.2,3.7,1.1,4.7,0.5c0.2-0.1,0.3-0.2,0.5-0.4   c0.9,0.3,2,0.4,2.5,0.7c1.5,0.7,4.1,3.6,5.7,3.3c1.4-0.2,2.4-3.5,3.5-4.3c1.8-1.1,6.1-2.7,8.2-2.2c2,0.4,4.4,4.6,6.3,5.4   c1.2,0.5,4.1,0.2,5.4,0.6c1.6,0.4,4.5,2.6,6.1,2.6c2,0,5.5-2.5,7.4-3.2c2-0.7,5.9-2.4,8-2.4c1.7,0,5.1,1.4,6.7,2   c1.3,0.6,3.7,2.3,5,2.8c2.3,0.8,7.2,1,9.5,1.7c1.2,0.4,3.2,2,4.5,2c1.4,0,3.9-1.9,5.4-2c1.3-0.1,3.8,1.2,5,0.9   c1.1-0.2,3.1-1.6,3.9-2.4c1.5-1.4,3.6-4.9,4.6-6.7c0.8-1.5,1.6-5,2.8-6.3c1.7-1.8,6.5-3.9,8.9-4.6c1.7-0.5,5.2-1.1,7.1-1.1   c0.5,1.3,1.1,2.8,1.4,3.7c0.5,1.2,1.5,3.6,2,4.8c0.9,2.1,2.6,6.4,3.6,8.5c0.7,1.5,2.3,4.6,3.2,6c1,1.7,3.2,4.9,4.3,6.5   c1,1.5,2.9,4.7,4.1,6.1c1,1.1,3.4,3,4.5,4c0.4,0.4,1.6,1.2,1.8,1.8c0.2,0.6-0.1,2-0.5,2.5c-0.2,0.3-1.2,0.3-1.4,0.6   c-0.6,0.8-0.3,3.7-0.3,4c0,0.3,0.5,3.3,0.6,4.4c0,0.6-0.7,2.4-0.1,2.6c1,0.3,1.7-2.5,2.1-3.4c0.2-0.5,0.5-1.6,0.6-2.2   c0-0.7-0.7-2.1-0.6-2.8c0.1-0.4,0.8-1,1-1.4c0.2-0.4,0.6-1.1,0.6-1.5c0.1-0.7-0.5-2.3,0-2.8c0.4-0.4,1.7-0.4,2.1-0.1   c0.5,0.4,0.2,1.8,0.4,2.4c0.3,0.9,1.2,2.8,1.7,3.6c0.9,1.5,3.2,4.2,4.3,5.6c2.4,2.9,7.4,8.5,9.9,11.2c1.6,1.7,4.9,5.1,6.5,6.9   c1.3,1.3,3.4,4.4,5,5.3c0.8,0.4,3.3,0.6,3.6,0.6s1.8,2,1.6,2.8c-0.3,0.8-2.7,1.5-3,1.5s-2.3-0.1-2.7-0.1s-1.2,1.5-1.8,1.8   c-1.1,0.6-4.7-1-5.1,0.2c-0.3,0.8,1.9,1.8,2.7,2c1,0.3,3.1,0.1,4.1-0.3c0.4-0.2,0.8-1.2,1.3-1.3c0.7-0.2,2,1.2,2.6,0.9   c0.6-0.3,0.4-2.2,0.9-2.6c0.4-0.3,1.7,0.3,2.1,0c0.3-0.3,0-1.4,0.3-1.8c0.5-0.6,2-1.3,2.8-1.5c1-0.2,3,0.2,3.9,0.5   c1,0.3,3,1.4,3.9,1.9c1.6,0.9,4.4,3.3,5.9,4.3c0.7,0.4,2.3,0.9,3,1.4c0.8,0.5,1.9,2.1,2.8,2.4c0.6,0.3,2.1-0.1,2.7,0.2   c0.9,0.4,2.5,1.8,3.2,2.5c1.1,1.1,2.8,3.9,3.8,5.1c1.1,1.3,3.7,3.8,4.9,5.1c1.5,1.5,4.2,4.7,5.8,5.9c0.9,0.6,2.8,1.7,3.9,1.9   c0.7,0.1,2-0.3,2.7-0.2c0.6,0.1,1.7,1.1,2.3,1.3c0.7,0.2,2.5,0.6,3.1,0.1c0.6-0.5,0.3-2.3,0.6-3.1c0.2-0.5,0.6-1.5,1-1.7   c0.4-0.1,1.2,0.5,1.7,0.6c0.4,0.1,1.5,0,1.9,0.4c0.4,0.4,0.5,1.9,0.2,2.4c-0.3,0.6-1.9,0.7-2.3,1.2c-0.4,0.5-0.7,1.7-0.6,2.2   c0.2,0.9,1.7,2.3,2.1,3.2c0.5,1.1,1.1,3.5,1.6,4.6c0.7,1.6,2.4,4.8,3.4,6.3c1,1.4,3.2,4,4.4,5.3c0.4,0.5,1.7,1.2,1.9,1.8   c0.1,0.3,0,0.8,0,1.1c-1,0.5-2.1,1-2.7,1.1c-1.9,0.3-5.7-1.1-7.6-0.9c-1.1,0.1-3.2,1.4-4.3,1.1c-1.4-0.3-3.1-3.2-4.5-3.7   c-2.1-0.8-7.1-1.2-9.1-0.2c-1.2,0.6-1.8,3.7-3,4.5c-1.2,0.8-5-0.3-5.7,0.9c-0.6,1,1.4,3.4,1.5,4.6c0.1,1.3-0.1,4.3-1.1,5   c-1.1,0.7-3.9-0.4-5.2-0.7c-1.5-0.4-4.2-2.2-5.7-2.4c-1.7-0.3-5.2,0.3-6.9,0.6c-2.5,0.3-7.3,2-9.8,1.9c-1-0.1-2.8-1.1-3.7-1.3   c-2.1-0.5-6.6-0.4-8.7-0.9c-2.1-0.6-6.8-1.7-8-3.5c-0.9-1.5-0.2-5.3,0.2-7c0.2-0.9,1.6-2.5,1.7-3.5c0.1-1.3-0.7-4-1.7-4.8   c-1-0.7-3.6-0.2-4.8-0.4c-1.3-0.2-3.8-0.9-5-1.5c-1.3-0.7-3.3-3.1-4.6-3.5c-1.1-0.4-4,0.9-4.8,0c-0.7-0.7,0.5-3.1,0-3.9   c-1-1.5-5-2.4-6.9-2.8c-1.5-0.3-4.8-1.1-5.9-0.2c-0.8,0.6,0.1,3.2-0.6,3.9c-1.3,1.5-6.1,0.8-7.6,2c-1.1,0.8-1.4,4.2-2.6,4.8   c-1,0.5-3.2-0.8-4.3-0.6c-1.4,0.3-3.4,2.7-4.8,2.8c-1.4,0.1-3.8-2-5.2-2.2c-1.7-0.3-5.5-0.3-6.9,0.7c-1.5,1.1-2,5.2-3,6.7   c-0.5,0.8-1.7,2.4-2.6,2.8c-1.3,0.5-4-0.5-5.4-0.6c-1.1-0.1-3.7,0.6-5.3,0.6c0.1-1.1,0.1-2.2-0.3-2.8c-1-1.6-5.6-1.4-7.2-2.5   c-1.5-1-4-3.9-4.5-5.7c-0.4-1.5,1.4-4.8,0.9-6.3c-0.5-1.4-3-3.1-4.2-4c-0.7-0.5-2.4-1-3.1-1.5c-0.9-0.7-2.1-2.8-3-3.6   c-0.6-0.6-2.3-1.4-2.8-2.1c-0.8-1.1-1.9-3.8-2-5.2c-0.1-1.2,1.2-3.4,1-4.6c-0.3-1.5-2.5-4.2-3.8-4.9c-1.2-0.7-4.2-1-5.6-0.5   c-1.3,0.4-2.9,2.9-4,3.7c-1.7,1.3-5,4.4-7.2,4.8c-2.1,0.4-6.6-0.7-8.5-1.6c-1.7-0.8-5.2-3.2-5.8-5.1c-0.5-1.6,1.6-5,1.4-6.7   c-0.2-1.4-1.3-4.4-2.6-5.1c-2.1-1.1-7.2,2.1-9.4,1.1c-1.4-0.6-2.6-3.8-3.6-4.9c-1.1-1.3-3.7-3.7-5.1-4.8c-1.3-1.1-4.5-2.5-5.4-4   c-1-1.5-0.7-5.4-1.5-7c-1-2.2-5.3-6.9-6.3-7.5C328.3,486.3,325.2,483.1,324,481.7L324,481.7z" data-stroke-width="0.2" style="stroke-width: 0.2;" class=" " id="ha-tinh"></path>
	<path fill="#FDBDC4" stroke="#474747" stroke-width="0.2" d="M418.3,581.5c-0.3-1.6-1.1-4.9-0.6-6.4c0.4-1.4,3-3.2,3.5-4.6   c0.2-0.7,0.5-1.8,0.7-2.9c1.6,0,4.2-0.6,5.3-0.6c1.3,0.1,4.1,1,5.4,0.6c0.9-0.3,2.1-2,2.6-2.8c1-1.5,1.5-5.6,3-6.7   c1.4-1,5.2-1,6.9-0.7c1.4,0.2,3.8,2.3,5.2,2.2c1.4-0.1,3.5-2.5,4.8-2.8c1.1-0.2,3.3,1,4.3,0.6c1.2-0.6,1.5-4,2.6-4.8   c1.5-1.2,6.3-0.6,7.6-2c0.7-0.7-0.2-3.3,0.6-3.9c1.1-1,4.5-0.1,5.9,0.2c1.8,0.4,5.8,1.2,6.9,2.8c0.5,0.8-0.7,3.2,0,3.9   c0.9,0.9,3.7-0.4,4.8,0c1.4,0.5,3.3,2.9,4.6,3.5c1.2,0.6,3.7,1.2,5,1.5c1.2,0.2,3.9-0.4,4.8,0.4c1,0.8,1.7,3.6,1.7,4.8   c-0.1,1-1.4,2.6-1.7,3.5c-0.4,1.7-1.1,5.6-0.2,7c1.2,1.8,5.9,3,8,3.5c2.1,0.6,6.6,0.4,8.7,0.9c1,0.2,2.7,1.2,3.7,1.3   c2.5,0.2,7.3-1.5,9.8-1.9c1.7-0.2,5.2-0.8,6.9-0.6c1.5,0.2,4.2,2,5.7,2.4c1.3,0.3,4.1,1.5,5.2,0.7c1.1-0.7,1.2-3.7,1.1-5   c-0.1-1.2-2.1-3.6-1.5-4.6c0.8-1.2,4.5-0.1,5.7-0.9c1.1-0.7,1.8-3.8,3-4.5c2-1.1,7-0.6,9.1,0.2c1.4,0.5,3,3.4,4.5,3.7   c1.1,0.2,3.2-1,4.3-1.1c1.9-0.1,5.7,1.2,7.6,0.9c0.6-0.1,1.7-0.6,2.7-1.1c0,0.2,0,0.3,0,0.4c0.1,0.7,1,1.8,1.1,2.5   c0.1,0.9-0.5,2.7-0.8,3.5c-0.3,0.9-1.3,2.5-1.8,3.3c-0.7,1.5-2.1,4.4-2.9,5.8c-0.7,1.3-2.3,3.7-2.9,5.1c-0.5,1.3-1.4,4.1-1.5,5.6   c-0.1,1.5,0.6,4.5,0.9,6c0.4,1.8,1.2,5.3,1.9,7c0.4,1.1,1.5,3.2,1.9,4.3c0.4,1,1.3,3,1.7,4c0.4,0.9,0.8,2.8,1.4,3.6   c0.5,0.6,1.9,1.3,2.4,1.9c0.3,0.4,0.7,1.4,0.8,1.9c0.3,0.9,0.4,2.8,0.9,3.6c0.5,0.9,2.2,2,2.7,2.8c0.8,1.1,1.7,3.7,2.5,4.8   c0.8,1.1,3.2,2.6,4,3.7c1.1,1.6,1.9,5.6,2.8,7.3c1.7,3.2,6,9.1,8.2,12c2.3,3.2,7,9.5,9.5,12.5c3.2,3.8,9.6,11.4,13.2,14.8   c1.9,1.8,6.3,4.8,8.3,6.4c3.6,2.9,10.3,9.3,14,12.1c2.5,2,7.9,5.5,10.5,7.4c3.2,2.3,9.3,7.2,12.5,9.5c1.3,1,3.2,2.3,5.2,3.7   c-1,0.4-2.4,1-2.8,1.5c-1,1.1-1.4,4.3-2.2,5.6c-0.9,1.3-3.1,3.8-4.5,4.6c-1.6,1-5.2,2.4-7,2.6c-1.2,0.1-3.5-0.9-4.6-0.7   c-2,0.3-5.3,3-7.2,3.3c-1.3,0.2-4.1-1-5.4-0.6c-1.3,0.5-3.3,2.6-3.7,3.9c-0.4,1.4,0.7,4.4,1.1,5.7c0.2,0.7,1.2,2,1.3,2.8   c0.1,1.2-0.2,3.7-0.9,4.6c-0.9,1-4.2,0.9-5,2c-0.7,1.1-0.3,3.9-0.2,5.2c0.1,0.9,1,2.7,0.7,3.5c-0.5,1.6-3,4.3-4.6,4.8   c-1.7,0.5-5.7-0.5-7-1.7c-0.9-0.8-1.1-3.6-2-4.5c-1.2-1.1-4.6-2.5-6.3-2.2c-1.8,0.3-4.1,4.2-5.9,4.5c-1.4,0.2-4.1-1.5-5.4-2.2   c-1.4-0.9-4.5-2.7-5-4.3c-0.2-0.7,1.1-2.3,0.7-3c-0.5-1-2.9-1.4-3.9-1.7c-1.3-0.4-3.9-1-5.2-0.7c-0.4,0.1-1.2,0.4-1.9,0.7   c-0.2-0.2-0.3-0.3-0.4-0.3c-0.4,0-4.7,1.6-6.3,2.1c-1.7,0.5-5.2,2.1-7,1.9c-2.1-0.3-6-2.8-7.4-4.5c-1.1-1.3-1.8-5-2.6-6.6   c-0.8-1.4-3.5-3.6-3.7-5.2c-0.3-1.7,2.7-4.9,2.2-6.6c-0.6-2-5-3.9-6.4-5.4c-1.8-2-4.5-6.8-6.1-9c-1.1-1.5-4-5.3-4.3-5.9   c-0.4-0.6,1.6-4.2,1.2-5.6c-0.3-1.4-3.6-2.9-4.2-4.2c-0.8-1.6,0.1-5.5-0.6-7.2c-0.4-0.9-1.8-2.8-2.7-2.7c-1,0-2,2.2-2.6,3.1   c-0.6,1-1.1,3.5-2.1,4.2c-1.1,0.8-4.2,0.9-5.6,0.6c-2.5-0.5-6.8-3.5-8.9-4.9c-4.3-2.9-12-9.8-15.8-13.4c-2-1.8-5.7-5.6-7.5-7.5   c-3.1-3.3-8.6-10.5-11.9-13.6c-1.9-1.7-6.4-4.2-8.2-6.1c-1.8-1.9-4.3-6.5-5.9-8.5c-1.4-1.7-4.5-4.9-5.9-6.6   c-2.1-2.4-6.3-7.1-8.3-9.5c-1.1-1.3-2.8-4.3-4.1-5.4c-2.1-2-8.7-5.6-10-6.1c-1.4-0.5-4.1-1.2-5.3-1.9c-1.1-0.6-3.7-2.8-4-3.3   c-0.2-0.5-0.9-4.2-1.6-5.4c-1-1.7-4.1-4.1-5.3-5.6c-0.9-1.1-2.7-3.4-3.3-4.7c-0.8-1.7-1.1-5.7-2.1-7.3c-1.6-2.6-7.1-5.8-8.7-8.4   C419.5,587,418.7,583.3,418.3,581.5L418.3,581.5z" data-stroke-width="0.2" style="stroke-width: 0.2;" class=" " id="quang-binh"></path>
	<path fill="#FDBDC4" stroke="#474747" stroke-width="0.2" d="M598.3,781.8c-1.1-1.8-5.6-3.6-6.3-5.6c-0.6-1.5-0.1-5.2,1-6.4   c0.7-0.9,3.6-0.6,4.3-1.5c1-1.2,1-4.6,0.7-6.2c-0.2-1-1.5-3.3-2.2-4.1c0.7-0.4,1.4-0.6,1.9-0.7c1.3-0.3,3.9,0.4,5.2,0.7   c1,0.3,3.4,0.7,3.9,1.7c0.3,0.7-1,2.2-0.7,3c0.5,1.6,3.6,3.4,5,4.3c1.2,0.8,3.9,2.4,5.4,2.2c1.8-0.2,4.1-4.2,5.9-4.5   c1.7-0.3,5.1,1.1,6.3,2.2c0.9,0.8,1.1,3.7,2,4.5c1.4,1.2,5.3,2.2,7,1.7c1.6-0.5,4.2-3.2,4.6-4.8c0.3-0.9-0.7-2.6-0.7-3.5   c-0.1-1.3-0.6-4.1,0.2-5.2c0.8-1.1,4.2-1,5-2c0.8-0.9,1.1-3.5,0.9-4.6c-0.1-0.8-1.1-2.1-1.3-2.8c-0.5-1.4-1.5-4.3-1.1-5.7   c0.4-1.3,2.4-3.4,3.7-3.9c1.3-0.5,4,0.8,5.4,0.6c2-0.3,5.3-3.1,7.2-3.3c1.2-0.2,3.5,0.9,4.6,0.7c1.9-0.2,5.5-1.6,7-2.6   c1.3-0.9,3.6-3.3,4.5-4.6c0.8-1.3,1.2-4.5,2.2-5.6c0.5-0.5,1.8-1.1,2.8-1.5c2.8,1.9,5.7,4,7.6,5.2c1.5,1,4.5,2.9,6.1,3.7   c1,0.5,3,1.4,4.1,1.7c1.1,0.4,3.7,0.4,4.7,1.1c0.8,0.5,1.9,2.1,2.1,3c0.3,1-0.3,3.1-0.5,4.1c-0.1,1-0.5,2.9-0.6,3.8   c-0.1,1.2-0.4,3.6-0.1,4.8c0.3,1.4,1.7,4,2.5,5.2c1.1,1.8,3.8,5.1,5.1,6.8c1.6,2,4.6,6.2,6.3,8.2c1.5,1.7,4.5,5,6.2,6.6   c1.9,1.8,6.3,4.9,8.3,6.6c2,1.7,5.9,5.2,7.8,6.9c1.3,1.2,3.9,3.7,5.3,4.8c2.3,1.9,7.2,5.3,9.6,7c2,1.5,6,4.4,7.9,5.9   c1.1,0.9,2.8,2.4,4.4,3.9c-1.3,0.7-3.2,1.7-4.1,1.9c-1,0.2-3.1-0.3-4.1-0.1c-1.3,0.3-3.6,1.9-4.9,2.2c-0.7,0.2-2.3-0.2-3,0.1   c-1.6,0.6-3.7,3.4-4.9,4.6c-0.7,0.6-2.3,1.6-2.7,2.5c-0.6,1.4-0.3,5.3-0.3,5.9s0.5,2.7,0.4,3.6c-0.2,1-1.1,2.9-1.9,3.5   c-1.2,0.9-4.5,0.9-5.9,1.2c-1.2,0.3-3.7,1.3-4.9,1.4c-1.3,0.1-4-0.2-5.2-0.7c-0.6-0.3-1.5-1.6-2.1-1.9c-1.5-0.6-5-0.6-6.7-0.4   c-1.4,0.2-3.8,1.6-5.2,1.9c-1.2,0.3-3.7-0.1-4.8,0.4c-1.2,0.5-2.8,3-4,3.6c-0.8,0.4-2.7,0.5-3.6,0.9c-1.4,0.6-4.5,1.9-5.1,3.3   c-0.3,0.7,0,2.4,0.5,3c0.6,0.7,2.5,1.1,3.3,1.6c1.1,0.7,3,2.6,4.2,3.2c1.2,0.6,4,0.9,4.9,1.9c0.6,0.7,1,2.6,1,3.5   c0,1.1-1.7,2.9-1.5,4c0.4,1.5,4.1,2.8,4.7,4.2c0.4,0.8,0.6,2.9,0,3.6c-0.8,0.8-3.3-0.1-4.5,0c-1.2,0.1-3.7,0.1-4.6,0.9   c-1,0.9-1.1,3.8-1.6,4.9c-0.3,0.8-1.3,2.1-1.6,2.8c-0.6,1.4-1.5,4.2-1.7,5.7c-0.1,0.8-0.1,2.1-0.1,3.2c-1.6,0.2-3.9,1.1-5.2,1.1   c-1.9,0-6.9-1.1-7.4-1.1c-0.5,0-5.3,0.1-6.6-1c-0.9-0.8-1-3.5-1.6-4.6c-0.9-1.6-3.5-4.2-4.9-5.3c-1.1-0.8-3.6-1.9-4.7-2.7   c-1.3-1-3.6-3.4-4.5-4.8c-1.2-1.9-3.4-6.1-3.5-8.4c-0.1-1.6,2.1-4.5,2.1-6.2c0-2.7-1.8-8.3-3.6-10.4c-1-1.1-3.7-2.6-5.2-2.6   c-1.1,0-3.3,1.1-4,2c-0.9,1.2-0.6,4.6-1.1,6.1c-0.5,1.4-1.3,4.6-2.6,5.3c-0.6,0.4-2.2-0.4-2.8-0.1c-1.2,0.5-2.7,2.7-3.3,3.8   c-0.9,1.6-0.6,5.8-2,6.9c-1.6,1.3-6.4,1.1-8.4,0.5c-2.1-0.6-5.8-3.4-7.2-5.2c-1.1-1.5-2-5.2-2.7-6.9c-0.6-1.3-2.1-3.9-2.5-5.3   c-0.4-1.9-0.3-5.8-0.1-7.7c0.1-1.4,1.4-4.1,1.1-5.4c-0.3-1.7-2.4-5-4-5.8c-1.1-0.6-3.7,0.2-4.8-0.1c-1.5-0.5-4.5-2.8-5.2-3.3   c-0.7-0.5-4.2-7.3-5.3-9.9c-0.9-2.2-2.9-6.6-3.2-8.9c-0.4-3,0.8-9,1.2-12c0.3-2.5,1.8-7.5,1.7-10   C599.5,786,599.1,783.1,598.3,781.8L598.3,781.8z" data-stroke-width="0.2" style="stroke-width: 0.2;" class=" " id="quang-tri"></path>
	<path fill="#FDBDC4" stroke="#474747" stroke-width="0.2" d="M699.7,889.6c0-1.1,0-2.5,0.1-3.3c0.2-1.5,1.1-4.3,1.7-5.7   c0.3-0.8,1.3-2.1,1.6-2.8c0.5-1.2,0.6-4.1,1.6-4.9c0.9-0.8,3.4-0.8,4.6-0.9c1.1-0.1,3.7,0.8,4.5,0c0.6-0.6,0.4-2.8,0-3.6   c-0.6-1.4-4.3-2.7-4.7-4.2c-0.3-1,1.4-2.9,1.5-4c0-0.9-0.4-2.8-1-3.5c-0.9-1-3.8-1.2-4.9-1.9c-1.2-0.6-3.1-2.5-4.2-3.2   c-0.8-0.5-2.8-0.9-3.3-1.6c-0.4-0.6-0.8-2.3-0.5-3c0.6-1.4,3.7-2.7,5.1-3.3c0.8-0.4,2.8-0.4,3.6-0.9c1.2-0.6,2.7-3.1,4-3.6   c1.1-0.5,3.6-0.1,4.8-0.4c1.3-0.3,3.8-1.7,5.2-1.9c1.7-0.2,5.1-0.3,6.7,0.4c0.6,0.3,1.5,1.6,2.1,1.9c1.2,0.6,3.9,0.8,5.2,0.7   c1.3-0.1,3.7-1.1,4.9-1.4c1.5-0.4,4.7-0.3,5.9-1.2c0.8-0.6,1.7-2.5,1.9-3.5c0.2-0.9-0.4-3-0.4-3.6c0-0.6-0.4-4.6,0.3-5.9   c0.4-0.8,2-1.8,2.7-2.5c1.2-1.1,3.4-3.9,4.9-4.6c0.7-0.3,2.2,0,3-0.1c1.3-0.3,3.6-2,4.9-2.2c1-0.2,3.1,0.3,4.1,0.1   c0.9-0.2,2.9-1.2,4.1-1.9c1.6,1.5,3.2,2.9,4.3,3.8c2.4,1.9,7.7,5.3,10.1,7.2c1.6,1.2,4.4,4,6.1,5.2c1.2,0.8,3.8,2.3,5.1,3   c1.7,0.9,5.2,2.5,6.9,3.3c1.6,0.8,4.9,2.1,6.4,3c1.6,0.9,4.4,3.5,6.1,4.5c1.5,0.9,4.9,2.1,6.4,3.1c1,0.6,2.8,2.2,3.7,3   c1.6,1.3,4.6,3.9,6.2,5.2c2,1.6,6.3,4.7,8.3,6.4c1.4,1.3,3.9,4.2,5.3,5.4c1.5,1.4,4.8,3.8,6.4,5.1c1.4,1.2,4,3.8,5.6,4.8   c1,0.7,3.6,1.1,4.2,2.1c0.2,0.4,0.4,1.6,0,1.9c-0.8,0.7-3.2-0.6-4.3-0.7c-0.8-0.1-2.5,0.2-3.3,0c-1.1-0.3-3.1-1.6-4-2.4   c-0.8-0.8-1.8-2.9-2.6-3.7c-0.6-0.7-2-2-2.8-2.4c-0.8-0.3-2.6-0.1-3.3-0.5c-0.4-0.2-0.8-1.2-1.1-1.5c-0.6-0.6-2.1-1.3-2.7-1.9   c-0.7-0.7-1.6-2.5-2.2-3.3c-0.6-0.9-2.2-2.4-2.7-3.3c-0.5-0.8-1.1-2.8-1.6-3.6c-0.6-0.9-1.9-2.5-2.7-3.1c-0.9-0.7-3.3-1.3-4.2-2.1   c-0.8-0.7-1.6-2.8-2.4-3.5c-1.2-1-4.4-2-5.8-2.7c-1.1-0.5-3.3-1.5-4.3-2.1c-1-0.6-2.8-1.8-3.7-2.5c-0.5-0.4-1.4-1.6-2-2   c-0.7-0.4-2.3-0.7-3.1-1c-0.8-0.3-2.4-0.9-3.2-1.2c-1.1-0.5-3.1-1.6-4.2-2c-1.1-0.4-3.4-0.8-4.5-1.4c-1.2-0.6-3.2-2.7-4.3-3.5   c-0.6-0.4-1.8-1-2.4-1.5c-0.8-0.7-2.1-2.3-3-3c-1.2-1-3.7-2.7-5.2-3.2c-0.9-0.3-3-0.5-4-0.4c-1,0.2-3.4,0.6-3.7,1.6   c-0.3,1,1.4,2.7,2.1,3.5c0.7,0.7,2.4,1.8,3.3,2.1c0.9,0.3,2.8-0.3,3.6,0c0.7,0.3,1.9,1.5,2.2,2.2c0.4,0.9-0.2,3.2,0.5,3.8   c0.5,0.5,2.1-0.2,2.8-0.1c1,0.1,2.9,0.8,3.8,1c1,0.2,3.2,0.1,4.1,0.6c0.4,0.3,0.8,1.3,1.2,1.6c0.6,0.5,2.4,0.7,2.6,1.4   c0.2,0.6-0.9,1.8-1.4,2.2c-0.6,0.6-2.5,0.9-3,1.6c-0.4,0.6,0.2,2.4-0.4,2.8c-0.9,0.8-3.9-0.8-4.7,0c-0.6,0.6,0,3,0,3.5   s1.3,1.4,1.9,1.6c0.9,0.4,2.8,1.3,3.8,1.2c0.6-0.1,1.9-0.7,2.2-1.2c0.3-0.6-0.2-2.1-0.3-2.8c-0.1-1-0.9-3.4-0.3-4.2   c0.7-0.9,3.4-1.3,4.5-1c1,0.3,2.5,1.9,3,2.8c0.3,0.6-0.2,2,0.3,2.5c0.5,0.4,2-0.2,2.6,0.1c0.8,0.4,1.5,2.3,2.1,3   c0.6,0.7,2.2,1.9,2.5,2.8c0.2,0.6-0.3,1.9-0.2,2.6c0.1,0.9,0.1,3,0.9,3.5c0.6,0.4,2.3,0,3-0.4c0.6-0.4,1.2-1.6,1.5-2.2   c0.3-0.5,0.6-1.6,0.7-2.1c0.2-0.7-0.3-2.4,0.3-2.8c0.3-0.3,1.3,0.2,1.7,0c0.7-0.3,1.3-1.8,2-2.1c0.6-0.2,1.9-0.2,2.5,0   c0.8,0.3,2.2,1.5,2.7,2.2c0.7,1,1.2,3.5,2,4.5c0.6,0.7,2.3,1.4,3,2c0.4,0.4,1.1,1.4,1.5,1.9c0.9,1.1,2.7,3.4,3.7,4.3   c0.9,0.8,3.6,1.7,4.1,2.8c0.3,0.7-0.1,2.4-0.6,3c-0.5,0.6-2.3,0.6-2.7,1.2c-0.5,0.7-0.1,2.6-0.4,3.5c-0.2,0.4-0.8,1.1-1,1.5   c-0.2,0.7-0.6,2.4-0.2,3.1c0.6,1.2,3.3,2.5,4.6,3.1c0.7,0.3,2.4,0.5,3.1,0.9c1.4,0.8,3.4,3.6,4.6,4.7c1.1,1,3.3,3.1,4.7,3.8   c0.7,0.3,2.2,0.5,2.8,0.7c1.1,0.4,3,2,4.2,2.1c0.9,0.1,2.6-0.6,3.3-1c0.9-0.4,2.5-1.8,3.3-2.3c0.4-0.3,1.6-0.4,1.9-0.9   c0.6-1,0-3.5,0-4.7c0-0.9-0.6-2.8-0.2-3.6c0.2-0.4,1-1,1.5-1.1c0.3-0.1,1.1-0.2,1.5-0.1c1.4,0.5,3.1,3.2,4.3,4   c0.7,0.4,2.3,1.1,3.1,1.2c1.3,0.3,3.9,0.6,5.2,0.2c0.6-0.2,1.6-0.9,2-1.4c0.6-0.7,0.5-2.9,1.4-3.2c0.4-0.2,1.3,0.4,1.6,0.7   c0.6,0.8,0.7,3,1,4c0.4,1.2,1.5,3.5,2.1,4.6c0.8,1.5,2.6,4.3,3.6,5.7c0.8,1.1,2.7,3.1,3.7,4.1c1.1,1.2,3.2,3.9,4.7,4.6   c1,0.5,3.3,0.5,4.5,0.4c0.8-0.1,2.4-1,3.2-0.9c1,0.1,2.5,1.7,3.5,1.9c0.8,0.1,2.6-0.8,3.3-0.5c0.7,0.3,2.2,1.7,2,2.5   c-0.3,0.9-2.6,0.9-3.5,1.1c-0.8,0.2-2.7,0.1-3.3,0.7c-0.1,0.1-0.2,0.2-0.2,0.4c-0.7-0.2-1.6-0.2-2-0.2c-1.6,0.1-4.3,2.1-5.8,2.2   c-0.9,0.1-2.6-0.8-3.5-0.9c-1.3,0-3.7,0.7-4.9,0.9c-0.9,0.1-2.6,0.5-3.5,0.3c-0.5-0.1-1.2-0.9-1.6-1.2c-1.1-0.8-3.1-2.7-4.5-2.8   c-0.7-0.1-2.3,0.9-2.7,1c-0.4,0.1-3.7-0.4-4.9-0.4c-1.3,0-4.6,0.4-5.2,0.5c-0.6,0.1-3.7,0.4-4.8,0.1c-1.3-0.4-3.2-2.3-4.5-2.7   c-1.1-0.4-3.6-1.4-4.7-0.9c-0.7,0.4-0.9,2.2-1.4,2.8c-0.4,0.7-1.7,1.8-2,2.6c-0.3,0.9,0.1,3-0.1,4c-0.2,1.1-1.3,3.1-1.6,4.2   c-0.3,0.9-0.5,2.9-0.7,3.8c-0.4,1.2-1,3.8-2,4.7c-0.4,0.4-1.7,0.4-2.2,0.7c-0.9,0.6-2.1,2.2-2.7,3.1c-0.5,0.7-0.2,3.2,0,4.1   c-0.1,0-0.2,0-0.2-0.1c-0.6-0.2-1.1-1.7-1.7-2c-1.2-0.6-4.2-1.3-5.4-0.6c-1,0.5-1.3,3.2-2.1,4c-0.8,0.7-3.1,1.4-4.2,1.5   c-1.1,0.1-3.4-0.4-4.5-0.6c-1-0.2-3-1.4-4-1.1c-0.8,0.2-1.5,2-2.1,2.5c-1,0.7-3.3,2-4.6,2c-1.3,0-3.6-1.8-4.9-2   c-1.1-0.2-3.6,1-4.5,0.4c-1.1-0.8-0.3-4.3-1.2-5.3c-0.5-0.5-1.9-0.9-2.6-0.9c-1.4,0.2-3.5,2.4-4.8,3c-0.8,0.4-2.8,0.3-3.3,1   c-0.6,0.8,0.1,3-0.1,4c-0.2,0.9-0.8,3-1.6,3.5c-0.7,0.4-2.4-0.4-3.1-0.1c-1.3,0.5-2.8,3.1-4.1,3.6c-0.9,0.4-3.1,0.5-4,0.1   c-0.9-0.4-1.7-2.5-2.5-3.1c-0.7-0.5-2.8-0.6-3.9-1.1c0.2-1,0.3-1.9,0.3-2.6c0.1-1.3-0.1-4-0.5-5.2c-0.4-1.2-1.5-3.5-2.5-4.2   c-1-0.7-3.6-0.7-4.8-0.6c-2.6,0.2-7.5,2.6-10.1,3c-2.3,0.3-7,0.6-9.1-0.1c-1.5-0.5-4.2-2.7-5.2-4c-1-1.2-1.5-4.5-2.4-5.8   c-1.1-1.6-4.1-4.4-5.8-5.3c-1.3-0.7-4.2-1.4-5.7-1.6c-1.5-0.2-4.7,0.5-6.2,0c-1.7-0.6-4.6-2.8-5.7-4.2c-1-1.3-2.6-4.4-2.7-6.1   c-0.1-1.6,1.5-4.5,1.5-6.1c0-1.3-0.5-3.9-1.1-5.1c-1-2-3.9-5.4-5.7-6.7c-1.5-1.1-5.1-2.8-6.9-3   C700.4,889.6,700.1,889.6,699.7,889.6L699.7,889.6z" data-stroke-width="0.2" style="stroke-width: 0.2;" class=" " id="thua-thien-hue"></path>
</g>
<path style="pointer-events: none;" fill="#0A0A0A" d="M341.3,171.2V162h-3.5v-2.5h9.9v2.5h-3.6v9.2H341.3z M349.5,171.2v-12.4h2.6v5.3l-0.5,0.2  c0.1-0.4,0.3-0.8,0.7-1.1c0.3-0.3,0.7-0.6,1.2-0.8c0.4-0.2,0.9-0.3,1.4-0.3c0.7,0,1.2,0.1,1.7,0.4c0.5,0.3,0.8,0.7,1,1.2  c0.2,0.5,0.4,1.2,0.4,2v5.5h-2.7v-5.2c0-0.4-0.1-0.7-0.2-0.9c-0.1-0.2-0.3-0.4-0.5-0.5c-0.2-0.1-0.5-0.2-0.8-0.2  c-0.2,0-0.5,0-0.7,0.1c-0.2,0.1-0.4,0.2-0.5,0.3c-0.1,0.1-0.3,0.3-0.4,0.5c-0.1,0.2-0.1,0.4-0.1,0.6v5.3h-1.3c-0.3,0-0.6,0-0.8,0  C349.8,171.2,349.6,171.2,349.5,171.2L349.5,171.2z M363.4,171.3c-0.7,0-1.4-0.2-2-0.6c-0.6-0.4-1-0.9-1.4-1.6  c-0.3-0.7-0.5-1.5-0.5-2.4c0-0.9,0.2-1.7,0.5-2.4c0.3-0.7,0.8-1.2,1.4-1.6c0.6-0.4,1.3-0.6,2.1-0.6c0.4,0,0.8,0.1,1.2,0.2  c0.4,0.1,0.7,0.3,0.9,0.5c0.3,0.2,0.5,0.5,0.7,0.8c0.2,0.3,0.3,0.6,0.4,0.9l-0.6-0.1v-2.1h2.7v8.9H366V169l0.6,0  c-0.1,0.3-0.2,0.6-0.4,0.9c-0.2,0.3-0.4,0.5-0.7,0.7c-0.3,0.2-0.6,0.4-1,0.5C364.1,171.3,363.8,171.3,363.4,171.3L363.4,171.3z   M364.1,169.1c0.4,0,0.8-0.1,1.1-0.3s0.5-0.5,0.7-0.8c0.2-0.4,0.3-0.8,0.3-1.3c0-0.5-0.1-0.9-0.3-1.2c-0.2-0.4-0.4-0.6-0.7-0.8  c-0.3-0.2-0.7-0.3-1.1-0.3c-0.4,0-0.8,0.1-1.1,0.3c-0.3,0.2-0.5,0.5-0.7,0.8c-0.2,0.3-0.3,0.8-0.3,1.2c0,0.5,0.1,0.9,0.3,1.3  c0.2,0.3,0.4,0.6,0.7,0.8C363.3,169,363.7,169.1,364.1,169.1z M371.1,171.2v-8.9h2.5l0.1,1.8l-0.5,0.2c0.1-0.4,0.3-0.8,0.7-1.1  c0.3-0.3,0.7-0.6,1.2-0.8c0.4-0.2,0.9-0.3,1.4-0.3c0.7,0,1.2,0.1,1.7,0.4c0.5,0.3,0.8,0.7,1,1.2c0.2,0.5,0.4,1.2,0.4,2v5.5h-2.7  v-5.2c0-0.4-0.1-0.7-0.2-0.9s-0.3-0.4-0.5-0.5c-0.2-0.1-0.5-0.2-0.8-0.2c-0.2,0-0.5,0-0.7,0.1c-0.2,0.1-0.4,0.2-0.5,0.3  c-0.1,0.1-0.3,0.3-0.4,0.5c-0.1,0.2-0.1,0.4-0.1,0.6v5.3h-1.3c-0.3,0-0.6,0-0.8,0C371.4,171.2,371.3,171.2,371.1,171.2L371.1,171.2z   M381.7,171.2v-12.4h2.6v5.3l-0.5,0.2c0.1-0.4,0.3-0.8,0.7-1.1c0.3-0.3,0.7-0.6,1.2-0.8c0.4-0.2,0.9-0.3,1.4-0.3  c0.7,0,1.2,0.1,1.7,0.4c0.5,0.3,0.8,0.7,1,1.2c0.2,0.5,0.4,1.2,0.4,2v5.5h-2.7v-5.2c0-0.4-0.1-0.7-0.2-0.9c-0.1-0.2-0.3-0.4-0.5-0.5  c-0.2-0.1-0.5-0.2-0.8-0.2c-0.2,0-0.5,0-0.7,0.1c-0.2,0.1-0.4,0.2-0.5,0.3c-0.1,0.1-0.3,0.3-0.4,0.5c-0.1,0.2-0.1,0.4-0.1,0.6v5.3  h-1.3c-0.3,0-0.6,0-0.8,0C382.1,171.2,381.9,171.2,381.7,171.2L381.7,171.2z M405.3,171.2v-11.7h2.8v11.7H405.3z M398,171.2v-11.7  h2.8v11.7H398z M399.1,166.6l0-2.5h7.6v2.5H399.1z M414.9,171.4c-0.9,0-1.8-0.2-2.5-0.6c-0.7-0.4-1.3-0.9-1.7-1.6  c-0.4-0.7-0.6-1.5-0.6-2.4s0.2-1.7,0.6-2.4c0.4-0.7,1-1.2,1.7-1.6c0.7-0.4,1.6-0.6,2.5-0.6c0.9,0,1.7,0.2,2.5,0.6  c0.7,0.4,1.3,0.9,1.7,1.6c0.4,0.7,0.6,1.5,0.6,2.4s-0.2,1.7-0.6,2.4c-0.4,0.7-1,1.2-1.7,1.6C416.7,171.2,415.9,171.4,414.9,171.4z   M414.9,169c0.4,0,0.8-0.1,1.1-0.3c0.3-0.2,0.6-0.5,0.7-0.8c0.2-0.3,0.3-0.7,0.3-1.2c0-0.4-0.1-0.8-0.3-1.2  c-0.2-0.4-0.4-0.6-0.7-0.8c-0.3-0.2-0.7-0.3-1.1-0.3c-0.4,0-0.8,0.1-1.1,0.3c-0.3,0.2-0.6,0.5-0.7,0.8c-0.2,0.3-0.3,0.7-0.3,1.2  c0,0.4,0.1,0.8,0.3,1.2c0.2,0.3,0.4,0.6,0.7,0.8C414.2,168.9,414.5,169,414.9,169z M424.8,171.3c-0.7,0-1.4-0.2-2-0.6  c-0.6-0.4-1-0.9-1.4-1.6c-0.3-0.7-0.5-1.5-0.5-2.4c0-0.9,0.2-1.7,0.5-2.4c0.3-0.7,0.8-1.2,1.4-1.6c0.6-0.4,1.3-0.6,2.1-0.6  c0.4,0,0.8,0.1,1.2,0.2c0.4,0.1,0.7,0.3,0.9,0.5c0.3,0.2,0.5,0.5,0.7,0.8c0.2,0.3,0.3,0.6,0.4,0.9l-0.6-0.1v-2.1h2.7v8.9h-2.7V169  l0.6,0c-0.1,0.3-0.2,0.6-0.4,0.9s-0.4,0.5-0.7,0.7c-0.3,0.2-0.6,0.4-1,0.5C425.5,171.3,425.2,171.3,424.8,171.3L424.8,171.3z   M425.5,169.1c0.4,0,0.8-0.1,1.1-0.3s0.5-0.5,0.7-0.8c0.2-0.4,0.3-0.8,0.3-1.3c0-0.5-0.1-0.9-0.3-1.2c-0.2-0.4-0.4-0.6-0.7-0.8  c-0.3-0.2-0.7-0.3-1.1-0.3c-0.4,0-0.8,0.1-1.1,0.3c-0.3,0.2-0.5,0.5-0.7,0.8c-0.2,0.3-0.3,0.8-0.3,1.2c0,0.5,0.1,0.9,0.3,1.3  c0.2,0.3,0.4,0.6,0.7,0.8C424.7,169,425.1,169.1,425.5,169.1z M424.5,161.3l-0.8-1.2l3-2.4l1.2,1.8L424.5,161.3z"></path>
<path style="pointer-events: none;" fill="#0A0A0A" d="M253.7,324.6v-11.7h2.5l6.1,8.4l-0.6-0.1c-0.1-0.4-0.1-0.7-0.1-1.1c0-0.3-0.1-0.7-0.1-1c0-0.3,0-0.7-0.1-1  c0-0.3,0-0.7,0-1.1c0-0.4,0-0.8,0-1.3v-2.9h2.8v11.7h-2.6l-6.4-8.6l0.9,0.1c0.1,0.5,0.1,1,0.1,1.4c0,0.4,0.1,0.7,0.1,1  c0,0.3,0.1,0.6,0.1,0.8s0,0.5,0,0.7c0,0.2,0,0.5,0,0.8v3.9L253.7,324.6z M271,328.4c-0.7,0-1.5-0.1-2.2-0.3  c-0.7-0.2-1.3-0.5-1.7-0.8l0.9-1.9c0.2,0.2,0.5,0.3,0.8,0.4c0.3,0.1,0.6,0.2,0.9,0.3c0.3,0.1,0.6,0.1,1,0.1c0.6,0,1-0.1,1.4-0.3  c0.4-0.2,0.6-0.4,0.8-0.8c0.2-0.3,0.3-0.8,0.3-1.3v-1.5l0.5,0.1c-0.1,0.4-0.3,0.7-0.6,1c-0.3,0.3-0.7,0.5-1.1,0.7  c-0.4,0.2-0.9,0.3-1.4,0.3c-0.8,0-1.5-0.2-2.2-0.6c-0.6-0.4-1.1-0.9-1.5-1.6c-0.4-0.7-0.5-1.4-0.5-2.3c0-0.9,0.2-1.7,0.5-2.4  c0.4-0.7,0.8-1.2,1.5-1.6c0.6-0.4,1.3-0.6,2.1-0.6c0.3,0,0.7,0,1,0.1c0.3,0.1,0.6,0.2,0.9,0.3c0.3,0.1,0.5,0.3,0.7,0.5  c0.2,0.2,0.4,0.4,0.5,0.6c0.1,0.2,0.2,0.4,0.3,0.6l-0.6,0.1l0.1-2h2.5v8.2c0,0.7-0.1,1.4-0.3,1.9c-0.2,0.6-0.5,1-1,1.4  c-0.4,0.4-0.9,0.7-1.5,0.9S271.7,328.4,271,328.4L271,328.4z M271.1,322.4c0.4,0,0.8-0.1,1.1-0.3c0.3-0.2,0.6-0.5,0.7-0.8  c0.2-0.3,0.3-0.8,0.3-1.2c0-0.5-0.1-0.9-0.3-1.2c-0.2-0.4-0.4-0.6-0.7-0.8c-0.3-0.2-0.7-0.3-1.1-0.3c-0.4,0-0.8,0.1-1.1,0.3  c-0.3,0.2-0.6,0.5-0.7,0.8c-0.2,0.3-0.3,0.8-0.3,1.2c0,0.5,0.1,0.9,0.3,1.2c0.2,0.3,0.4,0.6,0.7,0.8  C270.3,322.4,270.6,322.4,271.1,322.4z M278.1,324.6v-12.4h2.6v5.3l-0.5,0.2c0.1-0.4,0.3-0.8,0.7-1.1c0.3-0.3,0.7-0.6,1.2-0.8  c0.4-0.2,0.9-0.3,1.4-0.3c0.7,0,1.2,0.1,1.7,0.4c0.5,0.3,0.8,0.7,1,1.2c0.2,0.5,0.4,1.2,0.4,2v5.5h-2.7v-5.2c0-0.4-0.1-0.7-0.2-0.9  c-0.1-0.2-0.3-0.4-0.5-0.5c-0.2-0.1-0.5-0.2-0.8-0.2c-0.2,0-0.5,0-0.7,0.1c-0.2,0.1-0.4,0.2-0.5,0.3c-0.1,0.1-0.3,0.3-0.4,0.5  c-0.1,0.2-0.1,0.4-0.1,0.6v5.3h-1.3c-0.3,0-0.6,0-0.8,0S278.3,324.6,278.1,324.6L278.1,324.6z M293,324.8c-1,0-1.8-0.2-2.6-0.6  c-0.7-0.4-1.3-0.9-1.7-1.6c-0.4-0.7-0.6-1.5-0.6-2.4c0-0.7,0.1-1.3,0.3-1.9c0.2-0.6,0.5-1.1,0.9-1.5c0.4-0.4,0.9-0.7,1.4-1  c0.6-0.2,1.2-0.4,1.8-0.4c0.6,0,1.2,0.1,1.7,0.3c0.5,0.2,1,0.5,1.4,0.9c0.4,0.4,0.7,0.9,0.9,1.4c0.2,0.5,0.3,1.1,0.3,1.8l0,0.7h-7.1  l-0.4-1.5h5.3l-0.3,0.3v-0.3c0-0.3-0.1-0.5-0.3-0.7c-0.1-0.2-0.3-0.4-0.6-0.5c-0.2-0.1-0.5-0.2-0.8-0.2c-0.4,0-0.8,0.1-1.1,0.3  c-0.3,0.2-0.5,0.4-0.7,0.8c-0.2,0.3-0.2,0.7-0.2,1.2c0,0.5,0.1,0.9,0.3,1.3c0.2,0.4,0.5,0.6,0.9,0.8c0.4,0.2,0.9,0.3,1.4,0.3  c0.4,0,0.7-0.1,1-0.2c0.3-0.1,0.6-0.3,1-0.6l1.3,1.8c-0.3,0.3-0.7,0.5-1.1,0.7s-0.8,0.3-1.2,0.4C293.8,324.7,293.4,324.8,293,324.8  L293,324.8z M293,328.3c-0.5,0-0.9-0.1-1.2-0.4c-0.3-0.2-0.4-0.6-0.4-1c0-0.4,0.1-0.8,0.4-1c0.3-0.3,0.7-0.4,1.2-0.4  c0.5,0,0.9,0.1,1.2,0.4c0.3,0.2,0.4,0.6,0.4,1.1c0,0.4-0.2,0.8-0.5,1C293.9,328.2,293.5,328.3,293,328.3L293,328.3z M290.4,314.5  l-1-0.8l2.4-2.2h1.6l2.4,2.2l-1,0.8l-2.5-1.4h0.5L290.4,314.5z M302.7,324.6l4.6-11.7h2.4l4.6,11.7h-2.9l-2.2-5.9  c-0.1-0.2-0.2-0.5-0.3-0.8c-0.1-0.3-0.2-0.5-0.3-0.8c-0.1-0.3-0.2-0.6-0.3-0.8c-0.1-0.3-0.1-0.5-0.2-0.8l0.5,0  c-0.1,0.3-0.1,0.6-0.2,0.8c-0.1,0.3-0.2,0.5-0.3,0.8c-0.1,0.3-0.2,0.5-0.3,0.8c-0.1,0.3-0.2,0.5-0.3,0.8l-2.2,5.9L302.7,324.6z   M304.9,322.3l0.9-2.1h5.4l0.9,2.1H304.9z M315.5,324.6v-8.9h2.5l0.1,1.8l-0.5,0.2c0.1-0.4,0.3-0.8,0.7-1.1c0.3-0.3,0.7-0.6,1.2-0.8  c0.4-0.2,0.9-0.3,1.4-0.3c0.7,0,1.2,0.1,1.7,0.4c0.5,0.3,0.8,0.7,1,1.2c0.2,0.5,0.4,1.2,0.4,2v5.5h-2.7v-5.2c0-0.4-0.1-0.7-0.2-0.9  c-0.1-0.2-0.3-0.4-0.5-0.5c-0.2-0.1-0.5-0.2-0.8-0.2c-0.2,0-0.5,0-0.7,0.1c-0.2,0.1-0.4,0.2-0.5,0.3c-0.1,0.1-0.3,0.3-0.4,0.5  c-0.1,0.2-0.1,0.4-0.1,0.6v5.3h-1.3c-0.3,0-0.6,0-0.8,0S315.7,324.6,315.5,324.6L315.5,324.6z"></path>
<path style="pointer-events: none;" fill="#0A0A0A" d="M406,501.7V490h2.8v11.7H406z M398.7,501.7V490h2.8v11.7H398.7z M399.9,497.1l0-2.5h7.6v2.5H399.9z   M414.8,501.9c-0.7,0-1.4-0.2-2-0.6c-0.6-0.4-1-0.9-1.4-1.6c-0.3-0.7-0.5-1.5-0.5-2.4c0-0.9,0.2-1.7,0.5-2.4  c0.3-0.7,0.8-1.2,1.4-1.6c0.6-0.4,1.3-0.6,2.1-0.6c0.4,0,0.8,0.1,1.2,0.2c0.4,0.1,0.7,0.3,0.9,0.5c0.3,0.2,0.5,0.5,0.7,0.8  c0.2,0.3,0.3,0.6,0.4,0.9l-0.6-0.1v-2.1h2.7v8.9h-2.7v-2.1l0.6,0c-0.1,0.3-0.2,0.6-0.4,0.9s-0.4,0.5-0.7,0.7c-0.3,0.2-0.6,0.4-1,0.5  C415.6,501.8,415.2,501.9,414.8,501.9L414.8,501.9z M415.5,499.6c0.4,0,0.8-0.1,1.1-0.3c0.3-0.2,0.5-0.5,0.7-0.8  c0.2-0.4,0.3-0.8,0.3-1.3s-0.1-0.9-0.3-1.2c-0.2-0.4-0.4-0.6-0.7-0.8c-0.3-0.2-0.7-0.3-1.1-0.3c-0.4,0-0.8,0.1-1.1,0.3  c-0.3,0.2-0.5,0.5-0.7,0.8c-0.2,0.3-0.3,0.8-0.3,1.2s0.1,0.9,0.3,1.3c0.2,0.3,0.4,0.6,0.7,0.8C414.8,499.5,415.1,499.6,415.5,499.6z   M416.8,491.8l-3.4-1.8l1.2-1.7l3,2.4L416.8,491.8z M430.7,501.7v-9.2h-3.5V490h9.9v2.5h-3.6v9.2H430.7z M438.7,501.7v-8.9h2.7v8.9  H438.7z M441.2,491.4c-0.2,0-0.4,0-0.6-0.1s-0.4-0.2-0.7-0.4c-0.2-0.2-0.3-0.3-0.5-0.3c-0.1-0.1-0.2-0.1-0.3-0.1  c-0.2,0-0.3,0.1-0.4,0.2c-0.1,0.1-0.2,0.3-0.2,0.6l-1.5-0.2c0-0.6,0.2-1.2,0.5-1.6s0.8-0.7,1.4-0.7c0.2,0,0.4,0,0.6,0.1  c0.2,0.1,0.4,0.2,0.7,0.4c0.1,0.1,0.3,0.2,0.4,0.3c0.1,0.1,0.3,0.1,0.4,0.1c0.2,0,0.3-0.1,0.4-0.2c0.1-0.1,0.2-0.3,0.2-0.6l1.5,0.2  c0,0.4-0.1,0.8-0.3,1.1c-0.2,0.3-0.4,0.6-0.7,0.8C441.9,491.3,441.6,491.4,441.2,491.4L441.2,491.4z M443.7,501.7v-8.9h2.5l0.1,1.8  l-0.5,0.2c0.1-0.4,0.3-0.8,0.7-1.1c0.3-0.3,0.7-0.6,1.2-0.8c0.4-0.2,0.9-0.3,1.4-0.3c0.7,0,1.2,0.1,1.7,0.4c0.5,0.3,0.8,0.7,1,1.2  c0.2,0.5,0.4,1.2,0.4,2v5.5h-2.7v-5.2c0-0.4-0.1-0.7-0.2-0.9s-0.3-0.4-0.5-0.5c-0.2-0.1-0.5-0.2-0.8-0.2c-0.2,0-0.5,0-0.7,0.1  c-0.2,0.1-0.4,0.2-0.5,0.3c-0.1,0.1-0.3,0.3-0.4,0.5c-0.1,0.2-0.1,0.4-0.1,0.6v5.3h-1.3c-0.3,0-0.6,0-0.8,0  C444,501.7,443.8,501.7,443.7,501.7L443.7,501.7z M454.3,501.7v-12.4h2.6v5.3l-0.5,0.2c0.1-0.4,0.3-0.8,0.7-1.1  c0.3-0.3,0.7-0.6,1.2-0.8c0.4-0.2,0.9-0.3,1.4-0.3c0.7,0,1.2,0.1,1.7,0.4c0.5,0.3,0.8,0.7,1,1.2c0.2,0.5,0.4,1.2,0.4,2v5.5H460v-5.2  c0-0.4-0.1-0.7-0.2-0.9s-0.3-0.4-0.5-0.5c-0.2-0.1-0.5-0.2-0.8-0.2c-0.2,0-0.5,0-0.7,0.1c-0.2,0.1-0.4,0.2-0.5,0.3  c-0.1,0.1-0.3,0.3-0.4,0.5c-0.1,0.2-0.1,0.4-0.1,0.6v5.3h-1.3c-0.3,0-0.6,0-0.8,0C454.7,501.7,454.5,501.7,454.3,501.7L454.3,501.7z  "></path>
<path style="pointer-events: none;" fill="#0A0A0A" d="M502.4,656.9l-4.5-6.1l2.1-1.5l4.4,6L502.4,656.9z M498.9,655.3c-0.9,0-1.7-0.2-2.4-0.5  c-0.7-0.3-1.4-0.7-1.9-1.3c-0.5-0.5-1-1.2-1.3-1.9c-0.3-0.7-0.5-1.5-0.5-2.4s0.2-1.7,0.5-2.4c0.3-0.7,0.7-1.4,1.3-1.9  c0.5-0.5,1.2-1,1.9-1.3c0.7-0.3,1.5-0.5,2.4-0.5c0.9,0,1.7,0.2,2.4,0.5c0.7,0.3,1.4,0.7,1.9,1.3c0.5,0.5,1,1.2,1.3,1.9  c0.3,0.7,0.5,1.5,0.5,2.4c0,0.9-0.2,1.7-0.5,2.4c-0.3,0.7-0.7,1.4-1.3,1.9c-0.5,0.5-1.2,1-1.9,1.3  C500.6,655.1,499.8,655.3,498.9,655.3z M498.9,652.6c0.5,0,0.9-0.1,1.3-0.3c0.4-0.2,0.7-0.4,1-0.7c0.3-0.3,0.5-0.7,0.7-1.1  s0.2-0.9,0.2-1.4s-0.1-0.9-0.2-1.4s-0.4-0.8-0.7-1.1c-0.3-0.3-0.6-0.6-1-0.7c-0.4-0.2-0.8-0.3-1.3-0.3s-0.9,0.1-1.3,0.3  c-0.4,0.2-0.7,0.4-1,0.7c-0.3,0.3-0.5,0.7-0.7,1.1c-0.1,0.4-0.2,0.9-0.2,1.4s0.1,0.9,0.2,1.4c0.2,0.4,0.4,0.8,0.7,1.1  c0.3,0.3,0.6,0.5,1,0.7C498,652.5,498.4,652.6,498.9,652.6z M509.9,655.3c-0.7,0-1.2-0.1-1.7-0.4c-0.5-0.3-0.8-0.7-1.1-1.2  c-0.2-0.5-0.4-1.2-0.4-1.9v-5.5h2.7v5.1c0,0.4,0.1,0.7,0.2,0.9c0.1,0.3,0.3,0.5,0.5,0.6c0.2,0.1,0.5,0.2,0.8,0.2  c0.2,0,0.4,0,0.6-0.1c0.2-0.1,0.4-0.2,0.5-0.3c0.1-0.1,0.3-0.3,0.3-0.5c0.1-0.2,0.1-0.4,0.1-0.6v-5.3h2.7v8.9h-2.5l-0.1-1.8l0.5-0.2  c-0.1,0.4-0.4,0.8-0.7,1.1c-0.3,0.3-0.7,0.6-1.1,0.8C510.9,655.2,510.4,655.3,509.9,655.3L509.9,655.3z M520.9,655.3  c-0.7,0-1.4-0.2-2-0.6c-0.6-0.4-1-0.9-1.4-1.6c-0.3-0.7-0.5-1.5-0.5-2.4c0-0.9,0.2-1.7,0.5-2.4c0.3-0.7,0.8-1.2,1.4-1.6  c0.6-0.4,1.3-0.6,2.1-0.6c0.4,0,0.8,0.1,1.2,0.2c0.4,0.1,0.7,0.3,0.9,0.5c0.3,0.2,0.5,0.5,0.7,0.8c0.2,0.3,0.3,0.6,0.4,0.9l-0.6-0.1  v-2.1h2.7v8.9h-2.7V653l0.6,0c-0.1,0.3-0.2,0.6-0.4,0.9c-0.2,0.3-0.4,0.5-0.7,0.7c-0.3,0.2-0.6,0.4-1,0.5  C521.7,655.2,521.3,655.3,520.9,655.3L520.9,655.3z M521.6,653c0.4,0,0.8-0.1,1.1-0.3c0.3-0.2,0.5-0.5,0.7-0.8  c0.2-0.4,0.3-0.8,0.3-1.3s-0.1-0.9-0.3-1.2c-0.2-0.4-0.4-0.6-0.7-0.8c-0.3-0.2-0.7-0.3-1.1-0.3c-0.4,0-0.8,0.1-1.1,0.3  c-0.3,0.2-0.5,0.5-0.7,0.8c-0.2,0.3-0.3,0.8-0.3,1.2s0.1,0.9,0.3,1.3c0.2,0.3,0.4,0.6,0.7,0.8C520.9,652.9,521.2,653,521.6,653z   M521.5,645.2c-0.1-0.1-0.2-0.2-0.2-0.3c-0.1-0.1-0.1-0.3-0.1-0.4c0-0.1,0-0.3,0.1-0.4c0.1-0.1,0.2-0.3,0.4-0.4  c0.2-0.1,0.3-0.2,0.4-0.3c0.1-0.1,0.1-0.2,0.1-0.3c0-0.1-0.1-0.2-0.2-0.2c-0.1-0.1-0.2-0.1-0.4-0.1c-0.2,0-0.5,0-0.7,0.1  c-0.2,0.1-0.5,0.2-0.7,0.3l-0.4-1.4c0.2-0.1,0.5-0.3,0.9-0.4c0.4-0.1,0.7-0.2,1.1-0.2c0.6,0,1.1,0.1,1.5,0.4  c0.4,0.3,0.6,0.6,0.6,1.1c0,0.4-0.1,0.6-0.2,0.8s-0.3,0.3-0.5,0.5c-0.2,0.1-0.3,0.2-0.5,0.3c-0.1,0.1-0.2,0.2-0.2,0.3  c0,0,0,0.1,0,0.1c0,0,0,0.1,0,0.1L521.5,645.2z M528.6,655.1v-8.9h2.5l0.1,1.8l-0.5,0.2c0.1-0.4,0.3-0.8,0.7-1.1  c0.3-0.3,0.7-0.6,1.2-0.8s0.9-0.3,1.4-0.3c0.7,0,1.2,0.1,1.7,0.4c0.5,0.3,0.8,0.7,1,1.2c0.2,0.5,0.4,1.2,0.4,2v5.5h-2.7v-5.2  c0-0.4-0.1-0.7-0.2-0.9s-0.3-0.4-0.5-0.5c-0.2-0.1-0.5-0.2-0.8-0.2c-0.2,0-0.5,0-0.7,0.1c-0.2,0.1-0.4,0.2-0.5,0.3  c-0.1,0.1-0.3,0.3-0.4,0.5c-0.1,0.2-0.1,0.4-0.1,0.6v5.3H530c-0.3,0-0.6,0-0.8,0S528.8,655.1,528.6,655.1L528.6,655.1z M543.3,659  c-0.7,0-1.5-0.1-2.2-0.3c-0.7-0.2-1.3-0.5-1.7-0.8l0.9-1.9c0.2,0.2,0.5,0.3,0.8,0.4c0.3,0.1,0.6,0.2,0.9,0.3c0.3,0.1,0.6,0.1,1,0.1  c0.6,0,1-0.1,1.4-0.3c0.4-0.2,0.6-0.4,0.8-0.8c0.2-0.3,0.3-0.8,0.3-1.3v-1.5l0.5,0.1c-0.1,0.4-0.3,0.7-0.6,1  c-0.3,0.3-0.7,0.5-1.1,0.7c-0.4,0.2-0.9,0.3-1.4,0.3c-0.8,0-1.5-0.2-2.2-0.6c-0.6-0.4-1.1-0.9-1.5-1.6c-0.4-0.7-0.5-1.4-0.5-2.3  c0-0.9,0.2-1.7,0.5-2.4c0.4-0.7,0.8-1.2,1.5-1.6c0.6-0.4,1.3-0.6,2.1-0.6c0.3,0,0.7,0,1,0.1c0.3,0.1,0.6,0.2,0.9,0.3  c0.3,0.1,0.5,0.3,0.7,0.5c0.2,0.2,0.4,0.4,0.5,0.6c0.1,0.2,0.2,0.4,0.3,0.6l-0.6,0.1l0.1-2h2.5v8.2c0,0.7-0.1,1.4-0.3,1.9  c-0.2,0.6-0.5,1-1,1.4c-0.4,0.4-0.9,0.7-1.5,0.9C544.7,658.9,544.1,659,543.3,659L543.3,659z M543.4,653c0.4,0,0.8-0.1,1.1-0.3  c0.3-0.2,0.6-0.5,0.7-0.8c0.2-0.3,0.3-0.8,0.3-1.2c0-0.5-0.1-0.9-0.3-1.2c-0.2-0.4-0.4-0.6-0.7-0.8c-0.3-0.2-0.7-0.3-1.1-0.3  c-0.4,0-0.8,0.1-1.1,0.3c-0.3,0.2-0.6,0.5-0.7,0.8c-0.2,0.3-0.3,0.8-0.3,1.2c0,0.5,0.1,0.9,0.3,1.2c0.2,0.3,0.4,0.6,0.7,0.8  C542.6,652.9,543,653,543.4,653z M556.1,655.1v-11.7h5.2c0.8,0,1.5,0.1,2,0.4c0.6,0.2,1,0.6,1.3,1c0.3,0.4,0.4,0.9,0.4,1.5  c0,0.7-0.2,1.2-0.5,1.7c-0.3,0.5-0.8,0.8-1.4,0.9l0-0.3c0.5,0.1,1,0.3,1.4,0.6c0.4,0.3,0.7,0.6,0.9,1c0.2,0.4,0.3,0.9,0.3,1.4  c0,0.6-0.1,1.1-0.3,1.6c-0.2,0.4-0.5,0.8-0.9,1.1s-0.8,0.5-1.3,0.7c-0.5,0.1-1.1,0.2-1.7,0.2L556.1,655.1z M558.8,652.7h2.6  c0.3,0,0.6-0.1,0.8-0.2c0.2-0.1,0.4-0.2,0.5-0.4c0.1-0.2,0.2-0.4,0.2-0.7c0-0.3-0.1-0.5-0.2-0.7c-0.1-0.2-0.3-0.3-0.5-0.4  c-0.2-0.1-0.5-0.2-0.8-0.2h-2.5L558.8,652.7z M558.8,648.1h2.1c0.3,0,0.5,0,0.7-0.1c0.2-0.1,0.4-0.2,0.5-0.4  c0.1-0.2,0.2-0.4,0.2-0.6c0-0.4-0.1-0.6-0.4-0.8c-0.2-0.2-0.6-0.3-1.1-0.3h-2V648.1z M567.4,655.1v-8.9h2.7v8.9H567.4z M569.8,645.2  l-3.4-1.8l1.2-1.7l3,2.4L569.8,645.2z M572.4,655.1v-8.9h2.5l0.1,1.8l-0.5,0.2c0.1-0.4,0.3-0.8,0.7-1.1c0.3-0.3,0.7-0.6,1.2-0.8  s0.9-0.3,1.4-0.3c0.7,0,1.2,0.1,1.7,0.4c0.5,0.3,0.8,0.7,1,1.2c0.2,0.5,0.4,1.2,0.4,2v5.5h-2.7v-5.2c0-0.4-0.1-0.7-0.2-0.9  s-0.3-0.4-0.5-0.5c-0.2-0.1-0.5-0.2-0.8-0.2c-0.2,0-0.5,0-0.7,0.1c-0.2,0.1-0.4,0.2-0.5,0.3c-0.1,0.1-0.3,0.3-0.4,0.5  c-0.1,0.2-0.1,0.4-0.1,0.6v5.3h-1.3c-0.3,0-0.6,0-0.8,0S572.5,655.1,572.4,655.1L572.4,655.1z M583,655.1v-12.4h2.6v5.3l-0.5,0.2  c0.1-0.4,0.3-0.8,0.7-1.1c0.3-0.3,0.7-0.6,1.2-0.8s0.9-0.3,1.4-0.3c0.7,0,1.2,0.1,1.7,0.4c0.5,0.3,0.8,0.7,1,1.2  c0.2,0.5,0.4,1.2,0.4,2v5.5h-2.7v-5.2c0-0.4-0.1-0.7-0.2-0.9s-0.3-0.4-0.5-0.5c-0.2-0.1-0.5-0.2-0.8-0.2c-0.2,0-0.5,0-0.7,0.1  c-0.2,0.1-0.4,0.2-0.5,0.3c-0.1,0.1-0.3,0.3-0.4,0.5c-0.1,0.2-0.1,0.4-0.1,0.6v5.3h-1.3c-0.3,0-0.6,0-0.8,0S583.2,655.1,583,655.1  L583,655.1z"></path>
<path style="pointer-events: none;" fill="#0A0A0A" d="M630.7,804.8l-4.5-6.1l2.1-1.5l4.4,6L630.7,804.8z M627.2,803.1c-0.9,0-1.7-0.2-2.4-0.5  c-0.7-0.3-1.4-0.7-1.9-1.3s-1-1.2-1.3-1.9s-0.5-1.5-0.5-2.4s0.2-1.7,0.5-2.4c0.3-0.7,0.7-1.4,1.3-1.9c0.5-0.5,1.2-1,1.9-1.3  c0.7-0.3,1.5-0.5,2.4-0.5c0.9,0,1.7,0.2,2.4,0.5c0.7,0.3,1.4,0.7,1.9,1.3s1,1.2,1.3,1.9c0.3,0.7,0.5,1.5,0.5,2.4  c0,0.9-0.2,1.7-0.5,2.4c-0.3,0.7-0.7,1.4-1.3,1.9c-0.5,0.5-1.2,1-1.9,1.3C628.9,803,628.1,803.1,627.2,803.1z M627.2,800.4  c0.5,0,0.9-0.1,1.3-0.3c0.4-0.2,0.7-0.4,1-0.7c0.3-0.3,0.5-0.7,0.7-1.1c0.2-0.4,0.2-0.9,0.2-1.4c0-0.5-0.1-0.9-0.2-1.4  s-0.4-0.8-0.7-1.1c-0.3-0.3-0.6-0.6-1-0.7c-0.4-0.2-0.8-0.3-1.3-0.3c-0.5,0-0.9,0.1-1.3,0.3c-0.4,0.2-0.7,0.4-1,0.7  c-0.3,0.3-0.5,0.7-0.7,1.1c-0.1,0.4-0.2,0.9-0.2,1.4c0,0.5,0.1,0.9,0.2,1.4c0.2,0.4,0.4,0.8,0.7,1.1c0.3,0.3,0.6,0.5,1,0.7  C626.3,800.3,626.7,800.4,627.2,800.4z M638.2,803.1c-0.7,0-1.2-0.1-1.7-0.4c-0.5-0.3-0.8-0.7-1.1-1.2c-0.2-0.5-0.4-1.2-0.4-1.9V794  h2.7v5.1c0,0.4,0.1,0.7,0.2,0.9c0.1,0.3,0.3,0.5,0.5,0.6c0.2,0.1,0.5,0.2,0.8,0.2c0.2,0,0.4,0,0.6-0.1c0.2-0.1,0.4-0.2,0.5-0.3  c0.1-0.1,0.3-0.3,0.3-0.5c0.1-0.2,0.1-0.4,0.1-0.6V794h2.7v8.9H641l-0.1-1.8l0.5-0.2c-0.1,0.4-0.4,0.8-0.7,1.1  c-0.3,0.3-0.7,0.6-1.1,0.8C639.2,803,638.7,803.1,638.2,803.1L638.2,803.1z M649.2,803.1c-0.7,0-1.4-0.2-2-0.6  c-0.6-0.4-1-0.9-1.4-1.6c-0.3-0.7-0.5-1.5-0.5-2.4c0-0.9,0.2-1.7,0.5-2.4c0.3-0.7,0.8-1.2,1.4-1.6c0.6-0.4,1.3-0.6,2.1-0.6  c0.4,0,0.8,0.1,1.2,0.2c0.4,0.1,0.7,0.3,0.9,0.5c0.3,0.2,0.5,0.5,0.7,0.8c0.2,0.3,0.3,0.6,0.4,0.9l-0.6-0.1V794h2.7v8.9h-2.7v-2.1  l0.6,0c-0.1,0.3-0.2,0.6-0.4,0.9c-0.2,0.3-0.4,0.5-0.7,0.7c-0.3,0.2-0.6,0.4-1,0.5S649.6,803.1,649.2,803.1L649.2,803.1z   M649.9,800.8c0.4,0,0.8-0.1,1.1-0.3c0.3-0.2,0.5-0.5,0.7-0.8c0.2-0.4,0.3-0.8,0.3-1.3c0-0.5-0.1-0.9-0.3-1.2  c-0.2-0.4-0.4-0.6-0.7-0.8c-0.3-0.2-0.7-0.3-1.1-0.3c-0.4,0-0.8,0.1-1.1,0.3c-0.3,0.2-0.5,0.5-0.7,0.8c-0.2,0.3-0.3,0.8-0.3,1.2  c0,0.5,0.1,0.9,0.3,1.3c0.2,0.3,0.4,0.6,0.7,0.8C649.2,800.7,649.5,800.8,649.9,800.8z M649.8,793c-0.1-0.1-0.2-0.2-0.2-0.3  c-0.1-0.1-0.1-0.3-0.1-0.4c0-0.1,0-0.3,0.1-0.4c0.1-0.1,0.2-0.3,0.4-0.4c0.2-0.1,0.3-0.2,0.4-0.3c0.1-0.1,0.1-0.2,0.1-0.3  c0-0.1-0.1-0.2-0.2-0.2c-0.1-0.1-0.2-0.1-0.4-0.1c-0.2,0-0.5,0-0.7,0.1c-0.2,0.1-0.5,0.2-0.7,0.3l-0.4-1.4c0.2-0.1,0.5-0.3,0.9-0.4  c0.4-0.1,0.7-0.2,1.1-0.2c0.6,0,1.1,0.1,1.5,0.4c0.4,0.3,0.6,0.6,0.6,1.1c0,0.4-0.1,0.6-0.2,0.8s-0.3,0.3-0.5,0.5  c-0.2,0.1-0.3,0.2-0.5,0.3c-0.1,0.1-0.2,0.2-0.2,0.3c0,0,0,0.1,0,0.1c0,0,0,0.1,0,0.1L649.8,793z M656.9,802.9V794h2.5l0.1,1.8  l-0.5,0.2c0.1-0.4,0.3-0.8,0.7-1.1c0.3-0.3,0.7-0.6,1.2-0.8c0.4-0.2,0.9-0.3,1.4-0.3c0.7,0,1.2,0.1,1.7,0.4c0.5,0.3,0.8,0.7,1,1.2  c0.2,0.5,0.4,1.2,0.4,2v5.5h-2.7v-5.2c0-0.4-0.1-0.7-0.2-0.9c-0.1-0.2-0.3-0.4-0.5-0.5c-0.2-0.1-0.5-0.2-0.8-0.2  c-0.2,0-0.5,0-0.7,0.1c-0.2,0.1-0.4,0.2-0.5,0.3c-0.1,0.1-0.3,0.3-0.4,0.5c-0.1,0.2-0.1,0.4-0.1,0.6v5.3h-1.3c-0.3,0-0.6,0-0.8,0  S657.1,802.9,656.9,802.9L656.9,802.9z M671.6,806.8c-0.7,0-1.5-0.1-2.2-0.3c-0.7-0.2-1.3-0.5-1.7-0.8l0.9-1.9  c0.2,0.2,0.5,0.3,0.8,0.4c0.3,0.1,0.6,0.2,0.9,0.3s0.6,0.1,1,0.1c0.6,0,1-0.1,1.4-0.3c0.4-0.2,0.6-0.4,0.8-0.8  c0.2-0.3,0.3-0.8,0.3-1.3v-1.5l0.5,0.1c-0.1,0.4-0.3,0.7-0.6,1c-0.3,0.3-0.7,0.5-1.1,0.7c-0.4,0.2-0.9,0.3-1.4,0.3  c-0.8,0-1.5-0.2-2.2-0.6c-0.6-0.4-1.1-0.9-1.5-1.6c-0.4-0.7-0.5-1.4-0.5-2.3c0-0.9,0.2-1.7,0.5-2.4c0.4-0.7,0.8-1.2,1.5-1.6  c0.6-0.4,1.3-0.6,2.1-0.6c0.3,0,0.7,0,1,0.1c0.3,0.1,0.6,0.2,0.9,0.3c0.3,0.1,0.5,0.3,0.7,0.5c0.2,0.2,0.4,0.4,0.5,0.6  c0.1,0.2,0.2,0.4,0.3,0.6l-0.6,0.1l0.1-2h2.5v8.2c0,0.7-0.1,1.4-0.3,1.9c-0.2,0.6-0.5,1-1,1.4c-0.4,0.4-0.9,0.7-1.5,0.9  C673.1,806.7,672.4,806.8,671.6,806.8L671.6,806.8z M671.7,800.8c0.4,0,0.8-0.1,1.1-0.3c0.3-0.2,0.6-0.5,0.7-0.8  c0.2-0.3,0.3-0.8,0.3-1.2s-0.1-0.9-0.3-1.2c-0.2-0.4-0.4-0.6-0.7-0.8c-0.3-0.2-0.7-0.3-1.1-0.3c-0.4,0-0.8,0.1-1.1,0.3  c-0.3,0.2-0.6,0.5-0.7,0.8c-0.2,0.3-0.3,0.8-0.3,1.2s0.1,0.9,0.3,1.2c0.2,0.3,0.4,0.6,0.7,0.8C670.9,800.7,671.3,800.8,671.7,800.8z   M687,802.9v-9.2h-3.5v-2.5h9.9v2.5h-3.6v9.2H687z M694.1,802.9V794h2.5l0.1,2.9l-0.5-0.6c0.1-0.5,0.4-0.9,0.7-1.3  c0.3-0.4,0.7-0.7,1.1-0.9c0.4-0.2,0.9-0.3,1.3-0.3c0.2,0,0.4,0,0.6,0.1c0.2,0,0.3,0.1,0.5,0.1l-0.7,3c-0.1-0.1-0.3-0.1-0.5-0.2  c-0.2-0.1-0.4-0.1-0.6-0.1c-0.2,0-0.5,0-0.7,0.1c-0.2,0.1-0.4,0.2-0.5,0.4c-0.1,0.2-0.3,0.3-0.4,0.6c-0.1,0.2-0.1,0.5-0.1,0.7v4.5  H694.1z M701.9,802.9V794h2.7v8.9H701.9z M703.2,792.3c-0.5,0-0.9-0.1-1.2-0.4c-0.3-0.2-0.4-0.6-0.4-1c0-0.4,0.1-0.7,0.4-1  c0.3-0.3,0.7-0.4,1.2-0.4c0.5,0,0.9,0.1,1.2,0.4c0.3,0.2,0.4,0.6,0.4,1c0,0.4-0.1,0.7-0.4,1C704.1,792.2,703.7,792.3,703.2,792.3  L703.2,792.3z M703.2,806.7c-0.5,0-0.9-0.1-1.2-0.4c-0.3-0.2-0.4-0.6-0.4-1c0-0.4,0.1-0.8,0.4-1c0.3-0.3,0.7-0.4,1.2-0.4  c0.5,0,0.9,0.1,1.2,0.4c0.3,0.2,0.4,0.6,0.4,1.1c0,0.4-0.2,0.8-0.5,1C704.1,806.5,703.7,806.7,703.2,806.7L703.2,806.7z"></path>
<path style="pointer-events: none;" fill="#0A0A0A" d="M731.8,900.6v-9.2h-3.5v-2.5h9.9v2.5h-3.6v9.2H731.8z M739.9,900.6v-12.4h2.6v5.3l-0.5,0.2  c0.1-0.4,0.3-0.8,0.7-1.1c0.3-0.3,0.7-0.6,1.2-0.8s0.9-0.3,1.4-0.3c0.7,0,1.2,0.1,1.7,0.4c0.5,0.3,0.8,0.7,1,1.2  c0.2,0.5,0.4,1.2,0.4,2v5.5h-2.7v-5.2c0-0.4-0.1-0.7-0.2-0.9c-0.1-0.2-0.3-0.4-0.5-0.5c-0.2-0.1-0.5-0.2-0.8-0.2  c-0.2,0-0.5,0-0.7,0.1c-0.2,0.1-0.4,0.2-0.5,0.3c-0.1,0.1-0.3,0.3-0.4,0.5c-0.1,0.2-0.1,0.4-0.1,0.6v5.3h-1.3c-0.3,0-0.6,0-0.8,0  C740.3,900.6,740.1,900.6,739.9,900.6L739.9,900.6z M753.6,900.7c-0.7,0-1.2-0.1-1.7-0.4c-0.5-0.3-0.8-0.7-1.1-1.2  c-0.2-0.5-0.4-1.2-0.4-1.9v-5.5h2.7v5.1c0,0.4,0.1,0.7,0.2,0.9c0.1,0.3,0.3,0.5,0.5,0.6c0.2,0.1,0.5,0.2,0.8,0.2  c0.2,0,0.4,0,0.6-0.1c0.2-0.1,0.4-0.2,0.5-0.3c0.1-0.1,0.3-0.3,0.3-0.5c0.1-0.2,0.1-0.4,0.1-0.6v-5.3c0.5,0,0.8,0,1.1-0.1  c0.3-0.1,0.5-0.2,0.7-0.3c0.2-0.2,0.3-0.4,0.4-0.6c0.1-0.2,0.1-0.5,0.1-0.9h2c0,0.5-0.1,1-0.3,1.5c-0.2,0.4-0.4,0.8-0.7,1.1  c-0.3,0.3-0.8,0.5-1.3,0.5l0.6-0.7v8.4h-2.5l-0.1-1.9l0.3,0.4c-0.2,0.3-0.4,0.6-0.7,0.9c-0.3,0.3-0.6,0.5-1,0.6  C754.4,900.7,754,900.7,753.6,900.7L753.6,900.7z M755.7,890.7l-3.4-1.8l1.2-1.7l3,2.4L755.7,890.7z M764.6,900.7  c-0.7,0-1.4-0.2-2-0.6c-0.6-0.4-1-0.9-1.4-1.6c-0.3-0.7-0.5-1.5-0.5-2.4c0-0.9,0.2-1.7,0.5-2.4c0.3-0.7,0.8-1.2,1.4-1.6  c0.6-0.4,1.3-0.6,2.1-0.6c0.4,0,0.8,0.1,1.2,0.2c0.4,0.1,0.7,0.3,0.9,0.5c0.3,0.2,0.5,0.5,0.7,0.8c0.2,0.3,0.3,0.6,0.4,0.9l-0.6-0.1  v-2.1h2.7v8.9h-2.7v-2.1l0.6,0c-0.1,0.3-0.2,0.6-0.4,0.9s-0.4,0.5-0.7,0.7c-0.3,0.2-0.6,0.4-1,0.5S765,900.7,764.6,900.7  L764.6,900.7z M765.3,898.4c0.4,0,0.8-0.1,1.1-0.3c0.3-0.2,0.5-0.5,0.7-0.8c0.2-0.4,0.3-0.8,0.3-1.3s-0.1-0.9-0.3-1.2  c-0.2-0.4-0.4-0.6-0.7-0.8c-0.3-0.2-0.7-0.3-1.1-0.3c-0.4,0-0.8,0.1-1.1,0.3c-0.3,0.2-0.5,0.5-0.7,0.8c-0.2,0.3-0.3,0.8-0.3,1.2  s0.1,0.9,0.3,1.3c0.2,0.3,0.4,0.6,0.7,0.8C764.6,898.4,764.9,898.4,765.3,898.4z M780.5,900.6v-9.2H777v-2.5h9.9v2.5h-3.6v9.2H780.5  z M788.7,900.6v-12.4h2.6v5.3l-0.5,0.2c0.1-0.4,0.3-0.8,0.7-1.1c0.3-0.3,0.7-0.6,1.2-0.8c0.4-0.2,0.9-0.3,1.4-0.3  c0.7,0,1.2,0.1,1.7,0.4c0.5,0.3,0.8,0.7,1,1.2c0.2,0.5,0.4,1.2,0.4,2v5.5h-2.7v-5.2c0-0.4-0.1-0.7-0.2-0.9s-0.3-0.4-0.5-0.5  c-0.2-0.1-0.5-0.2-0.8-0.2c-0.2,0-0.5,0-0.7,0.1c-0.2,0.1-0.4,0.2-0.5,0.3c-0.1,0.1-0.3,0.3-0.4,0.5c-0.1,0.2-0.1,0.4-0.1,0.6v5.3  H790c-0.3,0-0.6,0-0.8,0C789,900.6,788.8,900.6,788.7,900.6L788.7,900.6z M799.4,900.6v-8.9h2.7v8.9H799.4z M800.8,889.9  c-0.5,0-0.9-0.1-1.2-0.4c-0.3-0.2-0.4-0.6-0.4-1c0-0.4,0.1-0.7,0.4-1c0.3-0.3,0.7-0.4,1.2-0.4c0.5,0,0.9,0.1,1.2,0.4  c0.3,0.2,0.4,0.6,0.4,1c0,0.4-0.1,0.7-0.4,1C801.7,889.8,801.3,889.9,800.8,889.9L800.8,889.9z M808.9,900.7c-1,0-1.8-0.2-2.6-0.6  c-0.7-0.4-1.3-0.9-1.7-1.6c-0.4-0.7-0.6-1.5-0.6-2.4c0-0.7,0.1-1.3,0.3-1.9s0.5-1.1,0.9-1.5c0.4-0.4,0.9-0.7,1.4-1  c0.6-0.2,1.2-0.4,1.8-0.4c0.6,0,1.2,0.1,1.7,0.3c0.5,0.2,1,0.5,1.4,0.9s0.7,0.9,0.9,1.4c0.2,0.5,0.3,1.1,0.3,1.8l0,0.7h-7.1  l-0.4-1.5h5.3l-0.3,0.3v-0.3c0-0.3-0.1-0.5-0.3-0.7c-0.1-0.2-0.3-0.4-0.6-0.5c-0.2-0.1-0.5-0.2-0.8-0.2c-0.4,0-0.8,0.1-1.1,0.3  c-0.3,0.2-0.5,0.4-0.7,0.8c-0.2,0.3-0.2,0.7-0.2,1.2c0,0.5,0.1,0.9,0.3,1.3c0.2,0.4,0.5,0.6,0.9,0.8c0.4,0.2,0.9,0.3,1.4,0.3  c0.4,0,0.7-0.1,1-0.2c0.3-0.1,0.6-0.3,1-0.6l1.3,1.8c-0.3,0.3-0.7,0.5-1.1,0.7c-0.4,0.2-0.8,0.3-1.2,0.4  C809.7,900.7,809.3,900.7,808.9,900.7L808.9,900.7z M806.3,890.5l-1-0.8l2.4-2.2h1.6l2.4,2.2l-1,0.8l-2.5-1.4h0.5L806.3,890.5z   M814.4,900.6v-8.9h2.5l0.1,1.8l-0.5,0.2c0.1-0.4,0.3-0.8,0.7-1.1c0.3-0.3,0.7-0.6,1.2-0.8c0.4-0.2,0.9-0.3,1.4-0.3  c0.7,0,1.2,0.1,1.7,0.4c0.5,0.3,0.8,0.7,1,1.2c0.2,0.5,0.4,1.2,0.4,2v5.5h-2.7v-5.2c0-0.4-0.1-0.7-0.2-0.9s-0.3-0.4-0.5-0.5  c-0.2-0.1-0.5-0.2-0.8-0.2c-0.2,0-0.5,0-0.7,0.1c-0.2,0.1-0.4,0.2-0.5,0.3c-0.1,0.1-0.3,0.3-0.4,0.5c-0.1,0.2-0.1,0.4-0.1,0.6v5.3  h-1.3c-0.3,0-0.6,0-0.8,0C814.8,900.6,814.6,900.6,814.4,900.6L814.4,900.6z M838,900.6v-11.7h2.8v11.7H838z M830.7,900.6v-11.7h2.8  v11.7H830.7z M831.8,896l0-2.5h7.6v2.5H831.8z M846.5,900.7c-0.7,0-1.2-0.1-1.7-0.4c-0.5-0.3-0.8-0.7-1.1-1.2  c-0.2-0.5-0.4-1.2-0.4-1.9v-5.5h2.7v5.1c0,0.4,0.1,0.7,0.2,0.9c0.1,0.3,0.3,0.5,0.5,0.6c0.2,0.1,0.5,0.2,0.8,0.2  c0.2,0,0.4,0,0.6-0.1c0.2-0.1,0.4-0.2,0.5-0.3c0.1-0.1,0.3-0.3,0.3-0.5c0.1-0.2,0.1-0.4,0.1-0.6v-5.3h2.7v8.9h-2.5l-0.1-1.8l0.5-0.2  c-0.1,0.4-0.4,0.8-0.7,1.1c-0.3,0.3-0.7,0.6-1.1,0.8C847.4,900.6,847,900.7,846.5,900.7z M858.4,900.7c-1,0-1.8-0.2-2.6-0.6  c-0.7-0.4-1.3-0.9-1.7-1.6c-0.4-0.7-0.6-1.5-0.6-2.4c0-0.7,0.1-1.3,0.3-1.9s0.5-1.1,0.9-1.5c0.4-0.4,0.9-0.7,1.4-1  c0.6-0.2,1.2-0.4,1.8-0.4c0.6,0,1.2,0.1,1.7,0.3c0.5,0.2,1,0.5,1.4,0.9s0.7,0.9,0.9,1.4c0.2,0.5,0.3,1.1,0.3,1.8l0,0.7h-7.1  l-0.4-1.5h5.3l-0.3,0.3v-0.3c0-0.3-0.1-0.5-0.3-0.7c-0.1-0.2-0.3-0.4-0.6-0.5c-0.2-0.1-0.5-0.2-0.8-0.2c-0.4,0-0.8,0.1-1.1,0.3  c-0.3,0.2-0.5,0.4-0.7,0.8c-0.2,0.3-0.2,0.7-0.2,1.2c0,0.5,0.1,0.9,0.3,1.3c0.2,0.4,0.5,0.6,0.9,0.8c0.4,0.2,0.9,0.3,1.4,0.3  c0.4,0,0.7-0.1,1-0.2c0.3-0.1,0.6-0.3,1-0.6l1.3,1.8c-0.3,0.3-0.7,0.5-1.1,0.7c-0.4,0.2-0.8,0.3-1.2,0.4  C859.2,900.7,858.8,900.7,858.4,900.7L858.4,900.7z M855.9,890.5l-0.8-0.9l2.2-1.8h1.6l2.2,1.8l-0.8,0.9l-2.5-1.1h0.5L855.9,890.5z   M861.3,887.9l-1.1-0.8l1.6-2.7l1.7,1.2L861.3,887.9z"></path>
</svg>