<svg xmlns="http://www.w3.org/2000/svg" xmlns:xlink="http://www.w3.org/1999/xlink" version="1.1" id="Layer_1" x="0px" y="0px" viewBox="0 0 1000 1000" enable-background="new 0 0 1000 1000" xml:space="preserve" preserveAspectRatio="xMidYMid meet" style="width: 1000px;">
<path fill="#FDBDC4" stroke="#474747" stroke-width="0.5" d="M 817.3 560 C 812.1999999999999 559.9 804.8 559.3 802.4 557.2 C 801.1 556.1 801.9 551.3000000000001 800.3 550.9000000000001 C 794.9 549.4000000000001 791.6999999999999 563.9000000000001 786.3 562.5000000000001 C 783.5999999999999 561.8000000000001 782.6999999999999 555.8000000000001 780 555.1000000000001 C 777.2 554.4000000000001 773.4 560.6000000000001 771.6 562.8000000000002 C 770.5 564.1000000000001 769.7 568.0000000000002 768.1 568.4000000000002 C 764.7 569.2000000000002 759.6 561.4000000000002 756.2 561.4000000000002 C 753.8000000000001 561.4000000000002 749.9000000000001 565.2000000000002 747.8000000000001 566.3000000000002 C 745.4000000000001 567.6000000000001 738.9000000000001 569.1000000000001 736.2 568.4000000000002 C 730.3000000000001 566.8000000000002 729.3000000000001 554.8000000000002 724.6 550.9000000000002 C 721 547.8000000000002 710.3000000000001 546.7000000000002 707 543.2000000000002 C 704.2 540.2000000000002 704 530.9000000000002 701.4 527.8000000000002 C 699 524.9000000000002 691 523.0000000000002 688.8 520.1000000000001 C 687.5 518.4000000000001 686.0999999999999 515.2000000000002 685.1999999999999 512.1000000000001 C 685.4999999999999 512.0000000000001 685.6999999999999 511.8000000000001 685.9999999999999 511.70000000000016 C 688.4999999999999 510.3000000000002 691.1999999999999 504.60000000000014 693.6999999999999 503.3000000000002 C 697.9 501.1000000000002 708.1999999999999 503.00000000000017 712.5999999999999 501.20000000000016 C 714.9999999999999 500.20000000000016 718.6999999999999 496.10000000000014 720.9999999999999 494.90000000000015 C 726.0999999999999 492.3000000000001 738.3999999999999 491.60000000000014 742.7999999999998 487.90000000000015 C 744.8999999999999 486.10000000000014 747.1999999999998 480.8000000000001 747.6999999999998 478.10000000000014 C 748.3999999999999 474.8000000000001 748.0999999999998 467.90000000000015 746.9999999999998 464.8000000000001 C 745.9999999999998 462.0000000000001 739.3999999999997 457.90000000000015 739.9999999999998 455.0000000000001 C 740.4999999999998 452.10000000000014 749.1999999999998 451.5000000000001 749.7999999999997 448.7000000000001 C 750.4999999999998 445.5000000000001 743.9999999999998 440.5000000000001 742.7999999999997 437.5000000000001 C 741.5999999999997 434.5000000000001 737.6999999999997 427.10000000000014 739.9999999999998 424.9000000000001 C 744.1999999999998 420.7000000000001 757.1999999999998 431.0000000000001 763.1999999999998 430.5000000000001 C 766.5999999999998 430.2000000000001 774.3999999999999 428.0000000000001 775.7999999999998 424.9000000000001 C 777.5999999999998 420.80000000000007 770.4999999999999 412.5000000000001 770.1999999999998 408.1000000000001 C 769.9999999999998 404.30000000000007 770.0999999999998 395.7000000000001 772.9999999999998 393.4000000000001 C 777.3999999999997 389.9000000000001 789.9999999999998 395.30000000000007 795.4999999999998 394.1000000000001 C 797.7999999999997 393.6000000000001 802.3999999999997 391.7000000000001 803.8999999999997 389.9000000000001 C 805.7999999999997 387.7000000000001 807.0999999999998 381.6000000000001 807.3999999999997 378.7000000000001 C 808.0999999999998 372.6000000000001 805.5999999999998 360.3000000000001 805.2999999999997 354.1000000000001 C 805.1999999999997 351.4000000000001 806.0999999999997 346.00000000000006 805.3999999999997 343.2000000000001 C 807.1999999999997 343.0000000000001 808.7999999999997 342.7000000000001 809.7999999999997 342.8000000000001 C 811.8999999999997 343.0000000000001 816.2999999999997 343.0000000000001 818.1999999999997 343.90000000000015 C 820.5999999999997 345.00000000000017 823.6999999999997 350.20000000000016 826.2999999999997 350.90000000000015 C 828.7999999999997 351.60000000000014 833.8999999999997 349.20000000000016 836.4999999999998 348.8000000000001 C 839.9999999999998 348.2000000000001 847.0999999999998 346.2000000000001 850.4999999999998 347.0000000000001 C 853.2999999999997 347.7000000000001 857.2999999999997 352.3000000000001 859.9999999999998 353.3000000000001 C 864.1999999999998 354.90000000000015 874.3999999999997 353.0000000000001 877.8999999999997 355.8000000000001 C 879.1999999999997 356.90000000000015 879.1999999999997 360.90000000000015 880.3999999999997 362.10000000000014 C 882.9999999999998 364.8000000000001 892.4999999999998 364.70000000000016 894.0999999999998 368.10000000000014 C 894.9999999999998 370.0000000000001 891.4999999999998 374.10000000000014 891.5999999999998 376.20000000000016 C 891.6999999999998 378.50000000000017 894.7999999999998 382.40000000000015 895.3999999999997 385.00000000000017 C 893.9999999999998 384.3000000000002 892.5999999999998 384.00000000000017 891.9999999999998 384.70000000000016 C 890.5999999999998 386.00000000000017 895.1999999999998 389.8000000000002 895.1999999999998 391.70000000000016 C 895.1999999999998 393.70000000000016 892.1999999999998 397.10000000000014 891.6999999999998 399.10000000000014 C 891.1999999999998 400.90000000000015 892.0999999999998 405.0000000000001 890.9999999999998 406.5000000000001 C 889.2999999999997 408.9000000000001 881.3999999999997 408.7000000000001 880.4999999999998 411.4000000000001 C 879.7999999999997 413.6000000000001 883.6999999999998 417.5000000000001 884.6999999999998 419.5000000000001 C 885.7999999999998 421.5000000000001 889.5999999999998 425.4000000000001 888.8999999999999 427.60000000000014 C 888.4999999999999 428.8000000000001 885.5999999999999 429.60000000000014 884.2999999999998 429.70000000000016 C 882.3999999999999 429.8000000000002 878.8999999999999 428.20000000000016 877.2999999999998 427.20000000000016 C 875.4999999999999 426.10000000000014 873.2999999999998 422.3000000000002 871.2999999999998 421.60000000000014 C 868.5999999999998 420.70000000000016 862.7999999999998 422.0000000000001 860.0999999999998 422.70000000000016 C 858.0999999999998 423.20000000000016 852.3999999999997 423.50000000000017 852.3999999999997 425.50000000000017 C 852.3999999999997 427.90000000000015 858.7999999999997 428.6000000000002 861.1999999999997 429.00000000000017 C 863.4999999999997 429.40000000000015 868.4999999999997 427.70000000000016 870.6999999999997 428.70000000000016 C 872.0999999999997 429.40000000000015 873.2999999999997 432.70000000000016 874.5999999999997 433.60000000000014 C 876.6999999999997 435.3000000000001 882.9999999999997 435.90000000000015 884.3999999999996 438.20000000000016 C 885.6999999999996 440.3000000000002 882.7999999999996 445.90000000000015 884.0999999999997 448.00000000000017 C 885.0999999999997 449.8000000000002 890.2999999999997 450.1000000000002 891.4999999999997 451.90000000000015 C 892.6999999999997 453.60000000000014 892.9999999999997 458.3000000000001 892.1999999999997 460.3000000000001 C 891.1999999999997 463.0000000000001 883.5999999999997 465.5000000000001 883.7999999999997 468.40000000000015 C 883.8999999999997 469.90000000000015 888.0999999999997 470.8000000000001 888.6999999999997 472.20000000000016 C 889.6999999999997 474.60000000000014 886.5999999999997 480.3000000000002 887.5999999999997 482.70000000000016 C 888.6999999999997 485.3000000000002 893.8999999999996 488.40000000000015 896.3999999999996 489.70000000000016 C 898.4999999999997 490.8000000000002 903.5999999999997 491.10000000000014 905.4999999999997 492.50000000000017 C 907.1999999999997 493.8000000000002 910.3999999999996 497.40000000000015 910.3999999999996 499.50000000000017 C 910.4999999999997 501.70000000000016 907.5999999999997 505.6000000000002 905.7999999999996 506.90000000000015 C 903.0999999999996 508.90000000000015 896.1999999999996 510.10000000000014 892.7999999999996 510.40000000000015 C 891.1999999999996 510.60000000000014 887.8999999999996 509.40000000000015 886.4999999999997 510.00000000000017 C 882.5999999999997 511.6000000000002 879.1999999999997 521.1000000000001 875.2999999999996 522.6000000000001 C 873.0999999999996 523.4000000000001 868.3999999999996 521.1000000000001 866.1999999999996 521.5000000000001 C 863.9999999999995 522.0000000000001 858.7999999999996 523.9000000000001 858.4999999999995 526.1000000000001 C 858.2999999999995 527.3000000000002 861.4999999999995 528.4000000000001 861.6999999999996 529.6000000000001 C 861.8999999999996 531.7000000000002 858.5999999999996 535.1000000000001 857.4999999999995 537.0000000000001 C 856.0999999999996 539.3000000000001 854.0999999999996 544.6000000000001 851.8999999999995 546.1000000000001 C 850.0999999999996 547.3000000000002 845.1999999999995 546.7000000000002 843.0999999999996 547.5000000000001 C 840.0999999999996 548.7000000000002 835.5999999999996 553.9000000000001 832.5999999999996 554.9000000000001 C 830.9999999999995 555.4000000000001 827.4999999999995 554.5000000000001 825.8999999999995 554.9000000000001 C 823.7999999999995 555.4000000000001 819.2999999999995 557.3000000000001 818.1999999999995 559.1000000000001 C 817.6 559 817.4 559.5 817.3 560 Z" data-stroke-width="0.5" style="stroke-width: 0.5; fill: rgb(253, 189, 196); stroke: rgb(71, 71, 71);" class="[object SVGAnimatedString]  " id="hai-phong" title="Hải Phòng"></path>
<path fill="#FDBDC4" stroke="#474747" stroke-width="0.5" d="M 480.8 685.5919896640827 C 474.90000000000003 684.2919896640827 469.7 682.5919896640827 468.90000000000003 682.5919896640827 C 467.3 682.5919896640827 468.00000000000006 666.0919896640827 463.6 664.1919896640827 C 459.20000000000005 662.2919896640827 451.5 671.8919896640828 447.3 674.1919896640827 C 443.7 676.1919896640827 436.7 681.4919896640827 432.6 681.5919896640827 C 426.8 681.6919896640827 417.3 672.3919896640826 411.5 672.0919896640827 C 407.9 671.8919896640826 403 673.5919896640827 398 675.6919896640827 C 397.9 671.6919896640827 397.6 666.5919896640827 396.6 663.8919896640828 C 395.20000000000005 660.2919896640827 390.6 653.5919896640828 387.5 651.2919896640827 C 382.3 647.2919896640827 366.3 647.7919896640827 362.9 642.1919896640827 C 361 638.9919896640827 365.4 631.1919896640827 365 627.4919896640827 C 364.7 624.8919896640826 362.4 620.0919896640827 361.5 617.6919896640827 C 359.9 613.5919896640827 357.7 605.2919896640827 354.9 600.8919896640828 C 356.79999999999995 599.8919896640828 360.7 599.3919896640828 361.5 597.9919896640828 C 363.1 595.2919896640827 360.7 588.3919896640828 361.5 585.3919896640828 C 362.4 582.0919896640828 367.6 576.7919896640827 368.5 573.4919896640828 C 369.5 569.7919896640827 367.4 561.7919896640827 368.5 558.0919896640828 C 369.4 554.8919896640828 374.4 549.9919896640828 375.5 546.8919896640828 C 376.5 544.0919896640828 374.6 536.8919896640828 376.9 534.9919896640828 C 380.59999999999997 531.7919896640827 391.7 536.2919896640827 396.59999999999997 535.6919896640828 C 402.7 534.9919896640828 414.29999999999995 528.9919896640828 420.49999999999994 529.3919896640829 C 423.8999999999999 529.5919896640829 429.79999999999995 534.0919896640829 433.09999999999997 534.2919896640828 C 438.9 534.6919896640828 450.29999999999995 531.1919896640828 455.59999999999997 528.6919896640828 C 458.4 527.3919896640829 462.7 522.3919896640829 465.49999999999994 521.0919896640828 C 467.09999999999997 520.3919896640828 469.8999999999999 519.6919896640828 472.99999999999994 519.0919896640828 C 474.8999999999999 521.1919896640828 476.8999999999999 524.4919896640828 478.79999999999995 525.1919896640828 C 481.9 526.4919896640828 489.29999999999995 523.3919896640829 492.09999999999997 525.1919896640828 C 495.29999999999995 527.2919896640828 497.9 535.3919896640829 498.4 539.1919896640828 C 499 543.7919896640828 494.59999999999997 552.8919896640829 495.59999999999997 557.4919896640828 C 496.2 560.3919896640828 499.2 566.1919896640828 501.9 567.2919896640827 C 509.7 570.4919896640828 528 565.0919896640827 534.9 560.2919896640827 C 537.8 558.2919896640827 539.8 550.5919896640827 542.6 548.3919896640828 C 546.2 545.4919896640828 555.5 541.2919896640827 560.2 542.0919896640828 C 562.2 542.3919896640828 565.5 544.0919896640828 568 546.1919896640828 C 567.2 547.4919896640828 566.6 548.8919896640829 566.5 549.7919896640828 C 566.1 553.3919896640829 572.2 559.4919896640829 572.1 563.0919896640828 C 572 568.7919896640828 562.6 577.7919896640828 562.3000000000001 583.3919896640828 C 562.1 587.4919896640828 566.8000000000001 594.8919896640828 567.9000000000001 598.7919896640827 C 568.9000000000001 602.1919896640827 569.6000000000001 609.3919896640828 570.7 612.7919896640827 C 572 616.9919896640828 577.4000000000001 624.4919896640828 577.7 628.8919896640828 C 577.9000000000001 631.6919896640827 575.4000000000001 636.5919896640828 574.5 640.0919896640828 L 574.5 640.0919896640828 C 571.3 640.7919896640828 567.9 641.6919896640828 565.7 641.6919896640828 C 561.9000000000001 641.6919896640828 554.3000000000001 640.6919896640828 551 639.0919896640828 C 547.6 637.4919896640828 543.7 628.7919896640828 539.9 629.0919896640828 C 537.6 629.2919896640828 535.9 634.8919896640828 534.1 636.4919896640828 C 530.9 639.3919896640828 523.5 644.3919896640828 519.4 645.4919896640828 C 515.1 646.5919896640828 504.79999999999995 641.4919896640828 501.5 644.3919896640828 C 499.1 646.4919896640828 501 654.8919896640828 501 656.9919896640828 C 501 659.0919896640828 489.1 664.7919896640827 488.4 669.0919896640828 C 487.59999999999997 673.6919896640828 500.79999999999995 680.8919896640828 498.4 684.8919896640828 C 496.4 688.1919896640827 488.1 687.1919896640827 480.8 685.5919896640827 Z" data-stroke-width="0.5" style="stroke-width: 0.5; fill: rgb(253, 189, 196); stroke: rgb(71, 71, 71);" class="[object SVGAnimatedString]  " id="ha-nam" title="Hà Nam"></path>
<path fill="#FDBDC4" stroke="#474747" stroke-width="0.5" d="M473,517.4c-0.7-0.7-1.3-1.3-1.9-1.6c-3.5-1.6-12.5,1.1-15.4-1.4  c-3-2.6-3.8-11.5-3.5-15.4c0.3-3.8,5.4-10.3,5.6-14c0.2-2.7-0.8-8.7-2.8-10.5c-2-1.7-8-0.6-10.5-1.4c-5.3-1.6-16.7-5.2-19.7-9.8  c-2-3.1-2.4-11.5-0.7-14.7c1.7-3.4,10.7-5.1,12.6-8.4c2.2-3.6,2.9-12.9,1.4-16.8c-0.6-1.6-4.2-3.4-4.9-4.9  c-1.2-2.4,0.4-8.6-1.4-10.5c-2.8-3.2-9-4.9-15.5-6c0-3.8,0.4-8.2,2.2-10c2.7-2.8,12.3-0.1,15.3-2.6c2.8-2.4,3.4-10.3,4.7-13.7  c1.2-3.1,2.6-10.1,5.3-12.1c2.7-2.1,10.7-0.3,13.7-2.1c2.6-1.5,4.6-8.4,7.4-9.5c1.9-0.7,6.2,2.6,7.9,1.6c1.5-0.9,2.6-4.3,3.3-7.5  c2.2,2.3,4.6,7.4,7.1,8.5c6.6,3,21.8,1.2,28.8-0.7c2.1-0.6,5.5-4.2,7.7-4.2c3.5-0.1,9.2,5.4,12.6,6.3c2.7,0.7,8.5,0.2,11.2,0.7  c6.8,1.2,19.7,8.3,26.7,7.7c5.2-0.4,13.1-6.6,19.2-9.7c-1,5.1-3.6,11.8-5.2,15.3c-0.9,2.1-4.3,5.5-4.9,7.7c-1.2,4.2,2,13.6,0,17.6  c-2.3,4.5-11.8,9.4-16.2,11.9c-1.8,1.1-6.3,1.9-7.7,3.5c-3.1,3.4-3.1,13.7-5.6,17.6c-1.3,2-6.4,4-7,6.3c-1.4,5.6,4.6,16.9,7.7,21.8  c3.2,4.9,12.4,12.4,16.8,16.1c4.3,3.6,12.9,11.6,18.3,13.3c3.3,1.1,11.2,0,14,0.7c2.8,0.7,7.8,10.2,11.2,12.6  c2.2,1.5,8.4,1.1,10.5,2.8c2.3,1.9,3.3,8.6,5.6,10.5c2.3,1.9,9.4,1.2,11.2,3.5c0.6,0.7,0.8,2,0.8,3.5c-3.2,0-6.3,0.2-7.9,1.5  c-1.9,1.5-1.7,7.5-3.5,9.1c-5.4,4.8-22.7,2.2-28.1,7c-1.8,1.6-1.4,7.9-3.5,9.1c-2.8,1.8-10.1-0.6-13.3-1.4c-2.8-0.7-7.8-5-10.5-4.2  c-1.4,0.4-3,2.2-4.1,4.1c-2.5-2.1-5.8-3.8-7.8-4.1c-4.6-0.8-13.9,3.4-17.6,6.3c-2.8,2.2-4.8,9.9-7.7,11.9c-6.9,4.8-25.2,10.3-33,7  c-2.7-1.1-5.7-7-6.3-9.8c-1-4.5,3.4-13.7,2.8-18.3c-0.5-3.8-3.1-11.9-6.3-14c-2.8-1.8-10.2,1.3-13.3,0  C476.9,522.8,474.9,519.5,473,517.4z" data-stroke-width="0.5" style="stroke-width: 0.5; fill: rgb(253, 189, 196); stroke: rgb(71, 71, 71);" class="[object SVGAnimatedString] " id="hung-yen" title="Hưng Yên"></path>
<path fill="#FDBDC4" stroke="#474747" stroke-width="0.5" d="M398.1,674.3c5-2,10-3.7,13.5-3.6c5.8,0.3,15.3,9.6,21.1,9.5  c4.1-0.1,11.1-5.4,14.7-7.4c4.2-2.3,11.9-11.9,16.3-10c4.4,1.9,3.7,18.4,5.3,18.4c0.7,0,5.9,1.7,11.9,3c-0.7,3-1.6,7.2-2,9.1  c-1.3,5.6-5.2,16.7-5.6,22.5c-0.3,4-0.4,12.5,1.4,16.2c2.1,4.2,11.3,8.8,14,12.6c2.9,4,4.3,14.7,7.7,18.3c3.5,3.6,13.4,7.1,18.3,8.4  c6.3,1.7,19.7,4.5,26,2.8c4.5-1.2,10.4-11.7,15.1-11.2c1.7,0.2,4.1,3.3,4.6,4.9c0.7,2.8-2,8.4-2.5,11.2c-0.4,2.4-1.5,7.1-1.1,9.5  c0.5,2.6,4.5,6.6,5.3,9.1c1.1,3.7,0.7,13.7,1.1,15.4c0.4,1.8,4,6.3,4.2,8.8c0.4,4-2.8,11.8-4.6,15.4c-2.3,4.8-8.9,13.2-11.9,17.5  c-2,2.8-6.8,7.7-8.1,10.9c-1.9,4.7-0.2,15.5-2.5,20c-0.9,1.8-5.2,3.6-6.8,5.6c-0.3-0.4-0.7-0.6-1-0.5c-3,0.5-1,9.1-2.1,11.9  c-0.7,1.8-3.4,4.6-4.2,6.3c-1.3,2.7-2.5,8.6-3.7,11.3c-1.1,2.6-3.1,8-5.3,9.7c-1.7,1.3-6.1,2.7-8.2,2.4c-1.7-0.3-4.3-2.8-5.5-4  c-3-2.7-8.8-8.6-10.8-12.1c-0.8-1.5-1-5.1-1.8-6.6c-0.8-1.5-2.7-5.2-4.5-5.5c-1.3-2.6-3.1-5.2-4.4-6.6c-2.3-2.7-10.5-7.7-10.9-8.8  c-0.3-1.1-1.7-9.9-3.5-12.6c-2.2-3.4-9-7.9-12.3-10.2c-4.6-3.1-15.5-6.6-19.3-10.5c-1.9-1.9-3.1-7.5-4.9-9.5c-2.8-3-12.6-7.7-14-8.4  c-1.4-0.7-6.6-9.8-9.8-11.9c-6-3.9-21.4-3.7-28.1-6.3c-3.9-1.5-10.3-7.5-14.4-8.4c-3.8-0.9-12.2,2.7-15.8,1.1  c-3.7-1.7-7.4-9.8-9.1-13.3c-1.8-3.5-6.6-5.6-9.1-7c-3.6-2-10.5-6.6-14-8.8c-5.1-3.1-16-8.5-20.7-12.3c-2.9-2.3-7.9-7.9-10.2-10.9  c-2.4-3.1-5.6-10.6-8.4-13.3c-3.6-3.5-16.1-9.5-17.6-10.2c-1.4-0.7-13.7-4.7-17.9-7c-3.2-1.7-9.5-7-10.2-10.2  c-0.7-3.2-1.2-7.7-2.1-10.2c-1-2.6-4.1-7.9-6.3-11.5c3,0.9,7,3.8,9.3,3.4c3.4-0.4,8.2-6.8,11.6-7.4c6.8-1.1,20.6,9.2,26.8,6.3  c3.4-1.6,3.5-11.6,6.8-13.2c2.9-1.4,9.5,3.4,12.6,2.6c3.8-0.9,8.2-9.9,12.1-10c3.5-0.1,8.3,6.3,11.1,8.4c4.2,3.3,11,13.8,16.3,13.7  c4.1-0.1,10.6-7.2,12.1-11.1c1.3-3.2-1.8-10.3-1.1-13.7c0.8-3.7,3.6-12.6,7.4-13.2c4.3-0.6,9.4,9.2,12.6,12.1  c2.5,2.2,7.2,7.8,10.5,8.4c3.1,0.6,9.1-2.7,12.1-3.7C387.3,679.1,392.7,676.5,398.1,674.3z" data-stroke-width="0.5" style="stroke-width: 0.5; fill: rgb(253, 189, 196); stroke: rgb(71, 71, 71);" class="[object SVGAnimatedString]  " id="ninh-binh" title="Ninh Bình"></path>
<path fill="#FDBDC4" stroke="#474747" stroke-width="0.5" d="M 525.1 956.4 C 523 956 518.2 954.6999999999999 517.3000000000001 952.6999999999999 C 516.6 950.9999999999999 518.8000000000001 947.4 519.7 945.6999999999999 C 520.4000000000001 944.4 522.2 941.9 523.3000000000001 940.6999999999999 C 524.5000000000001 939.4 527.5000000000001 937.3 528.7 935.9999999999999 C 530 934.5999999999999 532.5 931.4999999999999 533.1 929.6999999999999 C 533.8000000000001 927.1999999999999 532.2 921.9999999999999 532.3000000000001 919.4 C 532.4000000000001 917.4 533.7 913.4 533.8000000000001 911.4 C 533.8000000000001 909.3 532.3000000000001 905.1999999999999 532.6 903.1 C 532.7 902.1 534 900.3000000000001 534.3000000000001 899.3000000000001 C 534.6 898.4000000000001 535.3000000000001 896.5000000000001 535.2 895.6 C 535.1 894.6 534.4000000000001 892.4 533.6 891.4 C 533.6 891.4 533.6 891.4 533.6 891.4 C 535.2 889.4 539.5 887.6 540.4 885.8 C 542.6999999999999 881.3 541 870.5 542.9 865.8 C 544.1999999999999 862.5999999999999 549 857.6999999999999 551 854.9 C 554.1 850.6 560.7 842.1999999999999 562.9 837.4 C 564.6 833.8 567.9 825.9 567.5 822 C 567.2 819.6 563.7 815 563.3 813.2 C 563 811.4000000000001 563.3 801.5 562.1999999999999 797.8000000000001 C 561.4999999999999 795.3000000000001 557.4999999999999 791.3000000000001 556.9 788.7 C 556.4 786.4000000000001 557.6 781.6 558 779.2 C 558.5 776.4000000000001 561.2 770.7 560.5 768 C 560.1 766.4 557.6 763.2 555.9 763.1 C 551.1999999999999 762.7 545.3 773.1 540.8 774.3000000000001 C 534.5 776.0000000000001 521.0999999999999 773.2 514.8 771.5000000000001 C 509.9 770.2000000000002 499.99999999999994 766.7000000000002 496.49999999999994 763.1000000000001 C 493.09999999999997 759.5000000000001 491.59999999999997 748.9000000000001 488.79999999999995 744.8000000000002 C 485.99999999999994 741.0000000000002 476.9 736.4000000000002 474.79999999999995 732.2000000000002 C 472.99999999999994 728.6000000000001 473.09999999999997 720.1000000000001 473.4 716.0000000000001 C 473.9 710.2000000000002 477.7 699.2000000000002 479 693.5000000000001 C 479.5 691.6000000000001 480.4 687.4000000000001 481 684.4000000000001 C 488.3 686.0000000000001 496.5 687.0000000000001 498.6 683.5000000000001 C 501 679.5000000000001 487.8 672.3000000000001 488.6 667.7000000000002 C 489.3 663.4000000000002 501.20000000000005 657.7000000000002 501.20000000000005 655.6000000000001 C 501.20000000000005 653.5000000000001 499.40000000000003 645.1000000000001 501.70000000000005 643.0000000000001 C 505.00000000000006 640.0000000000001 515.2 645.1000000000001 519.6 644.1000000000001 C 523.8000000000001 643.1000000000001 531.1 638.0000000000001 534.3000000000001 635.1000000000001 C 536.1 633.6000000000001 537.7 627.9000000000001 540.1 627.7000000000002 C 543.8000000000001 627.4000000000002 547.8000000000001 636.1000000000001 551.2 637.7000000000002 C 554.6 639.4000000000002 562.2 640.3000000000002 565.9000000000001 640.3000000000002 C 568.1000000000001 640.3000000000002 571.4000000000001 639.4000000000002 574.7 638.7000000000002 L 574.7 638.7000000000002 C 577.2 638.1000000000001 579.5 637.6000000000001 581.2 637.7000000000002 C 585.4000000000001 637.8000000000002 595.4000000000001 637.8000000000002 597.5 641.4000000000002 C 599 644.0000000000002 593.9 650.0000000000002 593.8 653.0000000000002 C 593.5999999999999 657.3000000000002 594.5 666.8000000000002 597.5 669.8000000000002 C 599.9 672.2000000000002 607.3 672.3000000000002 610.7 673.0000000000002 C 613.1 673.5000000000002 618.1 673.4000000000002 620.2 674.6000000000003 C 622.6 676.0000000000002 627.2 680.3000000000003 627.6 683.0000000000002 C 628.2 687.4000000000002 620.8000000000001 697.7000000000003 620.8000000000001 699.3000000000002 C 620.8000000000001 700.9000000000002 618.5000000000001 711.7000000000002 621.3000000000001 714.0000000000002 C 624.6 716.7000000000003 634.2 712.9000000000002 638.1 711.4000000000002 C 642.8000000000001 709.6000000000003 649.9 700.6000000000003 654.9 700.3000000000002 C 658.6 700.1000000000001 664.6 705.8000000000002 668.1 707.1000000000001 C 673.8000000000001 709.4000000000001 686.6 710.7000000000002 691.8000000000001 713.9000000000001 C 696.6 716.9000000000001 702.3000000000001 727.7 707.1 730.7 C 714 735 730.2 741.5 738.2 740.2 C 742.6 739.5 748.2 731.1 752.4000000000001 729.7 C 757.3000000000001 728.1 767.9000000000001 728.7 772.9000000000001 729.7 C 777.6000000000001 730.7 787.9000000000001 735.4000000000001 793.9000000000001 738.4000000000001 C 793.5000000000001 740.3000000000001 793.0000000000001 742.4000000000001 792.4000000000001 743.6000000000001 C 791.4000000000001 745.2000000000002 788.0000000000001 747.3000000000002 786.6000000000001 748.7000000000002 C 784.8000000000002 750.6000000000001 781.3000000000002 754.5000000000001 779.8000000000002 756.6000000000001 C 778.0000000000002 759.1000000000001 776.1000000000001 765.7000000000002 773.3000000000002 767.1000000000001 C 770.9000000000002 768.3000000000002 765.3000000000002 765.4000000000001 762.8000000000002 766.2000000000002 C 760.3000000000002 767.0000000000001 756.9000000000002 771.4000000000002 754.7000000000002 772.9000000000002 C 752.3000000000002 774.6000000000003 747.3000000000002 777.8000000000002 744.5000000000001 779.0000000000002 C 740.6000000000001 780.6000000000003 732.3000000000001 782.3000000000002 728.2000000000002 783.2000000000003 C 724.9000000000002 784.0000000000002 718.1000000000001 785.2000000000003 714.8000000000002 785.8000000000003 C 710.2000000000002 786.6000000000003 700.8000000000002 787.5000000000003 696.4000000000002 789.0000000000003 C 691.6000000000003 790.5000000000003 682.5000000000002 794.9000000000003 678.5000000000002 798.0000000000003 C 675.6000000000003 800.2000000000004 671.1000000000003 805.8000000000003 668.8000000000002 808.5000000000003 C 665.3000000000002 812.7000000000004 659.8000000000002 822.4000000000003 655.6000000000001 825.9000000000003 C 654.0000000000001 827.2000000000003 649.7000000000002 828.2000000000003 648.2000000000002 829.6000000000004 C 645.9000000000002 831.7000000000004 643.8000000000002 838.1000000000004 641.6000000000001 840.4000000000003 C 640.0000000000001 842.1000000000004 635.6000000000001 844.2000000000003 634.0000000000001 845.9000000000003 C 631.6000000000001 848.3000000000003 628.2000000000002 854.3000000000003 626.1000000000001 857.0000000000003 C 623.8000000000002 859.8000000000003 619.4000000000001 865.8000000000003 616.4000000000001 867.8000000000003 C 614.1000000000001 869.3000000000003 608.0000000000001 869.5000000000003 605.9000000000001 871.2000000000003 C 604.1000000000001 872.7000000000003 602.8000000000001 877.5000000000002 601.4000000000001 879.4000000000003 C 599.6000000000001 881.9000000000003 595.4000000000001 886.6000000000004 593.0000000000001 888.6000000000004 C 591.9000000000001 889.5000000000003 589.6000000000001 892.0000000000003 588.3000000000001 891.6000000000004 C 587.0000000000001 891.2000000000004 587.2 887.3000000000004 586.2 886.3000000000004 C 585.5 885.7000000000004 583.5 884.8000000000004 582.6 885.1000000000004 C 581 885.7000000000004 580 889.6000000000004 579.2 891.2000000000004 C 578.6 892.3000000000004 576.8000000000001 894.2000000000004 576.8000000000001 895.4000000000004 C 576.8000000000001 896.8000000000004 579.4000000000001 899.9000000000004 579.4000000000001 900.3000000000004 C 579.4000000000001 900.7000000000004 576.6000000000001 902.7000000000004 576.2 903.9000000000004 C 575.7 905.7000000000004 578.9000000000001 909.4000000000004 578.3000000000001 911.1000000000005 C 577.8000000000001 912.8000000000005 573.9000000000001 914.3000000000005 572.6 915.6000000000005 C 570.8000000000001 917.4000000000004 567.1 921.3000000000005 566.1 923.6000000000005 C 565.6 924.9000000000004 565 927.7000000000005 565.4 929.0000000000005 C 565.6999999999999 930.0000000000005 568.3 931.0000000000005 568.4 932.0000000000005 C 568.5 933.1000000000005 566.6999999999999 935.0000000000005 565.9 935.8000000000004 C 564.6999999999999 937.1000000000004 561.5 938.9000000000004 560.1 940.0000000000005 C 558.2 941.4000000000004 554.4 944.1000000000005 552.9 945.9000000000004 C 551.9 947.1000000000005 551.1999999999999 950.3000000000004 550 951.3000000000004 C 548.2 952.7000000000004 543.3 952.7000000000004 541.2 953.7000000000004 C 539.8000000000001 954.3000000000004 537.6 956.7000000000004 536.1 957.0000000000003 C 534.9 957.2000000000004 532.7 955.9000000000003 531.5 955.8000000000003 C 529.8 955.6 526.6 956.6 525.1 956.4 Z" data-stroke-width="0.5" style="stroke-width: 0.5; fill: rgb(253, 189, 196); stroke: rgb(71, 71, 71);" class="[object SVGAnimatedString]  " id="nam-dinh" title="Nam Định"></path>
<path fill="#FDBDC4" stroke="#474747" stroke-width="0.5" d="M568,544.5c1.2-1.9,2.8-3.7,4.1-4.1c2.7-0.8,7.8,3.5,10.5,4.2  c3.3,0.8,10.5,3.2,13.3,1.4c2.1-1.3,1.7-7.5,3.5-9.1c5.4-4.8,22.7-2.2,28.1-7c1.8-1.6,1.6-7.6,3.5-9.1c1.6-1.3,4.7-1.4,7.9-1.5  c3.2,0,6.4,0.1,8.3-0.7c3.2-1.2,7.9-7.2,11.2-7.7c2.9-0.4,8.3,3.3,11.2,3.5c3.8,0.2,11.4-0.7,15.4-2.4c0.9,3.2,2.2,6.3,3.6,8  c2.3,2.9,10.3,4.9,12.6,7.7c2.6,3.2,2.8,12.4,5.6,15.4c3.3,3.5,13.9,4.6,17.6,7.7c4.7,3.9,5.7,16,11.6,17.5  c2.6,0.7,9.2-0.8,11.6-2.1c2.2-1.2,6-4.9,8.4-4.9c3.5,0,8.6,7.8,11.9,7c1.6-0.4,2.5-4.3,3.5-5.6c1.8-2.2,5.7-8.4,8.4-7.7  c2.7,0.7,3.6,6.6,6.3,7.4c5.4,1.5,8.6-13.1,14-11.6c1.6,0.4,0.8,5.3,2.1,6.3c2.5,2,9.8,2.6,14.9,2.8c-0.8,3.7,1.2,10.4-0.2,13.4  c-1.1,2.3-5,6.1-7.4,7c-2.7,1.1-9.2-1.6-11.6,0c-1.6,1.1-1.9,5.6-2.8,7.4c-1.1,2.1-4.6,5.5-5.6,7.7c-1.4,3.1-3.8,10-3.2,13.3  c0.2,1.2,2.2,3.1,2.8,4.2c1.4,2.4,4.5,7.1,4.9,9.8c0.4,2.5,0.4,8.1-1.4,9.8c-1.2,1.2-5.3-0.2-6.7,0.7c-1.5,0.9-2.3,4.7-3.5,6  c-2,2.1-7.7,4.1-9.5,6.3c-1.2,1.5-4.2,5.7-2.8,7c1.6,1.5,6.2-2.6,8.1-3.8c1.7-1.1,4.2-4.5,6-5.3c2.9-1.3,9.9-3,12.6-1.4  c1,0.6,1.4,3.2,1.8,4.4c0.7,2.3,1,7.2,1.7,9.5c0.8,2.3,4.7,6,4.6,8.4c-0.1,2.3-4,5.5-5.1,7.6c-1.2,2.3-3.5,8.6-3.5,9.6  c0,1.1,1.9,2.6,2.5,3.5c0.8,1.4,1.7,4.7,1.4,6.3c-0.4,2.7-4.5,6.8-5.6,9.3c-1.1,2.4-3,7.5-3.3,10.2c-0.3,2.1-0.4,6.6,0.4,8.6  c0.8,2.2,5.6,4.7,6,7c0.4,2.3-2.6,6.5-3.3,8.8c-0.3,0.8-0.5,1.9-0.7,3.1c-6.1-3-16.4-7.7-21-8.7c-5-1-15.7-1.6-20.5,0  c-4.2,1.4-9.9,9.8-14.2,10.5c-8,1.4-24.2-5.1-31.1-9.5c-4.8-3-10.4-13.8-15.3-16.8c-5.2-3.3-18-4.6-23.7-6.8  c-3.4-1.4-9.5-7-13.2-6.8c-5,0.3-12.1,9.2-16.8,11.1c-4,1.5-13.5,5.3-16.8,2.6c-2.9-2.3-0.5-13.2-0.5-14.7c0-1.6,7.5-11.9,6.8-16.3  c-0.4-2.8-4.9-7.1-7.4-8.4c-2.1-1.2-7.1-1.1-9.5-1.6c-3.3-0.7-10.8-0.7-13.2-3.2c-3-3.1-3.9-12.5-3.7-16.8c0.1-3,5.2-9,3.7-11.6  c-2.1-3.6-12.1-3.6-16.3-3.7c-1.7,0-4,0.5-6.5,1c0.9-3.6,3.4-8.4,3.2-11.2c-0.3-4.4-5.7-11.9-7-16.1c-1.1-3.4-1.8-10.6-2.8-14  c-1.1-4-5.8-11.3-5.6-15.4c0.3-5.7,9.7-14.7,9.8-20.4c0.1-3.6-6-9.8-5.6-13.3C566.7,547.2,567.2,545.8,568,544.5z" data-stroke-width="0.5" style="stroke-width: 0.5; fill: rgb(253, 189, 196); stroke: rgb(71, 71, 71);" class="[object SVGAnimatedString]  " id="thai-binh" title="Thái Bình"></path>
<path fill="#FDBDC4" stroke="#474747" stroke-width="0.5" d="M685.1,512c-3.9,1.7-11.6,2.7-15.4,2.4c-2.9-0.2-8.3-4-11.2-3.5  c-3.4,0.5-8,6.5-11.2,7.7c-1.9,0.7-5.1,0.6-8.3,0.7c-0.1-1.4-0.3-2.7-0.8-3.5c-1.8-2.3-9-1.6-11.2-3.5c-2.3-1.9-3.3-8.7-5.6-10.5  c-2.1-1.7-8.3-1.3-10.5-2.8c-3.5-2.4-8.4-11.9-11.2-12.6c-2.8-0.7-10.7,0.4-14-0.7c-5.4-1.8-13.9-9.7-18.3-13.3  c-4.5-3.8-13.7-11.3-16.8-16.1c-3.1-4.9-9.1-16.2-7.7-21.8c0.6-2.3,5.7-4.3,7-6.3c2.5-3.9,2.6-14.1,5.6-17.6  c1.4-1.6,5.9-2.4,7.7-3.5c4.3-2.6,13.9-7.5,16.2-11.9c2-3.9-1.2-13.3,0-17.6c0.6-2.2,4-5.7,4.9-7.7c1.6-3.6,4.2-10.2,5.2-15.3  c1.4-0.7,2.8-1.3,3.9-1.5c3.1-0.7,9.5-0.1,12.6,0c5.3,0.2,15.8,0.9,21.1,1.4c3.3,0.3,9.7,0.5,13.3-1.1c2.5-1.1,3.5-5.9,4.2-8.8  c0.9-3.6,3.7-10.4,4.2-14c0.6-4.3,0-13.2,0-17.5c0-3.2-0.3-9.5,0-12.6c0.3-3.4,2.8-9.9,2.8-13.3c0-4.3-4.3-12.6-3.5-16.8  c0.4-2.3,4.4-5.5,4.9-7.7c0.7-2.8,0.2-9.1-0.5-13.9c1.1,0.1,2.1,0.2,2.9,0.5c2.8,1.2,5.7,7.5,8.4,9c1.7,0.9,5.6,1.7,7.4,1.1  c4-1.4,7.7-10.5,11.6-12.1c1.9-0.8,6.5,0.8,8.4,0c3.2-1.3,6.9-7.7,9.5-10c3.4-3,10.5-8.9,14.7-10.5c4.6-1.7,14.6-2.6,19.5-2.1  c3.9,0.4,10.8,2.7,15.3,4.7c-1.5,2.9-3.4,5.9-3.8,8.1c-0.9,3.9,0.4,12.3-0.7,16.1c-0.9,3.2-6.1,8.6-6.3,11.9  c-0.2,4.3,4.3,12.3,6.3,16.2c1.6,3,6.5,8.1,7.7,11.2c1.3,3.5-0.1,11.8,2.1,14.7c3,4,14.4,5.2,18.3,8.4c2.4,2.1,4.6,8.5,7,10.5  c4.1,3.5,15.5,5.7,19.7,9.1c1.6,1.4,4.3,5,4.9,7c0,0.1,0.1,0.2,0.1,0.4c0.7,2.8-0.2,8.2-0.1,10.9c0.3,6.2,2.8,18.5,2.1,24.6  c-0.3,2.9-1.6,9-3.5,11.2c-1.5,1.8-6.1,3.7-8.4,4.2c-5.5,1.2-18.1-4.2-22.5-0.7c-2.9,2.3-3.1,11-2.8,14.7c0.3,4.4,7.4,12.8,5.6,16.8  c-1.4,3.2-9.2,5.3-12.6,5.6c-5.9,0.5-18.9-9.8-23.2-5.6c-2.3,2.3,1.6,9.6,2.8,12.6c1.3,3.1,7.7,8,7,11.2c-0.6,2.8-9.3,3.4-9.8,6.3  c-0.6,3,6,7,7,9.8c1.1,3.2,1.4,10.1,0.7,13.3c-0.6,2.7-2.8,8-4.9,9.8c-4.3,3.7-16.7,4.4-21.8,7c-2.3,1.2-6,5.3-8.4,6.3  c-4.4,1.7-14.7-0.1-18.9,2.1c-2.6,1.3-5.2,7.1-7.7,8.4C685.7,511.7,685.4,511.9,685.1,512z" data-stroke-width="0.5" style="stroke-width: 0.5; fill: rgb(253, 189, 196); stroke: rgb(71, 71, 71);" class="[object SVGAnimatedString]   " id="hai-duong" title="Hải Dương"></path>
<path fill="#FDBDC4" stroke="#474747" stroke-width="0.5" d="M475.9,345.8c-0.2-0.2-0.4-0.4-0.6-0.6c-3.4-2.8-13-4.8-15.4-8.4  c-1.9-2.8-0.4-10.1-1.4-13.3c-1.4-4.7-5.7-14-9.1-17.6c-1.5-1.6-6.6-2.4-7.7-4.2c-2.3-3.7,1.2-13.6-0.7-17.6c-1-2.1-6-4.2-7-6.3  c-1.6-3.3,0.2-11.2-0.7-14.7c-1.3-4.9-10.7-13.4-9.1-18.3c0.7-2.2,7.3-2.1,8.4-4.2c2.2-4-4-14.1-2.1-18.3c0.9-2,5.7-3.2,7-4.9  c1-1.3,2.2-3.8,3-6.3c2.3,2.8,5.2,5.9,7.5,6.8c5.7,2.1,22.1-1.6,24.2-1.6c2.1,0,11.2,3.6,14.7,5.3c7.6,3.5,22.8,10.9,30,15.3  c2.8,1.7,7.3,7.8,10.5,7.4c1.5-0.2,2.5-3.9,3.7-4.7c2.3-1.6,8.1-2.4,10.5-3.7c2.6-1.4,8.4-6.3,10-6.3s9.6,3.1,12.1,5.3  c2.5,2.2,5.2,8.6,7.4,11.1c2.1,2.4,6.5,7.2,9.5,8.4c6.1,2.5,19.8,2.2,26.3,1.1c3.9-0.7,10.8-6,14.7-5.8c2.2,0.1,5.7,4,7.9,4.2  c3.2,0.3,9-3.6,12.1-4.2c2.6-0.5,7.3-1.3,10.8-1.1c0.6,4.8,1.2,11.1,0.5,13.9c-0.6,2.2-4.5,5.5-4.9,7.7c-0.8,4.2,3.5,12.5,3.5,16.8  c0,3.4-2.5,10-2.8,13.3c-0.3,3.1,0,9.5,0,12.6c0,4.4,0.6,13.2,0,17.5c-0.5,3.6-3.4,10.5-4.2,14c-0.7,2.9-1.7,7.7-4.2,8.8  c-3.7,1.6-10,1.3-13.3,1.1c-5.3-0.5-15.8-1.2-21.1-1.4c-3.2-0.1-9.6-0.7-12.6,0c-1.2,0.3-2.5,0.8-3.9,1.5c-6.1,3.1-14,9.3-19.2,9.7  c-6.9,0.6-19.8-6.5-26.7-7.7c-2.8-0.5-8.5,0-11.2-0.7c-3.4-0.9-9.1-6.4-12.6-6.3c-2.2,0-5.6,3.6-7.7,4.2c-6.9,1.9-22.2,3.6-28.8,0.7  C480.5,353.3,478.1,348.2,475.9,345.8z" data-stroke-width="0.5" style="stroke-width: 0.5; fill: rgb(253, 189, 196); stroke: rgb(71, 71, 71);" class="[object SVGAnimatedString]  " id="bac-ninh" title="Bắc Ninh"></path>
<path fill="#FDBDC4" stroke="#474747" stroke-width="0.5" d="M 353.4 160.2 C 354.5 158.89999999999998 356.5 157.5 358.5 156.2 C 360.4 155 362.2 153.79999999999998 363.1 152.7 C 363.8 151.79999999999998 364.40000000000003 150.2 365 148.5 C 365.9 146 366.8 143.3 368.4 142.7 C 371.4 141.6 376.79999999999995 145.1 380.4 147.39999999999998 C 381 147.79999999999998 381.59999999999997 148.2 382.09999999999997 148.49999999999997 C 383.09999999999997 149.09999999999997 384.4 150.39999999999998 385.79999999999995 151.69999999999996 C 387.59999999999997 153.49999999999997 389.49999999999994 155.29999999999995 391.09999999999997 155.89999999999995 C 392.59999999999997 156.49999999999994 395.2 156.19999999999996 397.7 155.89999999999995 C 400.2 155.59999999999994 402.8 155.29999999999995 404.3 155.89999999999995 C 407.3 156.99999999999994 413 160.19999999999996 416.2 163.59999999999994 C 415.3 166.89999999999995 414.8 170.59999999999994 415.3 172.79999999999993 C 416 175.69999999999993 419.3 179.19999999999993 422.40000000000003 182.39999999999992 C 424.20000000000005 184.29999999999993 425.90000000000003 186.0999999999999 426.90000000000003 187.49999999999991 C 428.3 189.6999999999999 430.00000000000006 193.1999999999999 431.8 196.6999999999999 C 433.90000000000003 200.99999999999991 436.1 205.3999999999999 438 207.99999999999991 C 438.6 208.89999999999992 439.5 209.99999999999991 440.5 211.1999999999999 C 439.7 213.6999999999999 438.5 216.0999999999999 437.5 217.49999999999991 C 436.9 218.29999999999993 435.6 218.99999999999991 434.2 219.6999999999999 C 432.59999999999997 220.49999999999991 430.9 221.3999999999999 430.4 222.49999999999991 C 429.5 224.49999999999991 430.5 227.99999999999991 431.5 231.49999999999991 C 432.6 235.0999999999999 433.6 238.6999999999999 432.5 240.79999999999993 C 432 241.79999999999993 430.1 242.29999999999993 428.3 242.79999999999993 C 426.40000000000003 243.29999999999993 424.40000000000003 243.89999999999992 424 244.99999999999991 C 423 247.89999999999992 426.1 252.0999999999999 428.9 256.0999999999999 C 430.79999999999995 258.69999999999993 432.59999999999997 261.2999999999999 433.09999999999997 263.2999999999999 C 433.49999999999994 264.8999999999999 433.4 267.2999999999999 433.29999999999995 269.7999999999999 C 433.09999999999997 272.8999999999999 432.99999999999994 276.1999999999999 433.9 277.9999999999999 C 434.4 279.0999999999999 435.9 280.0999999999999 437.4 281.1999999999999 C 438.9 282.1999999999999 440.4 283.2999999999999 440.9 284.39999999999986 C 441.79999999999995 286.29999999999984 441.5 289.59999999999985 441.09999999999997 292.79999999999984 C 440.7 296.39999999999986 440.4 299.99999999999983 441.59999999999997 301.89999999999986 C 442.2 302.89999999999986 443.99999999999994 303.59999999999985 445.79999999999995 304.29999999999984 C 447.19999999999993 304.89999999999986 448.69999999999993 305.39999999999986 449.4 306.09999999999985 C 452.9 309.59999999999985 457.09999999999997 318.89999999999986 458.5 323.6999999999999 C 458.9 324.9999999999999 458.9 327.09999999999985 458.9 329.2999999999999 C 458.9 332.2999999999999 458.9 335.3999999999999 459.9 336.9999999999999 C 461.29999999999995 339.0999999999999 465.2 340.6999999999999 468.79999999999995 342.1999999999999 C 471.4 343.2999999999999 473.9 344.2999999999999 475.4 345.39999999999986 C 475.59999999999997 345.4999999999999 475.7 345.6999999999999 475.9 345.89999999999986 C 475.9 345.89999999999986 476 345.9999999999999 476 345.9999999999999 C 475.3 349.0999999999999 474.2 352.5999999999999 472.7 353.4999999999999 C 471.8 353.9999999999999 470.2 353.39999999999986 468.59999999999997 352.7999999999999 C 467.09999999999997 352.1999999999999 465.7 351.5999999999999 464.79999999999995 351.9999999999999 C 463.29999999999995 352.5999999999999 462.09999999999997 354.7999999999999 460.79999999999995 356.89999999999986 C 459.69999999999993 358.79999999999984 458.59999999999997 360.6999999999999 457.4 361.39999999999986 C 456 362.1999999999999 453.4 362.29999999999984 450.9 362.29999999999984 C 448.09999999999997 362.29999999999984 445.2 362.39999999999986 443.7 363.49999999999983 C 441.8 364.99999999999983 440.5 369.1999999999998 439.4 372.49999999999983 C 439 373.6999999999998 438.7 374.79999999999984 438.4 375.59999999999985 C 438 376.6999999999999 437.59999999999997 378.39999999999986 437.2 380.09999999999985 C 436.4 383.59999999999985 435.5 387.6999999999999 433.7 389.29999999999984 C 432.3 390.49999999999983 429.2 390.49999999999983 426.2 390.49999999999983 C 423 390.49999999999983 419.8 390.49999999999983 418.4 391.8999999999998 C 416.59999999999997 393.6999999999998 416.29999999999995 397.99999999999983 416.2 401.8999999999998 C 416.2 401.8999999999998 416.2 401.8999999999998 416.09999999999997 401.8999999999998 L 416.09999999999997 401.8999999999998 C 416.09999999999997 401.8999999999998 416.09999999999997 401.8999999999998 416.09999999999997 401.8999999999998 C 422.59999999999997 402.99999999999983 428.79999999999995 404.6999999999998 431.59999999999997 407.8999999999998 C 432.59999999999997 408.99999999999983 432.49999999999994 411.2999999999998 432.49999999999994 413.5999999999998 C 432.49999999999994 415.4999999999998 432.49999999999994 417.2999999999998 432.99999999999994 418.3999999999998 C 433.3999999999999 419.0999999999998 434.3999999999999 419.8999999999998 435.3999999999999 420.6999999999998 C 436.49999999999994 421.5999999999998 437.5999999999999 422.3999999999998 437.99999999999994 423.29999999999984 C 439.49999999999994 427.29999999999984 438.69999999999993 436.49999999999983 436.59999999999997 440.09999999999985 C 435.7 441.6999999999999 432.99999999999994 442.89999999999986 430.4 444.1999999999999 C 427.59999999999997 445.4999999999999 424.9 446.7999999999999 424 448.4999999999999 C 422.3 451.7999999999999 422.7 460.1999999999999 424.7 463.1999999999999 C 427.7 467.7999999999999 439.09999999999997 471.39999999999986 444.4 472.9999999999999 C 445.4 473.2999999999999 447 473.2999999999999 448.59999999999997 473.2999999999999 C 451.09999999999997 473.2999999999999 453.7 473.2999999999999 454.9 474.3999999999999 C 456.9 476.19999999999993 457.9 482.19999999999993 457.7 484.8999999999999 C 457.59999999999997 486.7999999999999 456.2 489.3999999999999 454.9 491.99999999999994 C 453.59999999999997 494.49999999999994 452.29999999999995 497.09999999999997 452.09999999999997 498.8999999999999 C 451.79999999999995 502.8999999999999 452.59999999999997 511.69999999999993 455.59999999999997 514.3 C 457.2 515.6999999999999 460.59999999999997 515.5 463.99999999999994 515.3 C 466.79999999999995 515.0999999999999 469.49999999999994 515 471.09999999999997 515.6999999999999 C 471.7 515.9999999999999 472.4 516.5999999999999 472.99999999999994 517.3 C 469.8999999999999 517.9 467.19999999999993 518.5999999999999 465.49999999999994 519.3 C 463.99999999999994 520 462.19999999999993 521.5999999999999 460.3999999999999 523.1999999999999 C 458.69999999999993 524.6999999999999 456.8999999999999 526.3 455.5999999999999 526.9 C 450.3999999999999 529.4 438.8999999999999 532.9 433.0999999999999 532.5 C 431.3999999999999 532.4 429.0999999999999 531.2 426.7999999999999 530.1 C 424.4999999999999 528.9 422.0999999999999 527.7 420.3999999999999 527.6 C 416.8999999999999 527.4 411.69999999999993 529.2 406.69999999999993 531 C 402.8999999999999 532.3 399.19999999999993 533.6 396.5999999999999 533.9 C 394.69999999999993 534.1 391.9999999999999 533.6 389.0999999999999 533.1 C 384.3999999999999 532.2 379.2999999999999 531.3000000000001 376.8999999999999 533.2 C 375.49999999999994 534.4000000000001 375.69999999999993 537.4000000000001 375.7999999999999 540.2 C 375.8999999999999 542.1 375.8999999999999 544 375.4999999999999 545.1 C 374.9999999999999 546.6 373.5999999999999 548.5 372.0999999999999 550.4 C 370.4999999999999 552.5 368.8999999999999 554.6 368.4999999999999 556.3 C 367.9999999999999 558.1999999999999 368.1999999999999 561.0999999999999 368.4999999999999 564.0999999999999 C 368.7999999999999 566.9999999999999 368.9999999999999 569.8999999999999 368.4999999999999 571.6999999999999 C 367.9999999999999 573.4 366.4999999999999 575.4999999999999 364.9999999999999 577.6999999999999 C 363.4999999999999 579.8 361.89999999999986 581.9999999999999 361.4999999999999 583.6999999999999 C 361.0999999999999 584.9999999999999 361.39999999999986 587.0999999999999 361.6999999999999 589.3 C 361.9999999999999 592 362.39999999999986 594.8 361.4999999999999 596.3 C 360.9999999999999 597.1999999999999 359.39999999999986 597.5999999999999 357.6999999999999 598.0999999999999 C 356.59999999999985 598.3999999999999 355.59999999999985 598.6999999999999 354.7999999999999 599.0999999999999 C 354.4999999999999 598.4999999999999 354.0999999999999 597.9999999999999 353.6999999999999 597.5999999999999 C 353.09999999999985 596.8999999999999 352.09999999999985 596.3 351.09999999999985 595.5999999999999 C 349.59999999999985 594.6999999999999 347.89999999999986 593.5999999999999 346.6999999999999 591.8999999999999 C 346.09999999999985 591.0999999999999 345.09999999999985 589.2999999999998 343.9999999999999 587.1999999999998 C 341.2999999999999 582.1999999999998 337.4999999999999 574.9999999999998 334.0999999999999 572.9999999999998 C 332.19999999999993 571.7999999999997 328.5999999999999 571.8999999999997 325.19999999999993 571.9999999999998 C 322.69999999999993 571.9999999999998 320.29999999999995 572.0999999999998 318.69999999999993 571.5999999999998 C 314.19999999999993 570.2999999999998 304.29999999999995 567.1999999999998 301.8999999999999 563.1999999999998 C 300.8999999999999 561.5999999999998 301.2999999999999 558.5999999999998 301.69999999999993 555.6999999999998 C 301.8999999999999 553.6999999999998 302.19999999999993 551.7999999999998 301.8999999999999 550.5999999999998 C 301.3999999999999 547.5999999999998 299.19999999999993 541.8999999999997 297.69999999999993 539.3999999999997 C 296.99999999999994 538.2999999999997 295.5999999999999 536.9999999999998 294.0999999999999 535.6999999999997 C 291.7999999999999 533.6999999999997 289.3999999999999 531.4999999999997 289.2999999999999 529.5999999999997 C 289.0999999999999 527.2999999999997 291.6999999999999 524.6999999999997 294.1999999999999 521.9999999999997 C 296.7999999999999 519.1999999999997 299.39999999999986 516.4999999999997 299.09999999999985 514.1999999999997 C 298.89999999999986 512.4999999999997 296.6999999999999 510.4999999999997 294.6999999999999 508.4999999999997 C 292.4999999999999 506.3999999999997 290.2999999999999 504.3999999999997 290.6999999999999 502.8999999999997 C 290.89999999999986 501.9999999999997 291.9999999999999 499.8999999999997 293.2999999999999 497.1999999999997 C 295.9999999999999 491.6999999999997 299.7999999999999 483.8999999999997 299.8999999999999 479.6999999999997 C 299.99999999999994 476.9999999999997 297.7999999999999 472.2999999999997 296.3999999999999 469.1999999999997 C 296.19999999999993 468.6999999999997 295.8999999999999 468.1999999999997 295.69999999999993 467.7999999999997 C 295.49999999999994 467.39999999999975 295.29999999999995 466.9999999999997 295.0999999999999 466.4999999999997 L 295.0999999999999 466.4999999999997 C 293.19999999999993 462.1999999999997 290.0999999999999 455.09999999999974 287.2999999999999 452.3999999999997 C 285.3999999999999 450.5999999999997 281.4999999999999 448.9999999999997 277.9999999999999 447.4999999999997 C 276.1999999999999 446.6999999999997 274.4999999999999 445.9999999999997 273.2999999999999 445.3999999999997 C 272.2999999999999 444.8999999999997 270.9999999999999 443.8999999999997 269.6999999999999 442.8999999999997 C 266.89999999999986 440.79999999999967 263.6999999999999 438.29999999999967 261.39999999999986 438.3999999999997 C 257.9999999999999 438.4999999999997 251.39999999999986 442.8999999999997 250.19999999999987 446.0999999999997 C 249.4999999999999 447.99999999999966 250.89999999999986 451.0999999999997 252.29999999999987 454.0999999999997 C 253.69999999999987 457.1999999999997 255.19999999999987 460.29999999999967 254.39999999999986 462.1999999999997 C 253.59999999999985 464.0999999999997 249.39999999999986 466.0999999999997 247.39999999999986 466.3999999999997 C 243.49999999999986 466.9999999999997 234.29999999999987 465.9999999999997 231.99999999999986 462.8999999999997 C 230.09999999999985 460.3999999999997 231.09999999999985 452.9999999999997 232.69999999999985 450.29999999999967 C 233.29999999999984 449.29999999999967 234.89999999999984 448.5999999999997 236.59999999999985 447.79999999999967 C 238.19999999999985 447.0999999999997 239.89999999999986 446.29999999999967 240.49999999999986 445.3999999999997 C 241.49999999999986 443.6999999999997 241.39999999999986 440.6999999999997 241.29999999999987 437.6999999999997 C 241.19999999999987 434.9999999999997 241.09999999999988 432.2999999999997 241.89999999999986 430.6999999999997 C 242.39999999999986 429.6999999999997 243.79999999999987 428.6999999999997 245.19999999999987 427.6999999999997 C 246.9999999999999 426.3999999999997 248.79999999999987 425.0999999999997 248.89999999999986 423.6999999999997 C 249.09999999999985 420.3999999999997 244.99999999999986 416.7999999999997 241.09999999999985 413.2999999999997 C 237.99999999999986 410.4999999999997 234.99999999999986 407.7999999999997 234.09999999999985 405.39999999999975 C 233.39999999999986 403.4999999999998 233.69999999999985 400.19999999999976 233.89999999999986 397.09999999999974 C 234.09999999999985 394.89999999999975 234.29999999999987 392.7999999999997 234.09999999999985 391.2999999999997 C 233.59999999999985 387.39999999999975 231.99999999999986 383.59999999999974 225.69999999999985 377.9999999999997 C 219.39999999999984 372.3999999999997 214.59999999999985 366.7999999999997 213.79999999999984 361.7999999999997 C 213.49999999999983 360.1999999999997 214.19999999999985 357.6999999999997 214.89999999999984 355.1999999999997 C 215.59999999999982 352.6999999999997 216.29999999999984 350.0999999999997 215.99999999999983 348.3999999999997 C 215.29999999999984 344.79999999999967 211.19999999999982 338.0999999999997 208.29999999999984 335.79999999999967 C 203.99999999999983 332.29999999999967 192.49999999999983 327.0999999999997 187.19999999999985 328.79999999999967 C 185.29999999999984 329.3999999999997 183.89999999999984 332.0999999999997 182.39999999999984 334.8999999999997 C 180.99999999999983 337.4999999999997 179.69999999999985 339.9999999999997 177.99999999999983 340.6999999999997 C 174.39999999999984 342.2999999999997 167.19999999999982 340.9999999999997 161.79999999999984 339.9999999999997 C 160.19999999999985 339.6999999999997 158.79999999999984 339.3999999999997 157.59999999999985 339.2999999999997 C 156.69999999999985 339.1999999999997 155.39999999999986 338.7999999999997 153.99999999999986 338.39999999999975 C 151.49999999999986 337.69999999999976 148.69999999999985 336.7999999999997 147.09999999999985 337.19999999999976 C 144.99999999999986 337.69999999999976 142.59999999999985 340.39999999999975 140.29999999999984 342.9999999999998 C 137.59999999999985 345.9999999999998 134.89999999999984 349.0999999999998 132.39999999999984 349.0999999999998 C 131.19999999999985 349.0999999999998 129.79999999999984 347.5999999999998 128.39999999999984 346.0999999999998 C 127.29999999999984 344.8999999999998 126.29999999999984 343.7999999999998 125.39999999999984 343.4999999999998 C 122.09999999999984 342.2999999999998 114.69999999999983 342.39999999999975 111.39999999999984 343.4999999999998 C 109.69999999999983 344.0999999999998 106.39999999999984 346.7999999999998 104.49999999999983 348.4999999999998 C 103.29999999999983 347.39999999999975 101.99999999999983 346.19999999999976 100.69999999999983 345.0999999999998 C 96.89999999999984 341.6999999999998 92.99999999999983 338.1999999999998 91.69999999999983 335.0999999999998 C 89.49999999999983 329.4999999999998 89.89999999999984 316.8999999999998 91.69999999999983 311.1999999999998 C 92.39999999999984 309.0999999999998 94.69999999999983 306.6999999999998 96.99999999999983 304.1999999999998 C 99.69999999999983 301.29999999999984 102.59999999999982 298.29999999999984 102.89999999999984 295.79999999999984 C 103.39999999999984 291.89999999999986 100.19999999999983 286.39999999999986 96.89999999999984 280.99999999999983 C 93.39999999999984 275.09999999999985 89.79999999999984 269.09999999999985 90.99999999999983 264.8999999999998 C 91.39999999999984 263.49999999999983 93.49999999999983 262.3999999999998 95.49999999999983 261.2999999999998 C 97.19999999999983 260.3999999999998 98.79999999999983 259.5999999999998 99.39999999999984 258.5999999999998 C 100.49999999999983 256.8999999999998 100.79999999999984 253.79999999999978 100.99999999999983 250.6999999999998 C 101.29999999999983 247.39999999999978 101.59999999999982 244.0999999999998 102.89999999999984 242.39999999999978 C 103.79999999999984 241.1999999999998 105.89999999999984 240.29999999999978 107.99999999999983 239.39999999999978 C 109.89999999999984 238.59999999999977 111.79999999999983 237.79999999999978 112.69999999999983 236.79999999999978 C 114.89999999999984 234.39999999999978 116.59999999999984 229.1999999999998 118.19999999999983 224.5999999999998 C 118.99999999999983 222.1999999999998 119.69999999999983 220.0999999999998 120.49999999999983 218.4999999999998 C 120.99999999999983 217.2999999999998 121.99999999999983 215.7999999999998 122.99999999999983 214.1999999999998 C 124.39999999999984 211.9999999999998 125.79999999999983 209.5999999999998 126.69999999999983 207.4999999999998 C 131.39999999999984 210.8999999999998 137.89999999999984 215.2999999999998 141.39999999999984 216.0999999999998 C 144.49999999999983 216.8999999999998 150.09999999999982 215.8999999999998 154.59999999999982 215.1999999999998 C 156.19999999999982 214.89999999999978 157.59999999999982 214.6999999999998 158.7999999999998 214.5999999999998 C 159.9999999999998 214.4999999999998 161.69999999999982 213.9999999999998 163.4999999999998 213.4999999999998 C 167.2999999999998 212.3999999999998 171.7999999999998 211.0999999999998 174.0999999999998 212.4999999999998 C 177.8999999999998 214.7999999999998 180.0999999999998 224.7999999999998 181.3999999999998 230.7999999999998 C 181.8999999999998 232.9999999999998 182.19999999999982 234.59999999999982 182.4999999999998 235.19999999999982 C 182.4999999999998 235.2999999999998 182.5999999999998 235.2999999999998 182.5999999999998 235.3999999999998 C 182.5999999999998 235.4999999999998 182.6999999999998 235.5999999999998 182.6999999999998 235.69999999999982 C 184.4999999999998 239.19999999999982 191.9999999999998 254.3999999999998 197.1999999999998 258.29999999999984 C 201.4999999999998 261.49999999999983 212.39999999999978 264.29999999999984 217.6999999999998 264.59999999999985 C 223.1999999999998 264.89999999999986 231.79999999999978 262.89999999999986 239.79999999999978 261.09999999999985 C 245.1999999999998 259.79999999999984 250.29999999999978 258.6999999999999 253.99999999999977 258.29999999999984 C 255.09999999999977 258.1999999999998 256.2999999999998 257.99999999999983 257.7999999999998 257.79999999999984 C 263.4999999999998 257.09999999999985 271.19999999999976 256.09999999999985 275.0999999999998 257.6999999999998 C 276.6999999999998 258.3999999999998 278.1999999999998 260.5999999999998 279.7999999999998 262.79999999999984 C 281.0999999999998 264.59999999999985 282.3999999999998 266.39999999999986 283.5999999999998 267.1999999999998 C 287.9999999999998 270.0999999999998 298.3999999999998 272.8999999999998 303.5999999999998 273.49999999999983 C 304.3999999999998 273.59999999999985 305.4999999999998 273.3999999999998 306.6999999999998 273.1999999999998 C 307.8999999999998 272.99999999999983 309.0999999999998 272.79999999999984 309.8999999999998 272.8999999999998 C 311.8999999999998 273.1999999999998 314.49999999999983 274.5999999999998 317.1999999999998 276.1999999999998 C 321.0999999999998 278.3999999999998 325.0999999999998 280.5999999999998 327.79999999999984 279.79999999999984 C 328.6999999999998 279.49999999999983 329.49999999999983 278.6999999999998 330.29999999999984 277.59999999999985 C 330.39999999999986 277.79999999999984 330.49999999999983 277.89999999999986 330.6999999999998 278.09999999999985 L 330.6999999999998 278.09999999999985 C 330.5999999999998 277.89999999999986 330.49999999999983 277.79999999999984 330.3999999999998 277.59999999999985 C 331.6999999999998 275.79999999999984 332.7999999999998 273.39999999999986 333.0999999999998 271.89999999999986 C 333.8999999999998 268.89999999999986 333.0999999999998 263.89999999999986 332.3999999999998 259.29999999999984 C 331.99999999999983 256.49999999999983 331.49999999999983 253.79999999999984 331.49999999999983 251.89999999999984 C 331.49999999999983 249.79999999999984 331.8999999999998 246.79999999999984 332.29999999999984 243.69999999999985 C 332.89999999999986 238.99999999999986 333.59999999999985 233.99999999999986 333.09999999999985 230.89999999999984 C 332.6999999999999 228.89999999999984 331.09999999999985 226.19999999999985 329.39999999999986 223.49999999999983 C 327.1999999999999 219.89999999999984 324.79999999999984 216.19999999999982 325.1999999999999 213.49999999999983 C 325.39999999999986 212.29999999999984 326.89999999999986 210.89999999999984 328.2999999999999 209.59999999999982 C 329.3999999999999 208.59999999999982 330.5999999999999 207.59999999999982 330.9999999999999 206.69999999999982 C 331.7999999999999 204.99999999999983 331.89999999999986 202.09999999999982 331.9999999999999 199.19999999999982 C 332.0999999999999 196.19999999999982 332.1999999999999 193.19999999999982 333.0999999999999 191.49999999999983 C 334.2999999999999 188.99999999999983 337.9999999999999 185.69999999999982 340.7999999999999 183.09999999999982 C 341.6999999999999 182.2999999999998 342.4999999999999 181.49999999999983 343.0999999999999 180.89999999999984 C 343.69999999999993 180.29999999999984 344.5999999999999 179.49999999999983 345.5999999999999 178.69999999999985 C 347.4999999999999 177.19999999999985 349.5999999999999 175.39999999999984 350.3999999999999 173.99999999999986 C 351.2999999999999 172.49999999999986 351.5999999999999 169.89999999999986 351.8999999999999 167.29999999999987 C 352.19999999999993 164.59999999999988 352.5999999999999 161.79999999999987 353.5999999999999 160.29999999999987 C 353.5999999999999 160.19999999999987 353.69999999999993 160.09999999999988 353.7999999999999 159.99999999999986 C 353.4 160.3 353.4 160.3 353.4 160.2 Z" data-stroke-width="0.5" style="stroke-width: 0.5; fill: rgb(253, 189, 196); stroke: rgb(71, 71, 71);" class="[object SVGAnimatedString]    " id="ha-noi" title="Hà Nội"></path>
<path fill="#FDBDC4" stroke="#474747" stroke-width="0.5" d="M329.9,277.9c-0.8,1.1-1.7,2-2.5,2.2c-4.6,1.5-13.2-6.2-17.9-6.8  c-1.6-0.2-4.7,0.7-6.3,0.5c-5.2-0.6-15.6-3.5-20-6.3c-2.7-1.7-5.5-8.2-8.4-9.5c-4.8-2.1-15.8,0-21.1,0.5c-9.2,0.9-27.1,6.9-36.3,6.3  c-5.4-0.3-16.2-3.1-20.5-6.3c-5.5-4.1-13.7-21.1-14.7-23.2c-1.1-2.1-3.2-19.5-8.4-22.6c-3.3-2-11.4,1.7-15.3,2.1  c-4.3,0.5-13.1,2.6-17.4,1.6c-3.4-0.8-10-5.3-14.7-8.6c0.5-1.1,0.7-2.1,0.8-3c0.2-4.5-6.8-12.4-6.3-16.8c0.4-3.9,6.7-9.8,8.4-13.3  c3.7-7.7,8.7-24.3,11.2-32.5c0.9-2.9,3.4-8.6,3.2-11.6c-0.3-4.3-2.8-14.2-6.8-15.8c-2.4-0.9-6.9,3.8-9.5,4.2  c-3.2,0.6-10.9,1.4-13.2-1.1c-2.7-2.9,0.4-11.9,0-15.8c-0.6-6.1-3-18.3-4.7-24.2c-0.4-1.4-1.3-3.5-2.1-5.7c1.9-2.1,5.1-4.2,6.9-4.8  c3.1-1.1,9.9,1.2,13.2,1.1c2.7-0.2,7.9-2.6,10.5-2.1c2,0.4,5,3.3,6.8,4.2c2.5,1.3,7.8,3.5,10.5,4.2c4,1,13,4,16.3,1.6  c1.3-0.9,0.2-5.4,1.6-6.3c3-2.1,11.2,2.8,14.7,1.6c2.9-1,6.1-7.3,9-8.4c2.7-1.1,9.3,1.8,11.6,0c2.6-2,0.8-10.4,3.2-12.6  c1.9-1.7,7.8-0.3,10-1.6c1.5-0.9,3.5-3.5,5.2-6c1.3,1.5,2.5,2.7,3.6,3.5c3.9,2.7,14.2,3.6,17.6,7c1.7,1.8,2.2,7,3.5,9.1  c2.4,3.8,10.9,11.9,12.6,12.6c1.7,0.7,8.4,4.7,10.5,7c2.4,2.6,4.9,9.5,7,12.3c2.2,2.9,7.5,8.1,10.5,10.2c3.7,2.5,12.1,5.7,16.1,7.4  c3.6,1.5,11.7,3.1,14.7,5.6c2.2,1.8,3.9,7.9,6,9.8c3.2,3,12.5,4.8,15.4,8.1c2.6,2.8,4.9,12.6,5.3,14.4c0.3,1.4,2.8,6.4,3.8,10.1  c-0.1,0.1-0.2,0.3-0.3,0.4c-1.9,3-1.4,10.6-3.2,13.7c-1.3,2.2-5.6,5.1-7.4,6.8c-2.6,2.6-8.4,7.3-10,10.5c-1.7,3.5-0.5,11.7-2.1,15.3  c-0.9,2-5.5,4.6-5.8,6.8c-0.7,4.7,7.1,12.7,7.9,17.4c0.9,5.2-1.6,15.8-1.6,21.1c0,5,2.8,15.2,1.6,20  C332.3,273.7,331.2,276.1,329.9,277.9z" data-stroke-width="0.5" style="stroke-width: 0.5; fill: rgb(253, 189, 196); stroke: rgb(71, 71, 71);" class="[object SVGAnimatedString]  " id="vinh-phuc" title="Vĩnh Phúc"></path>
<path style="pointer-events: none;" fill="#0A0A0A" d="M185.3,172.1l-6.9-17.3h3.9l3.6,9.4c0.2,0.5,0.4,1,0.5,1.4c0.1,0.4,0.3,0.7,0.4,1.1c0.1,0.3,0.2,0.7,0.3,1  c0.1,0.3,0.2,0.7,0.3,1l-0.7,0c0.1-0.5,0.3-1,0.4-1.4c0.1-0.4,0.3-0.9,0.4-1.4c0.2-0.5,0.4-1,0.6-1.7l3.4-9.4h3.9l-7,17.3H185.3z   M197.4,172.1V159h3.5v13.1H197.4z M200.7,156.9c-0.3,0-0.6-0.1-0.8-0.2c-0.3-0.1-0.6-0.3-0.9-0.5c-0.3-0.2-0.5-0.4-0.7-0.5  c-0.2-0.1-0.3-0.1-0.4-0.1c-0.2,0-0.4,0.1-0.6,0.3c-0.2,0.2-0.3,0.5-0.3,0.9l-2.1-0.3c0-0.9,0.3-1.6,0.8-2.3c0.5-0.6,1.2-1,2-1  c0.3,0,0.6,0,0.8,0.1c0.3,0.1,0.6,0.3,0.9,0.5c0.2,0.2,0.5,0.4,0.6,0.5c0.2,0.1,0.4,0.2,0.5,0.2c0.2,0,0.4-0.1,0.6-0.3  c0.2-0.2,0.3-0.5,0.3-0.9l2,0.3c0,0.6-0.1,1.1-0.4,1.6c-0.2,0.5-0.6,0.9-1,1.2C201.8,156.8,201.3,156.9,200.7,156.9z M204.4,172.1  V159h3.4l0.1,2.7l-0.7,0.3c0.2-0.6,0.5-1.1,1-1.6c0.5-0.5,1-0.9,1.7-1.2c0.7-0.3,1.4-0.4,2.1-0.4c1,0,1.8,0.2,2.5,0.6  c0.7,0.4,1.2,1,1.5,1.8c0.3,0.8,0.5,1.8,0.5,2.9v8h-3.5v-7.7c0-0.6-0.1-1.1-0.2-1.5c-0.2-0.4-0.4-0.7-0.8-0.9  c-0.3-0.2-0.7-0.3-1.2-0.2c-0.4,0-0.8,0.1-1.1,0.2c-0.3,0.1-0.6,0.3-0.9,0.5c-0.2,0.2-0.4,0.5-0.6,0.8c-0.1,0.3-0.2,0.6-0.2,1v7.9  h-1.7c-0.4,0-0.7,0-1,0S204.6,172.1,204.4,172.1z M219.7,172.1v-18.3h3.5v7.9l-0.7,0.3c0.2-0.6,0.5-1.1,1-1.6c0.5-0.5,1-0.9,1.7-1.2  c0.7-0.3,1.4-0.4,2.1-0.4c1,0,1.8,0.2,2.5,0.6c0.7,0.4,1.2,1,1.5,1.8c0.3,0.8,0.5,1.8,0.5,2.9v8h-3.5v-7.7c0-0.6-0.1-1.1-0.2-1.5  c-0.2-0.4-0.4-0.7-0.8-0.9c-0.3-0.2-0.7-0.3-1.2-0.2c-0.4,0-0.8,0.1-1.1,0.2c-0.3,0.1-0.6,0.3-0.9,0.5c-0.2,0.2-0.4,0.5-0.6,0.8  c-0.1,0.3-0.2,0.6-0.2,1v7.9h-1.7c-0.4,0-0.7,0-1,0S220,172.1,219.7,172.1z M243.2,172.1v-17.3h7.3c1,0,1.9,0.2,2.8,0.7  c0.8,0.5,1.5,1.1,2,2c0.5,0.8,0.7,1.8,0.7,2.8c0,1.1-0.2,2-0.7,2.9c-0.5,0.9-1.1,1.5-2,2.1c-0.8,0.5-1.7,0.7-2.8,0.7h-3.6v6.1H243.2  z M246.9,162.7h3.3c0.4,0,0.8-0.1,1.1-0.3c0.3-0.2,0.6-0.5,0.7-0.8c0.2-0.3,0.3-0.7,0.3-1.2c0-0.4-0.1-0.8-0.3-1.2  c-0.2-0.3-0.4-0.6-0.7-0.8c-0.3-0.2-0.7-0.3-1.1-0.3h-3.3V162.7z M258.9,172.1v-18.3h3.5v7.9l-0.7,0.3c0.2-0.6,0.5-1.1,1-1.6  c0.5-0.5,1-0.9,1.7-1.2c0.7-0.3,1.4-0.4,2.1-0.4c1,0,1.8,0.2,2.5,0.6c0.7,0.4,1.2,1,1.5,1.8c0.3,0.8,0.5,1.8,0.5,2.9v8h-3.5v-7.7  c0-0.6-0.1-1.1-0.2-1.5c-0.2-0.4-0.4-0.7-0.8-0.9c-0.3-0.2-0.7-0.3-1.2-0.2c-0.4,0-0.8,0.1-1.1,0.2c-0.3,0.1-0.6,0.3-0.9,0.5  c-0.2,0.2-0.4,0.5-0.6,0.8c-0.1,0.3-0.2,0.6-0.2,1v7.9h-1.7c-0.4,0-0.7,0-1,0S259.1,172.1,258.9,172.1z M278.8,172.4  c-1,0-1.8-0.2-2.5-0.6c-0.7-0.4-1.2-1-1.6-1.8c-0.4-0.8-0.5-1.7-0.5-2.8V159h3.5v7.5c0,0.6,0.1,1.1,0.3,1.6c0.2,0.4,0.5,0.8,0.8,1  c0.4,0.2,0.8,0.3,1.3,0.3c0.4,0,0.7-0.1,1.1-0.2c0.3-0.1,0.6-0.3,0.8-0.5c0.2-0.2,0.4-0.5,0.5-0.8c0.1-0.3,0.2-0.7,0.2-1V159h3.5  v13.1H283l-0.1-2.7l0.6-0.3c-0.2,0.6-0.5,1.2-1,1.7c-0.5,0.5-1,0.9-1.7,1.2C280.2,172.2,279.5,172.4,278.8,172.4z M278.4,157.4  l-1.1-1.6l4.1-3.4l1.8,2.4L278.4,157.4z M295.5,172.4c-1.3,0-2.4-0.3-3.4-0.9s-1.8-1.4-2.4-2.4c-0.6-1-0.8-2.2-0.8-3.5  c0-1.3,0.3-2.4,0.8-3.5c0.6-1,1.4-1.9,2.4-2.4c1-0.6,2.1-0.9,3.4-0.9c1.2,0,2.2,0.2,3.2,0.6c1,0.4,1.7,1,2.3,1.8l-1.9,2.3  c-0.2-0.3-0.5-0.6-0.9-0.8c-0.3-0.3-0.7-0.5-1.1-0.6c-0.4-0.1-0.8-0.2-1.2-0.2c-0.7,0-1.3,0.2-1.8,0.5c-0.5,0.3-0.9,0.8-1.2,1.3  c-0.3,0.6-0.4,1.2-0.4,1.9c0,0.7,0.1,1.3,0.4,1.9c0.3,0.5,0.7,1,1.3,1.3c0.5,0.3,1.1,0.5,1.8,0.5c0.4,0,0.8-0.1,1.2-0.2  c0.4-0.1,0.7-0.3,1.1-0.6c0.3-0.2,0.7-0.5,0.9-0.9l1.9,2.3c-0.6,0.7-1.3,1.3-2.3,1.7C297.7,172.1,296.6,172.4,295.5,172.4z"></path>
<path style="pointer-events: none;" fill="#0A0A0A" d="M309.7,359.4v-17.3h3.7v17.3H309.7z M298.8,359.4v-17.3h3.7v17.3H298.8z M300.3,352.5l0-3.4h11.3v3.4H300.3z   M322.3,359.6c-1.1,0-2.1-0.3-2.9-0.9c-0.9-0.6-1.6-1.4-2.1-2.4c-0.5-1-0.8-2.2-0.8-3.5c0-1.3,0.3-2.5,0.8-3.5  c0.5-1,1.2-1.8,2.1-2.4c0.9-0.6,1.9-0.9,3-0.9c0.6,0,1.2,0.1,1.8,0.3c0.5,0.2,1,0.4,1.4,0.8c0.4,0.3,0.8,0.7,1,1.1  c0.3,0.4,0.5,0.9,0.6,1.4l-0.7-0.1v-3.2h3.5v13.1h-3.5v-3.1l0.8-0.1c-0.1,0.5-0.3,0.9-0.6,1.3s-0.7,0.8-1.1,1.1  c-0.4,0.3-0.9,0.6-1.5,0.8C323.5,359.6,323,359.6,322.3,359.6z M323.3,356.6c0.7,0,1.2-0.2,1.7-0.5c0.5-0.3,0.9-0.8,1.1-1.3  c0.3-0.6,0.4-1.2,0.4-2c0-0.7-0.1-1.4-0.4-2c-0.3-0.6-0.6-1-1.1-1.3c-0.5-0.3-1.1-0.5-1.7-0.5c-0.6,0-1.2,0.2-1.7,0.5  c-0.5,0.3-0.9,0.8-1.1,1.3c-0.3,0.6-0.4,1.2-0.4,2c0,0.8,0.1,1.4,0.4,2c0.3,0.6,0.7,1,1.1,1.3C322.1,356.4,322.7,356.6,323.3,356.6z   M325.1,344.7l-4.8-2.6l1.8-2.4l4.1,3.4L325.1,344.7z M341.6,359.4v-17.3h3.3l9.6,12.9h-0.7c-0.1-0.5-0.1-1-0.2-1.5  c0-0.5-0.1-1-0.1-1.5c0-0.5-0.1-1-0.1-1.6c0-0.5,0-1.1,0-1.7c0-0.6,0-1.3,0-2v-4.7h3.6v17.3h-3.4l-9.8-13.1l0.9,0  c0.1,0.9,0.1,1.6,0.2,2.2c0.1,0.6,0.1,1.1,0.1,1.6c0,0.4,0.1,0.8,0.1,1.2c0,0.3,0,0.6,0,0.9c0,0.3,0,0.6,0,0.9v6.2H341.6z   M367.1,359.6c-1.3,0-2.5-0.3-3.6-0.9c-1-0.6-1.9-1.4-2.5-2.4c-0.6-1-0.9-2.2-0.9-3.5c0-1.3,0.3-2.5,0.9-3.5c0.6-1,1.4-1.8,2.5-2.4  c1.1-0.6,2.3-0.9,3.6-0.9c1.3,0,2.5,0.3,3.5,0.9c1.1,0.6,1.9,1.4,2.5,2.4c0.6,1,0.9,2.2,0.9,3.5c0,1.3-0.3,2.5-0.9,3.5  c-0.6,1-1.4,1.8-2.5,2.4C369.6,359.4,368.4,359.6,367.1,359.6z M367.1,356.6c0.6,0,1.2-0.2,1.7-0.5c0.5-0.3,0.9-0.8,1.2-1.3  c0.3-0.6,0.4-1.2,0.4-1.9c0-0.7-0.1-1.4-0.4-1.9c-0.3-0.6-0.7-1-1.2-1.3c-0.5-0.3-1.1-0.5-1.7-0.5c-0.7,0-1.2,0.2-1.8,0.5  c-0.5,0.3-0.9,0.8-1.2,1.3c-0.3,0.6-0.4,1.2-0.4,1.9c0,0.7,0.1,1.4,0.4,1.9c0.3,0.6,0.7,1,1.2,1.3  C365.8,356.4,366.4,356.6,367.1,356.6z M367.1,364.8c-0.7,0-1.2-0.2-1.6-0.5c-0.4-0.3-0.6-0.8-0.6-1.4c0-0.6,0.2-1,0.6-1.4  c0.4-0.4,0.9-0.5,1.6-0.5c0.7,0,1.2,0.2,1.6,0.5c0.4,0.3,0.6,0.8,0.6,1.4c0,0.6-0.2,1-0.6,1.4C368.3,364.6,367.7,364.8,367.1,364.8z   M363.9,344.5l-1.3-1.1l3.3-3.1h2.3l3.3,3.1l-1.3,1.1l-3.6-2h0.7L363.9,344.5z M376.9,359.4v-13.1h3.5v13.1H376.9z M378.6,343.6  c-0.7,0-1.2-0.2-1.6-0.5c-0.4-0.3-0.6-0.8-0.6-1.4c0-0.6,0.2-1,0.6-1.4c0.4-0.4,0.9-0.5,1.6-0.5c0.7,0,1.2,0.2,1.6,0.5  c0.4,0.3,0.6,0.8,0.6,1.4c0,0.6-0.2,1-0.6,1.4C379.8,343.4,379.3,343.6,378.6,343.6z"></path>
<path style="pointer-events: none;" fill="#0A0A0A" d="M483.7,302.9v-17.3h7.5c1.2,0,2.1,0.2,2.9,0.5c0.8,0.3,1.4,0.8,1.8,1.5c0.4,0.6,0.6,1.4,0.6,2.3  c0,1-0.2,1.8-0.7,2.5c-0.5,0.7-1.2,1.1-2.1,1.4l0-0.5c0.8,0.2,1.4,0.5,2,0.9c0.6,0.4,1,0.9,1.3,1.5c0.3,0.6,0.5,1.3,0.5,2.1  c0,0.9-0.1,1.6-0.4,2.3c-0.3,0.6-0.7,1.2-1.2,1.6c-0.5,0.4-1.2,0.8-1.9,1c-0.7,0.2-1.5,0.3-2.4,0.3H483.7z M487.3,299.6h4.1  c0.5,0,1-0.1,1.3-0.2c0.4-0.2,0.7-0.4,0.9-0.7c0.2-0.3,0.3-0.7,0.3-1.2c0-0.4-0.1-0.8-0.3-1.1c-0.2-0.3-0.5-0.5-0.9-0.7  c-0.4-0.2-0.8-0.2-1.4-0.2h-3.9V299.6z M487.3,292.6h3.5c0.4,0,0.8-0.1,1.2-0.2c0.3-0.2,0.6-0.4,0.7-0.7c0.2-0.3,0.3-0.6,0.3-1  c0-0.6-0.2-1.1-0.6-1.4c-0.4-0.3-1-0.5-1.8-0.5h-3.3V292.6z M505.3,303.1c-1.1,0-2.1-0.3-2.9-0.9c-0.9-0.6-1.6-1.4-2.1-2.4  c-0.5-1-0.8-2.2-0.8-3.5c0-1.3,0.3-2.5,0.8-3.5c0.5-1,1.2-1.8,2.1-2.4c0.9-0.6,1.9-0.9,3-0.9c0.6,0,1.2,0.1,1.8,0.3  c0.5,0.2,1,0.4,1.4,0.8c0.4,0.3,0.8,0.7,1,1.1c0.3,0.4,0.5,0.9,0.6,1.4l-0.7-0.1v-3.2h3.5v13.1h-3.5v-3.1l0.8-0.1  c-0.1,0.5-0.3,0.9-0.6,1.3c-0.3,0.4-0.7,0.8-1.1,1.1c-0.4,0.3-0.9,0.6-1.5,0.8C506.4,303,505.9,303.1,505.3,303.1z M506.2,300.1  c0.7,0,1.2-0.2,1.7-0.5c0.5-0.3,0.9-0.8,1.1-1.3c0.3-0.6,0.4-1.2,0.4-2c0-0.7-0.1-1.4-0.4-2c-0.3-0.6-0.6-1-1.1-1.3  c-0.5-0.3-1.1-0.5-1.7-0.5c-0.6,0-1.2,0.2-1.7,0.5c-0.5,0.3-0.9,0.8-1.1,1.3c-0.3,0.6-0.4,1.2-0.4,2c0,0.8,0.1,1.4,0.4,2  c0.3,0.6,0.7,1,1.1,1.3C505,299.9,505.6,300.1,506.2,300.1z M506.7,288.2c-1.1,0-2-0.3-2.8-0.9c-0.8-0.6-1.3-1.5-1.5-2.5l2.3-0.3  c0.2,0.5,0.5,0.9,0.8,1.1c0.4,0.2,0.8,0.3,1.2,0.3c0.4,0,0.8-0.1,1.2-0.3c0.4-0.2,0.6-0.6,0.8-1.1l2.3,0.3c-0.2,1.1-0.8,1.9-1.5,2.5  C508.7,287.9,507.8,288.2,506.7,288.2z M506.9,283.9l-1.5-1l2.2-3.9l2.4,1.7L506.9,283.9z M522.2,303.1c-1.3,0-2.4-0.3-3.4-0.9  c-1-0.6-1.8-1.4-2.4-2.4c-0.6-1-0.8-2.2-0.8-3.5c0-1.3,0.3-2.4,0.8-3.5c0.6-1,1.4-1.9,2.4-2.4c1-0.6,2.1-0.9,3.4-0.9  c1.2,0,2.2,0.2,3.2,0.6c1,0.4,1.7,1,2.3,1.8l-1.9,2.3c-0.2-0.3-0.5-0.6-0.9-0.8c-0.3-0.3-0.7-0.5-1.1-0.6c-0.4-0.1-0.8-0.2-1.2-0.2  c-0.7,0-1.3,0.2-1.8,0.5c-0.5,0.3-0.9,0.8-1.2,1.3c-0.3,0.6-0.4,1.2-0.4,1.9c0,0.7,0.1,1.3,0.4,1.9c0.3,0.5,0.7,1,1.3,1.3  c0.5,0.3,1.1,0.5,1.8,0.5c0.4,0,0.8-0.1,1.2-0.2c0.4-0.1,0.7-0.3,1.1-0.6c0.3-0.2,0.7-0.5,0.9-0.9l1.9,2.3c-0.6,0.7-1.3,1.3-2.3,1.7  C524.3,302.9,523.3,303.1,522.2,303.1z M538,302.9v-17.3h3.3l9.6,12.9h-0.7c-0.1-0.5-0.1-1-0.2-1.5c0-0.5-0.1-1-0.1-1.5  c0-0.5-0.1-1-0.1-1.6c0-0.5,0-1.1,0-1.7c0-0.6,0-1.3,0-2v-4.7h3.6v17.3h-3.4l-9.8-13.1l0.9,0c0.1,0.9,0.1,1.6,0.2,2.2  c0.1,0.6,0.1,1.1,0.1,1.6c0,0.4,0.1,0.8,0.1,1.2c0,0.3,0,0.6,0,0.9c0,0.3,0,0.6,0,0.9v6.2H538z M557.6,302.9v-13.1h3.5v13.1H557.6z   M559.3,287.1c-0.7,0-1.2-0.2-1.6-0.5c-0.4-0.3-0.6-0.8-0.6-1.4c0-0.6,0.2-1,0.6-1.4c0.4-0.4,0.9-0.5,1.6-0.5c0.7,0,1.2,0.2,1.6,0.5  c0.4,0.3,0.6,0.8,0.6,1.4c0,0.6-0.2,1-0.6,1.4C560.5,286.9,560,287.1,559.3,287.1z M564.9,302.9v-13.1h3.4l0.1,2.7l-0.7,0.3  c0.2-0.6,0.5-1.1,1-1.6c0.5-0.5,1-0.9,1.7-1.2c0.7-0.3,1.4-0.4,2.1-0.4c1,0,1.8,0.2,2.5,0.6c0.7,0.4,1.2,1,1.5,1.8  c0.3,0.8,0.5,1.8,0.5,2.9v8h-3.5v-7.7c0-0.6-0.1-1.1-0.2-1.5c-0.2-0.4-0.4-0.7-0.8-0.9c-0.3-0.2-0.7-0.3-1.2-0.2  c-0.4,0-0.8,0.1-1.1,0.2c-0.3,0.1-0.6,0.3-0.9,0.5c-0.2,0.2-0.4,0.5-0.6,0.8c-0.1,0.3-0.2,0.6-0.2,1v7.9h-1.7c-0.4,0-0.7,0-1,0  C565.3,302.9,565.1,302.9,564.9,302.9z M580.2,302.9v-18.3h3.5v7.9l-0.7,0.3c0.2-0.6,0.5-1.1,1-1.6c0.5-0.5,1-0.9,1.7-1.2  c0.7-0.3,1.4-0.4,2.1-0.4c1,0,1.8,0.2,2.5,0.6c0.7,0.4,1.2,1,1.5,1.8c0.3,0.8,0.5,1.8,0.5,2.9v8h-3.5v-7.7c0-0.6-0.1-1.1-0.2-1.5  c-0.2-0.4-0.4-0.7-0.8-0.9c-0.3-0.2-0.7-0.3-1.2-0.2c-0.4,0-0.8,0.1-1.1,0.2c-0.3,0.1-0.6,0.3-0.9,0.5c-0.2,0.2-0.4,0.5-0.6,0.8  c-0.1,0.3-0.2,0.6-0.2,1v7.9H582c-0.4,0-0.7,0-1,0C580.7,302.9,580.5,302.9,580.2,302.9z"></path>
<path style="pointer-events: none;" fill="#0A0A0A" d="M621.8,401.8v-17.3h3.7v17.3H621.8z M610.9,401.8v-17.3h3.7v17.3H610.9z M612.4,394.9l0-3.4h11.3v3.4H612.4z   M634.5,402.1c-1.1,0-2.1-0.3-2.9-0.9c-0.9-0.6-1.6-1.4-2.1-2.4c-0.5-1-0.8-2.2-0.8-3.5c0-1.3,0.3-2.5,0.8-3.5  c0.5-1,1.2-1.8,2.1-2.4c0.9-0.6,1.9-0.9,3-0.9c0.6,0,1.2,0.1,1.8,0.3c0.5,0.2,1,0.4,1.4,0.8c0.4,0.3,0.8,0.7,1,1.1  c0.3,0.4,0.5,0.9,0.6,1.4l-0.7-0.1v-3.2h3.5v13.1h-3.5v-3.1l0.8-0.1c-0.1,0.5-0.3,0.9-0.6,1.3s-0.7,0.8-1.1,1.1  c-0.4,0.3-0.9,0.6-1.5,0.8C635.6,402,635.1,402.1,634.5,402.1z M635.4,399c0.7,0,1.2-0.2,1.7-0.5s0.9-0.8,1.1-1.3  c0.3-0.6,0.4-1.2,0.4-2c0-0.7-0.1-1.4-0.4-2c-0.3-0.6-0.6-1-1.1-1.3c-0.5-0.3-1.1-0.5-1.7-0.5c-0.6,0-1.2,0.2-1.7,0.5  c-0.5,0.3-0.9,0.8-1.1,1.3c-0.3,0.6-0.4,1.2-0.4,2c0,0.8,0.1,1.4,0.4,2c0.3,0.6,0.7,1,1.1,1.3C634.2,398.9,634.8,399,635.4,399z   M635.2,387.2c-0.1-0.2-0.2-0.3-0.3-0.5c-0.1-0.2-0.1-0.3-0.1-0.5c0-0.2,0-0.4,0.1-0.5c0.1-0.2,0.3-0.4,0.6-0.6  c0.2-0.2,0.4-0.3,0.5-0.4c0.1-0.1,0.2-0.2,0.2-0.4c0-0.1-0.1-0.3-0.2-0.3c-0.1-0.1-0.3-0.1-0.5-0.1c-0.3,0-0.6,0-1,0.1  c-0.3,0.1-0.7,0.2-1,0.3l-0.5-1.9c0.4-0.2,0.8-0.4,1.3-0.5c0.5-0.1,1-0.2,1.5-0.2c0.9,0,1.6,0.2,2.1,0.6c0.5,0.4,0.8,0.9,0.8,1.5  c0,0.5-0.1,0.9-0.3,1.2c-0.2,0.3-0.5,0.5-0.7,0.6c-0.3,0.2-0.5,0.3-0.7,0.4c-0.2,0.1-0.2,0.3-0.2,0.4c0,0.1,0,0.1,0,0.2  c0,0,0,0.1,0,0.1L635.2,387.2z M646,401.8v-13.1h3.5v13.1H646z M647.7,386c-0.7,0-1.2-0.2-1.6-0.5c-0.4-0.3-0.6-0.8-0.6-1.4  c0-0.6,0.2-1,0.6-1.4c0.4-0.4,0.9-0.5,1.6-0.5c0.7,0,1.2,0.2,1.6,0.5c0.4,0.3,0.6,0.8,0.6,1.4c0,0.6-0.2,1-0.6,1.4  C648.9,385.9,648.4,386,647.7,386z M661.3,401.8v-17.3h7.1c1.3,0,2.4,0.2,3.4,0.6c1,0.4,1.9,1,2.7,1.8c0.8,0.8,1.3,1.7,1.7,2.7  c0.4,1.1,0.6,2.2,0.6,3.5c0,1.3-0.2,2.4-0.6,3.5c-0.4,1.1-1,2-1.7,2.7c-0.7,0.8-1.6,1.4-2.7,1.8c-1,0.4-2.2,0.6-3.5,0.6H661.3z   M665,399.1l-0.4-0.6h3.7c0.7,0,1.4-0.1,2-0.4c0.6-0.3,1.1-0.6,1.5-1.1c0.4-0.5,0.8-1,1-1.7c0.2-0.7,0.3-1.4,0.3-2.2  s-0.1-1.5-0.3-2.2c-0.2-0.7-0.5-1.2-1-1.7c-0.4-0.5-0.9-0.8-1.5-1.1c-0.6-0.3-1.3-0.4-2-0.4h-3.7l0.5-0.6V399.1z M684.2,402.1  c-1,0-1.8-0.2-2.5-0.6c-0.7-0.4-1.2-1-1.6-1.8c-0.4-0.8-0.5-1.7-0.5-2.8v-8.1h3.5v7.5c0,0.6,0.1,1.1,0.3,1.6c0.2,0.4,0.5,0.8,0.8,1  c0.4,0.2,0.8,0.3,1.3,0.3c0.4,0,0.7-0.1,1.1-0.2c0.3-0.1,0.6-0.3,0.8-0.5c0.2-0.2,0.4-0.5,0.5-0.8c0.1-0.3,0.2-0.7,0.2-1v-7.8  c0.6,0,1.1,0,1.5-0.1c0.4-0.1,0.7-0.3,0.9-0.5c0.2-0.2,0.4-0.5,0.5-0.9c0.1-0.4,0.2-0.8,0.2-1.3h2.7c0,0.7-0.1,1.4-0.3,2.1  c-0.2,0.6-0.6,1.2-1,1.6c-0.5,0.4-1.1,0.7-1.8,0.8l0.9-1.2v12.6h-3.3l-0.1-2.9l0.4,0.5c-0.2,0.5-0.6,1-1,1.4c-0.5,0.4-1,0.7-1.6,0.9  C685.5,401.9,684.9,402.1,684.2,402.1z M701.4,402.1c-1.3,0-2.5-0.3-3.6-0.9c-1-0.6-1.9-1.4-2.5-2.4c-0.6-1-0.9-2.2-0.9-3.5  c0-1.3,0.3-2.5,0.9-3.5c0.6-1,1.4-1.8,2.5-2.4c1.1-0.6,2.3-0.9,3.6-0.9c0.3,0,0.6,0,0.9,0.1c0.3,0,0.5,0.1,0.8,0.1  c0.2,0,0.3,0.1,0.4,0.1c0.1,0,0.3,0,0.4,0c0.7,0,1.2-0.2,1.5-0.7c0.3-0.5,0.5-1.2,0.5-2.2h2.7c0,0.8-0.1,1.5-0.3,2.1  c-0.2,0.6-0.5,1.2-1,1.6c-0.5,0.4-1.1,0.7-1.8,0.9l0.3-0.6c0.8,0.6,1.4,1.4,1.9,2.3c0.5,0.9,0.7,2,0.7,3.1c0,1.3-0.3,2.5-0.9,3.5  c-0.6,1-1.4,1.8-2.5,2.4C703.9,401.8,702.7,402.1,701.4,402.1z M701.4,399c0.6,0,1.2-0.2,1.7-0.5c0.5-0.3,0.9-0.8,1.2-1.3  c0.3-0.6,0.4-1.2,0.4-1.9c0-0.7-0.1-1.4-0.4-1.9c-0.3-0.6-0.7-1-1.2-1.3c-0.5-0.3-1.1-0.5-1.7-0.5c-0.7,0-1.2,0.2-1.8,0.5  c-0.5,0.3-0.9,0.8-1.2,1.3c-0.3,0.6-0.4,1.2-0.4,1.9c0,0.7,0.1,1.4,0.4,1.9c0.3,0.6,0.7,1,1.2,1.3C700.1,398.8,700.7,399,701.4,399z   M710.9,401.8v-13.1h3.4l0.1,2.7l-0.7,0.3c0.2-0.6,0.5-1.1,1-1.6c0.5-0.5,1-0.9,1.7-1.2c0.7-0.3,1.4-0.4,2.1-0.4  c1,0,1.8,0.2,2.5,0.6c0.7,0.4,1.2,1,1.5,1.8c0.3,0.8,0.5,1.8,0.5,2.9v8h-3.5v-7.7c0-0.6-0.1-1.1-0.2-1.5c-0.2-0.4-0.4-0.7-0.8-0.9  c-0.3-0.2-0.7-0.3-1.2-0.2c-0.4,0-0.8,0.1-1.1,0.2c-0.3,0.1-0.6,0.3-0.9,0.5c-0.2,0.2-0.4,0.5-0.6,0.8c-0.1,0.3-0.2,0.6-0.2,1v7.9  h-1.7c-0.4,0-0.7,0-1,0C711.4,401.8,711.1,401.8,710.9,401.8z M732.3,407.5c-1,0-2.1-0.2-3.1-0.5c-1-0.3-1.8-0.7-2.4-1.2l1.2-2.5  c0.3,0.2,0.7,0.4,1.1,0.6c0.4,0.2,0.9,0.3,1.3,0.4c0.5,0.1,1,0.1,1.5,0.1c0.9,0,1.6-0.1,2.1-0.4c0.6-0.3,1-0.7,1.3-1.2  c0.3-0.5,0.4-1.2,0.4-2v-2.3l0.6,0.1c-0.1,0.5-0.4,1-0.8,1.5c-0.4,0.4-1,0.8-1.7,1.1c-0.7,0.3-1.4,0.4-2.1,0.4  c-1.2,0-2.3-0.3-3.2-0.8c-0.9-0.6-1.7-1.3-2.2-2.3c-0.5-1-0.8-2.1-0.8-3.4c0-1.3,0.3-2.5,0.8-3.5c0.5-1,1.3-1.8,2.2-2.4  c0.9-0.6,2-0.9,3.2-0.9c0.5,0,1,0.1,1.4,0.2c0.5,0.1,0.9,0.3,1.3,0.5c0.4,0.2,0.7,0.4,1,0.7c0.3,0.2,0.6,0.5,0.8,0.8  s0.3,0.6,0.4,0.9l-0.7,0.2l0.1-3h3.4v12.1c0,1.1-0.2,2-0.5,2.8c-0.3,0.8-0.8,1.5-1.4,2.1c-0.6,0.6-1.3,1-2.2,1.3  C734.3,407.4,733.3,407.5,732.3,407.5z M732.4,399c0.7,0,1.3-0.2,1.8-0.5c0.5-0.3,0.9-0.8,1.2-1.3c0.3-0.6,0.4-1.2,0.4-2  c0-0.7-0.1-1.4-0.4-2c-0.3-0.6-0.7-1-1.2-1.3c-0.5-0.3-1.1-0.5-1.8-0.5c-0.7,0-1.3,0.2-1.8,0.5c-0.5,0.3-0.9,0.8-1.2,1.3  c-0.3,0.6-0.4,1.2-0.4,2s0.1,1.4,0.4,2c0.3,0.6,0.7,1,1.2,1.3C731.1,398.8,731.7,399,732.4,399z"></path>
<path style="pointer-events: none;" fill="#0A0A0A" d="M765,495.5v-17.3h3.7v17.3H765z M754,495.5v-17.3h3.7v17.3H754z M755.5,488.5l0-3.4h11.3v3.4H755.5z   M777.6,495.7c-1.1,0-2.1-0.3-2.9-0.9s-1.6-1.4-2.1-2.4c-0.5-1-0.8-2.2-0.8-3.5c0-1.3,0.3-2.5,0.8-3.5c0.5-1,1.2-1.8,2.1-2.4  c0.9-0.6,1.9-0.9,3-0.9c0.6,0,1.2,0.1,1.8,0.3c0.5,0.2,1,0.4,1.4,0.8c0.4,0.3,0.8,0.7,1,1.1c0.3,0.4,0.5,0.9,0.6,1.4l-0.7-0.1v-3.2  h3.5v13.1h-3.5v-3.1l0.8-0.1c-0.1,0.5-0.3,0.9-0.6,1.3c-0.3,0.4-0.7,0.8-1.1,1.1c-0.4,0.3-0.9,0.6-1.5,0.8  C778.8,495.6,778.2,495.7,777.6,495.7z M778.5,492.7c0.7,0,1.2-0.2,1.7-0.5c0.5-0.3,0.9-0.8,1.1-1.3c0.3-0.6,0.4-1.2,0.4-2  c0-0.7-0.1-1.4-0.4-2c-0.3-0.6-0.6-1-1.1-1.3c-0.5-0.3-1.1-0.5-1.7-0.5c-0.6,0-1.2,0.2-1.7,0.5c-0.5,0.3-0.9,0.8-1.1,1.3  c-0.3,0.6-0.4,1.2-0.4,2c0,0.8,0.1,1.4,0.4,2c0.3,0.6,0.7,1,1.1,1.3C777.3,492.5,777.9,492.7,778.5,492.7z M778.4,480.8  c-0.1-0.2-0.2-0.3-0.3-0.5c-0.1-0.2-0.1-0.3-0.1-0.5c0-0.2,0-0.4,0.1-0.5c0.1-0.2,0.3-0.4,0.6-0.6c0.2-0.2,0.4-0.3,0.5-0.4  c0.1-0.1,0.2-0.2,0.2-0.4c0-0.1-0.1-0.3-0.2-0.3c-0.1-0.1-0.3-0.1-0.5-0.1c-0.3,0-0.6,0-1,0.1c-0.3,0.1-0.7,0.2-1,0.3l-0.5-1.9  c0.4-0.2,0.8-0.4,1.3-0.5c0.5-0.1,1-0.2,1.5-0.2c0.9,0,1.6,0.2,2.1,0.6c0.5,0.4,0.8,0.9,0.8,1.5c0,0.5-0.1,0.9-0.3,1.2  c-0.2,0.3-0.5,0.5-0.7,0.6c-0.3,0.2-0.5,0.3-0.7,0.4c-0.2,0.1-0.2,0.3-0.2,0.4c0,0.1,0,0.1,0,0.2c0,0,0,0.1,0,0.1L778.4,480.8z   M789.1,495.5v-13.1h3.5v13.1H789.1z M790.8,479.7c-0.7,0-1.2-0.2-1.6-0.5c-0.4-0.3-0.6-0.8-0.6-1.4c0-0.6,0.2-1,0.6-1.4  c0.4-0.4,0.9-0.5,1.6-0.5c0.7,0,1.2,0.2,1.6,0.5c0.4,0.3,0.6,0.8,0.6,1.4c0,0.6-0.2,1-0.6,1.4C792,479.5,791.5,479.7,790.8,479.7z   M804.4,495.5v-17.3h7.3c1,0,1.9,0.2,2.8,0.7c0.8,0.5,1.5,1.1,2,2c0.5,0.8,0.7,1.8,0.7,2.8c0,1.1-0.2,2-0.7,2.9  c-0.5,0.9-1.1,1.5-2,2.1c-0.8,0.5-1.7,0.7-2.8,0.7h-3.6v6.1H804.4z M808.1,486.1h3.3c0.4,0,0.8-0.1,1.1-0.3c0.3-0.2,0.6-0.5,0.7-0.8  c0.2-0.3,0.3-0.7,0.3-1.2c0-0.4-0.1-0.8-0.3-1.2c-0.2-0.3-0.4-0.6-0.7-0.8c-0.3-0.2-0.7-0.3-1.1-0.3h-3.3V486.1z M820.1,495.5v-18.3  h3.5v7.9l-0.7,0.3c0.2-0.6,0.5-1.1,1-1.6c0.5-0.5,1-0.9,1.7-1.2c0.7-0.3,1.4-0.4,2.1-0.4c1,0,1.8,0.2,2.5,0.6c0.7,0.4,1.2,1,1.5,1.8  c0.3,0.8,0.5,1.8,0.5,2.9v8h-3.5v-7.7c0-0.6-0.1-1.1-0.2-1.5c-0.2-0.4-0.4-0.7-0.8-0.9c-0.3-0.2-0.7-0.3-1.2-0.2  c-0.4,0-0.8,0.1-1.1,0.2c-0.3,0.1-0.6,0.3-0.9,0.5c-0.2,0.2-0.4,0.5-0.6,0.8c-0.1,0.3-0.2,0.6-0.2,1v7.9h-1.7c-0.4,0-0.7,0-1,0  C820.6,495.5,820.3,495.5,820.1,495.5z M841.6,495.7c-1.3,0-2.5-0.3-3.6-0.9c-1-0.6-1.9-1.4-2.5-2.4c-0.6-1-0.9-2.2-0.9-3.5  c0-1.3,0.3-2.5,0.9-3.5c0.6-1,1.4-1.8,2.5-2.4c1.1-0.6,2.3-0.9,3.6-0.9c1.3,0,2.5,0.3,3.5,0.9c1.1,0.6,1.9,1.4,2.5,2.4  c0.6,1,0.9,2.2,0.9,3.5c0,1.3-0.3,2.5-0.9,3.5c-0.6,1-1.4,1.8-2.5,2.4C844.1,495.4,842.9,495.7,841.6,495.7z M841.6,492.6  c0.6,0,1.2-0.2,1.7-0.5c0.5-0.3,0.9-0.8,1.2-1.3c0.3-0.6,0.4-1.2,0.4-1.9c0-0.7-0.1-1.4-0.4-1.9c-0.3-0.6-0.7-1-1.2-1.3  c-0.5-0.3-1.1-0.5-1.7-0.5c-0.7,0-1.2,0.2-1.8,0.5c-0.5,0.3-0.9,0.8-1.2,1.3c-0.3,0.6-0.4,1.2-0.4,1.9c0,0.7,0.1,1.4,0.4,1.9  c0.3,0.6,0.7,1,1.2,1.3C840.3,492.5,840.9,492.6,841.6,492.6z M843,480.7l-4.8-2.6l1.8-2.4l4.1,3.4L843,480.7z M851.1,495.5v-13.1  h3.4l0.1,2.7l-0.7,0.3c0.2-0.6,0.5-1.1,1-1.6c0.5-0.5,1-0.9,1.7-1.2c0.7-0.3,1.4-0.4,2.1-0.4c1,0,1.8,0.2,2.5,0.6  c0.7,0.4,1.2,1,1.5,1.8c0.3,0.8,0.5,1.8,0.5,2.9v8h-3.5v-7.7c0-0.6-0.1-1.1-0.2-1.5c-0.2-0.4-0.4-0.7-0.8-0.9  c-0.3-0.2-0.7-0.3-1.2-0.2c-0.4,0-0.8,0.1-1.1,0.2c-0.3,0.1-0.6,0.3-0.9,0.5c-0.2,0.2-0.4,0.5-0.6,0.8c-0.1,0.3-0.2,0.6-0.2,1v7.9  h-1.7c-0.4,0-0.7,0-1,0C851.6,495.5,851.3,495.5,851.1,495.5z M872.5,501.1c-1,0-2.1-0.2-3.1-0.5c-1-0.3-1.8-0.7-2.4-1.2l1.2-2.5  c0.3,0.2,0.7,0.4,1.1,0.6c0.4,0.2,0.9,0.3,1.3,0.4c0.5,0.1,1,0.1,1.5,0.1c0.9,0,1.6-0.1,2.1-0.4c0.6-0.3,1-0.7,1.3-1.2  c0.3-0.5,0.4-1.2,0.4-2v-2.3l0.6,0.1c-0.1,0.5-0.4,1-0.8,1.5c-0.4,0.4-1,0.8-1.7,1.1c-0.7,0.3-1.4,0.4-2.1,0.4  c-1.2,0-2.3-0.3-3.2-0.8c-0.9-0.6-1.7-1.3-2.2-2.3c-0.5-1-0.8-2.1-0.8-3.4c0-1.3,0.3-2.5,0.8-3.5c0.5-1,1.3-1.8,2.2-2.4  c0.9-0.6,2-0.9,3.2-0.9c0.5,0,1,0.1,1.4,0.2c0.5,0.1,0.9,0.3,1.3,0.5c0.4,0.2,0.7,0.4,1,0.7c0.3,0.2,0.6,0.5,0.8,0.8  c0.2,0.3,0.3,0.6,0.4,0.9l-0.7,0.2l0.1-3h3.4v12.1c0,1.1-0.2,2-0.5,2.8c-0.3,0.8-0.8,1.5-1.4,2.1c-0.6,0.6-1.3,1-2.2,1.3  C874.5,501,873.5,501.1,872.5,501.1z M872.6,492.6c0.7,0,1.3-0.2,1.8-0.5c0.5-0.3,0.9-0.8,1.2-1.3c0.3-0.6,0.4-1.2,0.4-2  c0-0.7-0.1-1.4-0.4-2c-0.3-0.6-0.7-1-1.2-1.3c-0.5-0.3-1.1-0.5-1.8-0.5c-0.7,0-1.3,0.2-1.8,0.5c-0.5,0.3-0.9,0.8-1.2,1.3  c-0.3,0.6-0.4,1.2-0.4,2c0,0.7,0.1,1.4,0.4,2c0.3,0.6,0.7,1,1.2,1.3C871.3,492.5,871.9,492.6,872.6,492.6z"></path>
<path style="pointer-events: none;" fill="#0A0A0A" d="M462.8,463.7v-17.3h3.7v17.3H462.8z M451.9,463.7v-17.3h3.7v17.3H451.9z M453.4,456.7l0-3.4h11.3v3.4H453.4z   M475,463.9c-1,0-1.8-0.2-2.5-0.6c-0.7-0.4-1.2-1-1.6-1.8c-0.4-0.8-0.5-1.7-0.5-2.8v-8.1h3.5v7.5c0,0.6,0.1,1.1,0.3,1.6  c0.2,0.4,0.5,0.8,0.8,1c0.4,0.2,0.8,0.3,1.3,0.3c0.4,0,0.7-0.1,1.1-0.2c0.3-0.1,0.6-0.3,0.8-0.5c0.2-0.2,0.4-0.5,0.5-0.8  c0.1-0.3,0.2-0.7,0.2-1v-7.8c0.6,0,1.1,0,1.5-0.1c0.4-0.1,0.7-0.3,0.9-0.5c0.2-0.2,0.4-0.5,0.5-0.9c0.1-0.4,0.2-0.8,0.2-1.3h2.7  c0,0.7-0.1,1.4-0.3,2.1c-0.2,0.6-0.6,1.2-1,1.6c-0.5,0.4-1.1,0.7-1.8,0.8l0.9-1.2v12.6h-3.3l-0.1-2.9l0.4,0.5c-0.2,0.5-0.6,1-1,1.4  c-0.5,0.4-1,0.7-1.6,0.9C476.3,463.8,475.7,463.9,475,463.9z M486.1,463.7v-13.1h3.4l0.1,2.7l-0.7,0.3c0.2-0.6,0.5-1.1,1-1.6  c0.5-0.5,1-0.9,1.7-1.2c0.7-0.3,1.4-0.4,2.1-0.4c1,0,1.8,0.2,2.5,0.6c0.7,0.4,1.2,1,1.5,1.8c0.3,0.8,0.5,1.8,0.5,2.9v8h-3.5v-7.7  c0-0.6-0.1-1.1-0.2-1.5c-0.2-0.4-0.4-0.7-0.8-0.9c-0.3-0.2-0.7-0.3-1.2-0.2c-0.4,0-0.8,0.1-1.1,0.2c-0.3,0.1-0.6,0.3-0.9,0.5  c-0.2,0.2-0.4,0.5-0.6,0.8c-0.1,0.3-0.2,0.6-0.2,1v7.9h-1.7c-0.4,0-0.7,0-1,0S486.3,463.7,486.1,463.7z M507.5,469.3  c-1,0-2.1-0.2-3.1-0.5c-1-0.3-1.8-0.7-2.4-1.2l1.2-2.5c0.3,0.2,0.7,0.4,1.1,0.6c0.4,0.2,0.9,0.3,1.3,0.4c0.5,0.1,1,0.1,1.5,0.1  c0.9,0,1.6-0.1,2.1-0.4c0.6-0.3,1-0.7,1.3-1.2c0.3-0.5,0.4-1.2,0.4-2v-2.3l0.6,0.1c-0.1,0.5-0.4,1-0.8,1.5c-0.4,0.4-1,0.8-1.7,1.1  c-0.7,0.3-1.4,0.4-2.1,0.4c-1.2,0-2.3-0.3-3.2-0.8c-0.9-0.6-1.7-1.3-2.2-2.3c-0.5-1-0.8-2.1-0.8-3.4c0-1.3,0.3-2.5,0.8-3.5  c0.5-1,1.3-1.8,2.2-2.4c0.9-0.6,2-0.9,3.2-0.9c0.5,0,1,0.1,1.4,0.2c0.5,0.1,0.9,0.3,1.3,0.5c0.4,0.2,0.7,0.4,1,0.7  c0.3,0.2,0.6,0.5,0.8,0.8c0.2,0.3,0.3,0.6,0.4,0.9l-0.7,0.2l0.1-3h3.4v12.1c0,1.1-0.2,2-0.5,2.8c-0.3,0.8-0.8,1.5-1.4,2.1  c-0.6,0.6-1.3,1-2.2,1.3C509.5,469.2,508.5,469.3,507.5,469.3z M507.6,460.8c0.7,0,1.3-0.2,1.8-0.5c0.5-0.3,0.9-0.8,1.2-1.3  c0.3-0.6,0.4-1.2,0.4-2c0-0.7-0.1-1.4-0.4-2c-0.3-0.6-0.7-1-1.2-1.3c-0.5-0.3-1.1-0.5-1.8-0.5c-0.7,0-1.3,0.2-1.8,0.5  c-0.5,0.3-0.9,0.8-1.2,1.3c-0.3,0.6-0.4,1.2-0.4,2s0.1,1.4,0.4,2c0.3,0.6,0.7,1,1.2,1.3C506.3,460.7,506.9,460.8,507.6,460.8z   M530.5,463.7V455l0.2,1.2l-7-9.9h4.3l5.3,7.7l-1.7-0.1l4.8-7.6h4.1l-6.7,10.2l0.4-1.7v8.8H530.5z M546.5,463.9  c-1.4,0-2.7-0.3-3.7-0.9c-1.1-0.6-1.9-1.4-2.5-2.4c-0.6-1-0.9-2.2-0.9-3.5c0-1,0.2-1.9,0.5-2.8c0.3-0.8,0.8-1.6,1.4-2.2  c0.6-0.6,1.3-1.1,2.1-1.4c0.8-0.3,1.7-0.5,2.7-0.5c0.9,0,1.7,0.2,2.5,0.5c0.8,0.3,1.4,0.8,2,1.4c0.6,0.6,1,1.3,1.3,2.1  c0.3,0.8,0.4,1.7,0.4,2.6l0,1.1h-10.5l-0.6-2.2h8.2l-0.4,0.4v-0.5c0-0.4-0.2-0.8-0.4-1.2c-0.2-0.4-0.6-0.6-1-0.8  c-0.4-0.2-0.8-0.3-1.3-0.3c-0.7,0-1.3,0.1-1.9,0.4c-0.5,0.3-0.9,0.7-1.1,1.2c-0.3,0.5-0.4,1.2-0.4,2c0,0.8,0.2,1.5,0.5,2.1  c0.3,0.6,0.8,1,1.4,1.4c0.6,0.3,1.4,0.5,2.2,0.5c0.6,0,1.1-0.1,1.6-0.3c0.5-0.2,1-0.5,1.5-0.9l1.7,2.4c-0.5,0.4-1,0.8-1.6,1.1  c-0.6,0.3-1.2,0.5-1.8,0.6C547.7,463.8,547.1,463.9,546.5,463.9z M542.9,448.7l-1.3-1.1l3.3-3.1h2.3l3.3,3.1l-1.3,1.1l-3.6-2h0.7  L542.9,448.7z M554.8,463.7v-13.1h3.4l0.1,2.7l-0.7,0.3c0.2-0.6,0.5-1.1,1-1.6c0.5-0.5,1-0.9,1.7-1.2c0.7-0.3,1.4-0.4,2.1-0.4  c1,0,1.8,0.2,2.5,0.6c0.7,0.4,1.2,1,1.5,1.8c0.3,0.8,0.5,1.8,0.5,2.9v8h-3.5v-7.7c0-0.6-0.1-1.1-0.2-1.5c-0.2-0.4-0.4-0.7-0.8-0.9  c-0.3-0.2-0.7-0.3-1.2-0.2c-0.4,0-0.8,0.1-1.1,0.2c-0.3,0.1-0.6,0.3-0.9,0.5c-0.2,0.2-0.4,0.5-0.6,0.8c-0.1,0.3-0.2,0.6-0.2,1v7.9  h-1.7c-0.4,0-0.7,0-1,0S555,463.7,554.8,463.7z"></path>
<path style="pointer-events: none;" fill="#0A0A0A" d="M399.2,610.3V593h3.7v17.3H399.2z M388.3,610.3V593h3.7v17.3H388.3z M389.8,603.4l0-3.4h11.3v3.4H389.8z   M411.8,610.6c-1.1,0-2.1-0.3-2.9-0.9s-1.6-1.4-2.1-2.4c-0.5-1-0.8-2.2-0.8-3.5s0.3-2.5,0.8-3.5c0.5-1,1.2-1.8,2.1-2.4  c0.9-0.6,1.9-0.9,3-0.9c0.6,0,1.2,0.1,1.8,0.3c0.5,0.2,1,0.4,1.4,0.8c0.4,0.3,0.8,0.7,1,1.1c0.3,0.4,0.5,0.9,0.6,1.4l-0.7-0.1v-3.2  h3.5v13.1H416v-3.1l0.8-0.1c-0.1,0.5-0.3,0.9-0.6,1.3c-0.3,0.4-0.7,0.8-1.1,1.1c-0.4,0.3-0.9,0.6-1.5,0.8  C413,610.5,412.4,610.6,411.8,610.6z M412.8,607.5c0.7,0,1.2-0.2,1.7-0.5c0.5-0.3,0.9-0.8,1.1-1.3c0.3-0.6,0.4-1.2,0.4-2  c0-0.7-0.1-1.4-0.4-2c-0.3-0.6-0.6-1-1.1-1.3c-0.5-0.3-1.1-0.5-1.7-0.5c-0.6,0-1.2,0.2-1.7,0.5c-0.5,0.3-0.9,0.8-1.1,1.3  c-0.3,0.6-0.4,1.2-0.4,2c0,0.8,0.1,1.4,0.4,2c0.3,0.6,0.7,1,1.1,1.3C411.6,607.4,412.1,607.5,412.8,607.5z M414.6,595.6l-4.8-2.6  l1.8-2.4l4.1,3.4L414.6,595.6z M431.1,610.3V593h3.3l9.6,12.9h-0.7c-0.1-0.5-0.1-1-0.2-1.5c0-0.5-0.1-1-0.1-1.5c0-0.5-0.1-1-0.1-1.6  c0-0.5,0-1.1,0-1.7c0-0.6,0-1.3,0-2V593h3.6v17.3h-3.4l-9.8-13.1l0.9,0c0.1,0.9,0.1,1.6,0.2,2.2c0.1,0.6,0.1,1.1,0.1,1.6  c0,0.4,0.1,0.8,0.1,1.2c0,0.3,0,0.6,0,0.9c0,0.3,0,0.6,0,0.9v6.2H431.1z M455.4,610.6c-1.1,0-2.1-0.3-2.9-0.9  c-0.9-0.6-1.6-1.4-2.1-2.4c-0.5-1-0.8-2.2-0.8-3.5s0.3-2.5,0.8-3.5c0.5-1,1.2-1.8,2.1-2.4c0.9-0.6,1.9-0.9,3-0.9  c0.6,0,1.2,0.1,1.8,0.3c0.5,0.2,1,0.4,1.4,0.8c0.4,0.3,0.8,0.7,1,1.1c0.3,0.4,0.5,0.9,0.6,1.4l-0.7-0.1v-3.2h3.5v13.1h-3.5v-3.1  l0.8-0.1c-0.1,0.5-0.3,0.9-0.6,1.3c-0.3,0.4-0.7,0.8-1.1,1.1c-0.4,0.3-0.9,0.6-1.5,0.8C456.5,610.5,456,610.6,455.4,610.6z   M456.3,607.5c0.7,0,1.2-0.2,1.7-0.5s0.9-0.8,1.1-1.3c0.3-0.6,0.4-1.2,0.4-2c0-0.7-0.1-1.4-0.4-2c-0.3-0.6-0.6-1-1.1-1.3  c-0.5-0.3-1.1-0.5-1.7-0.5c-0.6,0-1.2,0.2-1.7,0.5c-0.5,0.3-0.9,0.8-1.1,1.3c-0.3,0.6-0.4,1.2-0.4,2c0,0.8,0.1,1.4,0.4,2  c0.3,0.6,0.7,1,1.1,1.3C455.1,607.4,455.7,607.5,456.3,607.5z M466.5,610.3v-13.1h3.4l0.1,2.5l-0.5,0.1c0.2-0.4,0.4-0.8,0.7-1.2  s0.6-0.6,1-0.9c0.4-0.2,0.8-0.4,1.3-0.6c0.4-0.1,0.9-0.2,1.3-0.2c0.7,0,1.3,0.1,1.8,0.3c0.5,0.2,1,0.6,1.4,1c0.4,0.4,0.7,1,0.9,1.8  l-0.5,0l0.2-0.4c0.2-0.4,0.5-0.8,0.8-1.1c0.3-0.3,0.7-0.6,1.1-0.8c0.4-0.2,0.8-0.4,1.3-0.6c0.4-0.1,0.9-0.2,1.3-0.2  c1,0,1.9,0.2,2.5,0.6c0.7,0.4,1.2,1,1.5,1.8c0.3,0.8,0.5,1.8,0.5,3v7.9h-3.5v-7.7c0-0.6-0.1-1.1-0.2-1.5c-0.2-0.4-0.4-0.7-0.7-0.8  c-0.3-0.2-0.7-0.3-1.2-0.3c-0.4,0-0.7,0.1-1.1,0.2c-0.3,0.1-0.6,0.3-0.8,0.5c-0.2,0.2-0.4,0.5-0.5,0.8c-0.1,0.3-0.2,0.6-0.2,1v7.8  h-3.5v-7.7c0-0.5-0.1-1-0.3-1.4c-0.2-0.4-0.4-0.7-0.7-0.9c-0.3-0.2-0.7-0.3-1.2-0.3c-0.4,0-0.7,0.1-1.1,0.2  c-0.3,0.1-0.6,0.3-0.8,0.5c-0.2,0.2-0.4,0.5-0.6,0.8c-0.1,0.3-0.2,0.6-0.2,1v7.8H466.5z"></path>
<path style="pointer-events: none;" fill="#0A0A0A" d="M649.9,619.1v-14h-5v-3.3h14v3.3h-5.2v14H649.9z M661.3,619.1v-18.3h3.5v7.9l-0.7,0.3c0.2-0.6,0.5-1.1,1-1.6  c0.5-0.5,1-0.9,1.7-1.2c0.7-0.3,1.4-0.4,2.1-0.4c1,0,1.8,0.2,2.5,0.6c0.7,0.4,1.2,1,1.5,1.8c0.3,0.8,0.5,1.8,0.5,2.9v8h-3.5v-7.7  c0-0.6-0.1-1.1-0.2-1.5c-0.2-0.4-0.4-0.7-0.8-0.9c-0.3-0.2-0.7-0.3-1.2-0.2c-0.4,0-0.8,0.1-1.1,0.2c-0.3,0.1-0.6,0.3-0.9,0.5  c-0.2,0.2-0.4,0.5-0.6,0.8c-0.1,0.3-0.2,0.6-0.2,1v7.9h-1.7c-0.4,0-0.7,0-1,0C661.8,619.1,661.6,619.1,661.3,619.1z M681.6,619.4  c-1.1,0-2.1-0.3-2.9-0.9s-1.6-1.4-2.1-2.4c-0.5-1-0.8-2.2-0.8-3.5s0.3-2.5,0.8-3.5c0.5-1,1.2-1.8,2.1-2.4c0.9-0.6,1.9-0.9,3-0.9  c0.6,0,1.2,0.1,1.8,0.3c0.5,0.2,1,0.4,1.4,0.8c0.4,0.3,0.8,0.7,1,1.1c0.3,0.4,0.5,0.9,0.6,1.4l-0.7-0.1v-3.2h3.5v13.1h-3.5V616  l0.8-0.1c-0.1,0.5-0.3,0.9-0.6,1.3c-0.3,0.4-0.7,0.8-1.1,1.1c-0.4,0.3-0.9,0.6-1.5,0.8C682.8,619.3,682.2,619.4,681.6,619.4z   M682.6,616.3c0.7,0,1.2-0.2,1.7-0.5s0.9-0.8,1.1-1.3c0.3-0.6,0.4-1.2,0.4-2c0-0.7-0.1-1.4-0.4-2c-0.3-0.6-0.6-1-1.1-1.3  c-0.5-0.3-1.1-0.5-1.7-0.5c-0.6,0-1.2,0.2-1.7,0.5c-0.5,0.3-0.9,0.8-1.1,1.3c-0.3,0.6-0.4,1.2-0.4,2c0,0.8,0.1,1.4,0.4,2  c0.3,0.6,0.7,1,1.1,1.3C681.4,616.2,682,616.3,682.6,616.3z M681.2,604.5l-1.1-1.6l4.1-3.4l1.8,2.4L681.2,604.5z M693.1,619.1v-13.1  h3.5v13.1H693.1z M694.9,603.4c-0.7,0-1.2-0.2-1.6-0.5c-0.4-0.3-0.6-0.8-0.6-1.4c0-0.6,0.2-1,0.6-1.4c0.4-0.4,0.9-0.5,1.6-0.5  c0.7,0,1.2,0.2,1.6,0.5c0.4,0.3,0.6,0.8,0.6,1.4c0,0.6-0.2,1-0.6,1.4C696.1,603.2,695.5,603.4,694.9,603.4z M708.5,619.1v-17.3h7.5  c1.2,0,2.1,0.2,2.9,0.5c0.8,0.3,1.4,0.8,1.8,1.5c0.4,0.6,0.6,1.4,0.6,2.3c0,1-0.2,1.8-0.7,2.5c-0.5,0.7-1.2,1.1-2.1,1.4l0-0.5  c0.8,0.2,1.4,0.5,2,0.9c0.6,0.4,1,0.9,1.3,1.5c0.3,0.6,0.5,1.3,0.5,2.1c0,0.9-0.1,1.6-0.4,2.3c-0.3,0.6-0.7,1.2-1.2,1.6  c-0.5,0.4-1.2,0.8-1.9,1c-0.7,0.2-1.5,0.3-2.4,0.3H708.5z M712,615.9h4.1c0.5,0,1-0.1,1.3-0.2c0.4-0.2,0.7-0.4,0.9-0.7  c0.2-0.3,0.3-0.7,0.3-1.2c0-0.4-0.1-0.8-0.3-1.1c-0.2-0.3-0.5-0.5-0.9-0.7c-0.4-0.2-0.8-0.2-1.4-0.2H712V615.9z M712,608.9h3.5  c0.4,0,0.8-0.1,1.2-0.2c0.3-0.2,0.6-0.4,0.7-0.7c0.2-0.3,0.3-0.6,0.3-1c0-0.6-0.2-1.1-0.6-1.4s-1-0.5-1.8-0.5H712V608.9z M725,619.1  v-13.1h3.5v13.1H725z M728.2,604.4l-4.8-2.6l1.8-2.4l4.1,3.4L728.2,604.4z M732,619.1v-13.1h3.4l0.1,2.7l-0.7,0.3  c0.2-0.6,0.5-1.1,1-1.6c0.5-0.5,1-0.9,1.7-1.2c0.7-0.3,1.4-0.4,2.1-0.4c1,0,1.8,0.2,2.5,0.6c0.7,0.4,1.2,1,1.5,1.8  c0.3,0.8,0.5,1.8,0.5,2.9v8h-3.5v-7.7c0-0.6-0.1-1.1-0.2-1.5c-0.2-0.4-0.4-0.7-0.8-0.9c-0.3-0.2-0.7-0.3-1.2-0.2  c-0.4,0-0.8,0.1-1.1,0.2c-0.3,0.1-0.6,0.3-0.9,0.5c-0.2,0.2-0.4,0.5-0.6,0.8c-0.1,0.3-0.2,0.6-0.2,1v7.9h-1.7c-0.4,0-0.7,0-1,0  C732.4,619.1,732.2,619.1,732,619.1z M747.3,619.1v-18.3h3.5v7.9l-0.7,0.3c0.2-0.6,0.5-1.1,1-1.6c0.5-0.5,1-0.9,1.7-1.2  c0.7-0.3,1.4-0.4,2.1-0.4c1,0,1.8,0.2,2.5,0.6c0.7,0.4,1.2,1,1.5,1.8c0.3,0.8,0.5,1.8,0.5,2.9v8h-3.5v-7.7c0-0.6-0.1-1.1-0.2-1.5  c-0.2-0.4-0.4-0.7-0.8-0.9c-0.3-0.2-0.7-0.3-1.2-0.2c-0.4,0-0.8,0.1-1.1,0.2c-0.3,0.1-0.6,0.3-0.9,0.5c-0.2,0.2-0.4,0.5-0.6,0.8  c-0.1,0.3-0.2,0.6-0.2,1v7.9h-1.7c-0.4,0-0.7,0-1,0C747.8,619.1,747.6,619.1,747.3,619.1z"></path>
<path style="pointer-events: none;" fill="#0A0A0A" d="M342.3,771.1v-17.3h3.3l9.6,12.9h-0.7c-0.1-0.5-0.1-1-0.2-1.5c0-0.5-0.1-1-0.1-1.5c0-0.5-0.1-1-0.1-1.6  c0-0.5,0-1.1,0-1.7c0-0.6,0-1.3,0-2v-4.7h3.6v17.3h-3.4l-9.8-13.1l0.9,0c0.1,0.9,0.1,1.6,0.2,2.2c0.1,0.6,0.1,1.1,0.1,1.6  c0,0.4,0.1,0.8,0.1,1.2c0,0.3,0,0.6,0,0.9c0,0.3,0,0.6,0,0.9v6.2H342.3z M362,771.1V758h3.5v13.1H362z M363.7,755.3  c-0.7,0-1.2-0.2-1.6-0.5c-0.4-0.3-0.6-0.8-0.6-1.4c0-0.6,0.2-1,0.6-1.4c0.4-0.4,0.9-0.5,1.6-0.5c0.7,0,1.2,0.2,1.6,0.5  c0.4,0.3,0.6,0.8,0.6,1.4c0,0.6-0.2,1-0.6,1.4C364.9,755.1,364.4,755.3,363.7,755.3z M369.2,771.1V758h3.4l0.1,2.7L372,761  c0.2-0.6,0.5-1.1,1-1.6c0.5-0.5,1-0.9,1.7-1.2c0.7-0.3,1.4-0.4,2.1-0.4c1,0,1.8,0.2,2.5,0.6c0.7,0.4,1.2,1,1.5,1.8  c0.3,0.8,0.5,1.8,0.5,2.9v8h-3.5v-7.7c0-0.6-0.1-1.1-0.2-1.5c-0.2-0.4-0.4-0.7-0.8-0.9c-0.3-0.2-0.7-0.3-1.2-0.2  c-0.4,0-0.8,0.1-1.1,0.2c-0.3,0.1-0.6,0.3-0.9,0.5c-0.2,0.2-0.4,0.5-0.6,0.8c-0.1,0.3-0.2,0.6-0.2,1v7.9H371c-0.4,0-0.7,0-1,0  S369.5,771.1,369.2,771.1z M384.6,771.1v-18.3h3.5v7.9l-0.7,0.3c0.2-0.6,0.5-1.1,1-1.6c0.5-0.5,1-0.9,1.7-1.2  c0.7-0.3,1.4-0.4,2.1-0.4c1,0,1.8,0.2,2.5,0.6c0.7,0.4,1.2,1,1.5,1.8c0.3,0.8,0.5,1.8,0.5,2.9v8h-3.5v-7.7c0-0.6-0.1-1.1-0.2-1.5  c-0.2-0.4-0.4-0.7-0.8-0.9c-0.3-0.2-0.7-0.3-1.2-0.2c-0.4,0-0.8,0.1-1.1,0.2c-0.3,0.1-0.6,0.3-0.9,0.5c-0.2,0.2-0.4,0.5-0.6,0.8  c-0.1,0.3-0.2,0.6-0.2,1v7.9h-1.7c-0.4,0-0.7,0-1,0S384.8,771.1,384.6,771.1z M408.1,771.1v-17.3h7.5c1.2,0,2.1,0.2,2.9,0.5  c0.8,0.3,1.4,0.8,1.8,1.5c0.4,0.6,0.6,1.4,0.6,2.3c0,1-0.2,1.8-0.7,2.5c-0.5,0.7-1.2,1.1-2.1,1.4l0-0.5c0.8,0.2,1.4,0.5,2,0.9  c0.6,0.4,1,0.9,1.3,1.5c0.3,0.6,0.5,1.3,0.5,2.1c0,0.9-0.1,1.6-0.4,2.3c-0.3,0.6-0.7,1.2-1.2,1.6c-0.5,0.4-1.2,0.8-1.9,1  c-0.7,0.2-1.5,0.3-2.4,0.3H408.1z M411.7,767.9h4.1c0.5,0,1-0.1,1.3-0.2c0.4-0.2,0.7-0.4,0.9-0.7c0.2-0.3,0.3-0.7,0.3-1.2  c0-0.4-0.1-0.8-0.3-1.1c-0.2-0.3-0.5-0.5-0.9-0.7c-0.4-0.2-0.8-0.2-1.4-0.2h-3.9V767.9z M411.7,760.8h3.5c0.4,0,0.8-0.1,1.2-0.2  c0.3-0.2,0.6-0.4,0.7-0.7c0.2-0.3,0.3-0.6,0.3-1c0-0.6-0.2-1.1-0.6-1.4c-0.4-0.3-1-0.5-1.8-0.5h-3.3V760.8z M424.7,771.1V758h3.5  v13.1H424.7z M427.8,756.4l-4.8-2.6l1.8-2.4l4.1,3.4L427.8,756.4z M431.6,771.1V758h3.4l0.1,2.7l-0.7,0.3c0.2-0.6,0.5-1.1,1-1.6  c0.5-0.5,1-0.9,1.7-1.2c0.7-0.3,1.4-0.4,2.1-0.4c1,0,1.8,0.2,2.5,0.6c0.7,0.4,1.2,1,1.5,1.8c0.3,0.8,0.5,1.8,0.5,2.9v8h-3.5v-7.7  c0-0.6-0.1-1.1-0.2-1.5c-0.2-0.4-0.4-0.7-0.8-0.9c-0.3-0.2-0.7-0.3-1.2-0.2c-0.4,0-0.8,0.1-1.1,0.2c-0.3,0.1-0.6,0.3-0.9,0.5  c-0.2,0.2-0.4,0.5-0.6,0.8c-0.1,0.3-0.2,0.6-0.2,1v7.9h-1.7c-0.4,0-0.7,0-1,0S431.8,771.1,431.6,771.1z M447,771.1v-18.3h3.5v7.9  l-0.7,0.3c0.2-0.6,0.5-1.1,1-1.6c0.5-0.5,1-0.9,1.7-1.2c0.7-0.3,1.4-0.4,2.1-0.4c1,0,1.8,0.2,2.5,0.6c0.7,0.4,1.2,1,1.5,1.8  c0.3,0.8,0.5,1.8,0.5,2.9v8h-3.5v-7.7c0-0.6-0.1-1.1-0.2-1.5c-0.2-0.4-0.4-0.7-0.8-0.9c-0.3-0.2-0.7-0.3-1.2-0.2  c-0.4,0-0.8,0.1-1.1,0.2c-0.3,0.1-0.6,0.3-0.9,0.5c-0.2,0.2-0.4,0.5-0.6,0.8c-0.1,0.3-0.2,0.6-0.2,1v7.9h-1.7c-0.4,0-0.7,0-1,0  C447.4,771.1,447.2,771.1,447,771.1z"></path>
<path style="pointer-events: none;" fill="#0A0A0A" d="M566.7,758.7v-17.3h3.3l9.6,12.9h-0.7c-0.1-0.5-0.1-1-0.2-1.5c0-0.5-0.1-1-0.1-1.5c0-0.5-0.1-1-0.1-1.6  c0-0.5,0-1.1,0-1.7c0-0.6,0-1.3,0-2v-4.7h3.6v17.3h-3.4l-9.8-13.1l0.9,0c0.1,0.9,0.1,1.6,0.2,2.2c0.1,0.6,0.1,1.1,0.1,1.6  c0,0.4,0.1,0.8,0.1,1.2c0,0.3,0,0.6,0,0.9c0,0.3,0,0.6,0,0.9v6.2H566.7z M591,759c-1.1,0-2.1-0.3-2.9-0.9c-0.9-0.6-1.6-1.4-2.1-2.4  c-0.5-1-0.8-2.2-0.8-3.5s0.3-2.5,0.8-3.5c0.5-1,1.2-1.8,2.1-2.4c0.9-0.6,1.9-0.9,3-0.9c0.6,0,1.2,0.1,1.8,0.3c0.5,0.2,1,0.4,1.4,0.8  c0.4,0.3,0.8,0.7,1,1.1c0.3,0.4,0.5,0.9,0.6,1.4l-0.7-0.1v-3.2h3.5v13.1h-3.5v-3.1l0.8-0.1c-0.1,0.5-0.3,0.9-0.6,1.3  c-0.3,0.4-0.7,0.8-1.1,1.1c-0.4,0.3-0.9,0.6-1.5,0.8C592.2,758.9,591.6,759,591,759z M591.9,755.9c0.7,0,1.2-0.2,1.7-0.5  s0.9-0.8,1.1-1.3c0.3-0.6,0.4-1.2,0.4-2c0-0.7-0.1-1.4-0.4-2c-0.3-0.6-0.6-1-1.1-1.3c-0.5-0.3-1.1-0.5-1.7-0.5  c-0.6,0-1.2,0.2-1.7,0.5c-0.5,0.3-0.9,0.8-1.1,1.3c-0.3,0.6-0.4,1.2-0.4,2c0,0.8,0.1,1.4,0.4,2c0.3,0.6,0.7,1,1.1,1.3  C590.7,755.8,591.3,755.9,591.9,755.9z M602.2,758.7v-13.1h3.4l0.1,2.5l-0.5,0.1c0.2-0.4,0.4-0.8,0.7-1.2c0.3-0.3,0.6-0.6,1-0.9  c0.4-0.2,0.8-0.4,1.3-0.6c0.4-0.1,0.9-0.2,1.3-0.2c0.7,0,1.3,0.1,1.8,0.3c0.5,0.2,1,0.6,1.4,1c0.4,0.4,0.7,1,0.9,1.8l-0.5,0l0.2-0.4  c0.2-0.4,0.5-0.8,0.8-1.1c0.3-0.3,0.7-0.6,1.1-0.8c0.4-0.2,0.8-0.4,1.3-0.6c0.4-0.1,0.9-0.2,1.3-0.2c1,0,1.9,0.2,2.5,0.6  c0.7,0.4,1.2,1,1.5,1.8c0.3,0.8,0.5,1.8,0.5,3v7.9h-3.5V751c0-0.6-0.1-1.1-0.2-1.5c-0.2-0.4-0.4-0.7-0.7-0.8  c-0.3-0.2-0.7-0.3-1.2-0.3c-0.4,0-0.7,0.1-1.1,0.2c-0.3,0.1-0.6,0.3-0.8,0.5c-0.2,0.2-0.4,0.5-0.5,0.8c-0.1,0.3-0.2,0.6-0.2,1v7.8  h-3.5V751c0-0.5-0.1-1-0.3-1.4c-0.2-0.4-0.4-0.7-0.7-0.9c-0.3-0.2-0.7-0.3-1.2-0.3c-0.4,0-0.7,0.1-1.1,0.2c-0.3,0.1-0.6,0.3-0.8,0.5  c-0.2,0.2-0.4,0.5-0.6,0.8c-0.1,0.3-0.2,0.6-0.2,1v7.8H602.2z M632.5,751.4v-2.7h7.6v2.7H632.5z M633.8,758.7v-17.3h7.1  c1.3,0,2.4,0.2,3.4,0.6c1,0.4,1.9,1,2.7,1.8c0.8,0.8,1.3,1.7,1.7,2.7c0.4,1.1,0.6,2.2,0.6,3.5c0,1.3-0.2,2.4-0.6,3.5  c-0.4,1.1-1,2-1.7,2.7c-0.7,0.8-1.6,1.4-2.7,1.8c-1,0.4-2.2,0.6-3.5,0.6H633.8z M637.5,756l-0.4-0.6h3.7c0.7,0,1.4-0.1,2-0.4  c0.6-0.3,1.1-0.6,1.5-1.1c0.4-0.5,0.7-1,1-1.7c0.2-0.7,0.3-1.4,0.3-2.2c0-0.8-0.1-1.5-0.3-2.2c-0.2-0.7-0.5-1.2-1-1.7  c-0.4-0.5-0.9-0.8-1.5-1.1c-0.6-0.3-1.3-0.4-2-0.4H637l0.5-0.6V756z M652.5,758.7v-13.1h3.5v13.1H652.5z M654.2,743  c-0.7,0-1.2-0.2-1.6-0.5c-0.4-0.3-0.6-0.8-0.6-1.4c0-0.6,0.2-1,0.6-1.4c0.4-0.4,0.9-0.5,1.6-0.5c0.7,0,1.2,0.2,1.6,0.5  c0.4,0.3,0.6,0.8,0.6,1.4c0,0.6-0.2,1-0.6,1.4C655.4,742.8,654.8,743,654.2,743z M654.2,764.1c-0.7,0-1.2-0.2-1.6-0.5  c-0.4-0.3-0.6-0.8-0.6-1.4c0-0.6,0.2-1,0.6-1.4c0.4-0.4,0.9-0.5,1.6-0.5c0.7,0,1.2,0.2,1.6,0.5c0.4,0.3,0.6,0.8,0.6,1.4  c0,0.6-0.2,1-0.6,1.4C655.4,763.9,654.9,764.1,654.2,764.1z M659.7,758.7v-13.1h3.4l0.1,2.7l-0.7,0.3c0.2-0.6,0.5-1.1,1-1.6  c0.5-0.5,1-0.9,1.7-1.2c0.7-0.3,1.4-0.4,2.1-0.4c1,0,1.8,0.2,2.5,0.6c0.7,0.4,1.2,1,1.5,1.8c0.3,0.8,0.5,1.8,0.5,2.9v8h-3.5V751  c0-0.6-0.1-1.1-0.2-1.5c-0.2-0.4-0.4-0.7-0.8-0.9c-0.3-0.2-0.7-0.3-1.2-0.2c-0.4,0-0.8,0.1-1.1,0.2c-0.3,0.1-0.6,0.3-0.9,0.5  c-0.2,0.2-0.4,0.5-0.6,0.8c-0.1,0.3-0.2,0.6-0.2,1v7.9h-1.7c-0.4,0-0.7,0-1,0C660.2,758.7,659.9,758.7,659.7,758.7z M675.1,758.7  v-18.3h3.5v7.9l-0.7,0.3c0.2-0.6,0.5-1.1,1-1.6c0.5-0.5,1-0.9,1.7-1.2c0.7-0.3,1.4-0.4,2.1-0.4c1,0,1.8,0.2,2.5,0.6  c0.7,0.4,1.2,1,1.5,1.8c0.3,0.8,0.5,1.8,0.5,2.9v8h-3.5V751c0-0.6-0.1-1.1-0.2-1.5c-0.2-0.4-0.4-0.7-0.8-0.9  c-0.3-0.2-0.7-0.3-1.2-0.2c-0.4,0-0.8,0.1-1.1,0.2c-0.3,0.1-0.6,0.3-0.9,0.5c-0.2,0.2-0.4,0.5-0.6,0.8c-0.1,0.3-0.2,0.6-0.2,1v7.9  h-1.7c-0.4,0-0.7,0-1,0C675.6,758.7,675.3,758.7,675.1,758.7z"></path>
</svg>