<svg xmlns="http://www.w3.org/2000/svg" xmlns:xlink="http://www.w3.org/1999/xlink" version="1.1" id="Layer_1" x="0px" y="0px" viewBox="0 0 1000 1000" enable-background="new 0 0 1000 1000" xml:space="preserve" preserveAspectRatio="xMidYMid meet" style="width: 1000px;">
<g>
	<path fill="#FDBDC4" stroke="#474747" stroke-width="0.2" d="M591.2,905.3c1.5,1.2,4.2,4.7,4,6.6c-0.2,1.8-3.2,4.5-4.9,5.3   c-1.3,0.6-4.5-0.2-6,0.2c-1.9,0.6-4.8,3.4-6.6,4.2c-2.2,1-7,1.8-9.3,2.7c-1.3,0.5-3.6,1.7-4.9,2.2c-1.9,0.9-5.5,3.2-7.5,3.5   c-1.7,0.3-5.4,0.4-6.9-0.4c-1.4-0.8-3.2-3.9-3.3-5.5c-0.1-1.5,0.8-4.7,2-5.5c0.6-0.4,2.4,0.5,2.9,0c1.3-1.3-0.2-5.6,0-7.5   c0.1-1.4,0.8-4.1,0.9-5.5c0.1-1.9-0.2-5.6-0.2-7.5c0-1.9,0.6-5.8,0.2-7.7c-0.3-1.6-0.9-5.2-2.3-6.2c-0.2-1.2-0.4-2.5,0-3.4   c0.2-0.6,2.1-2.2,2.3-2.8c0.2-0.6,0.3-1.7,0.4-2.7c0,0,0,0,0,0c1.7-1.2,3.4-4.4,4.9-5.1c1.5-0.6,5.1,0.1,6.6-0.4   c1.2-0.4,2.8-2.5,4-2.9c1.7-0.6,5.5,0.4,7.3,0c1-0.2,2.7-1.6,3.8-1.5c1.4,0,4,1.4,4.9,2.4c1.2,1.5,1.5,5.4,1.8,7.3   c0.2,1.5,0,4.6,0,6.2c0,1.6,0.6,5.2-0.4,6.4c-0.8,0.9-3.9,0.2-4.6,1.1c-1,1.2-0.6,4.7-0.2,6.2c0.7,2.5,3.7,7.1,5.7,8.6   C586.9,904.4,590.1,904.4,591.2,905.3L591.2,905.3z" data-stroke-width="0.2" style="stroke-width: 0.2;"></path>
	<path fill="#FDBDC4" stroke="#474747" stroke-width="0.2" d="M600.7,494.8c3.5-1.5,7.6-3.8,9.8-5.5c2.9-2.2,7.5-7.9,10-10.6   c1.4-1.6,3.8-5.1,5.5-6.4c1.8-1.3,7-1.9,8.2-3.8c1.2-1.8-0.9-6.7,0-8.6c1-2.1,6.5-3.8,7.3-6c1.4-3.9-4.7-12.5-3.1-16.4   c1.1-2.8,7.9-4.7,10-6.9c2.1-2.2,3.9-9,6.6-10.4c2.2-1.1,7.7,1.8,9.7,0.4c2.6-1.7,1.2-10.8,4.2-11.7c1.7-0.5,4,3.9,5.7,4   c2.4,0.1,6.2-3.6,8.4-4.4c2.5-0.9,7.6-2.2,10.2-2.4c2.4-0.2,7.3,0.4,9.7,0.4c2.9,0,10.3-0.3,11.6-1.6c1-1,1.6-3.9,2.7-4.7   c1.7-1.3,6.2-1.7,8.3-2.4c2.8-0.9,8.3-3.7,11.2-4.1c2.3-0.4,7.1,1,9.4,0.6c3.2-0.5,9-3.5,11.8-5c1.1-0.6,2.6-1.8,4.1-3   c2.2-1.8,4.6-3.7,6.5-4c3.3-0.6,9.9,2.4,13.3,2.9c4,0.7,12.3,0.4,15.9,2.1c2.3,1.1,5.4,5.5,7.7,6.8c3.5,1.9,12.2,2,15.3,4.4   c2.3,1.8,3.5,8.5,5.9,10.3c2.6,2,10.5,0.8,12.7,3.3c1.5,1.7,1.9,6.7,1.2,8.8c-0.8,2.5-7.8,4.8-7.4,7.4c0.4,2.4,6.9,2.7,8.6,4.4   c2.1,2.2,2.8,8.9,5,10.9c2.1,2,7.9,3.2,10.6,4.1c6.7,2.2,20.6,5,27.1,7.7c3.5,1.4,9.8,5.8,13.3,7.4c2.4,1.1,7.6,2.7,10,3.8   c3.3,1.5,9.2,5.7,12.6,6.8c4.5,1.5,15.7-1.1,18.6,2.7c0.4,0.5,0.6,1.1,0.8,1.9c0.7,3.4-0.5,9-2.3,10.9c-2.7,2.9-11.6,2.6-15.5,2.7   c-5.9,0-17.8-2-23.4-3.8c-4.5-1.4-13.5-5.1-17.3-8c-3.3-2.5-6.5-12.5-10.6-12.9c-4.5-0.4-11.1,7.9-13.9,11.5   c-3.1,4.1-6.8,14-8.6,18.9c-3.8,10.2-8.6,31.6-12.1,41.9c-2.7,8-6.9,25.1-12.4,31.6c-3,3.6-14.8,5.2-16.2,9.7   c-1.5,4.6,8.7,12.9,8,17.7c-1.1,7-19.6,13.9-18.9,20.9c0.8,7.5,17.4,15,24.5,17.4c4.5,1.6,14.7-0.9,19.2,0.9   c4.6,1.9,12,9.3,15.1,13.3c3.6,4.7,9.9,15.1,10.9,20.9c0.9,4.9-6,16.4-2.4,19.8c4.3,3.9,16.9-5.3,22.7-4.7c3.1,0.3,8.7,3.3,11.2,5   c1.6,1.1,5,3.7,5.6,5.6c0.6,1.8-1.1,5.5-1.2,7.4c-0.2,3.2,1.7,9.9,0.3,12.7c-1,1.9-6,3.1-7.1,5c-1.2,2.1,0.7,7.6-0.6,9.7   c-1.6,2.7-9,3.8-10.6,6.5c-1.5,2.5,0.6,9.2-0.9,11.8c-1.3,2.3-5.9,6-8.6,6.2c-2.3,0.2-6.9-2.5-8.3-4.4c-1.3-1.9,0-7.4-1.5-9.1   c-0.8-1-4-0.8-4.7-1.8c-1.5-1.9,0.6-7.8-0.9-9.7c-0.9-1.2-4.1-2.1-5.6-2.4c-3.1-0.4-9.7,0-12.4,1.5c-2.3,1.3-4.8,6.5-6.8,8.3   c-1.4,1.2-4.9,2.4-6.3,3.7c-0.1,0-0.1,0.1-0.2,0.2c-1.5,1.6-2.4,6.1-3.8,7.7c-1.1,1.2-4.7,1.9-5.6,3.3c-0.9,1.2-0.4,4.6-1.2,5.9   c-1.2,2.3-5.8,5.1-7.4,7.1c-1.4,1.8-2.7,6.8-4.7,8c-1.6,1-6-0.7-7.7,0.3c-2.3,1.4-3.3,7.6-5.3,9.4c-2.2,2-8.1,5.7-10.9,4.7   c-1.6-0.6-1.8-5-3.2-5.9c-1.8-1.1-6.8,1.1-8.6,0c-1.8-1.2-2.5-5.8-3.5-7.7c-0.6-1.2-2.7-3.1-2.9-4.4c-0.3-1.8,0.4-5.9,1.8-7.1   c1.5-1.2,6.2,0.6,7.7-0.6c1.1-0.9,1.5-3.9,1.5-5.3c0-1.3-0.8-4.1-1.8-5c-2.1-1.9-8.5-1.7-11.2-2.6c-1.1-0.4-3.6-1-4.1-2.1   c-0.7-1.3,1.9-4.6,1.2-5.9c-0.7-1.4-4.1-2.3-5.6-2.7c-1.5-0.3-4.8-0.6-6.2,0c-2.5,1-5.2,6.4-7.7,7.4c-2.6,1.1-8.7-1.2-11.2,0   c-1.7,0.8-3.4,4.8-5,5.9c-2.5,1.7-9.5,1.3-11.5,3.5c-1.3,1.4-0.6,5.7-1.5,7.4c-1.3,2.6-6.5,5.9-7.7,8.6c-0.8,1.8-0.6,6-0.9,8   c-0.5,2.9-2.1,9.5-4.7,10.9c-3.9,2-13.9-0.6-17.1-3.5c-1.3-1.2-0.7-5.8-2.1-7.1c-1.5-1.4-5.9-2-8-1.8c-2.2,0.3-6.6,2.3-8,4.1   c-1.3,1.8,0,7.2-1.5,8.8c-2.5,2.7-11.1,1.9-14.2,3.8c-2,1.3-4.5,5.6-6.2,7.4c-1.5,1.6-5.9,3.8-6.5,5.9c-0.8,2.6,1.7,7.8,2.7,10.3   c0.4,1,1.8,2.8,2.1,3.8c0.4,1.7-0.6,5.4,0,7.1c0.8,2.2,5.4,4.9,6.2,7.1c0.8,2.2,0.4,7.3-0.6,9.4c-0.9,1.8-5.1,3.5-5.9,5.3   c-0.7,1.5,0.4,5.1,0,6.8c-0.6,2.9-4.5,7.7-5,10.6c-0.5,2.7,1.6,8.3,0.9,10.9c-0.4,1.4-2.6,3.2-3.9,4.9c-1.8-1.3-6.8,1.9-8.8,1.1   c-1.3-0.5-3.2-2.9-3.8-4.2c-0.6-1.4,0.3-4.8-0.7-6c-1-1.2-4.6-0.8-5.7-1.8c-1-0.8-1.4-3.7-2.2-4.6c-1.1-1.3-3.9-3.8-5.5-3.8   c-1.7,0-4.8,2.3-5.5,3.8c-1.4,2.6,1.7,9.4,0,11.7c-0.8,1.1-4,2.4-5.1,1.5c-1.5-1.2,0.2-5.8,0.2-7.7c0-2.2,0.5-6.7-0.4-8.6   c-0.7-1.5-4.6-3-4.9-4.6c-0.3-1.7,3.1-4.5,3.1-6.2c0-1.5-1.3-4.8-2.7-5.5c-1.6-0.9-5.3,0.8-7.1,0.9c-2.1,0.1-6.3,0.2-8.4,0   c-0.1,0-0.3,0-0.5-0.1c0.4-3,1.2-6.8,2-8.8c0.5-1.3,2.8-3.5,3.1-4.9c0.6-2.6-2.6-8.3-1.3-10.6c0.9-1.6,5.7-1.5,6.6-3.1   c1-1.5,0.6-5.4,0-7.1c-1.2-3.8-7.3-9.4-9.3-12.8c-1.4-2.4-2.7-8-4.4-10.2c-4.8-5.8-19.2-12.1-24.8-17.3c-2.3-2.1-5.5-7.8-8-9.7   c-2.8-2.2-11-3.1-12.8-6.2c-1.1-1.9-0.9-7.1,0.4-8.8c1.3-1.7,6.5-1.6,8.4-2.7c2.7-1.5,6.5-6.8,9.3-8c2.6-1.1,8.3-0.5,11.1-0.9   c4.4-0.6,13.8-0.8,17.3-3.5c2.5-2,2.7-9.7,5.3-11.5c1.6-1.1,6,0.7,7.5-0.4c2.1-1.6,4.9-7.9,3.5-10.2c-1.7-2.8-10.1,0-12.8-1.8   c-2.9-1.8-6.7-8.2-7.5-11.5c-0.6-2.4,2-7.5,0.9-9.7c-1.7-3.5-10.2-6-13.3-8.4c-2.6-2-6-6.8-9.3-10.2c1.5-3.4,3.9-8.6,5.8-10.2   c1.8-1.5,7.5-1.1,8.8-3.1c2.3-3.5-1.7-12.7-0.9-16.8c0.4-2.2,2.3-6.5,4-8c2.3-2.1,9.2-2.3,11.5-4.4c2.4-2.3,3.5-9.5,5.7-12   c2.9-3.2,10.6-7.5,14.6-8.8c3.6-1.2,2.9-5.5,2.4-7.4c-0.7-2.6-3-7.7-3.5-10.3c-0.7-3.4-0.1-10.6-1.2-13.9c-0.9-2.8-7.5-4.6-9.3-7   c-2-2.7-3.3-11-6-13.1c-2.6-1.9-10.6-2.3-11.5-5.3c-0.8-2.6,5-6.5,5.6-9.1c0.4-2-1.7-6.1-0.9-8c0.8-1.8,5.7-2.6,6.5-4.4   c1.2-2.8-2.6-9.1-1.8-12.1c0.7-2.7,6-6,7.1-8.6c1.2-2.9-1-10.2,1.2-12.4c2.8-2.8,11.9-0.9,15.7-2C598,496,599.3,495.5,600.7,494.8   L600.7,494.8z" data-stroke-width="0.2" style="stroke-width: 0.2;" class="  " id="dong-nai"></path>
	<path fill="#FDBDC4" stroke="#474747" stroke-width="0.2" d="M875.5,831.4c0.4,0.9,0.8,2.7,1.1,4.4c-1.6,1.7-3.1,4.9-4.5,6   c-1.6,1.3-5.6,2.7-7.3,3.8c-2.1,1.3-7.4,3.4-8,5.7c-0.3,1.2,2.2,3,2.2,4.2c0.1,1.8-1.6,5.3-2.9,6.6c-1.4,1.5-5.8,2.4-7.3,3.8   c-1.6,1.5-2.8,6.2-4.6,7.3c-2.3,1.3-8,1.4-10.4,0.4c-0.7-0.3-2.1-1.4-2.2-2.2c-0.2-1.3,3.1-3.8,2.2-4.9c-1.2-1.5-5.8,0.6-7.3,1.8   c-2,1.6-3.2,7.1-4.9,9.1c-1.5,1.8-5.2,4.9-7.3,6c-2.5,1.3-8.4,2.2-11.1,3.1c-1.4,0.5-3.9,2-5.3,2.2c-3.5,0.6-10.6-0.4-14.2-0.4   c-2.6,0-7.9-0.7-10.4,0c-2.4,0.7-6.4,3.9-8.6,5.1c-1.6,0.8-5,1.9-6.4,2.9c-2.1,1.5-5.1,5.7-6.9,7.5c-1.5,1.6-4.2,5-6,6.2   c-1.3,0.9-4.6,1.4-6,2.2c-1.5,0.9-4.4,3.1-5.3,4.6c-0.6,1.1-0.1,3.9-0.9,4.9c-1.5,1.9-6.3,4.7-8.6,4.2c-2.3-0.4-4.2-5.7-6.2-6.8   c-1.6-0.9-5.3-1.3-7.1-1.8c-2.5-0.6-7.4-2.6-10-2.4c-2.1,0.2-5.7,3.3-7.7,3.1c-1.9-0.1-4.6-3.2-6.4-3.8c-1.3-0.4-4.2-1.2-5.3-0.4   c-1.2,0.9-1.5,4.5-1.1,6c0.2,0.6,1.7,1.4,1.5,2c-0.3,1.9-4.9,3.1-6.4,4.2c-1.7,1.2-4.6,4.2-6.4,5.1c-1.1,0.5-3.6,0.4-4.6,0.9   c-2.1,1.1-5.6,4.5-6.9,6.4c-0.6,0.9-1,3.2-1.5,4.2c-0.8,1.3-3.8,3-4.4,4.4c-0.6,1.3,0.7,4.7-0.2,5.7c-1.1,1.3-5.1,2-6.6,1.3   c-0.9-0.4-1.3-2.8-2.2-3.3c-0.5-0.3-1.9,0.2-2.2-0.2c-0.8-0.9-0.5-3.7,0.2-4.6c0.4-0.4,1.9-0.2,2.2-0.7c0.7-0.9,0.7-3.6,0.2-4.6   c-0.5-1-3.2-1.4-3.5-2.4c-0.6-2,1.8-6.1,3.1-7.7c0.8-1,3.6-1.9,4.4-2.9c1-1.2,0.9-4.9,2.2-5.7c1.3-0.9,4.9,0.9,6.2,0   c1.2-0.8,1-4.6,2.2-5.5c0.8-0.6,3.3,0.3,4-0.4c1.4-1.6,0.1-6.4-0.4-8.4c-0.3-1.1-1.3-3.3-2.2-4c-1.3-1-4.8-1.8-6.4-1.5   c-1,0.2-2.4,1.9-3.3,2.2c-2.1,0.8-6.7,1.7-8.8,1.1c-2.1-0.6-4.9-4.2-6.6-5.5c-1.7-1.3-6.5-3-7.1-5.1c-0.4-1.5,2.2-4.2,2.4-5.7   c0.1-0.8,0.2-2.8-0.4-3.3c0,0,0,0,0,0c1.3-1.7,3.5-3.4,3.9-4.9c0.7-2.6-1.4-8.2-0.9-10.9c0.5-2.9,4.4-7.8,5-10.6   c0.4-1.7-0.7-5.2,0-6.8c0.8-1.8,5-3.5,5.9-5.3c1-2.1,1.3-7.2,0.6-9.4c-0.8-2.2-5.4-4.9-6.2-7.1c-0.6-1.7,0.4-5.4,0-7.1   c-0.3-1.1-1.7-2.8-2.1-3.8c-1-2.5-3.4-7.8-2.7-10.3c0.6-2.1,5-4.3,6.5-5.9c1.7-1.7,4.2-6.1,6.2-7.4c3.1-2,11.7-1.1,14.2-3.8   c1.5-1.7,0.2-7,1.5-8.8c1.3-1.8,5.7-3.8,8-4.1c2-0.3,6.5,0.4,8,1.8c1.3,1.3,0.7,5.8,2.1,7.1c3.2,3,13.2,5.6,17.1,3.5   c2.6-1.4,4.2-8,4.7-10.9c0.3-2,0.1-6.1,0.9-8c1.2-2.6,6.4-6,7.7-8.6c0.8-1.7,0.2-6,1.5-7.4c2-2.2,9-1.9,11.5-3.5   c1.6-1.1,3.3-5.1,5-5.9c2.5-1.2,8.6,1.1,11.2,0c2.5-1,5.2-6.4,7.7-7.4c1.4-0.6,4.7-0.3,6.2,0c1.5,0.3,4.9,1.3,5.6,2.6   c0.7,1.3-1.8,4.6-1.2,5.9c0.5,1,3,1.7,4.1,2.1c2.7,1,9.1,0.7,11.2,2.6c1,0.9,1.7,3.7,1.8,5c0,1.4-0.4,4.4-1.5,5.3   c-1.5,1.2-6.2-0.7-7.7,0.6c-1.4,1.2-2.1,5.3-1.8,7.1c0.2,1.3,2.3,3.3,2.9,4.4c1,1.9,1.8,6.5,3.5,7.7c1.8,1.2,6.7-1.1,8.6,0   c1.4,0.9,1.6,5.3,3.2,5.9c2.8,1,8.7-2.7,10.9-4.7c2-1.8,3-8,5.3-9.4c1.6-1,6,0.7,7.7-0.3c2-1.2,3.3-6.1,4.7-8   c1.6-2,6.1-4.8,7.4-7.1c0.7-1.3,0.3-4.7,1.2-5.9c1-1.3,4.5-2.1,5.6-3.3c1.5-1.6,2.4-6.1,3.8-7.7c0,0,0.1-0.1,0.2-0.2   c0.8,3.2,2.2,6.8,3.4,8.7c0.9,1.4,3.7,3.2,4.9,4.4c2.5,2.7,6.4,9.2,9.3,11.5c2.4,1.9,9.5,2.7,11.1,5.3c1.4,2.3-0.2,8-0.4,10.6   c-0.2,3.1-1.9,9.3-1.3,12.4c0.4,2.1,2.5,6,4,7.5c1.3,1.4,5.5,2.4,6.6,4c2.3,3.2,1.9,11.9,3.5,15.5C870.4,825,874.4,829,875.5,831.4   L875.5,831.4z" data-stroke-width="0.2" style="stroke-width: 0.2;" class=" " id="ba-ria-vung-tau"></path>
	<path fill="#FDBDC4" stroke="#474747" stroke-width="0.2" d="M 799 228.3 C 801.1 231.4 803.1 239.10000000000002 803 242.9 C 802.9 245.8 800.5 251.4 799 254 C 797.3 256.8 791.1 260.6 790.2 263.7 C 788.4000000000001 269.5 794.4000000000001 281.59999999999997 793.7 287.59999999999997 C 793.6 288.79999999999995 792.6 291.09999999999997 791.8000000000001 293.09999999999997 C 789.9000000000001 290.79999999999995 788.1 287.99999999999994 786.2 287.59999999999997 C 782 286.59999999999997 773.5 290.59999999999997 769.8000000000001 292.9 C 766.7 294.9 763.0000000000001 302.09999999999997 759.6 303.5 C 756 305 747.2 301.1 744.1 303.5 C 741.6 305.5 741.5 312.7 741 315.9 C 740.6 318.59999999999997 741.2 324.29999999999995 740.6 327 C 739.7 330.9 734.1 337.6 734 341.6 C 733.9 344.70000000000005 736.2 350.6 738 353.1 C 740 356 747.9 358.6 749.1 361.90000000000003 C 750.6 365.90000000000003 743.5 374.90000000000003 745.6 378.70000000000005 C 747.4 382.1 756.6 382.30000000000007 759.8000000000001 384.40000000000003 C 760.4000000000001 384.8 761.4000000000001 385.50000000000006 762.3000000000001 386.20000000000005 C 760.8000000000001 387.40000000000003 759.3000000000001 388.6 758.2 389.20000000000005 C 755.4000000000001 390.70000000000005 749.6 393.70000000000005 746.4000000000001 394.20000000000005 C 744.1000000000001 394.6 739.3000000000001 393.30000000000007 737.0000000000001 393.6 C 734.0000000000001 394 728.6000000000001 396.8 725.8000000000001 397.70000000000005 C 723.8000000000001 398.40000000000003 719.2 398.70000000000005 717.5000000000001 400.1 C 716.4000000000001 400.90000000000003 715.8000000000001 403.90000000000003 714.8000000000001 404.8 C 713.5000000000001 406.1 706.1 406.40000000000003 703.2 406.40000000000003 C 700.8000000000001 406.40000000000003 695.9000000000001 405.70000000000005 693.5 406.00000000000006 C 690.9 406.20000000000005 685.8 407.50000000000006 683.3 408.40000000000003 C 681.0999999999999 409.20000000000005 677.3 413.00000000000006 674.9 412.8 C 673.1999999999999 412.7 670.8 408.3 669.1999999999999 408.8 C 666.1999999999999 409.8 667.5999999999999 418.8 664.9999999999999 420.5 C 662.9999999999999 421.8 657.3999999999999 418.9 655.2999999999998 420.1 C 652.5999999999998 421.5 650.7999999999998 428.3 648.6999999999998 430.5 C 646.5999999999998 432.7 639.8999999999999 434.6 638.6999999999998 437.4 C 637.0999999999998 441.2 643.1999999999998 449.9 641.7999999999998 453.79999999999995 C 640.9999999999999 455.99999999999994 635.4999999999999 457.59999999999997 634.4999999999999 459.79999999999995 C 633.5999999999999 461.69999999999993 635.6999999999999 466.59999999999997 634.4999999999999 468.4 C 633.2999999999998 470.29999999999995 628.0999999999999 470.79999999999995 626.2999999999998 472.2 C 624.5999999999998 473.5 622.1999999999998 477 620.7999999999998 478.59999999999997 C 618.3999999999999 481.29999999999995 613.7999999999998 486.99999999999994 610.7999999999998 489.2 C 608.5999999999998 490.8 604.4999999999999 493.09999999999997 600.9999999999999 494.7 C 598.2999999999998 493.3 593.9999999999999 492.2 592.4999999999999 491 C 589.6999999999999 488.9 586.3999999999999 482.6 582.8999999999999 482.2 C 575.4999999999999 481.3 570.6999999999998 486.4 567.3999999999999 487.09999999999997 C 563.7999999999998 487.9 559.5999999999999 486.7 556.2999999999998 488.4 C 553.8999999999999 489.7 549.4999999999999 495.4 546.9999999999999 494.09999999999997 C 543.2999999999998 492.2 548.1999999999999 480.99999999999994 545.6999999999999 477.7 C 543.6999999999999 475.2 535.8 475.8 533.3 473.7 C 531.5 472.2 531 466.4 528.9 465.3 C 525.6999999999999 463.7 518.3 467.90000000000003 514.6999999999999 467.5 C 512.5999999999999 467.3 507.5999999999999 466.3 506.69999999999993 464.4 C 505.99999999999994 462.79999999999995 509.19999999999993 459.5 508.8999999999999 457.79999999999995 C 508.49999999999994 455.69999999999993 503.2999999999999 453.29999999999995 503.5999999999999 451.19999999999993 C 503.9999999999999 448.79999999999995 509.9999999999999 447.69999999999993 511.5999999999999 445.8999999999999 C 513.8999999999999 443.19999999999993 517.0999999999999 436.5999999999999 517.8 433.0999999999999 C 518.5 429.4999999999999 519.5999999999999 420.9999999999999 516.9 418.4999999999999 C 515.4 417.0999999999999 510.9 418.2999999999999 508.9 418.4999999999999 C 506.29999999999995 418.7999999999999 500.7 419.0999999999999 498.7 420.6999999999999 C 497 422.1999999999999 495.8 426.89999999999986 495.2 429.09999999999985 C 494.2 432.79999999999984 496 441.89999999999986 493 444.09999999999985 C 491.1 445.49999999999983 485.8 441.59999999999985 483.7 442.79999999999984 C 481.2 444.1999999999998 481.4 451.39999999999986 479.3 453.39999999999986 C 477.1 455.4999999999999 470.2 455.4999999999999 467.8 457.39999999999986 C 466.2 458.59999999999985 465.1 463.09999999999985 463.40000000000003 463.9999999999999 C 461.8 464.7999999999999 457.50000000000006 462.6999999999999 456.3 463.9999999999999 C 454 466.6999999999999 460.8 475.39999999999986 458.5 478.1999999999999 C 457.4 479.4999999999999 453.2 478.2999999999999 451.4 478.1999999999999 C 448.2 477.9999999999999 441 478.59999999999985 438.59999999999997 476.39999999999986 C 436.59999999999997 474.59999999999985 438.09999999999997 467.4999999999999 435.9 465.79999999999984 C 434.9 464.99999999999983 431.79999999999995 466.29999999999984 430.59999999999997 465.79999999999984 C 426.59999999999997 464.09999999999985 420.29999999999995 456.99999999999983 418.59999999999997 452.99999999999983 C 417.9 451.29999999999984 418.79999999999995 447.29999999999984 418.59999999999997 445.49999999999983 C 418.29999999999995 443.29999999999984 417.99999999999994 438.49999999999983 416.4 437.09999999999985 C 413.59999999999997 434.6999999999999 405.2 436.79999999999984 401.79999999999995 435.29999999999984 C 399.4 434.29999999999984 394.9 430.99999999999983 393.79999999999995 428.6999999999998 C 392.79999999999995 426.49999999999983 395.19999999999993 420.99999999999983 393.79999999999995 418.99999999999983 C 392.29999999999995 416.8999999999998 385.59999999999997 417.59999999999985 384.09999999999997 415.49999999999983 C 382.79999999999995 413.59999999999985 385.4 408.09999999999985 384.09999999999997 406.1999999999998 C 383.09999999999997 404.6999999999998 379.4 403.29999999999984 376.49999999999994 402.3999999999998 C 376.79999999999995 401.49999999999983 376.99999999999994 400.6999999999998 376.99999999999994 399.99999999999983 C 377.09999999999997 396.3999999999998 372.79999999999995 389.8999999999998 372.3999999999999 386.29999999999984 C 372.0999999999999 382.79999999999984 377.2999999999999 376.29999999999984 376.3999999999999 372.89999999999986 C 375.3999999999999 369.29999999999984 367.8999999999999 365.6999999999999 365.49999999999994 362.89999999999986 C 363.69999999999993 360.79999999999984 360.19999999999993 356.29999999999984 359.49999999999994 353.59999999999985 C 358.79999999999995 351.29999999999984 360.3999999999999 346.1999999999999 359.49999999999994 343.99999999999983 C 358.69999999999993 342.1999999999998 354.69999999999993 340.1999999999998 353.8999999999999 338.3999999999998 C 353.49999999999994 337.5999999999998 353.5999999999999 335.6999999999998 353.5999999999999 334.8999999999998 C 353.5999999999999 334.49999999999983 353.5999999999999 334.0999999999998 353.69999999999993 333.5999999999998 C 354.69999999999993 333.2999999999998 355.5999999999999 332.7999999999998 356.0999999999999 332.1999999999998 C 358.9999999999999 328.49999999999983 354.2999999999999 317.99999999999983 352.5999999999999 313.5999999999998 C 350.8999999999999 309.1999999999998 343.8999999999999 301.9999999999998 342.5999999999999 297.3999999999998 C 341.19999999999993 292.3999999999998 340.69999999999993 281.3999999999998 342.5999999999999 276.3999999999998 C 343.7999999999999 273.2999999999998 350.3999999999999 269.5999999999998 351.3999999999999 266.3999999999998 C 352.8999999999999 261.6999999999998 349.2999999999999 247.7999999999998 349.2999999999999 246.8999999999998 C 349.2999999999999 245.9999999999998 356.0999999999999 238.2999999999998 356.3999999999999 234.7999999999998 C 356.7999999999999 229.3999999999998 348.99999999999994 220.2999999999998 347.5999999999999 214.9999999999998 C 346.19999999999993 210.0999999999998 342.2999999999999 199.0999999999998 344.8999999999999 194.5999999999998 C 346.7999999999999 191.29999999999978 355.2999999999999 189.1999999999998 359.0999999999999 188.9999999999998 C 363.7999999999999 188.6999999999998 372.69999999999993 193.3999999999998 377.3999999999999 193.9999999999998 C 382.19999999999993 194.5999999999998 391.7999999999999 194.1999999999998 396.5999999999999 193.9999999999998 C 403.2999999999999 193.6999999999998 416.4999999999999 192.0999999999998 423.0999999999999 191.5999999999998 C 429.0999999999999 191.1999999999998 441.2999999999999 189.3999999999998 447.2999999999999 190.0999999999998 C 451.9999999999999 190.5999999999998 460.5999999999999 194.9999999999998 465.2999999999999 195.3999999999998 C 468.8999999999999 195.69999999999982 476.5999999999999 195.3999999999998 479.7999999999999 193.5999999999998 C 483.8999999999999 191.29999999999978 489.1999999999999 182.8999999999998 491.5999999999999 178.79999999999978 C 494.5999999999999 173.79999999999978 497.19999999999993 162.0999999999998 500.69999999999993 157.5999999999998 C 504.8999999999999 152.3999999999998 515.6999999999999 143.29999999999978 522.1999999999999 141.6999999999998 C 529.4 139.9999999999998 544.0999999999999 145.39999999999978 551.4 146.39999999999978 C 559.8 147.49999999999977 576.8 151.89999999999978 585 149.89999999999978 C 595.3 147.49999999999977 612.5 133.89999999999978 620.7 127.19999999999978 C 627 122.09999999999978 637.4000000000001 109.59999999999977 643.1 103.89999999999978 C 649 97.99999999999977 661.8000000000001 86.99999999999977 667.3000000000001 80.59999999999978 C 672.6 74.49999999999979 679.6 59.19999999999978 685.9000000000001 54.09999999999978 C 689.4000000000001 51.19999999999978 695.3000000000001 48.19999999999978 701.6000000000001 45.59999999999978 C 703.2000000000002 51.299999999999784 705.9000000000001 58.09999999999978 706.7000000000002 62.19999999999978 C 708.0000000000001 69.19999999999979 708.6000000000001 83.49999999999979 709.8000000000002 90.49999999999979 C 710.7000000000002 96.09999999999978 715.3000000000002 106.99999999999979 714.7000000000002 112.5999999999998 C 714.3000000000002 116.19999999999979 708.2000000000002 122.19999999999979 708.5000000000001 125.89999999999979 C 708.9000000000001 129.4999999999998 716.0000000000001 133.8999999999998 716.9000000000001 137.3999999999998 C 717.6000000000001 139.9999999999998 715.9000000000001 145.3999999999998 715.6000000000001 147.9999999999998 C 715.1000000000001 151.7999999999998 711.5000000000001 159.6999999999998 713.4000000000001 162.9999999999998 C 715.4000000000001 166.4999999999998 724.8000000000001 167.2999999999998 728.4000000000001 169.1999999999998 C 731.5000000000001 170.79999999999978 736.8000000000001 175.29999999999978 739.9000000000001 176.6999999999998 C 743.2 178.1999999999998 751.1000000000001 178.0999999999998 754.1000000000001 180.1999999999998 C 758.0000000000001 182.9999999999998 760.5000000000001 193.4999999999998 764.3000000000002 196.5999999999998 C 767.4000000000002 199.0999999999998 776.7000000000002 198.8999999999998 779.3000000000002 201.8999999999998 C 781.4000000000002 204.3999999999998 780.2000000000002 211.9999999999998 782.0000000000002 214.69999999999982 C 784.6 219.7 795.9 223.8 799 228.3 L 799 228.3 Z" data-stroke-width="0.2" style="stroke-width: 0.2;" class=" " id="binh-phuoc"></path>
	<path fill="#FDBDC4" stroke="#474747" stroke-width="0.2" d="M592.2,491.2c1.5,1.2,5.8,2.3,8.5,3.7c-1.4,0.6-2.7,1.1-3.7,1.4   c-3.8,1.1-13-0.8-15.7,2c-2.2,2.2,0,9.5-1.2,12.4c-1.1,2.6-6.3,5.9-7.1,8.6c-0.8,2.9,3,9.3,1.8,12.1c-0.8,1.8-5.7,2.6-6.5,4.4   c-0.8,1.8,1.3,6,0.9,8c-0.6,2.6-6.4,6.6-5.6,9.1c0.9,3,9,3.4,11.5,5.3c2.7,2,4,10.3,6,13.1c1.8,2.4,8.4,4.2,9.3,7   c1.1,3.3,0.5,10.5,1.2,13.9c0.6,2.7,2.8,7.7,3.5,10.3c0.5,1.9,1.2,6.1-2.4,7.4c-4,1.4-11.7,5.7-14.6,8.8c-2.2,2.5-3.3,9.7-5.7,12   c-2.3,2.1-9.2,2.4-11.5,4.4c-1.6,1.5-3.5,5.8-4,8c-0.9,4.1,3.2,13.3,0.9,16.8c-1.3,1.9-7.1,1.6-8.8,3.1c-1.9,1.6-4.3,6.8-5.8,10.2   c-1.6-1.7-3.3-3-4.8-3.5c-3.2-1.1-10.2,0-13.3,1.3c-4.1,1.9-9.4,10-13.3,12.4c-2.8,1.8-9.1,5.2-12.4,4.9c-2.5-0.3-6.1-4.7-8.4-5.7   c-2.9-1.4-10.1-1.3-12.4-3.5c-2.3-2.3-2.8-9.4-4-12.4c-0.8-2.1-3.4-5.8-4-8c-0.9-3.4,1.2-11.3-0.9-14.2c-2.5-3.4-12-4.5-15.9-6.2   c-4.4-1.9-14.2-4.3-17.3-8c-2.3-2.8-1.7-11-3.5-14.2c-1.4-2.4-6.4-5.3-8-7.5c-2.9-4-4.6-14.5-8-18.1c-3.1-3.4-13.1-5.3-15.9-8.8   c-1.2-1.4-0.8-5.9-2.2-7.1c-3.8-3.1-14.8-3.6-19.5-2.2c-2,0.6-4.8,4.3-6.6,5.3c-1,0.5-2.9,0.8-4.8,1c-0.4-1.9-0.9-3.8-1.4-5   c-1.4-3.7-6.9-9.9-8-13.7c-0.9-3,0.9-9.6-0.4-12.4c-1.3-2.8-7-6.3-9.3-8.4c-4.1-3.7-14.1-9.6-16.4-14.6c-1.3-2.9,0.9-9.7,0-12.8   c-1.1-3.9-7.5-9.9-8.8-13.7c-1.5-4.2-2.6-13.3-1.8-17.7c0.5-2.7,4-7.2,4.9-9.7c1-2.9,1.4-9.1,2.6-12c1.9-4.4,8.5-11.8,11.1-15.9   c1.7-2.7,4-8.8,6.2-11.1c1.3-1.3,4.9-2.3,6.2-3.5c2.5-2.4,4.3-9.8,7.1-12c1.6-1.3,6.3-1,8-2.2c2.7-2,6.9-7.2,8.3-11.3   c2.9,0.9,6.6,2.3,7.6,3.8c1.3,1.9-1.3,7.4,0,9.3c1.5,2.1,8.2,1.4,9.7,3.5c1.4,2-1,7.5,0,9.7c1.1,2.3,5.6,5.6,8,6.6   c3.4,1.5,11.8-0.6,14.6,1.8c1.6,1.4,1.9,6.3,2.2,8.4c0.2,1.9-0.7,5.8,0,7.5c1.6,4.1,7.9,11.1,12,12.8c1.2,0.5,4.3-0.8,5.3,0   c2.2,1.7,0.6,8.8,2.7,10.6c2.4,2.2,9.6,1.6,12.8,1.8c1.8,0.1,5.9,1.3,7.1,0c2.3-2.7-4.5-11.4-2.2-14.2c1.1-1.3,5.5,0.8,7.1,0   c1.8-0.9,2.9-5.4,4.4-6.6c2.4-1.9,9.3-1.9,11.5-4c2.1-2,1.9-9.2,4.4-10.6c2-1.2,7.4,2.7,9.3,1.3c3-2.3,1.2-11.4,2.2-15.1   c0.6-2.2,1.8-6.9,3.5-8.4c2-1.7,7.6-1.9,10.2-2.2c2-0.2,6.5-1.4,8,0c2.7,2.5,1.6,11,0.9,14.6c-0.7,3.5-3.9,10.1-6.2,12.8   c-1.6,1.8-7.6,2.9-8,5.3c-0.3,2.1,4.9,4.6,5.3,6.6c0.3,1.7-3,5.1-2.2,6.6c0.9,1.9,5.8,2.9,8,3.1c3.6,0.4,11-3.8,14.2-2.2   c2.1,1.1,2.6,6.9,4.4,8.4c2.5,2.1,10.4,1.4,12.4,4c2.5,3.2-2.3,14.5,1.3,16.4c2.4,1.2,6.9-4.4,9.3-5.7c3.2-1.7,7.5-0.5,11.1-1.3   c3.2-0.7,8.1-5.7,15.5-4.9C586,482.7,589.4,489.1,592.2,491.2L592.2,491.2z" data-stroke-width="0.2" style="stroke-width: 0.2;" class=" " id="binh-duong"></path>
	<path fill="#FDBDC4" stroke="#474747" stroke-width="0.2" d="M549.4,880.6c-0.4,1-0.2,2.2,0,3.4c-0.1-0.1-0.2-0.2-0.4-0.2   c-0.8-0.3-2.7,0.8-3.1,1.5c-0.9,1.4,0.5,5.1,0,6.6c-0.5,1.6-3.2,4-3.8,5.5c-0.7,1.9-0.9,6-0.7,8c0.2,1.7,2.1,4.9,2.2,6.6   c0.1,2.1-0.3,6.8-1.8,8.4c-0.8,0.8-3.2,1.6-4.2,1.1c-1.2-0.6-1-4.3-2.2-4.9c-1.2-0.6-4.1,1.8-5.3,1.1c-1.5-0.9-1.4-5-2-6.6   c-0.5-1.2-1.3-3.7-2.2-4.6c-1-1.1-4.2-1.7-5.3-2.7c-2.1-1.9-4.2-7.3-6.2-9.3c-2-2-7.4-4.1-9.3-6.2c-1.7-2-4.7-6.9-4.6-9.5   c0-2.1,3.9-5.2,4-7.3c0.1-2.5-3.3-6.7-3.8-9.1c-0.5-2.5,0.7-7.7,0.2-10.2c-0.3-1.7-2.6-4.5-2.7-6.2c0-1.2,0.6-3.7,1.5-4.4   c1.1-0.8,4-0.7,5.3-0.4c1.3,0.2,3.4,2.3,4.6,2.2c1.7,0,5.1-1.9,6-3.3c0.8-1.2-0.2-4.4,0.2-5.7c0.4-1.3,1.7-4.5,3.1-4.6   c0.8-0.1,1.8,1.5,2.2,2.2c0.4,0.8,0.2,3,0.9,3.5c1.3,1,5.1-1.4,6.4-0.4c1.2,0.9,0.4,4.7,1.3,6c1,1.4,4.7,2.5,6,3.8   c0.9,0.9,2.3,3.1,2.9,4.2c0.6,1.3,0.6,4.6,1.5,5.7c1.2,1.5,5.7,2,6.9,3.5c1,1.3,1.1,4.8,1.1,6.4c0,1.7-2,5-1.5,6.6   c0.4,1.4,2.5,4.1,4,4.2c0.4,0,0.8-0.2,1.2-0.5c0,1-0.2,2-0.4,2.7C551.4,878.5,549.6,880.1,549.4,880.6L549.4,880.6z" data-stroke-width="0.2" style="stroke-width: 0.2;"></path>
	<path fill="#FDBDC4" stroke="#474747" stroke-width="0.2" d="M543.2,673c3.3,3.4,6.7,8.1,9.3,10.2c3.1,2.4,11.5,4.9,13.3,8.4   c1.1,2.2-1.5,7.4-0.9,9.7c0.8,3.3,4.6,9.7,7.5,11.5c2.7,1.7,11.1-1,12.8,1.8c1.4,2.3-1.4,8.6-3.5,10.2c-1.5,1.1-6-0.6-7.5,0.4   c-2.6,1.8-2.8,9.5-5.3,11.5c-3.4,2.7-12.9,2.9-17.3,3.5c-2.7,0.4-8.5-0.2-11.1,0.9c-2.8,1.2-6.6,6.5-9.3,8   c-1.9,1.1-7.1,0.9-8.4,2.7c-1.3,1.7-1.6,6.9-0.4,8.8c1.8,3.1,10,4,12.8,6.2c2.5,1.9,5.7,7.6,8,9.7c5.5,5.1,20,11.4,24.8,17.3   c1.8,2.1,3,7.8,4.4,10.2c2,3.4,8.1,9.1,9.3,12.8c0.6,1.7,1,5.6,0,7.1c-1,1.5-5.7,1.5-6.6,3.1c-1.3,2.3,1.9,8,1.3,10.6   c-0.3,1.4-2.6,3.5-3.1,4.9c-0.8,2-1.6,5.8-2,8.8c-2.3-0.4-6.4-2.5-8.3-1.7c-1.5,0.6-2.5,4.5-3.8,5.5c-1.3,0.9-4.5,1.9-6,1.6   c-1.6-0.3-4.4-2.3-5.3-3.5c-0.8-1.1-1.3-3.8-1.6-5.2c-0.3-1.3-0.3-4-0.9-5.2c-0.9-1.6-4.6-3.3-5.3-5c-0.5-1.1,0.4-3.8,0-5   c-0.4-1.4-2.1-4.1-3.2-5c-1.2-0.9-4.4-1.6-5.9-1.9c-1.6-0.4-5-0.1-6.5-0.8c-1.5-0.6-3.9-3.2-5.3-4c-1.8-1-6-1.8-7.7-2.9   c-0.9-0.6-2.6-2.1-2.8-3.1c-0.3-1.6,2.3-4.5,2.1-6c-0.2-1.5-2-4.1-3.3-4.9c-1.1-0.6-4.2,0.5-5.2-0.3c-1-0.8-1.4-3.7-1.3-5   c0-1.3,2.2-3.8,1.8-5c-0.4-1.3-3-3.5-4.3-3.1c-0.5,0.2-0.7,0.9-0.8,1.8c-1,0.5-3.6,1.6-4.8,1.8c-1.2,0.2-3.7-0.4-4.9-0.2   c-1.7,0.3-4.8,2-6.4,2.7c-2.1,0.8-6.2,2.4-8.4,2.9c-2.4,0.5-7.7,1.8-10,0.7c-1.5-0.7-2.2-4.6-3.5-5.5c-1.6-1-5.9-0.2-7.5-1.1   c-1.4-0.7-2.8-3.9-4.2-4.6c-2.9-1.5-10.3-3.5-13.1-1.8c-1.2,0.8-0.5,4.8-1.8,5.5c-2.9,1.8-11.2,0.3-13.5-2.2   c-0.9-0.9,0.2-4-0.4-5.1c-1-1.7-5.4-3-6.6-4.6c-1.3-1.7-1.4-6.6-2.9-8.2c-1.1-1.1-4.5-1.5-5.7-2.4c-1.7-1.3-4-5-5.3-6.6   c-1.2-1.5-4.9-3.9-4.9-5.7c0-1.1,2.3-2.6,2.9-3.5c0.7-1,1.2-3.7,2.2-4.4c0.6-0.5,2.4-0.1,2.9-0.7c1.5-1.8,0.2-7,0.4-9.3   c0.2-1.5,0.3-4.5,1.1-5.7c0.8-1.3,4.2-2.1,5.1-3.3c1.1-1.4,1.3-5.3,2.2-6.9c1.2-1.8,5.7-3.9,6.2-6c0.9-3.7-4.6-10.6-4.9-14.4   c-0.2-2.5,2.1-7.3,1.5-9.7c-0.5-1.9-3.1-5.2-4.6-6.4c-1.3-1.1-5.1-1.6-6.2-2.9c-1.3-1.6-0.7-6.4-2-8c-1.9-2.2-9-2.1-10.6-4.4   c-0.7-1,0.5-3.9-0.2-4.9c-1.7-2.3-7.9-3.1-10.6-4c-2.2-0.7-6.7-2.4-9.1-2.4c-1.6,0-4.6,1.3-6.2,1.3c-1.5,0-4.4-0.6-5.7-1.3   c-2.4-1.3-5.4-6.5-8-7.5c-1.3-0.5-4.2,0.3-5.5,0c-2.3-0.6-6.5-2.8-8.2-4.4c-1.8-1.7-3-6.9-4.9-8.8c1.9-2.5,5.8-7.6,7.8-9.2   c1.5-1.2,5.8-2,7.1-3.5c1.9-2.3,1.8-9,3.5-11.5c2.1-3,9.4-5.9,11.5-8.8c3.3-4.6,7.1-15.6,7.5-21.2c0.2-1.8-0.3-4.7-0.8-7.4   c1.9-0.3,3.8-0.5,4.8-1c1.9-1,4.6-4.7,6.6-5.3c4.7-1.3,15.7-0.9,19.5,2.2c1.4,1.2,1,5.6,2.2,7.1c2.9,3.5,12.9,5.5,15.9,8.8   c3.3,3.7,5.1,14.1,8,18.1c1.6,2.2,6.6,5.2,8,7.5c1.8,3.1,1.2,11.3,3.5,14.2c3,3.6,12.9,6.1,17.3,8c3.9,1.7,13.4,2.7,15.9,6.2   c2.1,2.9,0,10.7,0.9,14.2c0.6,2.1,3.1,5.9,4,8c1.2,3,1.6,10.1,4,12.4c2.3,2.2,9.5,2.2,12.4,3.5c2.3,1.1,5.9,5.5,8.4,5.7   c3.3,0.4,9.6-3.1,12.4-4.9c3.8-2.4,9.1-10.5,13.3-12.4c3-1.4,10.1-2.4,13.3-1.3C539.9,670,541.5,671.3,543.2,673L543.2,673z" data-stroke-width="0.2" style="stroke-width: 0.2;" class=" " id="ho-chi-minh"></path>
	<path fill="#FDBDC4" stroke="#474747" stroke-width="0.2" d="M376.3,402.4c-1.5,4.1-5.6,9.3-8.3,11.3c-1.7,1.2-6.3,1-8,2.2   c-2.8,2.1-4.6,9.5-7.1,12c-1.3,1.2-4.9,2.3-6.2,3.5c-2.2,2.3-4.5,8.4-6.2,11.1c-2.6,4.1-9.1,11.5-11.1,15.9   c-1.2,2.8-1.6,9.1-2.7,12c-0.9,2.6-4.4,7.1-4.9,9.7c-0.8,4.4,0.3,13.5,1.8,17.7c1.3,3.8,7.7,9.8,8.8,13.7c0.9,3.1-1.3,9.9,0,12.8   c2.2,5,12.3,10.9,16.4,14.6c2.3,2.1,8,5.6,9.3,8.4c1.3,2.8-0.4,9.4,0.4,12.4c1.1,3.8,6.6,10,8,13.7c0.4,1.2,1,3.1,1.4,5   c0.6,2.7,1,5.6,0.8,7.4c-0.5,5.6-4.2,16.7-7.5,21.2c-2.1,2.9-9.4,5.9-11.5,8.8c-1.7,2.5-1.6,9.2-3.5,11.5c-1.3,1.5-5.5,2.3-7.1,3.5   c-2,1.6-5.9,6.7-7.8,9.2c-0.1-0.1-0.3-0.2-0.4-0.3c-1.3-0.9-4.9-0.5-6.4-1.1c-2-0.8-4.8-4.4-6.9-5.1c-1.3-0.4-4-0.3-5.3-0.2   c-3.8,0.1-12-0.4-15.3,1.5c-1.9,1.1-3.4,5.7-5.1,7.1c-1.6,1.2-5.7,2-7.5,2.9c-2.3,1.1-6.4,4.5-8.8,5.1c-2,0.5-6.4,0.1-8.4-0.4   c-1.7-0.5-4.4-3.3-6.2-3.3c-1.4,0-3.8,1.8-5.1,2.4c-1.9,0.9-5.6,3.3-7.7,3.5c-2,0.2-6.5,0.5-9.4-0.1c1.1-0.9,2-1.9,2.3-2.8   c2-6.2-6.4-18.5-8.8-24.5c-1.4-3.5-4.1-10.7-6.2-13.9c-2-2.9-6.4-9-9.7-10.3c-2.6-1-8.6-0.4-11.2,0.6c-4,1.6-8.8,11.2-13,10.9   c-3.2-0.2-6.6-7.1-8.6-9.7c-2.6-3.5-6.2-11.6-9.1-14.8c-3.1-3.3-12.3-6.5-14.7-10.3c-2.1-3.2-1.1-11.6-2.7-15   c-1.4-3-5.6-8.8-8.6-10.3c-3.9-2.1-13.3-1-17.7-1.8c-4.7-0.8-14.9-1.7-18.6-4.7c-2.9-2.3-5.4-9.7-6.5-13.3   c-1.1-3.5-0.7-11.2-2.4-14.5c-1.6-3.2-7.3-7.8-10-10c-2.6-2.1-10.4-3.9-11.2-7.1c-1.2-4.5,7.8-11.7,8.8-16.2   c1.1-5-1.8-15.5-1.2-20.6c0.5-4.7,4-13.5,5.3-18c0.7-2.6,3.6-7.7,2.9-10.3C97,431.2,87,427.2,86,423c-1-4,3.8-11.7,4.7-15.6   c0.8-3.2,3.2-9.8,2.4-13c-1-3.6-6.8-9.2-10-11.2c-3.6-2.2-13.2-1.7-16.5-4.4c-3-2.5-6.5-10.3-6.5-14.2c0-3.7,4.1-10.5,6.2-13.6   c3.4-5,11.4-15,17.1-17.1c4.2-1.5,13.8-0.2,18,1.5c3.6,1.5,8.3,9.1,12.1,10c4.8,1.2,15.7-0.9,19.5-4.1c3.1-2.7,5-13.6,5.9-15.3   c0.9-1.8,4.9-6.5,6.2-8.8c1.3-2.3,3-7.2,3.8-9.7c1.4-4.4,1.9-14.1,4.7-17.7c2.2-2.9,9-7,12.7-7.4c5.9-0.6,17.4,4.7,22.7,7.4   c4.2,2.2,10.7,10.5,15.3,11.2c4.4,0.7,12.4-5.6,16.8-5.6c6.3,0,17.6,6.5,23.6,8.3c5.2,1.5,16.7,2,21.2,5c4.6,3,8.7,14.4,13.3,17.4   c5,3.2,17.3,7.2,23,5.6c3.7-1,7.4-9.3,10.9-10.9c3.5-1.6,11.8-2.5,15.3-1.2c4.3,1.6,8.4,11.6,12.7,13.3c2.7,1.1,8.7,1.9,12.4,0.8   c-0.1,0.5-0.1,0.9-0.1,1.3c0,0.9-0.1,2.7,0.3,3.5c0.8,1.8,4.8,3.8,5.6,5.6c0.9,2.2-0.7,7.3,0,9.6c0.8,2.7,4.3,7.2,6,9.3   c2.4,2.8,9.9,6.4,10.9,10c0.9,3.4-4.3,9.9-4,13.4c0.4,3.6,4.7,10.1,4.6,13.7C376.8,400.7,376.7,401.5,376.3,402.4L376.3,402.4z" data-stroke-width="0.2" style="stroke-width: 0.2;" class=" " id="tay-ninh"></path>
</g>
<path style="pointer-events: none;" fill="#0A0A0A" d="M456.8,300.4v-24.9h11c1.7,0,3.1,0.2,4.3,0.7c1.2,0.5,2.1,1.2,2.7,2.1c0.6,0.9,0.9,2,0.9,3.3  c0,1.4-0.4,2.6-1.1,3.6c-0.7,1-1.7,1.6-3,2l-0.1-0.7c1.1,0.2,2.1,0.7,2.9,1.2c0.8,0.6,1.5,1.3,1.9,2.2c0.4,0.9,0.7,1.8,0.7,2.9  c0,1.3-0.2,2.4-0.6,3.3c-0.4,0.9-1,1.7-1.8,2.3c-0.8,0.6-1.8,1.1-2.8,1.4c-1.1,0.3-2.2,0.5-3.6,0.5L456.8,300.4z M462.5,295.3h5.4  c0.7,0,1.2-0.1,1.7-0.3c0.5-0.2,0.8-0.5,1.1-0.9c0.3-0.4,0.4-0.9,0.4-1.5c0-0.5-0.1-1-0.4-1.4c-0.3-0.4-0.6-0.7-1.1-0.9  c-0.5-0.2-1.1-0.3-1.8-0.3h-5.3L462.5,295.3z M462.5,285.5h4.4c0.6,0,1.1-0.1,1.6-0.3c0.4-0.2,0.8-0.5,1-0.9  c0.2-0.4,0.4-0.8,0.4-1.3c0-0.8-0.3-1.3-0.8-1.8c-0.5-0.4-1.3-0.7-2.3-0.7h-4.2L462.5,285.5z M480.9,300.4v-18.9h5.7v18.9H480.9z   M485.8,279.4l-7.3-3.9l2.6-3.7l6.4,5L485.8,279.4z M491.4,300.4v-18.9h5.4l0.2,3.8l-1.1,0.4c0.3-0.9,0.7-1.6,1.4-2.3  c0.7-0.7,1.5-1.3,2.5-1.7s1.9-0.6,3-0.6c1.4,0,2.6,0.3,3.6,0.9c1,0.6,1.7,1.4,2.2,2.6c0.5,1.1,0.7,2.5,0.7,4.2v11.6h-5.7v-11.1  c0-0.8-0.1-1.4-0.3-1.9s-0.5-0.9-1-1.1c-0.4-0.3-1-0.4-1.6-0.4c-0.5,0-1,0.1-1.4,0.2c-0.4,0.1-0.8,0.4-1.1,0.7  c-0.3,0.3-0.6,0.6-0.7,1c-0.2,0.4-0.2,0.8-0.2,1.2v11.3h-2.8c-0.7,0-1.2,0-1.7,0C492.1,300.4,491.7,300.4,491.4,300.4L491.4,300.4z   M514,300.4v-26.3h5.6v11.3l-1.1,0.4c0.3-0.9,0.7-1.6,1.4-2.3c0.7-0.7,1.5-1.3,2.5-1.7c0.9-0.4,1.9-0.6,3-0.6c1.4,0,2.6,0.3,3.6,0.9  c1,0.6,1.7,1.4,2.2,2.6c0.5,1.1,0.7,2.5,0.7,4.2v11.6H526v-11.1c0-0.8-0.1-1.4-0.3-1.9c-0.2-0.5-0.5-0.9-1-1.1  c-0.4-0.3-1-0.4-1.6-0.4c-0.5,0-1,0.1-1.4,0.2c-0.4,0.1-0.8,0.4-1.1,0.7c-0.3,0.3-0.6,0.6-0.7,1c-0.2,0.4-0.2,0.8-0.2,1.2v11.3h-2.8  c-0.7,0-1.2,0-1.7,0S514.3,300.4,514,300.4L514,300.4z M548.5,300.4v-24.9h10.7c1.6,0,2.9,0.4,4.2,1.1c1.2,0.7,2.2,1.7,2.9,2.9  c0.7,1.2,1.1,2.6,1.1,4.2c0,1.6-0.4,3.1-1.1,4.3c-0.7,1.3-1.7,2.2-2.9,3c-1.2,0.7-2.6,1.1-4.2,1.1h-4.7v8.3H548.5z M554.4,286.8h3.9  c0.5,0,1-0.1,1.4-0.4c0.4-0.3,0.8-0.6,1-1.1c0.3-0.4,0.4-1,0.4-1.6c0-0.6-0.1-1.1-0.4-1.6c-0.3-0.4-0.6-0.8-1-1s-0.9-0.4-1.4-0.4  h-3.9V286.8z M571.4,300.4v-26.3h5.6v11.3l-1.1,0.4c0.3-0.9,0.7-1.6,1.4-2.3c0.7-0.7,1.5-1.3,2.5-1.7s1.9-0.6,3-0.6  c1.4,0,2.6,0.3,3.6,0.9c1,0.6,1.7,1.4,2.2,2.6c0.5,1.1,0.7,2.5,0.7,4.2v11.6h-5.7v-11.1c0-0.8-0.1-1.4-0.3-1.9  c-0.2-0.5-0.5-0.9-1-1.1c-0.4-0.3-1-0.4-1.6-0.4c-0.5,0-1,0.1-1.4,0.2c-0.4,0.1-0.8,0.4-1.1,0.7c-0.3,0.3-0.6,0.6-0.7,1  c-0.2,0.4-0.2,0.8-0.2,1.2v11.3h-2.8c-0.7,0-1.2,0-1.7,0S571.7,300.4,571.4,300.4L571.4,300.4z M600.4,300.8c-1.4,0-2.6-0.3-3.6-0.9  c-1-0.6-1.7-1.5-2.3-2.6c-0.5-1.1-0.8-2.5-0.8-4.1v-11.7h5.7v10.9c0,0.8,0.1,1.4,0.4,2c0.2,0.5,0.6,1,1.1,1.3c0.5,0.3,1,0.4,1.7,0.4  c0.5,0,0.9-0.1,1.3-0.2c0.4-0.2,0.8-0.4,1.1-0.7c0.3-0.3,0.5-0.7,0.7-1c0.2-0.4,0.2-0.8,0.2-1.3v-11.3c1,0,1.8-0.1,2.4-0.2  c0.6-0.2,1.1-0.4,1.5-0.7c0.4-0.3,0.6-0.7,0.8-1.2c0.2-0.5,0.2-1.1,0.2-1.9h4.3c0,1.1-0.2,2.2-0.5,3.1c-0.3,0.9-0.9,1.7-1.6,2.4  c-0.7,0.6-1.6,1-2.7,1.1l1.3-1.6v17.9h-5.4l-0.2-4.1l0.6,0.8c-0.4,0.7-0.9,1.3-1.5,1.9c-0.6,0.5-1.4,1-2.2,1.3  C602.2,300.6,601.3,300.8,600.4,300.8L600.4,300.8z M625.6,300.7c-2,0-3.7-0.4-5.3-1.3c-1.5-0.9-2.7-2-3.6-3.5  c-0.9-1.5-1.3-3.1-1.3-5c0-1.9,0.4-3.6,1.3-5c0.9-1.5,2.1-2.6,3.6-3.5c1.5-0.9,3.3-1.3,5.3-1.3c0.4,0,0.8,0,1.2,0.1  c0.4,0,0.7,0.1,1.1,0.1c0.3,0,0.5,0.1,0.7,0.1c0.2,0,0.4,0.1,0.6,0.1c1,0,1.7-0.3,2.2-1c0.5-0.7,0.7-1.7,0.7-3.1h4.4  c0,1.1-0.2,2.1-0.5,3.1c-0.3,0.9-0.8,1.8-1.5,2.4c-0.7,0.6-1.6,1.1-2.7,1.3l0.5-0.9c1.1,0.9,2,1.9,2.6,3.2c0.6,1.3,1,2.7,1,4.3  c0,1.9-0.4,3.6-1.3,5c-0.9,1.5-2.1,2.6-3.6,3.5C629.3,300.3,627.6,300.7,625.6,300.7L625.6,300.7z M625.6,295.8  c0.9,0,1.6-0.2,2.3-0.6c0.7-0.4,1.2-1,1.6-1.7s0.6-1.6,0.5-2.5c0-0.9-0.2-1.8-0.5-2.5c-0.4-0.8-0.9-1.3-1.6-1.8  c-0.7-0.4-1.4-0.6-2.3-0.6s-1.6,0.2-2.3,0.6c-0.7,0.4-1.2,1-1.6,1.8c-0.4,0.7-0.6,1.6-0.5,2.5c0,0.9,0.2,1.8,0.5,2.5  c0.4,0.7,0.9,1.3,1.6,1.7C624,295.6,624.8,295.8,625.6,295.8z M622.8,279.4l-1.7-2.6l6.4-5l2.6,3.7L622.8,279.4z M647.8,300.7  c-1.8,0-3.5-0.4-4.9-1.3c-1.4-0.9-2.6-2-3.4-3.5c-0.8-1.5-1.2-3.2-1.2-5c0-1.9,0.4-3.5,1.2-5c0.9-1.5,2-2.7,3.4-3.5  c1.4-0.9,3.1-1.3,4.9-1.3c1.7,0,3.2,0.3,4.6,0.9c1.4,0.6,2.5,1.4,3.4,2.5l-3.1,3.7c-0.3-0.4-0.7-0.7-1.2-1.1  c-0.4-0.3-0.9-0.6-1.5-0.8s-1.1-0.3-1.7-0.3c-0.9,0-1.7,0.2-2.4,0.6c-0.7,0.4-1.2,1-1.6,1.7c-0.4,0.7-0.6,1.6-0.6,2.5  c0,0.9,0.2,1.7,0.6,2.5c0.4,0.7,0.9,1.3,1.6,1.7c0.7,0.4,1.5,0.6,2.3,0.6c0.6,0,1.2-0.1,1.7-0.2c0.5-0.2,1-0.4,1.4-0.7  c0.4-0.3,0.9-0.7,1.2-1.1l3.1,3.7c-0.8,1-1.9,1.8-3.4,2.4C650.9,300.4,649.4,300.7,647.8,300.7L647.8,300.7z"></path>
<path style="pointer-events: none;" fill="#0A0A0A" d="M341.4,531.2v-24.9h11c1.7,0,3.1,0.2,4.3,0.7c1.2,0.5,2.1,1.2,2.7,2.1c0.6,0.9,0.9,2,0.9,3.3  c0,1.4-0.4,2.6-1.1,3.6c-0.7,1-1.7,1.6-3,2l-0.1-0.7c1.1,0.2,2.1,0.7,2.9,1.2c0.8,0.6,1.5,1.3,1.9,2.2c0.4,0.9,0.7,1.8,0.7,2.9  c0,1.3-0.2,2.4-0.6,3.3c-0.4,0.9-1,1.7-1.8,2.3c-0.8,0.6-1.8,1.1-2.8,1.4c-1.1,0.3-2.2,0.5-3.6,0.5L341.4,531.2z M347.1,526.2h5.4  c0.7,0,1.2-0.1,1.7-0.3c0.5-0.2,0.8-0.5,1.1-0.9c0.3-0.4,0.4-0.9,0.4-1.5c0-0.5-0.1-1-0.4-1.4c-0.3-0.4-0.6-0.7-1.1-0.9  c-0.5-0.2-1.1-0.3-1.8-0.3h-5.3L347.1,526.2z M347.1,516.4h4.4c0.6,0,1.1-0.1,1.6-0.3c0.4-0.2,0.8-0.5,1-0.9  c0.2-0.4,0.4-0.8,0.4-1.3c0-0.8-0.3-1.3-0.8-1.8c-0.5-0.4-1.3-0.7-2.3-0.7h-4.2L347.1,516.4z M365.5,531.2v-18.9h5.7v18.9H365.5z   M370.4,510.3l-7.3-3.9l2.6-3.7l6.4,5L370.4,510.3z M376,531.2v-18.9h5.4l0.2,3.8l-1.1,0.4c0.3-0.9,0.7-1.6,1.4-2.3  c0.7-0.7,1.5-1.3,2.5-1.7c0.9-0.4,1.9-0.6,3-0.6c1.4,0,2.6,0.3,3.6,0.9c1,0.6,1.7,1.4,2.2,2.6c0.5,1.1,0.7,2.5,0.7,4.2v11.6h-5.7  v-11.1c0-0.8-0.1-1.4-0.3-1.9c-0.2-0.5-0.5-0.9-1-1.1c-0.4-0.3-1-0.4-1.6-0.4c-0.5,0-1,0.1-1.4,0.2c-0.4,0.1-0.8,0.4-1.1,0.7  c-0.3,0.3-0.6,0.6-0.7,1c-0.2,0.4-0.2,0.8-0.2,1.2v11.3h-2.8c-0.7,0-1.2,0-1.7,0S376.3,531.2,376,531.2L376,531.2z M398.5,531.2V505  h5.6v11.3l-1.1,0.4c0.3-0.9,0.7-1.6,1.4-2.3c0.7-0.7,1.5-1.3,2.5-1.7c0.9-0.4,1.9-0.6,3-0.6c1.4,0,2.6,0.3,3.6,0.9  c1,0.6,1.7,1.4,2.2,2.6c0.5,1.1,0.7,2.5,0.7,4.2v11.6h-5.7v-11.1c0-0.8-0.1-1.4-0.3-1.9c-0.2-0.5-0.5-0.9-1-1.1  c-0.4-0.3-1-0.4-1.6-0.4c-0.5,0-1,0.1-1.4,0.2c-0.4,0.1-0.8,0.4-1.1,0.7c-0.3,0.3-0.6,0.6-0.7,1c-0.2,0.4-0.2,0.8-0.2,1.2v11.3h-2.8  c-0.7,0-1.2,0-1.7,0C399.2,531.2,398.8,531.2,398.5,531.2L398.5,531.2z M433.1,531.2v-24.9h10.4c1.8,0,3.5,0.3,5,0.9  c1.5,0.6,2.8,1.4,3.9,2.6c1.1,1.1,2,2.4,2.6,3.9c0.6,1.5,0.9,3.2,0.9,5c0,1.8-0.3,3.5-0.9,5c-0.6,1.5-1.4,2.8-2.6,3.9  c-1.1,1.1-2.4,1.9-3.9,2.6c-1.5,0.6-3.2,0.9-5,0.9L433.1,531.2z M439.1,527.1l-0.8-1.2h5c1,0,1.9-0.2,2.7-0.5c0.8-0.4,1.4-0.8,2-1.5  c0.6-0.6,1-1.4,1.3-2.2c0.3-0.9,0.5-1.8,0.5-2.9s-0.2-2-0.5-2.9c-0.3-0.9-0.7-1.6-1.3-2.2c-0.5-0.6-1.2-1.1-2-1.4  c-0.8-0.4-1.7-0.5-2.7-0.5h-5.1l0.9-1.1V527.1z M466.3,531.6c-1.4,0-2.6-0.3-3.6-0.9c-1-0.6-1.7-1.5-2.3-2.6  c-0.5-1.1-0.8-2.5-0.8-4.1v-11.7h5.7v10.9c0,0.8,0.1,1.4,0.4,2c0.2,0.5,0.6,1,1.1,1.3c0.5,0.3,1,0.4,1.7,0.4c0.5,0,0.9-0.1,1.3-0.2  c0.4-0.2,0.8-0.4,1.1-0.7c0.3-0.3,0.5-0.7,0.7-1c0.2-0.4,0.2-0.8,0.2-1.3v-11.3c1,0,1.8-0.1,2.4-0.2c0.6-0.2,1.1-0.4,1.5-0.7  c0.4-0.3,0.6-0.7,0.8-1.2c0.2-0.5,0.2-1.1,0.2-1.9h4.3c0,1.1-0.2,2.2-0.5,3.1c-0.3,0.9-0.9,1.7-1.6,2.4c-0.7,0.6-1.6,1-2.7,1.1  l1.3-1.6v17.9h-5.4l-0.2-4.1l0.6,0.8c-0.4,0.7-0.9,1.3-1.5,1.9c-0.6,0.5-1.4,1-2.2,1.3C468.1,531.5,467.2,531.6,466.3,531.6  L466.3,531.6z M491.6,531.6c-2,0-3.7-0.4-5.3-1.3c-1.5-0.9-2.7-2-3.6-3.5c-0.9-1.5-1.3-3.1-1.3-5c0-1.9,0.4-3.6,1.3-5  c0.9-1.5,2.1-2.6,3.6-3.5c1.5-0.9,3.3-1.3,5.3-1.3c0.4,0,0.8,0,1.2,0.1c0.4,0,0.7,0.1,1.1,0.1c0.3,0,0.5,0.1,0.7,0.1  c0.2,0,0.4,0.1,0.6,0.1c1,0,1.7-0.3,2.2-1c0.5-0.7,0.7-1.7,0.7-3.1h4.4c0,1.1-0.2,2.1-0.5,3.1c-0.3,0.9-0.8,1.8-1.5,2.4  c-0.7,0.6-1.6,1.1-2.7,1.3l0.5-0.9c1.1,0.9,2,1.9,2.6,3.2c0.6,1.3,1,2.7,1,4.3c0,1.9-0.4,3.6-1.3,5c-0.9,1.5-2.1,2.6-3.6,3.5  C495.3,531.2,493.5,531.6,491.6,531.6L491.6,531.6z M491.6,526.7c0.9,0,1.6-0.2,2.3-0.6c0.7-0.4,1.2-1,1.6-1.7  c0.4-0.7,0.6-1.6,0.5-2.5c0-0.9-0.2-1.8-0.5-2.5c-0.4-0.8-0.9-1.3-1.6-1.8c-0.7-0.4-1.4-0.6-2.3-0.6c-0.9,0-1.6,0.2-2.3,0.6  c-0.7,0.4-1.2,1-1.6,1.8c-0.4,0.7-0.6,1.6-0.5,2.5c0,0.9,0.2,1.8,0.5,2.5c0.4,0.7,0.9,1.3,1.6,1.7  C489.9,526.5,490.7,526.7,491.6,526.7z M505.4,531.2v-18.9h5.4l0.2,3.8l-1.1,0.4c0.3-0.9,0.7-1.6,1.4-2.3c0.7-0.7,1.5-1.3,2.5-1.7  c0.9-0.4,1.9-0.6,3-0.6c1.4,0,2.6,0.3,3.6,0.9c1,0.6,1.7,1.4,2.2,2.6c0.5,1.1,0.7,2.5,0.7,4.2v11.6h-5.7v-11.1  c0-0.8-0.1-1.4-0.3-1.9c-0.2-0.5-0.5-0.9-1-1.1c-0.4-0.3-1-0.4-1.6-0.4c-0.5,0-1,0.1-1.4,0.2c-0.4,0.1-0.8,0.4-1.1,0.7  c-0.3,0.3-0.6,0.6-0.7,1c-0.2,0.4-0.2,0.8-0.2,1.2v11.3h-2.8c-0.7,0-1.2,0-1.7,0C506.1,531.2,505.7,531.2,505.4,531.2L505.4,531.2z   M536.6,539.4c-1.5,0-3.1-0.2-4.6-0.7c-1.5-0.5-2.7-1-3.7-1.7l2-4c0.5,0.3,1,0.6,1.6,0.9c0.6,0.3,1.3,0.5,1.9,0.6  c0.7,0.1,1.3,0.2,2,0.2c1.2,0,2.2-0.2,2.9-0.5c0.8-0.4,1.3-0.9,1.7-1.6c0.4-0.7,0.6-1.6,0.6-2.7v-3.2l1.1,0.2  c-0.2,0.8-0.6,1.5-1.2,2.1c-0.6,0.6-1.4,1.2-2.4,1.6c-0.9,0.4-2,0.6-3,0.6c-1.7,0-3.2-0.4-4.6-1.2c-1.3-0.8-2.4-1.9-3.2-3.3  c-0.8-1.4-1.1-3.1-1.1-4.9c0-1.9,0.4-3.6,1.1-5c0.8-1.5,1.8-2.6,3.1-3.4c1.3-0.9,2.8-1.3,4.5-1.3c0.7,0,1.4,0.1,2,0.2  c0.7,0.2,1.3,0.4,1.8,0.7c0.6,0.3,1.1,0.6,1.5,1c0.4,0.4,0.8,0.7,1.1,1.2c0.3,0.4,0.5,0.9,0.6,1.3l-1.2,0.3l0.2-4.3h5.4v17.3  c0,1.5-0.2,2.9-0.7,4.1c-0.4,1.2-1.1,2.2-2,3.1c-0.9,0.9-1.9,1.5-3.2,1.9C539.6,539.2,538.2,539.4,536.6,539.4L536.6,539.4z   M536.8,526.7c0.9,0,1.7-0.2,2.4-0.6c0.7-0.4,1.2-1,1.6-1.7c0.4-0.7,0.6-1.6,0.6-2.6s-0.2-1.9-0.6-2.6c-0.4-0.8-0.9-1.3-1.6-1.7  c-0.7-0.4-1.5-0.6-2.4-0.6c-0.9,0-1.7,0.2-2.3,0.6c-0.7,0.4-1.2,1-1.6,1.7c-0.4,0.7-0.5,1.6-0.5,2.6s0.2,1.9,0.5,2.6  c0.4,0.7,0.9,1.3,1.6,1.7C535.1,526.5,535.9,526.7,536.8,526.7z"></path>
<path style="pointer-events: none;" fill="#0A0A0A" d="M231.4,741.4v-19.5H224v-5.3h21v5.3h-7.6v19.5H231.4z M249.2,741.4v-24.9H260c1.6,0,2.9,0.4,4.2,1.1  c1.2,0.7,2.2,1.7,2.9,2.9c0.7,1.2,1.1,2.6,1.1,4.2c0,1.6-0.4,3.1-1.1,4.3c-0.7,1.3-1.7,2.2-2.9,3c-1.2,0.7-2.6,1.1-4.2,1.1h-4.7v8.3  L249.2,741.4z M255.2,727.8h3.9c0.5,0,1-0.1,1.4-0.4c0.4-0.3,0.8-0.6,1-1.1s0.4-1,0.4-1.6c0-0.6-0.1-1.1-0.4-1.6  c-0.3-0.4-0.6-0.8-1-1c-0.4-0.2-0.9-0.4-1.4-0.4h-3.9V727.8z M270.6,741.8c-1,0-1.7-0.3-2.3-0.8c-0.5-0.5-0.8-1.3-0.8-2.3  c0-0.9,0.3-1.7,0.9-2.3s1.3-0.9,2.2-0.9c1,0,1.7,0.3,2.3,0.9c0.5,0.5,0.8,1.3,0.8,2.3c0,0.9-0.3,1.7-0.9,2.3  C272.3,741.5,271.6,741.8,270.6,741.8z M305.1,741.4v-24.9h6v24.9H305.1z M289.7,741.4v-24.9h6v24.9H289.7z M292.1,731.7l0-5.4h16.2  v5.4H292.1z M325.7,741.8c-2,0-3.7-0.4-5.3-1.3c-1.5-0.9-2.7-2-3.6-3.5c-0.9-1.5-1.3-3.1-1.3-5c0-1.9,0.4-3.6,1.3-5  c0.9-1.5,2.1-2.6,3.6-3.5c1.5-0.9,3.3-1.3,5.3-1.3c2,0,3.7,0.4,5.2,1.3c1.5,0.9,2.7,2,3.6,3.5c0.9,1.5,1.3,3.1,1.3,5  c0,1.9-0.4,3.6-1.3,5c-0.9,1.5-2.1,2.6-3.6,3.5C329.4,741.3,327.6,741.8,325.7,741.8z M325.7,736.9c0.9,0,1.6-0.2,2.3-0.6  s1.2-1,1.6-1.7c0.4-0.7,0.6-1.6,0.5-2.5c0-0.9-0.2-1.8-0.5-2.5c-0.4-0.8-0.9-1.3-1.6-1.8c-0.7-0.4-1.4-0.6-2.3-0.6s-1.6,0.2-2.3,0.6  c-0.7,0.4-1.2,1-1.6,1.8c-0.4,0.7-0.6,1.6-0.5,2.5c0,0.9,0.2,1.8,0.5,2.5c0.4,0.7,0.9,1.3,1.6,1.7  C324.1,736.7,324.8,736.9,325.7,736.9z M321,720.1l-1.7-1.9l4.7-3.8h3.4l4.7,3.8l-1.7,1.9l-5.3-2.4h1.1L321,720.1z M331.7,714.7  l-4.7-4.9l3.6-2.6l3.4,5.9L331.7,714.7z M362.8,741.8c-1.9,0-3.6-0.3-5.2-0.9c-1.6-0.6-2.9-1.5-4.1-2.7c-1.2-1.2-2.1-2.5-2.7-4.1  c-0.6-1.6-0.9-3.3-0.9-5.2c0-1.8,0.3-3.6,1-5.1s1.6-2.9,2.7-4c1.2-1.2,2.6-2.1,4.2-2.7c1.6-0.6,3.4-1,5.3-1c1.2,0,2.3,0.2,3.5,0.5  c1.1,0.3,2.2,0.8,3.2,1.4c1,0.6,1.8,1.3,2.6,2.1l-3.7,4.2c-0.5-0.5-1-1-1.6-1.3c-0.5-0.4-1.1-0.7-1.8-0.9s-1.4-0.3-2.1-0.3  c-0.9,0-1.8,0.2-2.7,0.5c-0.8,0.3-1.6,0.8-2.2,1.5c-0.6,0.6-1.1,1.4-1.5,2.3c-0.4,0.9-0.5,1.9-0.5,3c0,1.1,0.2,2.1,0.5,3  c0.4,0.9,0.9,1.6,1.5,2.3c0.6,0.6,1.4,1.1,2.3,1.5c0.9,0.3,1.9,0.5,3.1,0.5c0.8,0,1.5-0.1,2.2-0.3c0.7-0.2,1.3-0.5,1.9-0.9  c0.6-0.4,1.1-0.8,1.6-1.3l2.9,4.6c-0.6,0.7-1.4,1.3-2.4,1.8c-1,0.5-2.1,0.9-3.3,1.2C365.2,741.6,364,741.8,362.8,741.8L362.8,741.8z   M375.6,741.4v-26.3h5.6v11.3l-1.1,0.4c0.3-0.9,0.7-1.6,1.4-2.3c0.7-0.7,1.5-1.3,2.5-1.7c0.9-0.4,1.9-0.6,3-0.6  c1.4,0,2.6,0.3,3.6,0.9c1,0.6,1.7,1.4,2.2,2.6c0.5,1.1,0.7,2.5,0.7,4.2v11.6h-5.7v-11.1c0-0.8-0.1-1.4-0.3-1.9  c-0.2-0.5-0.5-0.9-1-1.1c-0.4-0.3-1-0.4-1.6-0.4c-0.5,0-1,0.1-1.4,0.2c-0.4,0.1-0.8,0.4-1.1,0.7c-0.3,0.3-0.6,0.6-0.7,1  c-0.2,0.4-0.2,0.8-0.2,1.2v11.3h-2.8c-0.7,0-1.2,0-1.7,0S375.9,741.4,375.6,741.4L375.6,741.4z M397.9,741.4v-18.9h5.7v18.9H397.9z   M397.9,720.5l-1.7-2.6l6.4-5l2.6,3.7L397.9,720.5z M420.4,741.4v-24.9h5.4l9.1,14.7l-3.9,0l9.2-14.7h5.2v24.9h-5.9v-7.7  c0-2.1,0-4,0.1-5.8c0.1-1.7,0.3-3.4,0.6-5.1l0.7,1.8l-6.9,10.7h-2.3l-6.7-10.6l0.7-1.9c0.3,1.6,0.4,3.2,0.5,4.9  c0.1,1.7,0.2,3.6,0.2,5.9v7.7H420.4z M451.3,741.4v-18.9h5.7v18.9H451.3z M454.1,718.8c-1.1,0-1.9-0.2-2.5-0.7  c-0.6-0.5-0.9-1.3-0.9-2.2c0-0.9,0.3-1.6,0.9-2.1c0.6-0.5,1.4-0.8,2.5-0.8c1.1,0,1.9,0.3,2.5,0.8c0.6,0.5,0.9,1.2,0.9,2.1  c0,0.9-0.3,1.6-0.9,2.1C456,718.5,455.2,718.8,454.1,718.8L454.1,718.8z M462.3,741.4v-18.9h5.4l0.2,3.8l-1.1,0.4  c0.3-0.9,0.7-1.6,1.4-2.3c0.7-0.7,1.5-1.3,2.5-1.7c0.9-0.4,1.9-0.6,3-0.6c1.4,0,2.6,0.3,3.6,0.9c1,0.6,1.7,1.4,2.2,2.6  c0.5,1.1,0.7,2.5,0.7,4.2v11.6h-5.7v-11.1c0-0.8-0.1-1.4-0.3-1.9c-0.2-0.5-0.5-0.9-1-1.1c-0.4-0.3-1-0.4-1.6-0.4  c-0.5,0-1,0.1-1.4,0.2c-0.4,0.1-0.8,0.4-1.1,0.7c-0.3,0.3-0.6,0.6-0.7,1c-0.2,0.4-0.2,0.8-0.2,1.2v11.3h-2.8c-0.7,0-1.2,0-1.7,0  C463,741.4,462.6,741.4,462.3,741.4L462.3,741.4z M484.9,741.4v-26.3h5.6v11.3l-1.1,0.4c0.3-0.9,0.7-1.6,1.4-2.3  c0.7-0.7,1.5-1.3,2.5-1.7c0.9-0.4,1.9-0.6,3-0.6c1.4,0,2.6,0.3,3.6,0.9c1,0.6,1.7,1.4,2.2,2.6c0.5,1.1,0.7,2.5,0.7,4.2v11.6h-5.7  v-11.1c0-0.8-0.1-1.4-0.3-1.9s-0.5-0.9-1-1.1c-0.4-0.3-1-0.4-1.6-0.4c-0.5,0-1,0.1-1.4,0.2c-0.4,0.1-0.8,0.4-1.1,0.7  c-0.3,0.3-0.6,0.6-0.7,1c-0.2,0.4-0.2,0.8-0.2,1.2v11.3h-2.8c-0.7,0-1.2,0-1.7,0C485.6,741.4,485.2,741.4,484.9,741.4L484.9,741.4z"></path>
<path style="pointer-events: none;" fill="#0A0A0A" d="M133.7,439.5v-19.5h-7.4v-5.3h21v5.3h-7.6v19.5H133.7z M154.4,439.8c-1.6,0-3-0.4-4.3-1.2  c-1.2-0.9-2.2-2-2.9-3.5c-0.7-1.5-1.1-3.2-1.1-5c0-1.9,0.4-3.6,1.1-5.1s1.7-2.6,3-3.4c1.3-0.9,2.7-1.3,4.4-1.3  c0.9,0,1.7,0.1,2.5,0.4c0.8,0.3,1.4,0.6,2,1.1c0.6,0.4,1.1,1,1.5,1.6c0.4,0.6,0.7,1.2,0.9,1.9l-1.2-0.1v-4.5h5.6v18.9h-5.8v-4.5  l1.3,0c-0.2,0.7-0.5,1.3-0.9,1.9c-0.4,0.6-0.9,1.1-1.6,1.6s-1.3,0.8-2.1,1.1S155.2,439.8,154.4,439.8L154.4,439.8z M155.9,435  c0.9,0,1.6-0.2,2.3-0.6s1.1-1,1.5-1.7c0.4-0.8,0.5-1.6,0.5-2.7s-0.2-1.9-0.5-2.6c-0.4-0.8-0.9-1.3-1.5-1.7c-0.6-0.4-1.4-0.6-2.3-0.6  c-0.9,0-1.6,0.2-2.2,0.6c-0.6,0.4-1.1,1-1.5,1.7c-0.4,0.7-0.5,1.6-0.5,2.6s0.2,1.9,0.5,2.7c0.4,0.7,0.8,1.3,1.5,1.7  C154.3,434.8,155.1,435,155.9,435z M151.9,418.1l-2.1-1.8l5.1-4.6h3.4l5.1,4.6l-2.1,1.8l-5.3-3.1h1.1L151.9,418.1z M172.8,447.7  l4.3-10.1l0.1,2.9l-9.1-19.8h6.4l4,9.5c0.2,0.5,0.4,1,0.6,1.5c0.2,0.5,0.3,1.1,0.4,1.6l-0.8,0.5c0.1-0.4,0.3-0.8,0.5-1.3  c0.2-0.5,0.4-1.1,0.6-1.7l3.5-10h6.5l-8,18.9l-3.3,8.2H172.8z M204.4,439.5v-24.9h5.4l13,17.8l-1.2-0.2c-0.1-0.8-0.2-1.5-0.3-2.2  s-0.1-1.4-0.2-2.1c0-0.7-0.1-1.4-0.1-2.1c0-0.7,0-1.5-0.1-2.3c0-0.8,0-1.7,0-2.7v-6.1h5.9v24.9h-5.5l-13.6-18.3l1.8,0.2  c0.1,1.1,0.2,2.1,0.3,2.9c0.1,0.8,0.2,1.5,0.2,2.1c0.1,0.6,0.1,1.2,0.1,1.7s0,1,0,1.5c0,0.5,0,1,0,1.6v8.3L204.4,439.5z   M232.8,439.5v-18.9h5.7v18.9H232.8z M235.6,416.9c-1.1,0-1.9-0.2-2.5-0.7c-0.6-0.5-0.9-1.3-0.9-2.2c0-0.9,0.3-1.6,0.9-2.1  s1.4-0.8,2.5-0.8c1.1,0,1.9,0.3,2.5,0.8c0.6,0.5,0.9,1.2,0.9,2.1c0,0.9-0.3,1.6-0.9,2.1C237.5,416.6,236.7,416.9,235.6,416.9  L235.6,416.9z M243.8,439.5v-18.9h5.4l0.2,3.8l-1.1,0.4c0.3-0.9,0.7-1.6,1.4-2.3c0.7-0.7,1.5-1.3,2.5-1.7c0.9-0.4,1.9-0.6,3-0.6  c1.4,0,2.6,0.3,3.6,0.9c1,0.6,1.7,1.4,2.2,2.6c0.5,1.1,0.7,2.5,0.7,4.2v11.6h-5.7v-11.1c0-0.8-0.1-1.4-0.3-1.9  c-0.2-0.5-0.5-0.9-1-1.1c-0.4-0.3-1-0.4-1.6-0.4c-0.5,0-1,0.1-1.4,0.2c-0.4,0.1-0.8,0.4-1.1,0.7c-0.3,0.3-0.6,0.6-0.7,1  c-0.2,0.4-0.2,0.8-0.2,1.2v11.3h-2.8c-0.7,0-1.2,0-1.7,0C244.5,439.5,244.1,439.5,243.8,439.5L243.8,439.5z M266.4,439.5v-26.3h5.6  v11.3l-1.1,0.4c0.3-0.9,0.7-1.6,1.4-2.3c0.7-0.7,1.5-1.3,2.5-1.7c0.9-0.4,1.9-0.6,3-0.6c1.4,0,2.6,0.3,3.6,0.9  c1,0.6,1.7,1.4,2.2,2.6c0.5,1.1,0.7,2.5,0.7,4.2v11.6h-5.7v-11.1c0-0.8-0.1-1.4-0.3-1.9c-0.2-0.5-0.5-0.9-1-1.1  c-0.4-0.3-1-0.4-1.6-0.4c-0.5,0-1,0.1-1.4,0.2c-0.4,0.1-0.8,0.4-1.1,0.7c-0.3,0.3-0.6,0.6-0.7,1c-0.2,0.4-0.2,0.8-0.2,1.2v11.3h-2.8  c-0.7,0-1.2,0-1.7,0C267.1,439.5,266.7,439.5,266.4,439.5L266.4,439.5z"></path>
<path style="pointer-events: none;" fill="#0A0A0A" d="M605.9,645.2V641h11.6v4.2H605.9z M607.8,655.6v-24.9h10.4c1.8,0,3.5,0.3,5,0.9c1.5,0.6,2.8,1.4,3.9,2.6  c1.1,1.1,2,2.4,2.6,3.9s0.9,3.2,0.9,5c0,1.8-0.3,3.5-0.9,5c-0.6,1.5-1.4,2.8-2.6,3.9c-1.1,1.1-2.4,1.9-3.9,2.6  c-1.5,0.6-3.2,0.9-5,0.9L607.8,655.6z M613.8,651.4l-0.8-1.2h5c1,0,1.9-0.2,2.7-0.5c0.8-0.4,1.4-0.8,2-1.5c0.6-0.6,1-1.4,1.3-2.2  s0.5-1.8,0.5-2.9c0-1.1-0.2-2-0.5-2.9s-0.7-1.6-1.3-2.2c-0.5-0.6-1.2-1.1-2-1.4c-0.8-0.4-1.7-0.5-2.7-0.5h-5.1l0.9-1.1V651.4z   M643.5,655.9c-2,0-3.7-0.4-5.3-1.3c-1.5-0.9-2.7-2-3.6-3.5c-0.9-1.5-1.3-3.1-1.3-5c0-1.9,0.4-3.6,1.3-5c0.9-1.5,2.1-2.6,3.6-3.5  c1.5-0.9,3.3-1.3,5.3-1.3s3.7,0.4,5.2,1.3c1.5,0.9,2.7,2,3.6,3.5c0.9,1.5,1.3,3.1,1.3,5c0,1.9-0.4,3.6-1.3,5  c-0.9,1.5-2.1,2.6-3.6,3.5C647.2,655.5,645.5,655.9,643.5,655.9z M643.5,651c0.9,0,1.6-0.2,2.3-0.6c0.7-0.4,1.2-1,1.6-1.7  c0.4-0.7,0.6-1.6,0.5-2.5c0-0.9-0.2-1.8-0.5-2.5c-0.4-0.8-0.9-1.3-1.6-1.8s-1.4-0.6-2.3-0.6s-1.6,0.2-2.3,0.6  c-0.7,0.4-1.2,1-1.6,1.8c-0.4,0.7-0.6,1.6-0.5,2.5c0,0.9,0.2,1.8,0.5,2.5s0.9,1.3,1.6,1.7C641.9,650.8,642.7,651,643.5,651z   M638.8,634.2l-1.7-1.9l4.7-3.8h3.4l4.7,3.8l-1.7,1.9l-5.3-2.4h1.1L638.8,634.2z M649.5,628.8l-4.7-4.9l3.6-2.6l3.4,5.9L649.5,628.8  z M657.4,655.6v-18.9h5.4l0.2,3.8l-1.1,0.4c0.3-0.9,0.7-1.6,1.4-2.3c0.7-0.7,1.5-1.3,2.5-1.7s1.9-0.6,3-0.6c1.4,0,2.6,0.3,3.6,0.9  c1,0.6,1.7,1.4,2.2,2.6c0.5,1.1,0.7,2.5,0.7,4.2v11.6h-5.7v-11.1c0-0.8-0.1-1.4-0.3-1.9c-0.2-0.5-0.5-0.9-1-1.1  c-0.4-0.3-1-0.4-1.6-0.4c-0.5,0-1,0.1-1.4,0.2c-0.4,0.1-0.8,0.4-1.1,0.7c-0.3,0.3-0.6,0.6-0.7,1c-0.2,0.4-0.2,0.8-0.2,1.2v11.3h-2.8  c-0.7,0-1.2,0-1.7,0C658.1,655.6,657.7,655.6,657.4,655.6L657.4,655.6z M688.6,663.7c-1.5,0-3.1-0.2-4.6-0.7c-1.5-0.4-2.7-1-3.7-1.7  l2-4c0.5,0.3,1,0.6,1.6,0.9c0.6,0.3,1.3,0.5,1.9,0.6c0.7,0.1,1.3,0.2,2,0.2c1.2,0,2.2-0.2,2.9-0.5c0.8-0.4,1.3-0.9,1.7-1.6  c0.4-0.7,0.6-1.6,0.6-2.7V651l1.1,0.2c-0.2,0.8-0.6,1.5-1.2,2.1c-0.6,0.6-1.4,1.2-2.4,1.6c-0.9,0.4-2,0.6-3,0.6  c-1.7,0-3.2-0.4-4.6-1.2c-1.3-0.8-2.4-1.9-3.2-3.3c-0.8-1.4-1.1-3.1-1.1-4.9c0-1.9,0.4-3.6,1.1-5c0.8-1.5,1.8-2.6,3.1-3.4  c1.3-0.9,2.8-1.3,4.5-1.3c0.7,0,1.4,0.1,2,0.2c0.7,0.2,1.3,0.4,1.8,0.7c0.6,0.3,1.1,0.6,1.5,1c0.4,0.4,0.8,0.7,1.1,1.2  c0.3,0.4,0.5,0.9,0.6,1.3l-1.2,0.3l0.2-4.3h5.4V654c0,1.5-0.2,2.9-0.7,4.1c-0.4,1.2-1.1,2.2-2,3.1c-0.9,0.9-1.9,1.5-3.2,1.9  S690.2,663.7,688.6,663.7L688.6,663.7z M688.7,651c0.9,0,1.7-0.2,2.4-0.6c0.7-0.4,1.2-1,1.6-1.7c0.4-0.7,0.6-1.6,0.6-2.6  s-0.2-1.9-0.6-2.6c-0.4-0.8-0.9-1.3-1.6-1.7c-0.7-0.4-1.5-0.6-2.4-0.6c-0.9,0-1.7,0.2-2.3,0.6c-0.7,0.4-1.2,1-1.6,1.7  c-0.4,0.7-0.5,1.6-0.5,2.6s0.2,1.9,0.5,2.6c0.4,0.7,0.9,1.3,1.6,1.7C687,650.8,687.8,651,688.7,651z M715.7,655.6v-24.9h5.4l13,17.8  l-1.2-0.2c-0.1-0.8-0.2-1.5-0.3-2.2s-0.1-1.4-0.2-2.1c0-0.7-0.1-1.4-0.1-2.1c0-0.7,0-1.5-0.1-2.3c0-0.8,0-1.7,0-2.7v-6.1h5.9v24.9  h-5.5L719,637.2l1.8,0.2c0.1,1.1,0.2,2.1,0.3,2.9c0.1,0.8,0.2,1.5,0.2,2.1c0.1,0.6,0.1,1.2,0.1,1.7s0,1,0,1.5c0,0.5,0,1,0,1.6v8.3  H715.7z M750.7,655.9c-1.6,0-3-0.4-4.3-1.2c-1.2-0.9-2.2-2-2.9-3.5c-0.7-1.5-1.1-3.2-1.1-5c0-1.9,0.4-3.6,1.1-5.1  c0.7-1.5,1.7-2.6,3-3.4c1.3-0.9,2.7-1.3,4.4-1.3c0.9,0,1.7,0.1,2.5,0.4c0.8,0.3,1.4,0.6,2,1.1c0.6,0.4,1.1,1,1.5,1.6  c0.4,0.6,0.7,1.2,0.9,1.9l-1.2-0.1v-4.5h5.6v18.9h-5.8V651l1.3,0c-0.2,0.7-0.5,1.3-0.9,1.9s-0.9,1.1-1.6,1.6  c-0.6,0.5-1.3,0.8-2.1,1.1C752.4,655.8,751.6,655.9,750.7,655.9L750.7,655.9z M752.3,651.1c0.9,0,1.6-0.2,2.3-0.6  c0.6-0.4,1.1-1,1.5-1.7c0.4-0.8,0.5-1.6,0.5-2.7s-0.2-1.9-0.5-2.6c-0.4-0.8-0.9-1.3-1.5-1.7c-0.6-0.4-1.4-0.6-2.3-0.6  c-0.9,0-1.6,0.2-2.2,0.6c-0.6,0.4-1.1,1-1.5,1.7c-0.4,0.7-0.5,1.6-0.5,2.6s0.2,1.9,0.5,2.7c0.4,0.7,0.8,1.3,1.5,1.7  C750.7,650.9,751.4,651.1,752.3,651.1z M767.5,655.6v-18.9h5.7v18.9H767.5z M770.3,633c-1.1,0-1.9-0.2-2.5-0.7  c-0.6-0.5-0.9-1.3-0.9-2.2c0-0.9,0.3-1.6,0.9-2.1c0.6-0.5,1.4-0.8,2.5-0.8c1.1,0,1.9,0.3,2.5,0.8c0.6,0.5,0.9,1.2,0.9,2.1  c0,0.9-0.3,1.6-0.9,2.1C772.2,632.7,771.4,633,770.3,633L770.3,633z"></path>
<path style="pointer-events: none;" fill="#0A0A0A" d="M684.3,853.9V829h11c1.7,0,3.1,0.2,4.3,0.7c1.2,0.5,2.1,1.2,2.7,2.1c0.6,0.9,0.9,2,0.9,3.3  c0,1.4-0.4,2.6-1.1,3.6c-0.7,1-1.7,1.6-3,2L699,840c1.1,0.2,2.1,0.7,2.9,1.2c0.8,0.6,1.5,1.3,1.9,2.2c0.4,0.9,0.7,1.8,0.7,2.9  c0,1.3-0.2,2.4-0.6,3.3c-0.4,0.9-1,1.7-1.8,2.3c-0.8,0.6-1.8,1.1-2.8,1.4c-1.1,0.3-2.2,0.5-3.6,0.5L684.3,853.9z M690,848.9h5.4  c0.7,0,1.2-0.1,1.7-0.3c0.5-0.2,0.8-0.5,1.1-0.9c0.3-0.4,0.4-0.9,0.4-1.5c0-0.5-0.1-1-0.4-1.4c-0.3-0.4-0.6-0.7-1.1-0.9  c-0.5-0.2-1.1-0.3-1.8-0.3H690L690,848.9z M690,839h4.4c0.6,0,1.1-0.1,1.6-0.3c0.4-0.2,0.8-0.5,1-0.9c0.2-0.4,0.4-0.8,0.4-1.3  c0-0.8-0.3-1.3-0.8-1.8c-0.5-0.4-1.3-0.7-2.3-0.7H690V839z M715.5,854.2c-1.6,0-3-0.4-4.3-1.2c-1.2-0.9-2.2-2-2.9-3.5  c-0.7-1.5-1.1-3.2-1.1-5c0-1.9,0.4-3.6,1.1-5.1c0.7-1.5,1.7-2.6,3-3.4c1.3-0.9,2.7-1.3,4.4-1.3c0.9,0,1.7,0.1,2.5,0.4  c0.8,0.3,1.4,0.6,2,1.1c0.6,0.4,1.1,1,1.5,1.6c0.4,0.6,0.7,1.2,0.9,1.9l-1.2-0.1V835h5.6v18.9h-5.8v-4.5l1.3,0  c-0.2,0.7-0.5,1.3-0.9,1.9c-0.4,0.6-0.9,1.1-1.6,1.6c-0.6,0.5-1.3,0.8-2.1,1.1C717.2,854.1,716.4,854.2,715.5,854.2L715.5,854.2z   M717.1,849.4c0.9,0,1.6-0.2,2.3-0.6c0.6-0.4,1.1-1,1.5-1.7c0.4-0.8,0.5-1.6,0.5-2.7s-0.2-1.9-0.5-2.6c-0.4-0.8-0.9-1.3-1.5-1.7  c-0.6-0.4-1.4-0.6-2.3-0.6c-0.9,0-1.6,0.2-2.2,0.6c-0.6,0.4-1.1,1-1.5,1.7c-0.4,0.7-0.5,1.6-0.5,2.6s0.2,1.9,0.5,2.7  c0.4,0.7,0.8,1.3,1.5,1.7C715.5,849.2,716.2,849.4,717.1,849.4z M719.9,832.9l-7.3-3.9l2.6-3.7l6.4,5L719.9,832.9z M744,853.9V829  h11.2c1.6,0,3,0.3,4.3,1c1.3,0.7,2.3,1.6,3.1,2.8c0.7,1.2,1.1,2.5,1.1,4c0,1.6-0.4,3-1.1,4.2c-0.7,1.2-1.7,2.2-3,2.9  s-2.7,1.1-4.3,1.1h-5.4v8.7H744z M757.7,853.9l-6.3-11.2l6.2-0.9l7,12.1H757.7z M749.7,840.5h4.9c0.6,0,1.1-0.1,1.6-0.4  c0.5-0.3,0.8-0.7,1.1-1.2c0.3-0.5,0.4-1.1,0.4-1.7s-0.1-1.2-0.4-1.7c-0.3-0.5-0.7-0.9-1.2-1.1c-0.5-0.3-1.2-0.4-1.9-0.4h-4.4  L749.7,840.5z M768.6,853.9V835h5.7v18.9H768.6z M771.5,831.3c-1.1,0-1.9-0.2-2.5-0.7c-0.6-0.5-0.9-1.3-0.9-2.2  c0-0.9,0.3-1.6,0.9-2.1s1.4-0.8,2.5-0.8c1.1,0,1.9,0.3,2.5,0.8c0.6,0.5,0.9,1.2,0.9,2.1c0,0.9-0.3,1.6-0.9,2.1  C773.3,831,772.5,831.3,771.5,831.3L771.5,831.3z M771.5,861.9c-1.1,0-1.9-0.3-2.6-0.8c-0.6-0.5-0.9-1.3-0.9-2.2  c0-0.9,0.3-1.6,0.9-2.2c0.6-0.5,1.5-0.8,2.6-0.8c1.1,0,1.9,0.3,2.6,0.8s0.9,1.3,0.9,2.2c0,0.9-0.3,1.6-1,2.2  C773.4,861.6,772.5,861.9,771.5,861.9L771.5,861.9z M786.6,854.2c-1.6,0-3-0.4-4.3-1.2c-1.2-0.9-2.2-2-2.9-3.5  c-0.7-1.5-1.1-3.2-1.1-5c0-1.9,0.4-3.6,1.1-5.1c0.7-1.5,1.7-2.6,3-3.4c1.3-0.9,2.7-1.3,4.4-1.3c0.9,0,1.7,0.1,2.5,0.4  c0.8,0.3,1.4,0.6,2,1.1c0.6,0.4,1.1,1,1.5,1.6c0.4,0.6,0.7,1.2,0.9,1.9l-1.2-0.1V835h5.6v18.9h-5.8v-4.5l1.3,0  c-0.2,0.7-0.5,1.3-0.9,1.9c-0.4,0.6-0.9,1.1-1.6,1.6c-0.6,0.5-1.3,0.8-2.1,1.1C788.3,854.1,787.5,854.2,786.6,854.2L786.6,854.2z   M788.2,849.4c0.9,0,1.6-0.2,2.3-0.6s1.1-1,1.5-1.7c0.4-0.8,0.5-1.6,0.5-2.7s-0.2-1.9-0.5-2.6c-0.4-0.8-0.9-1.3-1.5-1.7  c-0.6-0.4-1.4-0.6-2.3-0.6c-0.9,0-1.6,0.2-2.2,0.6c-0.6,0.4-1.1,1-1.5,1.7c-0.4,0.7-0.5,1.6-0.5,2.6s0.2,1.9,0.5,2.7  c0.4,0.7,0.8,1.3,1.5,1.7C786.6,849.2,787.3,849.4,788.2,849.4z M665.7,901.3l-9.9-24.9h6.3l4.8,12.7c0.3,0.7,0.5,1.4,0.7,1.9  c0.2,0.5,0.4,1.1,0.5,1.5c0.2,0.5,0.3,1,0.4,1.5c0.1,0.5,0.3,1,0.5,1.6h-1.1c0.2-0.8,0.4-1.5,0.6-2.1c0.2-0.6,0.4-1.3,0.6-2  c0.2-0.7,0.5-1.5,0.9-2.5l4.6-12.7h6.2l-10,24.9L665.7,901.3z M689,901.6c-1.4,0-2.6-0.3-3.6-0.9c-1-0.6-1.7-1.5-2.3-2.6  c-0.5-1.1-0.8-2.5-0.8-4.1v-11.7h5.7v10.9c0,0.8,0.1,1.4,0.4,2c0.2,0.5,0.6,1,1.1,1.3c0.5,0.3,1,0.4,1.7,0.4c0.5,0,0.9-0.1,1.3-0.2  c0.4-0.2,0.8-0.4,1.1-0.7c0.3-0.3,0.5-0.7,0.7-1c0.2-0.4,0.2-0.8,0.2-1.3v-11.3h5.7v18.9h-5.4l-0.2-3.9l1.1-0.4  c-0.3,0.9-0.8,1.7-1.4,2.4c-0.7,0.7-1.5,1.2-2.4,1.7C691,901.4,690,901.6,689,901.6L689,901.6z M693.9,879.4c-0.4,0-0.8-0.1-1.2-0.2  c-0.4-0.1-0.9-0.4-1.5-0.8c-0.4-0.3-0.7-0.6-1-0.7c-0.3-0.1-0.5-0.2-0.6-0.2c-0.3,0-0.6,0.1-0.9,0.4c-0.3,0.3-0.4,0.7-0.5,1.3  l-3.2-0.5c0-1.3,0.4-2.5,1.1-3.4c0.7-0.9,1.7-1.4,2.9-1.4c0.4,0,0.8,0.1,1.2,0.2c0.4,0.1,0.9,0.4,1.4,0.7c0.3,0.3,0.6,0.5,0.9,0.7  c0.3,0.2,0.6,0.2,0.8,0.2c0.3,0,0.6-0.1,0.9-0.4c0.3-0.3,0.4-0.7,0.5-1.3l3.2,0.5c0,0.8-0.2,1.6-0.5,2.4c-0.3,0.7-0.8,1.3-1.4,1.8  C695.3,879.2,694.6,879.4,693.9,879.4L693.9,879.4z M705.3,901.3v-18.9h5.4l0.2,3.8l-1.1,0.4c0.3-0.9,0.7-1.6,1.4-2.3  c0.7-0.7,1.5-1.3,2.5-1.7c0.9-0.4,1.9-0.6,3-0.6c1.4,0,2.6,0.3,3.6,0.9c1,0.6,1.7,1.4,2.2,2.6c0.5,1.1,0.7,2.5,0.7,4.2v11.6h-5.7  v-11.1c0-0.8-0.1-1.4-0.3-1.9c-0.2-0.5-0.5-0.9-1-1.1c-0.4-0.3-1-0.4-1.6-0.4c-0.5,0-1,0.1-1.4,0.2c-0.4,0.1-0.8,0.4-1.1,0.7  c-0.3,0.3-0.6,0.6-0.7,1c-0.2,0.4-0.2,0.8-0.2,1.2v11.3h-2.8c-0.7,0-1.2,0-1.7,0S705.6,901.3,705.3,901.3L705.3,901.3z M736.5,909.4  c-1.5,0-3.1-0.2-4.6-0.7c-1.5-0.4-2.7-1-3.7-1.7l2-4c0.5,0.3,1,0.6,1.6,0.9c0.6,0.3,1.3,0.5,1.9,0.6c0.7,0.1,1.3,0.2,2,0.2  c1.2,0,2.2-0.2,2.9-0.5c0.8-0.4,1.3-0.9,1.7-1.6c0.4-0.7,0.6-1.6,0.6-2.7v-3.2l1.1,0.2c-0.2,0.8-0.6,1.5-1.2,2.1  c-0.6,0.6-1.4,1.2-2.4,1.6c-0.9,0.4-2,0.6-3,0.6c-1.7,0-3.2-0.4-4.6-1.2c-1.3-0.8-2.4-1.9-3.2-3.3c-0.8-1.4-1.1-3.1-1.1-4.9  c0-1.9,0.4-3.6,1.1-5c0.8-1.5,1.8-2.6,3.1-3.4c1.3-0.9,2.8-1.3,4.5-1.3c0.7,0,1.4,0.1,2,0.2c0.7,0.2,1.3,0.4,1.8,0.7  c0.6,0.3,1.1,0.6,1.5,1c0.4,0.4,0.8,0.7,1.1,1.2c0.3,0.4,0.5,0.9,0.6,1.3l-1.2,0.3l0.2-4.3h5.4v17.3c0,1.5-0.2,2.9-0.7,4.1  c-0.4,1.2-1.1,2.2-2,3.1c-0.9,0.9-1.9,1.5-3.2,1.9C739.5,909.2,738.1,909.4,736.5,909.4L736.5,909.4z M736.6,896.7  c0.9,0,1.7-0.2,2.4-0.6c0.7-0.4,1.2-1,1.6-1.7c0.4-0.7,0.6-1.6,0.6-2.6c0-1-0.2-1.9-0.6-2.6c-0.4-0.8-0.9-1.3-1.6-1.7  c-0.7-0.4-1.5-0.6-2.4-0.6c-0.9,0-1.7,0.2-2.3,0.6c-0.7,0.4-1.2,1-1.6,1.7c-0.4,0.7-0.5,1.6-0.5,2.6c0,1,0.2,1.9,0.5,2.6  c0.4,0.7,0.9,1.3,1.6,1.7C735,896.5,735.7,896.7,736.6,896.7z M769,901.3v-19.5h-7.4v-5.3h21v5.3H775v19.5H769z M789.7,901.6  c-1.6,0-3-0.4-4.3-1.2c-1.2-0.9-2.2-2-2.9-3.5c-0.7-1.5-1.1-3.2-1.1-5c0-1.9,0.4-3.6,1.1-5.1c0.7-1.5,1.7-2.6,3-3.4  c1.3-0.9,2.7-1.3,4.4-1.3c0.9,0,1.7,0.1,2.5,0.4c0.8,0.3,1.4,0.6,2,1.1c0.6,0.4,1.1,1,1.5,1.6c0.4,0.6,0.7,1.2,0.9,1.9l-1.2-0.1  v-4.5h5.6v18.9h-5.8v-4.5l1.3,0c-0.2,0.7-0.5,1.3-0.9,1.9c-0.4,0.6-0.9,1.1-1.6,1.6c-0.6,0.5-1.3,0.8-2.1,1.1  C791.4,901.4,790.6,901.6,789.7,901.6L789.7,901.6z M791.3,896.8c0.9,0,1.6-0.2,2.3-0.6c0.6-0.4,1.1-1,1.5-1.7  c0.4-0.8,0.5-1.6,0.5-2.7s-0.2-1.9-0.5-2.6c-0.4-0.8-0.9-1.3-1.5-1.7c-0.6-0.4-1.4-0.6-2.3-0.6c-0.9,0-1.6,0.2-2.2,0.6  c-0.6,0.4-1.1,1-1.5,1.7c-0.4,0.7-0.5,1.6-0.5,2.6s0.2,1.9,0.5,2.7c0.4,0.7,0.8,1.3,1.5,1.7C789.7,896.6,790.4,896.8,791.3,896.8z   M794,880.3l-7.3-3.9l2.6-3.7l6.4,5L794,880.3z M812.2,901.6c-1.4,0-2.6-0.3-3.6-0.9c-1-0.6-1.7-1.5-2.3-2.6  c-0.5-1.1-0.8-2.5-0.8-4.1v-11.7h5.7v10.9c0,0.8,0.1,1.4,0.4,2c0.2,0.5,0.6,1,1.1,1.3c0.5,0.3,1,0.4,1.7,0.4c0.5,0,0.9-0.1,1.3-0.2  c0.4-0.2,0.8-0.4,1.1-0.7c0.3-0.3,0.5-0.7,0.7-1c0.2-0.4,0.2-0.8,0.2-1.3v-11.3h5.7v18.9h-5.4l-0.2-3.9l1.1-0.4  c-0.3,0.9-0.8,1.7-1.4,2.4c-0.7,0.7-1.5,1.2-2.4,1.7C814.3,901.4,813.3,901.6,812.2,901.6L812.2,901.6z"></path>
</svg>