<?xml version="1.0" encoding="UTF-8"?>
<svg id="Layer_2" data-name="Layer 2" xmlns="http://www.w3.org/2000/svg" viewBox="0 0 189.01 218.25">
  <defs>
    <style>
      .cls-1 {
        fill: #fff;
      }

      .cls-2 {
        fill: red;
      }
    </style>
  </defs>
  <g id="Layer_1-2" data-name="Layer 1">
    <polygon class="cls-2" points="0 54.56 0 163.69 94.51 218.25 189.01 163.69 189.01 54.56 94.51 0 0 54.56"/>
    <g>
      <path class="cls-1" d="m121.01,98.75h11.79l10.14-21.82h-11.79l-10.14,21.82Zm-15.48-21.82h-11.79l-10.14,21.82h11.79l10.14-21.82Zm49.98,21.82c1.28,0,2.32-1.04,2.33-2.33v-17.17c0-1.28-1.04-2.32-2.33-2.33h-7.59l-10.14,21.82h17.73Zm-29.35-21.82h-15.64l-10.14,21.82h15.65l10.14-21.82Zm-55.07,21.82h7.53l10.14-21.82h-17.67v21.82Zm-22.22-18.29c-4.07,0-7.38,3.31-7.38,7.38s3.31,7.38,7.38,7.38,7.38-3.31,7.38-7.38-3.31-7.38-7.38-7.38Z"/>
      <path class="cls-1" d="m160.1,153.3h-93.53v-88.16c0-2.6-2.11-4.71-4.71-4.71h-25.96c-2.6,0-4.71,2.12-4.71,4.72v88.16h-2.26c-1.25,0-2.26,1.01-2.26,2.26s1.01,2.26,2.26,2.26h131.19c1.25,0,2.26-1.01,2.26-2.26s-1.01-2.26-2.26-2.26Zm-111.23-53.56c-6.57,0-11.91-5.34-11.91-11.91s5.34-11.91,11.91-11.91,11.91,5.34,11.91,11.91-5.34,11.91-11.91,11.91Z"/>
    </g>
  </g>
</svg>