<svg xmlns="http://www.w3.org/2000/svg" width="512" height="512" viewBox="0 0 256 256"><path fill="#70d6f9" d="M130.072 22.191v-1.874c8.493 0 8.493 3.92 16.987 3.92s8.494-3.92 16.987-3.92v1.874c0 9.382-7.605 16.987-16.987 16.987-9.382 0-16.987-7.605-16.987-16.987zm68.455 149.726c-33.56-2.314-72.906 4.629-83.322-18.516-10.415-23.145 24.302-24.302 24.302-37.032 0-12.729-18.516-24.302-6.943-35.875 4.87-4.87 8.923-11.17 13.792-16.407-9.072.496-9.646 4.915-19.794 4.915-10.397 0-10.741-4.64-20.476-4.946-5.473 1.741-11.531 3.8-17.569 11.909-5.606 7.528-13.206 11.622-19.404 13.833-7.043 2.513-14.995.488-19.991-5.076-2.753-3.066-5.245-6.884-5.981-11.115a99.938 99.938 0 00-7.732 7.25c-11.918 12.428-13.014 31.347-3.541 45.727a26.99 26.99 0 011.489 2.573c2.309-1.839 5.354-2.691 8.448-1.941 2.564.621 5.05 2.317 6.858 5.933 5.786 11.572 13.887 1.157 23.145 10.415 4.188 4.188 9.086 5.771 13.195 6.249 5.026.584 8.792 4.879 8.792 9.939 0 4.049-2.412 7.756-6.174 9.255-3.492 1.391-8.629 2.069-15.814.016-4.705-1.344-10.679-.834-16.789.567-9.016 2.068-17.633-1.666-22.567-8.317-.827 1.962-1.815 3.796-2.989 5.473-8.328 11.894-7.436 28.09 1.964 39.156a100.225 100.225 0 0018.122 16.638h2.066c7.187 0 7.187 3.317 14.374 3.317s7.187-3.317 14.374-3.317h70.696a139.78 139.78 0 00-7.843-6.115c-14.114-10.205-15.671-14.214-10.502-19.912s33.496-11.165 39.46-.563c2.791 4.962 6.235 11.085 6.949 17.696a14.778 14.778 0 01-.069 3.748c14.37-12.176 25.067-28.148 30.32-46.249-3.343.744-6.961 1.04-10.846.772z" data-original="#70d6f9"/><path fill="#57af12" d="M220.515 34.205s17.359 9.258 13.887 23.145-13.887 12.73-13.887 26.617-2.314 25.459 11.572 38.189c13.887 12.73 0 52.076-33.56 49.762s-72.906 4.629-83.322-18.516 24.302-24.302 24.302-37.032-18.516-24.302-6.943-35.875 18.516-31.246 42.818-25.459 15.045-28.932 45.133-20.831z" data-original="#57af12"/><path fill="#b2e26d" d="M154.5 93.63a11.502 11.502 0 0112.489-.732c1.677.954 3.789.942 5.403-.115 3.826-2.507 8.909-2.425 12.655.346v.501c0 7.384-5.986 13.37-13.37 13.37h-3.806c-7.385 0-13.371-5.986-13.371-13.37z" data-original="#b2e26d"/><path fill="#87d147" d="M198.849 132.647c-3.233.824-6.608-.201-8.711-2.791-4.538-5.591-13.841-6.149-18.724-.055-.912 1.138-2.349 1.689-3.776 1.39-6.433-1.348-13.066 1.651-16.28 7.446a63.313 63.313 0 0060.749 1.894l1.252-.635c-2.486-5.997-8.858-8.689-14.51-7.249zm-169.433 3.618c.674-6.068 6.456-10.487 12.389-9.048 2.564.622 5.05 2.317 6.858 5.933 5.786 11.572 13.887 1.157 23.145 10.415 4.188 4.188 9.086 5.771 13.195 6.249 5.026.585 8.792 4.879 8.792 9.939 0 4.049-2.412 7.756-6.174 9.255-3.492 1.391-8.629 2.069-15.814.016-4.705-1.344-10.679-.834-16.788.567-14.693 3.369-28.346-8.655-26.681-23.637zm52.712-13.988c-5.443-4.837-1.857-13.861 5.425-13.902 2.4-.014 5.171-.137 8.148-.468 9.501-1.056 11.612 0 11.612 4.223s-9.501 16.89-15.835 14.779c-2.964-.988-6.622-2.207-9.35-4.632z" data-original="#87d147"/><path fill="#b2e26d" d="M179.124 213.647c1.426 13.191-14.46 20.979-24.338 12.121a142.269 142.269 0 00-11.569-9.342c-14.114-10.205-15.671-14.214-10.502-19.912 5.169-5.699 33.496-11.165 39.46-.562 2.791 4.961 6.235 11.083 6.949 17.695zM109.563 41.581c8.212-1.202 13.989 8.052 9.145 14.791-.072.1-.145.2-.22.3-7.475 10.038-18.758 4.236-29.971 19.293-5.606 7.528-13.206 11.622-19.404 13.833-7.043 2.513-14.995.488-19.991-5.076-4.308-4.797-7.997-11.429-5.277-18.617 5.375-14.202 32.89-19.72 32.89-19.72z" data-original="#b2e26d"/><path fill="#fc657e" d="M198.013 6.175c-3.1-.6-5.6-3-6.2-6.1 0-.1-.3-.1-.3 0-.6 3.1-3.1 5.5-6.2 6.1-.1 0-.1.2 0 .3 3.1.6 5.6 3 6.2 6.1 0 .1.3.1.3 0 .6-3.1 3.1-5.5 6.2-6.1.1-.1.1-.3 0-.3z" data-original="#fc657e"/><path fill="#70d6f9" d="M241.8 198.5h2.3v2.3c0 1.8 1.4 3.2 3.2 3.2 1.7 0 3.2-1.4 3.2-3.1v-2.4h2.3c1.8 0 3.2-1.4 3.2-3.2 0-1.7-1.4-3.2-3.1-3.2h-2.4v-2.3c0-1.8-1.4-3.2-3.2-3.2-1.7 0-3.2 1.4-3.2 3.1v2.4h-2.3c-1.8 0-3.2 1.4-3.2 3.2-.1 1.7 1.3 3.2 3.2 3.2-.1 0-.1 0 0 0z" data-original="#70d6f9"/><circle cx="195.413" cy="252.6" r="3.4" fill="#f5c84c" data-original="#f5c84c"/><circle cx="43.413" cy="24.4" r="3.4" fill="#87d147" data-original="#87d147"/><path fill="#f5c84c" d="M.15 91.2c4.5-.8 8-4.3 8.9-8.7 0-.2.4-.2.4 0 .9 4.4 4.4 7.9 8.9 8.7.2 0 .2.3 0 .4-4.5.8-8 4.3-8.9 8.7 0 .2-.4.2-.4 0-.9-4.4-4.4-7.9-8.9-8.7-.2-.1-.2-.4 0-.4z" data-original="#f5c84c"/><path d="M213.359 142.396c-.98 0-1.911-.581-2.311-1.544-1.882-4.541-6.895-7.019-11.658-5.763-4.053 1.065-8.475-.405-11.273-3.755-1.778-2.128-4.57-3.392-7.487-3.392l-.104.001c-2.875.029-5.418 1.244-7.161 3.42-1.515 1.889-3.907 2.761-6.251 2.271-5.342-1.116-10.923 1.44-13.569 6.214a2.501 2.501 0 01-4.373-2.425c3.758-6.774 11.373-10.267 18.963-8.683.491.101.999-.092 1.329-.504 2.658-3.319 6.672-5.249 11.011-5.293l.153-.001c4.384 0 8.607 1.932 11.327 5.187 1.56 1.866 3.978 2.7 6.161 2.125 7.176-1.894 14.718 1.844 17.552 8.684a2.501 2.501 0 01-2.309 3.458zm-43.758-46.26a7.5 7.5 0 01-3.777-1.024 9.013 9.013 0 00-9.848.536 2.5 2.5 0 01-2.951-4.035c4.5-3.292 10.51-3.616 15.312-.823.846.492 1.839.46 2.66-.081 4.739-3.122 10.983-2.957 15.538.411a2.5 2.5 0 01-2.975 4.019c-2.873-2.125-6.817-2.228-9.813-.255a7.53 7.53 0 01-4.146 1.252zM94.738 207.042c-4.143 0-6.316-1.004-8.234-1.889-1.66-.767-3.095-1.429-6.139-1.429-3.045 0-4.479.662-6.14 1.429-1.918.885-4.092 1.889-8.234 1.889s-6.317-1.004-8.235-1.889c-1.66-.767-3.095-1.429-6.139-1.429-3.043 0-4.478.662-6.138 1.429-1.918.885-4.092 1.889-8.234 1.889s-6.315-1.004-8.233-1.889c-1.66-.767-3.094-1.429-6.138-1.429a2.5 2.5 0 110-5c4.142 0 6.315 1.004 8.233 1.889 1.66.767 3.094 1.429 6.138 1.429s4.479-.662 6.139-1.429c1.918-.885 4.092-1.889 8.233-1.889 4.143 0 6.316 1.004 8.234 1.889 1.66.767 3.095 1.429 6.14 1.429 3.044 0 4.479-.662 6.139-1.429 1.918-.885 4.093-1.889 8.235-1.889s6.316 1.004 8.234 1.889c1.66.767 3.095 1.429 6.139 1.429 3.045 0 4.479-.662 6.14-1.429 1.918-.885 4.093-1.889 8.235-1.889a2.5 2.5 0 110 5c-3.045 0-4.479.662-6.14 1.429-1.917.885-4.092 1.889-8.235 1.889zm-28.747 21.315c-4.143 0-6.317-1.003-8.235-1.889-1.66-.766-3.095-1.428-6.139-1.428a2.5 2.5 0 110-5c4.143 0 6.316 1.003 8.234 1.888 1.66.767 3.095 1.429 6.14 1.429 3.044 0 4.479-.662 6.139-1.428 1.918-.886 4.093-1.889 8.235-1.889a2.5 2.5 0 110 5c-3.045 0-4.479.662-6.14 1.429-1.917.885-4.091 1.888-8.234 1.888zm81.068-201.62c-4.796 0-7.316-1.163-9.541-2.19-2.011-.928-3.748-1.729-7.445-1.729a2.5 2.5 0 110-5c4.796 0 7.316 1.163 9.541 2.19 2.011.928 3.748 1.729 7.445 1.729s5.435-.802 7.445-1.729c2.225-1.027 4.746-2.19 9.542-2.19a2.5 2.5 0 110 5c-3.698 0-5.436.802-7.446 1.729-2.225 1.027-4.746 2.19-9.541 2.19z" data-original="#000000"/><path d="M201.386 174.517c-.991 0-2.001-.034-3.03-.105-7.808-.538-16.045-.571-24.012-.603-27.147-.107-52.79-.209-61.418-19.381-7.195-15.992 4.985-23.172 13.879-28.414 5.247-3.094 10.203-6.015 10.203-9.645 0-4.278-2.648-8.788-5.211-13.149-4.421-7.528-9.432-16.061-1-24.492 2.523-2.524 4.812-5.441 7.232-8.529 8.248-10.517 17.601-22.439 37.933-17.595 9.722 2.312 12.75-2.43 16.94-8.995 4.715-7.387 10.581-16.574 28.263-11.817.183.049.359.119.526.208.778.416 19.036 10.355 15.137 25.957-1.769 7.072-5.177 10.604-8.184 13.722-3.269 3.388-5.63 5.835-5.63 12.289 0 1.784-.038 3.531-.075 5.247-.251 11.595-.449 20.753 10.838 31.099 6.903 6.328 8.122 18.55 3.031 30.411-5.037 11.737-16.907 23.792-35.422 23.792zM167.181 56.503c-12.058 0-18.479 8.19-25.217 16.781-2.406 3.068-4.895 6.241-7.632 8.979-5.423 5.423-2.857 10.534 1.776 18.425 2.9 4.938 5.899 10.044 5.899 15.682 0 6.486-6.438 10.281-12.664 13.951-10.712 6.314-16.855 10.95-11.857 22.056 7.306 16.236 31.385 16.331 56.877 16.433 8.047.032 16.366.064 24.336.614 17.655 1.21 28.883-9.879 33.515-20.671 4.188-9.757 3.44-19.936-1.815-24.754-12.956-11.875-12.714-23.056-12.457-34.892.036-1.682.073-3.392.073-5.14 0-8.473 3.574-12.178 7.031-15.761 2.822-2.925 5.487-5.688 6.931-11.463 2.752-11.008-10.477-19.09-12.409-20.203-13.897-3.639-17.864 2.572-22.45 9.758-4.281 6.707-9.133 14.309-22.313 11.169-2.778-.661-5.306-.964-7.624-.964zM80.33 172.826c-2.869 0-5.945-.466-9.209-1.399-3.817-1.089-9.047-.889-15.542.601-7.84 1.801-15.776-.229-21.764-5.566-5.938-5.293-8.84-12.869-7.96-20.784l1.076-9.688a13.091 13.091 0 015.499-9.272c2.927-2.051 6.555-2.755 9.964-1.93 3.688.895 6.55 3.332 8.506 7.245 2.359 4.719 4.604 4.711 8.675 4.691 3.966.005 8.893-.035 14.001 5.074 3.133 3.132 7.075 4.994 11.717 5.533 6.273.73 11.004 6.071 11.004 12.423 0 5.157-3.041 9.701-7.748 11.577-2.505.996-5.251 1.495-8.219 1.495zm-14.785-7.082c2.584 0 4.905.291 6.95.875 5.549 1.587 10.329 1.609 14.203.066 2.75-1.097 4.599-3.883 4.599-6.933 0-3.814-2.83-7.02-6.582-7.456-5.787-.673-10.725-3.016-14.674-6.965-3.637-3.637-6.949-3.61-10.445-3.609-4.429.02-9.421.037-13.168-7.455-1.285-2.571-2.99-4.083-5.211-4.622-2.04-.494-4.14-.08-5.917 1.165a8.091 8.091 0 00-3.399 5.73l-1.076 9.688c-.698 6.284 1.604 12.298 6.318 16.499 4.762 4.244 11.073 5.855 17.319 4.426 4.098-.939 7.802-1.409 11.083-1.409zm27.414-36.103a7.152 7.152 0 01-2.272-.359c-3.171-1.058-7.11-2.371-10.22-5.136-3.268-2.904-4.333-7.269-2.78-11.389 1.565-4.155 5.433-6.855 9.853-6.881a75.72 75.72 0 007.885-.453c6.112-.68 10.11-.666 12.434 1.415 1.752 1.569 1.955 3.771 1.955 5.292 0 3.947-4.895 11.208-10.072 14.939-2.732 1.968-5.013 2.572-6.783 2.572zm8.399-19.615c-1.271 0-3.009.103-5.383.365a80.202 80.202 0 01-8.408.484c-2.829.016-4.542 1.893-5.202 3.644-.817 2.169-.285 4.371 1.423 5.889l.001.001c2.342 2.082 5.741 3.216 8.473 4.126 1.08.364 2.695-.182 4.556-1.522 4.375-3.153 7.995-9.152 7.995-10.883 0-1.18-.203-1.488-.29-1.566-.312-.28-1.147-.538-3.165-.538zm63.216 122.015c-4.14 0-8.213-1.503-11.457-4.412a140.14 140.14 0 00-11.364-9.178c-9.911-7.166-13.762-11.414-14.207-15.675-.355-3.406 1.586-6.033 3.317-7.942 4.388-4.838 19.313-8.391 30.127-7.171 6.56.738 11.181 3.181 13.363 7.063 2.891 5.137 6.487 11.53 7.256 18.652.763 7.054-2.718 13.462-9.083 16.726a17.413 17.413 0 01-7.952 1.937zm-8.151-39.623c-9.357 0-19.508 3.186-21.856 5.775-1.965 2.166-2.126 3.31-2.047 4.063.335 3.21 6.676 8.176 12.163 12.143a144.765 144.765 0 0111.772 9.507c4.613 4.138 10.147 3.614 13.79 1.748 3.51-1.8 7.032-5.828 6.394-11.739-.659-6.103-3.977-12-6.643-16.738-1.722-3.06-6.152-4.161-9.565-4.545a35.84 35.84 0 00-4.008-.214zm-93.42-99.071c-5.891 0-11.707-2.463-15.74-6.955-6.336-7.056-8.326-14.377-5.754-21.171 5.797-15.32 33.557-21.05 34.735-21.286.043-.009.086-.017.129-.022l32.828-4.805c4.856-.706 9.455 1.463 12.014 5.668 2.518 4.142 2.335 9.144-.477 13.056-.081.112-.167.23-.255.347-3.831 5.146-8.632 6.67-13.274 8.145-5.405 1.718-10.994 3.493-16.687 11.136-4.88 6.554-11.992 11.636-20.568 14.694a20.705 20.705 0 01-6.951 1.193zm14.166-44.498c-.677.142-7.092 1.524-13.974 4.409-6.406 2.686-14.557 7.247-17.011 13.732-1.894 5.003-.279 10.406 4.799 16.062 4.297 4.785 11.245 6.548 17.291 4.392 5.329-1.901 12.82-5.695 18.238-12.972 6.653-8.935 13.601-11.142 19.183-12.914 4.419-1.404 7.909-2.513 10.788-6.379l.191-.262c1.648-2.292 1.747-5.11.268-7.543-1.173-1.929-3.634-3.816-7.017-3.319z" data-original="#000000"/></svg>