<svg xmlns="http://www.w3.org/2000/svg" xmlns:xlink="http://www.w3.org/1999/xlink" version="1.1" id="Layer_1" x="0px" y="0px" viewBox="0 0 1000 1000" enable-background="new 0 0 1000 1000" xml:space="preserve" preserveAspectRatio="xMidYMid meet" style="width: 1000px;">
<path fill="#FDBDC4" stroke="#474747" stroke-width="0.2" d="M466.7,60c-0.8,0.6-2.4,2.3-2.5,3.3c-0.2,1,0.6,3,1.2,3.8  c0.4,0.6,1.9,1.2,2.4,1.7c0.8,0.8,1.8,2.9,2.6,3.6c0.8,0.7,2.6,1.7,3.7,2c-0.3,0.7-0.7,1.4-1.1,1.8c-0.9,0.8-3.2,1.7-4.4,1.9  c-1,0.2-3-0.1-4,0c-1.2,0.1-3.5,0.9-4.8,0.9c-0.8,0-2.2-0.9-2.9-0.7c-1.1,0.3-2.3,2.7-3.4,2.9c-1.1,0.2-3.1-1-4.2-1.2  c-0.9-0.2-2.9,0.1-3.7-0.3c-0.8-0.4-1.3-2.5-2.1-2.8c-1.1-0.4-3.5,0.1-4.6,0.6c-0.5,0.3-1.1,1.4-1.6,1.6c-1.2,0.4-3.8-0.7-5-0.4  c-1,0.2-2.4,2.3-3.4,2.1c-0.6-0.1-1-1.3-1.4-1.7c-0.6-0.7-1.8-2.2-2.6-2.5c-0.8-0.3-2.4-0.1-3.2,0c-1.2,0.1-3.6,1.3-4.9,1.1  c-0.1-0.7-0.4-2.8,0-3.4c0.5-0.7,1.5-2.1,2.2-2.5c0.4-0.3,1.5-0.3,1.8-0.6c0.8-0.7,1.3-2.9,1.6-3.8c0.2-0.8,0.4-2.4,0.6-3.1  c0.3-0.9,1.1-2.5,1.3-3.4c0.2-0.8-0.2-2.5,0.1-3.2c0.2-0.6,1.3-1.6,1.6-2.1c0.3-0.6,0.5-2,1.1-2.3c0.9-0.4,2.9,0.4,3.9,0.7  c1,0.4,2.6,1.9,3.6,2.2c1,0.3,3.4,0,4-0.1c0.5-0.1,3.2-0.4,4.3-0.4c1,0,3.7,0.4,4.1,0.3c0.3-0.1,1.6-0.9,2.2-0.8  c1.1,0.1,2.8,1.7,3.6,2.3c0.3,0.2,0.9,0.9,1.3,1c0.7,0.2,2.1-0.1,2.8-0.2c1-0.1,3-0.7,4.1-0.7c0.7,0,2.1,0.8,2.8,0.7  c1.3-0.1,3.5-1.8,4.8-1.8c0.4,0,1.1,0,1.7,0.1c-0.2,0.5-0.1,1.4-0.1,1.7C470.2,58.6,467.5,59.4,466.7,60z" data-stroke-width="0.2" style="stroke-width: 0.2;" class=" " id="da-nang"></path>
<path fill="#FDBDC4" stroke="#474747" stroke-width="0.2" d="M529.8,96.6c0,0.5,1,1.5,0.9,2c-0.1,0.3-0.8,0.9-1.2,0.8  c-0.3-0.1-0.1-0.9-0.3-1.2c-0.3-0.4-1.2-0.6-1.5-1c-0.3-0.4-0.4-1.5-0.7-1.9c-0.2-0.3-1.1-0.3-1.3-0.6c-0.3-0.3-0.4-1.1-0.5-1.5  c-0.1-0.2-0.2-0.6-0.4-0.7c-0.3-0.1-0.9,0.5-1.3,0.5c-0.3-0.1-0.8-0.5-0.9-0.8c-0.1-0.4,0.5-1.2,0.8-1.4c0.3-0.2,1-0.5,1.4-0.5  c0.3,0,0.7,0.4,0.9,0.7c0.2,0.3,0,1.2,0.3,1.4c0.2,0.2,1.2,0.2,1.4,0.2c0.2,0,0.8,0.6,1.1,0.8c0.3,0.1,0.9,0,1.2,0.2  c0.3,0.2,0.6,1,0.6,1.4C530.3,95.4,529.8,96.2,529.8,96.6z" data-stroke-width="0.2" style="stroke-width: 0.2;"></path>
<path fill="#FDBDC4" stroke="#474747" stroke-width="0.2" d="M322.7,119.7c0.2-1.7-0.4-5.2,0.3-6.8c0.3-0.7,1.5-1.7,2.1-2  c1.1-0.5,3.5-0.4,4.7-0.8c1.4-0.5,4.2-1.8,5.5-2.6c1.3-0.8,3.5-3.1,4.9-3.7c0.9-0.4,2.9-0.6,3.8-0.7c1.3-0.1,4,0.7,5.3,0.3  c0.8-0.2,2.1-1.2,2.6-1.8c1.1-1.2,2.3-4.3,3-5.7c1-1.8,3.3-5.3,4.1-7.3c0.3-0.9,0.7-2.4,0.9-3.8c0.9,0.4,2.6,0.5,3.2,0.9  c0.7,0.5,1.3,2.2,2,2.5c0.7,0.3,2.5,0.2,3.2-0.1c1-0.4,2.3-2.6,3.3-2.9c0.6-0.2,2,0.4,2.5,0.1c0.7-0.4,1.1-2.1,1.3-2.8  c0.2-0.8-0.4-2.6,0.1-3.2c0.4-0.6,2.1-0.5,2.7-0.8c1.1-0.5,2.8-2.3,4-2.4c0.6-0.1,1.7,0.3,2.1,0.7c0.8,0.8,0.1,3.7,1,4.4  c0.7,0.5,2.7-0.4,3.6-0.3c1.1,0.2,3,1.6,4.1,1.6c1,0,2.9-1,3.8-1.6c0.5-0.4,1.1-1.8,1.7-2c0.8-0.2,2.4,0.7,3.2,0.9  c0.9,0.2,2.7,0.6,3.6,0.5c0.9-0.1,2.8-0.6,3.4-1.2c0.7-0.6,0.9-2.8,1.7-3.2c1-0.5,3.5,0,4.5,0.5c0.5,0.3,0.9,1.4,1.4,1.6  c0.1,0,0.1,0,0.2,0c1.3,0.2,3.7-0.9,4.9-1.1c0.8-0.1,2.5-0.3,3.2,0c0.8,0.3,2,1.9,2.6,2.5c0.4,0.4,0.9,1.6,1.4,1.7  c1,0.2,2.5-1.9,3.4-2.1c1.2-0.3,3.8,0.8,5,0.4c0.5-0.2,1.1-1.4,1.6-1.6c1-0.5,3.5-1.1,4.6-0.6c0.8,0.3,1.4,2.4,2.1,2.8  c0.8,0.5,2.8,0.1,3.7,0.3c1.1,0.2,3.1,1.4,4.2,1.2c1.1-0.2,2.3-2.7,3.4-2.9c0.7-0.2,2.2,0.7,2.9,0.7c1.2,0,3.6-0.8,4.8-0.9  c1-0.1,3,0.2,4,0c1.2-0.2,3.5-1.1,4.4-1.9c0.4-0.4,0.8-1.1,1.1-1.8c0.1,0,0.2,0.1,0.2,0.1c0.8,0.2,2.8,0.2,3.1,0.2  c0.3,0,2.1-1.5,2.8-1.8c0.6-0.3,2.1-0.2,2.5-0.7c0.4-0.5,0.7-1.9,0.5-2.5c-0.1-0.5-1-1.2-1.3-1.6c-0.4-0.5-1.7-1.4-1.7-2  c0-0.7,1.4-1.6,1.8-2.1c0.4-0.5,1.1-1.6,1.6-1.8c0.5-0.2,1.8-0.2,2.3,0c0.7,0.3,1.9,1.3,2.1,2c0.2,0.6,0.1,2-0.2,2.5  c-0.4,0.5-2,0.7-2.3,1.2c-0.4,0.6,0,2.1-0.1,2.7c-0.1,0.6-0.5,1.8-0.6,2.4c-0.1,0.8,0,2.5,0.1,3.3c0.1,1,0.4,3,0.6,4  c0.3,1.4,1,4.4,1.7,5.7c0.7,1.3,2.7,3.4,3.5,4.6c0.8,1.1,2.4,3.2,3.2,4.3c0.9,1.1,3.4,4.2,3.5,4.6c0.1,0.4,2.9,2.5,3,2.8  c0.1,0.3,3.9,1.2,5.1,1.8c0.7,0.3,2.1,1.1,2.5,1.7c0.7,0.9,1.4,3.1,1.5,4.3c0.1,0.7-0.6,2-0.5,2.7c0.2,1.7,1.9,4.7,2.6,6.2  c1.7,3.4,5.4,9.9,7.4,13.1c1.8,2.8,5.9,8.2,7.7,11c1.2,1.8,3.3,5.7,4.6,7.4c1.3,1.7,4.3,4.8,5.8,6.4c0.8,0.9,2.7,2.4,3.5,3.3  c0.6,0.7,1.4,2.6,2.2,3.2c0.3,0.3,1.2,0.6,1.6,0.8c0.4,0.1,1.3,0.1,1.5,0.4c0.4,0.4,0.3,1.6,0.2,2.1c0,0.3-0.2,1.1-0.5,1.3  c-0.6,0.3-2.1-0.9-2.6-0.6c-0.2,0.1-0.3,0.6-0.3,0.8c0,0.4,0.3,1.3,0.7,1.5c0.4,0.2,1.3-0.2,1.7-0.2c0.5,0.1,1.4,0.3,1.7,0.6  c0.3,0.3,0,1.4,0.3,1.7c0.4,0.5,1.7,0.8,2.3,0.9c0.4,0.1,1.3,0.4,1.6,0.2c0.3-0.3-0.1-1.2-0.1-1.6c0.1-0.6,0.1-1.9,0.6-2.2  c0.4-0.2,1.4,0.3,1.8,0.4c0.5,0.1,1.5-0.2,1.9,0.1c0.5,0.3,0.8,1.5,0.9,2c0,0.7-0.9,1.9-0.8,2.6c0.1,0.8,1.3,1.9,1.8,2.5  c0.5,0.7,1.7,1.9,2.3,2.5c0.7,0.7,2.1,2.1,3,2.8c-0.3,0.8-0.8,1.7-1.1,2.1c-1.1,0.9-3.9,1.7-5.3,1.7c-0.6,0-1.7-0.9-2.3-0.9  c-1.5,0-4.3,1.6-5.8,2.1c-0.9,0.3-2.7,1.1-3.6,1.2c-0.8,0.1-2.4-0.3-3.2,0c-1,0.4-2.1,2.3-3,2.7c-2.3,1.1-9.4,1.5-9.9,1.5  c-0.5,0-3.3,1.6-4.4,2.1c-1.1,0.5-3.5,2-4.7,1.8c-1.3-0.1-3-2.8-4.3-2.7c-1.1,0-2.5,2-3.5,2.4c-0.7,0.3-2.1,0.8-2.9,0.9  c-1.5,0.2-4.6-0.9-6.1-0.6c-1.4,0.2-3.7,2-5,2.3c-0.8,0.2-2.6-0.4-3.2,0.2c-0.8,0.7-0.3,3.2-0.9,4.1c-0.4,0.6-2.1,1-2.4,1.7  c-0.5,0.8-0.7,2.8-0.3,3.6c0.4,0.8,2.8,1,3,1.8c0.3,0.8-1.2,2.2-1.2,3c0,0.5,0.9,1.4,0.9,2c0.1,1.2-1,3.3-1.5,4.4  c-0.5,1.2-1.6,3.6-2.6,4.4c-0.6,0.6-2.5,0.7-3,1.4c-0.5,0.6-0.3,2.4-0.5,3.2c-0.3,1.2-1.3,3.6-1.5,4.9c-0.3,1.3-1,3.9-0.6,5.2  c0.1,0.3,0.4,0.7,0.7,1c-0.8,0.7-2.5,1.2-3.2,1.3c-0.8,0.1-2.4-0.7-3-1.2c-0.7-0.6-1.3-2.5-2-3c-1-0.8-3.5-2-4.8-1.7  c-1,0.3-2.7,2.2-2.8,3.2c-0.1,1.2,2.2,3,2.3,4.2c0.2,1.5-0.8,4.4-1.4,5.8c-0.4,0.9-1.4,2.7-2.2,3.1c-0.6,0.3-2,0-2.6,0.1  c-1.1,0.2-3.1,1.7-4.2,1.3c-0.8-0.3-1.1-2.6-1.8-3c-0.8-0.4-2.9,0.5-3.6,0c-0.8-0.5-0.6-3.1-1.5-3.3c-0.7-0.2-1.5,1.7-2.2,1.7  c-1.6,0.1-3.8-2.9-5.4-3.2c-0.8-0.2-2.7,0.8-3.4,0.3c-1.1-0.7-1.1-3.7-1.9-4.7c-0.5-0.7-2.5-1.1-2.8-1.9c-0.4-0.9-0.3-3.4,0.4-4.1  c0.7-0.6,2.9,0.4,3.6-0.1c0.6-0.5,0.4-2.4,0.9-2.9c0.5-0.6,2.4-0.7,2.8-1.3c0.4-0.6-0.3-2.2-0.1-2.9c0.2-0.8,1.2-2.2,1.4-2.9  c0.2-0.9,0.9-2.8,0.4-3.5c-0.6-0.8-3.1-0.2-3.8-0.9c-0.4-0.4-0.2-1.8-0.6-2.1c-1.1-0.9-4.7,0.6-5.9-0.3c-1.1-0.8-0.5-4.4-1.7-5.2  c-1.5-0.9-5.1,0.8-6.8,0.9c-1.1,0.1-3.5,0.7-4.4,0.2c-0.7-0.4-0.7-2.4-1.4-2.7c-1-0.5-3.3,0.2-4.4,0.3c-1.2,0.1-3.6,0.7-4.7,0.3  c-0.7-0.3-1.6-1.8-2.3-2.1c-1.2-0.5-3.9-0.1-5.2-0.3c-1.2-0.2-4.3-0.2-4.9-1.4c-0.7-1.5,1.5-5,2.6-6.2c0.6-0.6,2.6-0.9,2.9-1.7  c0.3-0.8-1.4-2.9-1.8-2.9c-0.5,0-4.6,0.9-5.8,0.2c-1.1-0.7-1.1-3.8-2-4.7c-0.6-0.6-2.5-0.6-3-1.2c-0.7-0.9-0.3-3.6-0.6-4.7  c-0.4-1.5-0.8-4.8-2.1-5.6c-0.6-0.4-2.2,0.6-2.9,0.3c-0.9-0.4-1.6-2.9-2.6-3c-0.6-0.1-1.6,0.5-2.5,1.1c-0.2-0.2-0.4-0.3-0.6-0.3  c-1.3-0.3-3.5,2.1-4.8,2.5c-1.3,0.5-4,1.7-5.3,1.2c-1-0.4-2.2-2.5-2.6-3.5c-0.5-1.1-0.3-3.5-0.8-4.6c-0.9-1.9-3.7-5-5.4-6.3  c-1.1-0.9-3.7-2.4-5.1-2.4c-1.5-0.1-4,1.9-5.5,2c-1.6,0.2-5,0.2-6.3-0.7c-1-0.7-1.8-3.1-2-4.3c-0.4-1.7,0.3-5.2-0.1-6.9  c-0.3-1.4-1.4-4.1-2.3-5.2c-1.2-1.3-4.4-3-6-3.8c-1.1-0.6-3.8-0.9-4.8-1.7c-0.7-0.6-1.4-2.2-1.7-3c-0.4-1.1-0.8-3.5-0.8-4.7  c0-1.1,0.7-3.4,0.4-4.5c-0.6-2-3.9-4.7-5.3-6.3c-0.6-0.7-2.2-1.9-2.4-2.8C321.8,122.5,322.6,120.6,322.7,119.7z" data-stroke-width="0.2" style="stroke-width: 0.2;" class=" " id="quang-nam"></path>
<path fill="#FDBDC4" stroke="#474747" stroke-width="0.2" d="M626.1,183.6c0.2,0.2,0.2,0.9,0,1.1c-0.2,0.3-1,0.4-1.3,0.6  c-0.3,0.2-0.6,1.1-1,1.3c-0.4,0.1-1.2-0.2-1.6-0.4c-0.3-0.2-0.8-0.9-1.2-1c-0.5-0.2-1.6,0.1-2.1,0c-0.4-0.1-1.2-0.2-1.5-0.5  c-0.3-0.3-0.3-1.2-0.5-1.6c-0.1-0.3-0.7-0.7-0.7-1c0-0.5,0.5-1.4,0.9-1.7c0.5-0.3,1.7-0.3,2.1,0c0.4,0.2,0.6,1.3,1,1.6  c0.4,0.2,1.3,0,1.7,0.2c0.3,0.1,0.7,0.8,1.1,0.9c0.3,0.1,0.9-0.1,1.2-0.1C624.7,183.1,625.8,183.2,626.1,183.6z" data-stroke-width="0.2" style="stroke-width: 0.2;"></path>
<path fill="#FDBDC4" stroke="#474747" stroke-width="0.2" d="M484.4,239.4c-0.3-0.4-0.6-0.7-0.7-1c-0.3-1.3,0.3-3.9,0.6-5.2  c0.3-1.2,1.2-3.6,1.5-4.9c0.2-0.8,0-2.5,0.5-3.2c0.5-0.7,2.4-0.8,3-1.4c1-0.9,2-3.2,2.6-4.4c0.5-1.1,1.6-3.2,1.5-4.4  c0-0.5-0.9-1.4-0.9-2c0-0.8,1.5-2.3,1.2-3c-0.3-0.8-2.6-1-3-1.8c-0.4-0.8-0.2-2.9,0.3-3.6c0.4-0.6,2-1.1,2.4-1.7  c0.6-0.9,0.1-3.4,0.9-4.1c0.6-0.5,2.4,0,3.2-0.2c1.3-0.3,3.7-2.1,5-2.3c1.5-0.2,4.6,0.8,6.1,0.6c0.8-0.1,2.2-0.6,2.9-0.9  c1-0.5,2.4-2.4,3.5-2.4c1.3,0,3,2.6,4.3,2.7c1.3,0.1,3.6-1.3,4.7-1.8c1.1-0.5,4-2.1,4.4-2.1c0.5,0,7.6-0.4,9.9-1.5  c0.9-0.4,2.1-2.4,3-2.7c0.7-0.3,2.4,0.1,3.2,0c0.9-0.2,2.7-0.9,3.6-1.2c1.5-0.5,4.2-2.1,5.8-2.1c0.6,0,1.7,0.9,2.3,0.9  c1.4,0.1,4.3-0.8,5.3-1.7c0.4-0.3,0.8-1.3,1.1-2.1c0.1,0.1,0.1,0.1,0.2,0.2c0.7,0.4,2.2,1.2,3,1.4c0.8,0.2,2.5,0.1,3.3,0  c0.5,0,1.5,0,1.9-0.3c0.5-0.3,1.1-1.3,1.2-1.8c0-0.3-0.2-0.8-0.3-1c-0.1-0.4-0.5-1.3-0.5-1.8c0-0.3,0.2-1.3,0.6-1.3  c0.5,0,0.5,1.6,0.8,2c0.2,0.3,0.7,0.8,1.1,1c0.2,0.1,0.8,0.1,1.1,0.2c0.4,0,1.4-0.2,1.7,0.1c0.3,0.2,0.3,1,0.3,1.4  c0,0.5-0.2,1.5-0.2,2c0,0.6,0.3,1.9,0.6,2.5c0.4,0.8,1.6,2.2,2.3,2.8c0.4,0.4,1.3,1,1.8,1.3c0.5,0.3,1.6,0.6,2,0.9  c0.5,0.4,1.5,1.4,1.5,2c0,0.6-1.1,1.5-1.3,2.1c-0.2,0.6-0.4,2-0.3,2.6c0.2,0.8,1.2,2.1,1.7,2.7c0.4,0.7,1.3,2.2,1.8,2.9  c0.6,0.8,2.2,2.2,2.9,2.9c0.4,0.3,1,1.3,1.5,1.2c0.3,0,0.5-0.8,0.8-0.9c0.5-0.2,1.7-0.4,2.2-0.1c0.4,0.2,0.8,1.2,0.8,1.6  c0,0.6-0.4,1.8-0.7,2.3c-0.5,0.7-2,1.6-2.8,2c-0.5,0.3-1.6,1-2.2,0.9c-0.4,0-1-0.9-1.5-1c-0.5-0.2-1.8-0.5-2.2-0.2  c-0.4,0.3-0.7,1.5-0.6,2.1c0,0.3,0.4,0.7,0.7,0.9c0.4,0.3,1.6,0.5,1.9,0.9c0.3,0.7-0.6,2.2-0.5,2.9c0.1,0.5,1.1,1.1,1.1,1.6  c0,0.4-0.7,1-1,1.2c-0.4,0.2-1.4-0.2-1.8-0.2c-0.6,0-1.8-0.4-2.3-0.1c-0.2,0.1-0.2,0.7-0.4,0.8c-0.3,0.3-1.2,0.4-1.7,0.4  c-0.5-0.1-1.3-0.9-1.8-0.9c-0.5,0-1.3,0.7-1.5,1.1c-0.1,0.2-0.2,0.9,0,1.1c0.4,0.3,1.5-0.4,1.9-0.3c0.2,0,0.5,0.4,0.7,0.5  c0.4,0.1,1.1-0.1,1.5-0.2c0.5,0,1.9,0,2,0c0.2,0.1,1.2,0.5,1.6,0.8c0.2,0.1,0.5,0.5,0.6,0.7c0.1,0.3-0.2,1-0.1,1.3  c0.4,0.6,2.4,0.2,2.8,0.8c0.3,0.4,0.3,1.6-0.1,2c-0.3,0.4-1.6,0.4-2.1,0.4c-0.5,0-1.5-0.3-1.9,0c-0.2,0.2-0.4,0.9-0.3,1.2  c0.1,0.3,0.7,0.7,1,0.9c0.5,0.2,1.7,0.1,2.2,0.2c0.2,0.1,0.7,0.2,0.9,0.4c0.3,0.3,0.5,1,0.5,1.4c0,0.4,0.6,2.6,0.9,3.5  c0.3,1.1,1.1,3.2,1.4,4.3c0.3,1,0.9,3,1.3,4c0.4,1.2,1.5,3.6,1.8,4.9c0.2,1,0.1,3,0.5,4c0.3,0.8,1.8,1.9,2.1,2.7  c0.3,0.8,0.3,2.5,0.6,3.3c0.4,0.9,1.7,2.2,2.1,3c0.5,0.9,1.3,2.9,1.7,3.9c0.4,0.9,1.5,2.6,1.9,3.5c0.7,1.5,1.9,4.6,2.7,6  c1,1.7,3.3,4.9,4.3,6.5c0.8,1.2,2.2,3.5,3,4.6c0.5,0.7,1.9,2,2.2,2.8c0.2,0.6-0.1,1.9,0.1,2.5c0.2,0.7,1.2,1.8,1.1,2.4  c0,0.8-1.5,2-1.7,2.7c-0.2,0.6,0.1,1.9,0.2,2.5c0.1,1.1,0.4,3.2,0.4,4.3c0,0.6,0,1.8-0.1,2.3c0,0.3-0.1,1-0.2,1.6  c-0.6-0.2-1.2-0.5-1.5-0.8c-0.6-0.6-1.1-2.3-1.6-3c-0.8-1.2-2.9-3.1-3.7-4.3c-0.6-0.9-1.2-3.2-2.1-3.9c-1.1-0.8-4-0.5-5.3-0.9  c-1.1-0.4-3.1-2.1-4.3-2.3c-1.7-0.4-5.3,0.4-7.1,0.3c-0.7,0-2.2-0.3-2.8-0.5c-1-0.4-2.8-2.1-3.9-2c-0.7,0-1.7,1.5-2.4,1.7  c-1.1,0.3-3.6-0.9-4.7-0.4c-0.7,0.4-0.9,2.5-1.6,2.8c-0.8,0.4-2.7-0.7-3.5-0.5c-1,0.3-2.7,1.7-3.3,2.6c-0.7,0.9-1.4,3.6-1.4,4.2  c-0.1,0.5,1.4,1.1,1.6,1.6c0.3,1.1-1.2,3.2-2.1,4c-0.6,0.6-2.1,1.4-3,1.4c-1.1,0.1-3.1-0.9-4.2-1.1c-0.9-0.2-2.7-0.8-3.5-0.5  c-0.8,0.2-1.7,1.7-2.3,2.2c-0.7,0.7-2,2.2-3,2.6c-0.8,0.3-2.9-0.5-3.6,0c-0.8,0.6-1.1,3.1-0.7,4.1c0.4,1,1.3,3-0.2,4.4  c-0.5-1.2-1.2-2.4-1.8-3c-0.8-0.8-3.3-1.3-4.1-2.1c-0.7-0.7-1-2.7-1.7-3.3c-0.5-0.4-1.4-0.7-2.3-1c-0.8-0.3-1.7-0.5-2.1-0.8  c-0.7-0.5-2-1.9-2.4-2.7c-0.5-0.8-0.5-3-1.2-3.5c-1-0.7-3.9,0.8-4.9,0.2c-0.5-0.3-0.7-1.7-0.8-2.3c-0.1-0.9,0-2.9,0.3-3.8  c0.4-1.2,2.3-3.1,2.6-4.3c0.2-0.9-0.2-2.8-0.2-3.8c0-1.1,0-3.4,0.3-4.6c0.2-0.6,1.1-1.8,1.1-2.4c-0.1-1.1-1.7-3-2.6-3.8  c-0.8-0.7-2.6-1.9-3.6-2.1c-1.3-0.3-4.2,1.2-5.3,0.5c-0.8-0.5-0.7-2.8-1.4-3.5c-1.8-1.8-7.9-1.9-9.4-4c-0.7-0.9,0-3.3-0.6-4.3  c-0.9-1.5-4.6-2.6-5.6-4c-0.6-0.8-0.4-3.2-1.2-3.8c-0.5-0.3-2.4,0.2-2.4-0.3c0-0.5-0.7-3.3-1.4-4.1c-0.9-1.1-3.7-2.1-4.7-3  c-1.2-1.1-3.1-3.8-3.6-5.3c-0.4-1.2,0-3.8-0.5-5C485.6,240.6,485,240,484.4,239.4z" data-stroke-width="0.2" style="stroke-width: 0.2;" class=" " id="quang-ngai"></path>
<path fill="#FDBDC4" stroke="#474747" stroke-width="0.2" d="M642.4,366.2c0.2,0.3,0.3,1,0.2,1.4c-0.1,0.4-0.6,1-1,1.1  c-0.3,0.1-1.1-0.1-1.3-0.4c-0.3-0.3-0.1-1.3-0.3-1.7c-0.2-0.4-1.2-0.7-1.3-1.1c-0.1-0.5,0.1-1.7,0.5-1.9c0.5-0.3,1.8,0.2,2.1,0.7  c0.2,0.4-0.5,1.3-0.2,1.7C641.3,366.2,642.2,365.9,642.4,366.2z" data-stroke-width="0.2" style="stroke-width: 0.2;"></path>
<path fill="#FDBDC4" stroke="#474747" stroke-width="0.2" d="M656.6,382.5c0.2,0.4-0.5,1.4-0.8,1.7c-0.3,0.4-1.1,1-1.5,1.1  c-0.6,0.1-1.9-0.4-2.2-0.9c-0.4-0.5-0.3-1.8-0.2-2.4c0.1-0.3,0.4-0.9,0.7-1c0.3-0.1,0.7,0.5,1,0.6c0.3,0.1,1.1-0.1,1.4,0  c0.1,0.1,0.3,0.3,0.5,0.4C655.8,382.2,656.5,382.2,656.6,382.5z" data-stroke-width="0.2" style="stroke-width: 0.2;"></path>
<path fill="#FDBDC4" stroke="#474747" stroke-width="0.2" d="M580.7,471.8c0-0.1,0.1-0.1,0.1-0.2c0.1-0.6-1.5-1.3-1.6-1.9  c-0.1-0.6,0.8-1.7,0.7-2.3c-0.1-0.7-1.6-1.6-1.8-2.2c-0.4-0.9,0.3-3.1-0.2-4c-0.4-0.7-2.1-1.1-2.5-1.7c-0.4-0.6-0.8-2-0.7-2.7  c0.1-0.5,1.4-1.1,1.5-1.7c0.2-1-1.9-2.8-1.7-3.8c0.2-0.6,1.8-0.9,2.1-1.5c0.2-0.5-0.3-1.5-0.2-2c0.1-0.5,0.9-1.4,1.1-2  c0.3-1,0.3-3.2,0-4.2c-0.1-0.4-1-1-1.1-1.5c-0.1-0.5,0.3-1.4,0.2-1.9c-0.1-0.6-0.7-1.7-1-2.2c-0.3-0.7-0.6-2.4-1.2-3  c-0.4-0.4-1.8-0.4-2.1-0.9c-0.3-0.4,0-1.6-0.2-2.1c-0.2-0.5-1-1.5-1-1.8c0-0.3,0.1-1.5,0-2c-0.2-1-0.4-3.2-1.2-3.7  c-0.3-0.2-1.1,0.2-1.5,0.2c-0.6,0-1.9,0.1-2.4-0.3c-0.3-0.3,0-1.4-0.2-1.8c-0.3-0.4-1.5-0.5-1.7-1c-0.3-0.6,0.2-2.1,0.2-2.7  c0-1-0.4-3-0.4-4c0-0.6,0.5-1.6,0.5-2.2c0.1-0.8,0-3.2,0-3.4c0-0.2,0.6-1.7,1-2.2c0.3-0.4,1.1-1.1,1.4-1.5c0.3-0.5,1-1.7,1.1-2.3  c0.1-1.1,0-3.5-0.8-4.3c-0.4-0.4-1.5-0.4-2.1-0.5c-0.6-0.2-2-0.7-2.5-1.1c-0.7-0.5-1.8-1.8-2.2-2.5c-0.4-0.9-0.4-3-0.9-3.8  c-0.5-0.8-2.5-1.6-3-2.4c-0.4-0.8,0-2.7-0.3-3.5c-0.4-1-2.1-2.4-2.7-3.2c-0.4-0.5-1.4-1.4-1.4-2.1c0-1.1,2.4-2.6,2.5-3.7  c0.1-1.1-1.3-2.9-1.7-3.9c-0.5-1.3-1.2-4.1-1.7-5.4c-0.5-1.2-2.2-3.3-2.5-4.6c-0.3-1.3,0.5-4.9,0.5-5.2c0-0.2-0.8-2.3-1.1-3  c-0.6-1.1-2.9-3-3-4.3c-0.1-1,1.5-2.8,1.5-3.8c0-1.1-0.8-3.2-1.3-4.2c-0.5-0.9-2.3-2.2-2.8-3.2c-0.5-1.1-1.6-3.7-0.9-4.6  c0.7-0.9,3.5-0.1,4.6-0.4c0.8-0.2,2.7-0.7,3-1.5c0.7-1.8-1.9-5.4-2.7-7.1c-0.2-0.5-0.5-1.2-0.8-1.9c1.6-1.4,0.7-3.4,0.2-4.4  c-0.4-0.9-0.1-3.4,0.7-4.1c0.7-0.5,2.7,0.3,3.6,0c0.9-0.3,2.2-1.9,3-2.6c0.6-0.5,1.5-2,2.3-2.2c0.8-0.3,2.6,0.3,3.5,0.5  c1.1,0.2,3.1,1.2,4.2,1.1c0.8-0.1,2.4-0.9,3-1.4c0.8-0.8,2.3-2.9,2.1-4c-0.1-0.5-1.7-1.1-1.6-1.6c0.1-0.5,0.8-3.3,1.4-4.2  c0.6-0.8,2.3-2.3,3.3-2.6c0.9-0.2,2.7,0.9,3.5,0.5c0.7-0.4,0.9-2.5,1.6-2.8c1-0.5,3.5,0.7,4.7,0.4c0.7-0.2,1.7-1.7,2.4-1.7  c1.1-0.1,2.8,1.7,3.9,2c0.7,0.2,2.1,0.5,2.8,0.5c1.8,0.1,5.4-0.7,7.1-0.3c1.2,0.3,3.1,1.9,4.3,2.3c1.3,0.4,4.2,0.1,5.3,0.9  c0.9,0.6,1.5,3,2.1,3.9c0.8,1.2,2.9,3.1,3.7,4.3c0.5,0.7,1,2.4,1.6,3c0.3,0.2,0.9,0.6,1.5,0.8c-0.1,0.8-0.2,1.5-0.2,1.6  c0,0.2-0.8,2.8-0.8,3.8c0,0.9,0.7,2.7,1.1,3.5c0.5,1.2,1.9,3.4,2.5,4.6c0.6,1.1,1.6,3.4,2.2,4.5c0.4,0.7,1.6,2.1,2,2.8  c0.4,0.6,1.4,1.6,1.4,2.3c0,0.5-0.8,1.2-1,1.6c-0.2,0.5-0.8,1.6-0.7,2.1c0,0.5,0.7,1.5,1,1.9c0.3,0.4,1.1,0.8,1.3,1.2  c0.1,0.3,0.1,0.9-0.1,1.2c-0.2,0.5-1.4,1.1-1.5,1.7c-0.1,0.6,0.5,1.7,0.7,2.2c0.4,0.9,1.6,2.6,2.2,3.4c0.6,1,1.7,2.9,2.3,3.9  c0.4,0.7,1.3,2.2,1.8,2.8c0.5,0.7,1.7,1.9,2.4,2.4c0.3,0.2,1.3,0.4,1.5,0.8c0.1,0.2,0.1,0.9,0,1.1c-0.2,0.4-1.3,0.5-1.4,0.9  c-0.1,0.4,0.3,1.1,0.6,1.5c0.2,0.4,1.2,0.8,1.2,1.3l-0.2,0c0,0.6,0.8,1.7,0.9,2.4c0.1,0.3,0.2,1.1-0.1,1.4c-0.4,0.3-1.7-0.2-2-0.1  c-0.3,0.1-0.7,1.4-0.6,1.8c0.1,0.4,0.8,1.1,0.9,1.5c0.1,0.4,0,1.4,0.1,1.8c0.2,0.6,0.8,1.8,1.2,2.4c0.3,0.4,1.2,1.2,1.5,1.6  c0.6,0.8,1.4,2.8,2.2,3.5c0.3,0.3,1.2,0.3,1.4,0.6c0.3,0.3,0.7,1.2,0.6,1.7c-0.1,0.6-1.1,1.4-1.7,1.7c-0.3,0.1-0.9,0.4-1.2,0.2  c-0.6-0.3-0.8-1.7-1.1-2.2c-0.3-0.5-1.2-1.2-1.5-1.7c-0.4-0.6-0.6-2-1.1-2.5c-0.5-0.5-2.1-1.8-2.6-1.2c-0.4,0.5,1.3,1.7,1.3,2  c0,0.2-0.6,0.7-0.6,1c0,0.5,0.9,1.2,1.1,1.7c0.2,0.3,0.3,1.1,0.5,1.4c0.5,0.6,2.1,1,2.4,1.6c0.3,0.4,0,1.5,0.2,2  c0.2,1,1,2.9,1.4,3.8c0.4,0.9,1.3,2.6,1.7,3.5c0.5,0.9,1.4,2.6,1.9,3.5c0.3,0.6,1.1,1.7,1.4,2.3c0.3,0.5,1.1,1.6,1.1,2.2  c0.1,0.6-0.6,1.6-0.5,2.2c0.1,0.5,1.1,1.1,1.1,1.5c0.1,0.5-0.5,1.3-0.6,1.7c-0.2,0.7-0.2,2-0.5,2.7c-0.2,0.5-0.8,1.3-1,1.7  c-0.3,0.8-1.1,2.4-0.9,3.2c0.2,0.6,1.5,1.2,1.9,1.7c0.4,0.6,0.5,2,1,2.5c0.5,0.5,2.3,1,2.5,1.1c0.2,0.1,1.2,0.7,1.5,1.1  c0.3,0.4,0.5,1.5,0.8,2c0.2,0.3,1,0.8,1.1,1.1c0.2,0.6,0,1.9,0.1,2.5c0,0.6,0,1.7,0.2,2.3c0.1,0.6,1,1.6,0.9,2.1  c-0.1,0.5-1,0.9-1.2,1.4c-0.2,0.6-0.4,2-0.2,2.5c0.2,0.3,0.9,0.4,1.1,0.7c0.3,0.4,0.5,1.3,0.4,1.7c-0.1,0.4-0.8,1.1-1.1,1.4  c-0.6,0.6-1.6,2-2.4,2.3c-0.4,0.1-1.3,0.1-1.6-0.2c-0.4-0.3-0.9-1.3-1-1.8c-0.1-0.7,0.3-2.1,0.3-2.8c0-0.8-0.1-2.3-0.1-3  c0-0.6,0.4-1.8,0.5-2.4c0-0.5-0.1-1.6,0-2.1c0.1-0.3,0.6-0.9,0.5-1.3c0-0.8-1-2.1-1.5-2.7c-0.4-0.5-1.5-1.1-1.8-1.6  c-0.3-0.5-0.4-1.8-0.8-2.2c-0.4-0.5-1.7-1.5-2.2-1.2c-0.5,0.2-0.2,1.5-0.2,2.1c0.1,0.5,0.9,1.4,0.9,1.9c0,0.7-0.9,2-1.1,2.7  c-0.1,0.6,0.1,1.9,0.2,2.6c0.1,0.9,0.5,2.7,0.5,3.6c0,0.6-0.4,1.7-0.4,2.3c0,0.8,0.2,2.5,0.6,3.2c0.3,0.5,1.6,1,1.8,1.5  c0.3,0.6,0.3,2,0,2.6c-0.2,0.5-1.2,1.1-1.7,1.2c-0.4,0.1-1.3-0.3-1.7,0c-0.4,0.3-0.4,1.5-0.5,2c-0.2,0.8-0.5,2.5-0.4,3.3  c0.1,0.9,1.2,3,1.4,3.5c0.2,0.5,0.9,0.7,1.1,1.1c0.2,0.5-0.3,1.5-0.4,2c0,0,0,0.1,0,0.1c-0.5-0.1-0.9-0.2-1.1-0.3  c-0.3-0.2-0.8-0.9-1.1-1c-0.9-0.3-2.8,0-3.6,0.5c-0.7,0.4-1.5,1.9-2.1,2.4c-0.5,0.4-1.6,1.3-2.3,1.4c-0.6,0.2-2-0.4-2.4,0  c-0.4,0.4,0.4,1.8,0.2,2.4c-0.1,0.4-0.8,1.1-1.1,1.1c-0.3-0.1-0.3-1.1-0.6-1.3c-0.6-0.4-2.2-0.6-2.7-0.1c-0.5,0.6,0.9,2.3,0.6,3  c-0.3,0.7-2,1.2-2.4,1.9c-0.4,0.7,0.2,2.6-0.2,3.3c-0.3,0.5-1.8,0.8-2.2,1.2c-0.6,0.6-0.6,2.6-1.4,3c-0.9,0.5-3.2-0.7-4.3-0.7  c-0.7,0-2.4,0.2-2.9,0.8c-0.5,0.5-0.3,2.6-0.3,2.8c0,0.2-2.5,0.9-3.1,1.5c-0.5,0.4-0.7,2-1.3,2.3c-1.2,0.6-4.2-0.7-5.5-0.7  c-0.8,0-2.7,0.5-3,0.5c-0.3,0-3-1.1-4.1-1.4c-1-0.2-3.2,0-4.2-0.5c-0.7-0.3-1.6-1.7-2.3-2.1c-0.6-0.3-2.1-0.4-2.7-0.8  c-0.6-0.4-1.3-1.9-2-2.3C581.9,471.6,581.2,471.8,580.7,471.8z" data-stroke-width="0.2" style="stroke-width: 0.2;" class=" " id="binh-dinh"></path>
<path fill="#FDBDC4" stroke="#474747" stroke-width="0.2" d="M554.6,559.6c0.1-0.4,0.3-0.8,0.6-0.9c0.8-0.4,2.6,0.7,3.4,0.5  c0.7-0.1,1.8-1.3,2.5-1.5c0.7-0.2,2.4,0.1,2.9-0.4c0.6-0.6,0.4-2.4,0.4-3.1c-0.1-1.3-1.2-3.7-1.1-5c0.1-1.1,1.3-3.2,1.7-4.3  c0.3-0.7,0.4-2.3,1-2.8c0.5-0.5,2.2-0.2,2.8-0.6c0.9-0.6,1.5-3.1,2.3-3.8c1.5-1.2,5.9-1,7.2-2.3c0.8-0.8,1.2-3.2,1.2-4.4  c0-0.7-0.7-2.1-0.5-2.8c0.2-0.8,1.8-1.6,2.2-2.2c0.7-1,1.6-3.4,1.7-4.7c0.1-1.1-0.6-3.3-0.8-4.5c-0.1-0.8-0.1-2.6-0.6-3.2  c-0.4-0.7-2-1.2-2.6-1.7c-1.2-1-2.9-3.7-4-4.9c-0.4-0.5-1.4-1.3-1.6-1.8c-0.5-1.2,0.1-3.8-0.1-5.1c-0.2-1.2-1.5-3.5-1.5-4.8  c0-1,1.6-2.7,1.3-3.6c-0.2-0.7-1.9-1.2-2.2-1.8c-0.4-0.8,0.4-3.1-0.3-3.7c-0.4-0.3-1.7-0.1-2.1,0.2c-0.4,0.3-0.3,1.6-0.8,1.8  c-0.7,0.3-2-1.3-2.7-1.2c-0.9,0.1-2,2-2.8,2.2c-0.8,0.3-3,0.5-3.5-0.2c-0.6-0.6,0.5-2.7,0.2-3.4c-0.3-0.7-2.3-1.2-2.4-2  c-0.1-1,2.3-2.3,2.5-3.2c0.2-0.8-0.6-2.6-0.4-3.4c0.2-1,1-3,1.9-3.5c0.6-0.3,2.5,0.3,2.6,0.1c0.1-0.2,0.7-1.2,1-1.4  c0.4-0.3,1.4-0.6,1.9-0.6c0.7,0,1.8,0.9,2.4,1c0.7,0.1,2.1,0.3,2.7,0c0.4-0.2,0.6-1.3,0.9-1.6c0.5-0.4,1.8-0.8,2.4-0.6  c0.5,0.1,0.9,1.1,1.3,1.4c0.6,0.4,1.8,1.2,2.5,1.2c0.6,0,2.1-0.4,2.5-1c0.5,0,1.2-0.2,1.4-0.1c0.7,0.3,1.3,1.9,2,2.3  c0.6,0.4,2.1,0.4,2.7,0.8c0.7,0.4,1.6,1.7,2.3,2.1c1,0.4,3.2,0.2,4.2,0.5c1.1,0.2,3.8,1.4,4.1,1.4c0.3,0,2.3-0.5,3-0.5  c1.4,0,4.3,1.3,5.5,0.7c0.6-0.3,0.8-1.8,1.3-2.3c0.7-0.6,3.1-1.3,3.1-1.5c0-0.2-0.2-2.3,0.3-2.8c0.5-0.6,2.1-0.7,2.9-0.8  c1.1-0.1,3.3,1.2,4.3,0.7c0.7-0.4,0.8-2.4,1.4-3c0.4-0.5,1.9-0.7,2.2-1.2c0.4-0.7-0.2-2.6,0.2-3.3c0.3-0.7,2.1-1.2,2.4-1.9  c0.3-0.7-1.1-2.4-0.6-3c0.4-0.5,2.1-0.3,2.7,0.1c0.3,0.2,0.3,1.2,0.6,1.3c0.4,0.1,1-0.7,1.1-1.1c0.2-0.6-0.6-1.9-0.2-2.4  c0.4-0.4,1.8,0.2,2.4,0c0.6-0.2,1.8-1,2.3-1.4c0.6-0.5,1.4-2.1,2.1-2.4c0.8-0.4,2.8-0.7,3.6-0.5c0.4,0.1,0.8,0.8,1.1,1  c0.2,0.1,0.7,0.2,1.1,0.3c-0.1,0.4-0.2,1-0.2,1.2c0,0.2,0,1.8,0,2.1c0,0.2-1,1.5-1.1,2.1c0,0.7,0.8,1.9,1.1,2.4  c0.5,0.7,1.7,1.9,2.4,2.4c0.5,0.4,1.6,1,2.1,1.4c0.6,0.6,1.2,2.3,1.7,3c0.3,0.4,1,1.1,1.5,1.1c0.6,0.1,1.7-1.2,2.4-1.1  c0.4,0.1,1.1,0.8,1.1,1.2c0,0.4-1,0.6-1.3,0.9c-0.3,0.4-0.4,1.5-0.8,1.7c-0.6,0.3-2-0.2-2.5-0.5c-0.4-0.2-0.7-1.2-1.1-1.4  c-0.4-0.3-1.7-0.3-2-0.8c-0.3-0.4,0-1.6-0.2-2.1c-0.2-0.5-1.1-1.2-1.4-1.6c-0.4-0.5-1.2-1.5-1.6-2c-0.3-0.4-0.7-1.4-1.1-1.8  c-0.3-0.4-0.9-1.4-1.4-1.4c-0.2,0-0.6,0.3-0.7,0.5c-0.2,0.5-0.1,1.8,0.2,2.3c0.2,0.5,1.3,0.8,1.7,1.2c0.3,0.3,0.5,1.1,0.8,1.4  c0.4,0.4,1.5,0.7,1.8,1.1c0.3,0.4,0.5,1.3,0.7,1.7c0.1,0.4,0.3,1.1,0.5,1.4c0.3,0.5,1.4,1.4,1.7,1.9c0.2,0.4,0.2,1.4,0.5,1.7  c0.2,0.2,0.7,0.3,0.9,0.5c0.4,0.4,0.5,1.8,0.9,2.2c0.2,0.2,0.9,0.4,1.2,0.5c0.5,0.1,1.7-0.2,2.2,0.1c0.3,0.2,0.6,0.8,0.6,1.1  c-0.1,0.4-1,0.6-1.3,0.9c-0.3,0.2-0.9,0.8-0.9,1.1c0,0.3,0.5,0.6,0.6,0.8c0.3,0.6,0.4,2,0.8,2.5c0.4,0.5,1.5,0.9,2.1,1.2  c0.5,0.3,1.6,0.5,1.9,1c0.2,0.4-0.2,1.4,0,1.7c0.2,0.3,1.1,0.4,1.3,0.7c0.2,0.3,0.3,1.2,0.3,1.6c0,0.7-0.6,2.2-0.3,2.8  c0.2,0.5,1.7,1,1.7,1.5c0,0.6-1.1,1.5-1.6,1.6c-0.5,0.1-1.3-0.6-1.7-0.8c-0.4-0.1-1.4-0.5-1.6-0.2c-0.2,0.2,0.4,0.9,0.2,1.1  c-0.3,0.4-1.6,0.2-2-0.1c-0.3-0.2-0.2-1.1-0.5-1.3c-0.4-0.2-1.3,0.6-1.7,0.6c-0.7,0-2.1-0.4-2.4-0.9c-0.2-0.4-0.1-1.3,0.1-1.7  c0.1-0.2,0.6-0.3,0.7-0.5c0.3-0.3,0.2-1.4,0.5-1.6c0.3-0.3,1.2,0,1.6-0.2c0.4-0.2,1.3-0.7,1.5-1.1c0.2-0.5,0.3-1.6,0-2.1  c-0.3-0.4-1.3-0.4-1.7-0.6c-0.4-0.3-1-1.1-1.2-1.6c-0.2-0.4,0-1.3-0.3-1.6c-0.5-0.4-1.9-0.1-2.5-0.1c-0.5,0-1.4,0.5-1.9,0.3  c-0.7-0.2-1.4-1.9-2.2-2c-0.5,0-1.4,0.6-1.5,1.1c-0.1,0.4,0.3,1.2,0.6,1.4c0.3,0.2,1.4-0.2,1.6,0.1c0.3,0.4-0.1,1.7-0.5,2.2  c-0.3,0.4-1.6,0.4-1.9,0.9c-0.3,0.4-0.4,1.7-0.1,2.1c0.2,0.3,1.2,0.1,1.4,0.4c0.3,0.2,0.4,1,0.5,1.4c0,0.4-0.1,1.1-0.3,1.5  c-0.2,0.4-1.3,0.9-1.3,1.3c-0.1,0.5,1,1.3,1.1,1.9c0.1,0.4-0.5,1.2-0.3,1.6c0.1,0.3,0.9,0.7,1.2,0.9c0.3,0.1,1,0.2,1.2,0.4  c0.3,0.3,0.6,1.1,0.8,1.4c0.3,0.7,0.6,2.2,1,2.8c0.3,0.3,1,0.8,1.4,0.9c0.6,0.2,1.9-0.2,2.4,0c0.4,0.1,1.1,0.7,1.3,1.1  c0.2,0.5-0.1,1.5-0.1,2c0,0.6,0,1.9,0,2.5c0.1,0.8,0.8,2.6,0.4,3.3c-0.2,0.3-0.9,0.7-1.3,0.8c-0.5,0.1-1.7-0.4-2,0  c-0.4,0.4-0.2,1.7,0,2.2c0.1,0.4,0.9,0.8,1,1.1c0.3,0.6,0,2,0.4,2.5c0.3,0.3,1.1,0.7,1.5,0.6c0.4-0.1,1.1-0.9,1.2-1.3  c0.1-0.5-0.5-1.6-0.5-2.1c0-0.5-0.1-1.8,0.3-2.1c0.4-0.3,1.7-0.3,2.1,0c0.6,0.3,1.1,1.6,1.4,2.2c0.3,0.6,1.1,1.9,1,2.6  c-0.1,0.4-0.8,1.1-1.2,1.3c-0.5,0.2-1.7-0.5-2.1-0.1c-0.3,0.3-0.2,1.2,0,1.5c0.2,0.5,1.3,1,1.6,1.4c0.7,0.8,2.4,2.3,2.4,3.3  c0,0.7-0.8,1.9-1.3,2.4c-0.3,0.3-1.4,0.5-1.7,0.9c-0.6,0.7-0.9,2.6-1.1,3.4c-0.2,0.6-0.6,1.7-0.5,2.2c0,1.1,0.9,3.1,1.3,4  c0.5,1.3,1.8,3.8,2.7,4.9c0.5,0.6,1.8,1.4,2.3,2c0.5,0.6,1.1,2.1,1.5,2.8c0.4,0.7,1.5,1.9,1.9,2.6c0.4,0.8,0.6,2.6,1,3.4  c0.3,0.6,0.9,1.8,1.4,2.3c0.4,0.4,1.4,0.8,1.8,1.1c0.7,0.7,1.4,2.5,2.1,3.3c0.7,0.9,2.5,2.3,3.4,3c0.6,0.5,1.9,1.1,2.3,1.7  c0.4,0.6,0.2,2.1,0.5,2.7c0.4,0.7,2,1.4,2.4,2.1c0.5,0.8,0.6,2.7,0.9,3.6c0.2,0.5,0.8,1.5,0.8,2.1c0,0.4-0.5,1-0.6,1.3  c-0.2,0.5-0.4,1.6-0.6,2.1c-0.2,0.6-0.6,2-1.1,2.3c-0.4,0.2-1.4-0.2-1.8-0.1c-0.6,0.2-1.2,1.3-1.7,1.6c-0.5,0.3-1.6,0.9-2.1,0.5  c-0.3-0.2-0.1-1.2,0.1-1.4c0.2-0.3,1.2-0.2,1.5-0.5c0.4-0.3,0.7-1.5,1.1-1.9c0.3-0.3,1.4-0.2,1.7-0.6c0.3-0.4,0.2-1.5-0.2-1.9  c-0.1-0.2-0.6-0.3-0.8-0.2c-0.7,0.1-1.8,0.9-2.4,1.2c-0.4,0.2-1.3,0.5-1.7,0.8c-0.4,0.4-0.7,1.5-1,2.1c-0.4,0-0.8,0-1-0.1  c-1-0.1-3-0.7-4-0.5c-0.8,0.1-2.2,1.4-3,1.5c-0.7,0.1-2.2-0.4-2.9-0.3c-1.2,0.1-3.5,0.7-4.7,1.1c-1,0.4-2.8,1.9-4,2.1  c-1.2,0.2-3.6-1.1-4.7-0.7c-0.8,0.3-1.4,2.3-2.2,2.6c-1,0.4-3.2,0.2-4.3-0.1c-0.5-0.1-1.5-0.9-2-1c-1.1-0.2-3.4-0.3-4.4,0.2  c-1.3,0.7-3.1,3.4-3.8,4.8c-0.3,0.6-0.3,2.2-0.7,2.7c-0.7,0.9-3.2,1.1-4.1,1.8c-0.5,0.4-1.1,1.8-1.7,2.1c-1.2,0.6-4.1-0.2-5.3,0.4  c-0.6,0.3-1.2,1.8-1.8,2.1c-1.1,0.5-3.8-0.6-4.9,0c-0.7,0.4-1.1,2.3-1.7,2.8c-0.5,0.4-1.9,0.4-3,0.6c-0.5-1.1-2.2-2.4-2.3-3.3  c0-1,1.7-2.6,1.8-3.6c0.1-0.6-0.3-1.9-0.6-2.4c-0.4-0.8-1.9-1.9-2.3-2.7c-0.3-0.6-0.1-2.2-0.5-2.7c-0.4-0.5-1.7-0.9-2.3-0.9  c-0.6,0-1.6,1-2.2,1c-0.9,0-2.5-1.3-3.4-1.4c-1.4-0.2-4.1,0.8-5.5,0.5c-0.7-0.1-2-0.9-2.5-1.4c-0.7-0.7-1.1-2.8-1.5-3.6  c-0.6-1.2-1.4-3.8-2.5-4.5c-1-0.6-3.5-0.2-4.7-0.1c-0.7,0.1-2.1,0.8-2.7,0.5c-1.1-0.6-1.3-3.7-2.1-4.7c-0.8-1-3.3-1.9-3.9-3  c-0.3-0.7,0.4-2.5,0-3.1c-0.7-1-3.6-1-4.7-1.7c-0.7-0.5-1.5-2.1-2.2-2.5c-1-0.6-3.7-0.3-4.4-1.2c-0.6-0.9,0-3.3,0.2-4.4  C554.3,560.5,554.4,560,554.6,559.6z" data-stroke-width="0.2" style="stroke-width: 0.2;" class=" " id="phu-yen"></path>
<path fill="#FDBDC4" stroke="#474747" stroke-width="0.2" d="M666.1,469.9c0,0.5-0.8,1.3-1.3,1.4c-0.4,0.1-1.4,0.1-1.7-0.2  c-0.3-0.3,0-1.3-0.2-1.6c-0.3-0.4-1.5-0.4-1.7-0.8c-0.2-0.4,0.2-1.2,0.2-1.6c0-0.3-0.1-1,0.2-1.1c0.3-0.2,1,0.3,1.4,0.4  c0.4,0.1,1.4,0.1,1.7,0.5c0.2,0.3-0.1,1.2,0,1.5C664.8,468.8,666.1,469.3,666.1,469.9z" data-stroke-width="0.2" style="stroke-width: 0.2;"></path>
<path fill="#FDBDC4" stroke="#474747" stroke-width="0.2" d="M662.3,641.8c0.4,0.2,0.6,1.3,0.4,1.7c-0.2,0.5-1.5,1.1-2.1,1.1  c-0.6,0.1-1.9-0.1-2.3-0.5c-0.4-0.4-0.3-1.7-0.2-2.2c0.1-0.3,0.4-0.9,0.6-1.1c0.3-0.2,1-0.3,1.2-0.2c0.3,0.2-0.1,1.3,0.2,1.5  C660.6,642.5,661.8,641.5,662.3,641.8z" data-stroke-width="0.2" style="stroke-width: 0.2;"></path>
<path fill="#FDBDC4" stroke="#474747" stroke-width="0.2" d="M665.5,661.3c0.3,0.4-0.2,1.4-0.3,1.9c-0.1,0.4-0.2,1.3-0.6,1.4  c-0.6,0.2-1.8-0.8-2.3-1.3c-0.3-0.3-0.7-0.9-0.7-1.3c0-0.3,0.1-1.2,0.5-1.3c0.3-0.1,0.9,0.5,1.3,0.5  C663.9,661.4,665.2,660.9,665.5,661.3z" data-stroke-width="0.2" style="stroke-width: 0.2;"></path>
<path fill="#FDBDC4" stroke="#474747" stroke-width="0.2" d="M559.8,689.7c-0.9-1.5-2.4-3.3-2.7-4.5c-0.4-1.6,0.6-5,0.2-6.5  c-0.3-1.2-2.3-3-2.4-4.3c-0.1-0.8,1-2.3,0.8-3c-0.2-0.6-1.3-1-2.3-1.5c0.2-0.3,0.3-0.5,0.4-0.7c0.2-0.6-0.5-2-0.4-2.6  c0.1-1.3,1.4-3.6,1.7-4.9c0.1-0.6,0.5-2,0.3-2.6c-0.2-0.7-1.9-1.5-2.1-2.2c-0.3-1.1,1.2-3.3,1.1-4.5c0-0.8-1.1-2.2-1.1-2.9  c0-0.9,0.3-3,1-3.6c0.7-0.6,2.9,0.1,3.5-0.5c0.4-0.3,0.1-1.7,0.5-2c1.1-0.9,4.3-0.1,5.6-0.6c0.6-0.2,1.3-1.3,1.9-1.5  c1.4-0.4,4.7-0.5,5.9,0.4c0.3,0.3,0.3,1.4,0.6,1.6c0.7,0.5,2.7,0,3.5,0.3c0.9,0.4,2.3,2,3.1,2.5c0.9,0.6,2.8,2.3,3.8,1.8  c0.6-0.3,0.9-1.9,0.7-2.5c-0.1-0.6-1.7-1.3-1.7-1.9c-0.1-0.9,1.8-2.2,2-3c0.2-0.8,0-2.9,0-3.2c0-0.3,1.1-3.1,1.5-4.2  c0.3-0.8,1.2-2.4,1.2-3.2c0-1.1-1.3-3-1.2-4.1c0.1-1,1.3-2.6,1.7-3.5c0.3-0.7,0.8-2.1,1.2-2.7c0.3-0.4,1.2-0.9,1.3-1.3  c0.3-1-0.8-2.9-0.8-4c0-0.9,0-3,0.7-3.5c0.7-0.4,2.3,0.6,3.1,0.6c1,0,2.8-1,3.7-1.1c0.8-0.1,2.3,0.7,3,0.4c1.2-0.4,3.3-2.2,3.4-3.4  c0-0.2,0-0.4-0.1-0.6c1-0.2,2.5-0.2,3-0.6c0.7-0.5,1-2.4,1.7-2.8c1.1-0.6,3.8,0.5,4.9,0c0.6-0.3,1.2-1.8,1.8-2.1  c1.2-0.6,4.1,0.2,5.3-0.4c0.6-0.3,1.2-1.7,1.7-2.1c0.9-0.7,3.3-1,4.1-1.8c0.5-0.5,0.4-2.1,0.7-2.7c0.7-1.4,2.4-4.1,3.8-4.8  c1-0.5,3.3-0.4,4.4-0.2c0.6,0.1,1.5,0.9,2,1c1,0.3,3.3,0.5,4.3,0.1c0.8-0.4,1.4-2.3,2.2-2.6c1.1-0.4,3.5,0.9,4.7,0.7  c1.1-0.2,2.9-1.7,4-2.1c1.1-0.4,3.5-1,4.7-1.1c0.7,0,2.2,0.4,2.9,0.3c0.8-0.2,2.2-1.4,3-1.5c1-0.2,3,0.4,4,0.5c0.2,0,0.6,0,1,0.1  c0,0.1-0.1,0.2-0.1,0.2c-0.5,0.7-2.1,1.6-2.7,2.2c-0.5,0.5-1.5,1.7-1.9,2.3c-0.3,0.5-0.9,1.5-1.1,2.1c-0.2,0.5-0.1,1.4-0.1,1.9  c0,0.7,0.4,2.1,0.5,2.9c0.1,0.7,0,2,0.2,2.6c0.2,0.6,0.8,1.5,1.1,2c0.3,0.5,0.7,1.7,1.1,2.2c0.3,0.4,1.2,0.9,1.4,1.4  c0.2,0.4,0.4,1.4,0.4,1.8c0,0.4-0.3,1.2-0.2,1.6c0.3,0.8,1.9,1.9,2.6,2.4c0.3,0.3,1.2,0.5,1.4,0.9c0.3,0.5-0.3,1.8,0,2.2  c0.3,0.5,1.4,0.9,2,0.9c0.3,0,0.7-0.4,1-0.5c0.5-0.1,1.6-0.2,2.1-0.2c0.5,0,1.7,0,2.1,0.3c0.5,0.3,1.2,1.3,1.1,1.9  c-0.1,0.4-0.8,1.1-1.2,1.2c-0.4,0.2-1.3-0.1-1.7,0c-0.6,0.1-1.6,0.7-2.1,0.9c-0.2,0.1-0.9-0.1-1,0.1c-0.4,0.5,0.7,1.8,0.6,2.4  c-0.1,0.4-0.9,1-0.9,1.5c-0.1,0.7,0.5,2.1,0.9,2.7c0.2,0.3,0.9,0.8,1,1.2c0.1,0.5-1,1.5-0.9,2c0.2,0.5,1.8,0.7,1.8,1.3  c0,0.6-1.1,1.5-1.6,1.6c-0.3,0-0.8-0.3-1-0.5c-0.2-0.2-0.1-1-0.3-1.2c-0.4-0.2-1.3,0.5-1.7,0.3c-0.4-0.2-0.6-1.2-0.6-1.7  c0-0.5,0.8-1.2,0.9-1.6c0.1-0.4-0.1-1.4-0.4-1.7c-0.1-0.1-0.6-0.1-0.8-0.2c-0.5-0.1-1.5-0.2-1.8-0.5c-0.4-0.4-0.3-1.6-0.7-2  c-0.3-0.3-1.4-0.6-1.7-0.4c-0.3,0.2-0.2,1.1-0.1,1.4c0.1,0.7,0.6,1.9,1,2.5c0.2,0.3,0.8,0.8,1,1.1c0.2,0.5-0.4,1.8-0.1,2.3  c0.2,0.3,1.2,0.5,1.4,0.8c0.2,0.4,0.2,1.4,0.2,1.8c-0.1,0.3-0.3,0.8-0.5,0.9c-0.3,0.1-0.9-0.5-1.2-0.6c-0.4-0.1-1.4,0.1-1.7-0.2  c-0.2-0.2-0.2-0.9-0.4-1.1c-0.4-0.3-1.5,0.2-1.8-0.1c-0.4-0.3-0.2-1.7-0.6-2.1c-0.6-0.6-2.6-0.1-3.1-0.8c-0.2-0.3,0.4-1.2,0.2-1.6  c-0.2-0.4-1.2-0.6-1.4-1c-0.1-0.2,0.1-0.9-0.1-1.1c-0.2-0.3-1.1-0.6-1.5-0.4c-0.3,0.2,0,1.1-0.2,1.3c-0.3,0.3-1.4,0.4-1.8,0.2  c-0.2-0.1-0.2-0.8-0.4-1.1c-0.2-0.3-1.1-0.6-1.2-1c-0.1-0.3-0.1-1,0.1-1.3c0.2-0.3,0.9-0.4,1.1-0.6c0.3-0.3,0.7-1.1,1-1.3  c0.3-0.1,1,0,1.3,0c0.3,0,0.9-0.3,1.2-0.3c0.5,0,1.5,0.4,1.9,0.7c0.3,0.2,0.6,0.9,0.9,0.9c0.6,0.1,1.6-0.7,2.1-1  c0.3-0.1,0.8-0.6,1.1-0.6c0.2,0,0.5,0.5,0.7,0.7c0.3,0.1,0.9,0.3,1.2,0.3c0.4-0.1,0.8-1.2,1.2-1.3c0.3-0.1,0.9,0.5,1.2,0.6  c0.3,0.1,0.9,0.3,1.2,0.1c0.3-0.2,0.2-1,0.2-1.3c0-0.4-0.4-1.1-0.4-1.5c0-0.5,0.5-1.6,0.3-2.1c-0.2-0.4-1.1-0.6-1.3-0.9  c-0.2-0.3,0-1.2-0.3-1.6c-0.2-0.3-0.9-1-1.3-1c-0.3,0-0.6,0.6-0.7,0.9c-0.1,0.3,0.1,1.1,0.3,1.4c0.2,0.3,1.1,0.5,1.1,0.9  c0,0.3-0.7,0.8-1,0.9c-0.4,0.1-1.3,0.1-1.5-0.2c-0.1-0.2,0.1-0.7,0-0.9c-0.1-0.4-0.7-1-1.1-1.1c-0.3-0.1-1,0.1-1.1,0.3  c-0.2,0.4,0.6,1.1,0.7,1.5c0.1,0.4,0.4,1.2,0.3,1.6c-0.1,0.4-0.7,1.1-1.1,1.2c-0.3,0.1-1.1-0.1-1.3-0.4c-0.2-0.3,0.1-1.1-0.2-1.4  c-0.3-0.3-1.3-0.3-1.8-0.2c-0.5,0.1-1,1.2-1.5,1.2c-0.4,0-1.2-0.9-1.2-1.4c0.1-0.4,0.9-0.6,1.3-0.8c0.4-0.2,1.3-0.5,1.5-0.8  c0.2-0.2,0.1-0.8,0.1-1.1c0-0.5-0.2-1.6,0.1-2.1c0.2-0.3,0.8-0.6,1.1-0.6c0.4,0,0.9,0.9,1.3,0.9c0.5,0,1.6-0.4,1.8-0.9  c0.1-0.3-0.3-1-0.5-1.3c-0.1-0.3-0.2-0.9-0.4-1.1c-0.3-0.3-1.4,0.1-1.7-0.2c-0.4-0.4-0.4-1.5-0.3-2.1c0.1-0.4,0.8-1,0.9-1.4  c0.1-0.2,0.1-0.6,0.2-0.8c0-0.7-0.3-2-0.5-2.7c-0.1-0.5-0.3-1.5-0.4-2.1c0-0.6,0.1-1.7,0.1-2.3c-0.1-0.9,0.1-3.5-0.8-3.7  c-0.8-0.2-1.7,1.9-2.3,2.5c-0.6,0.6-1.9,1.8-2.6,2.4c-0.7,0.7-2.2,2.1-2.9,2.9c-0.7,0.8-1.9,2.8-2.7,3.6c-0.8,0.8-2.6,2-3.4,2.7  c-0.9,0.7-2.6,2.3-3.6,2.9c-0.8,0.5-3.2,0.7-3.6,1.5c-0.1,0.3,0.2,0.9,0.2,1.2c0.1,0.5,0.4,1.4,0.4,1.8c0,0.8-0.3,2.4-0.9,2.9  c-0.5,0.4-2,0.1-2.6,0.4c-0.6,0.3-1.7,1.2-1.9,1.8c-0.1,0.5,0.2,1.6,0.5,2c0.4,0.4,1.8,0.3,2.1,0.8c0.2,0.3-0.1,1.2-0.2,1.6  c-0.1,0.8,0.1,2.4-0.4,3c-0.3,0.4-1.4,0.5-1.7,0.8c-0.3,0.3-0.8,1.3-0.6,1.7c0.3,0.6,2,0.4,2.4,0.9c0.2,0.3-0.2,1.3,0,1.7  c0.3,0.6,1.8,1.6,2.4,1.2c0.4-0.3-0.5-1.5-0.4-2.1c0.1-0.4,0.9-1,1.1-1.4c0.4-0.4,0.9-1.5,1.4-1.7c0.3-0.1,1.2-0.2,1.4,0.1  c0.3,0.4,0,1.6-0.2,2.1c-0.1,0.3-0.7,0.9-0.8,1.2c-0.2,0.6,0.4,2,0.2,2.6c-0.2,0.5-1.6,0.9-1.4,1.4c0.1,0.3,0.9,0.1,1.2,0.3  c0.3,0.2,0.5,0.8,0.6,1.1c0.1,0.5-0.4,1.4-0.2,1.9c0.2,0.3,0.9,0.8,1.2,0.9c0.4,0.1,1.4-0.2,1.8,0c0.4,0.2,0.8,1.1,1.1,1.4  c0.5,0.4,1.8,0.5,2.1,1c0.3,0.3,0,1.3,0.3,1.7c0.4,0.4,1.6,0.6,2.1,0.8c0.3,0.1,1.1,0.1,1.4,0.3c0.3,0.3,0.7,1.2,0.6,1.6  c-0.1,0.3-0.8,0.7-1,1c-0.3,0.3-0.9,0.9-1,1.3c-0.1,0.3,0.3,1,0.3,1.4c0,0.5-0.4,1.3-0.5,1.8c0,0.3-0.2,1,0,1.3  c0.3,0.4,1.6-0.2,1.9,0.2c0.2,0.3-0.7,0.9-0.5,1.1c0.3,0.5,1.6,0.3,2.2,0.3c0.6,0,1.9-0.6,2.4-0.2c0.2,0.2-0.2,0.9-0.1,1.1  c0.3,0.5,1.9,0.4,2.2,0.9c0.1,0.2-0.2,0.9-0.2,1.1c0.1,0.2,0.6,0.5,0.6,0.7c0,0.2-0.4,0.6-0.6,0.8c-0.2,0.1-0.7,0.2-0.8,0.4  c-0.1,0.3,0.5,0.8,0.5,1.1c-0.1,0.3-0.6,0.9-0.9,1c-0.3,0.1-1-0.4-1.2-0.7c-0.1-0.2,0-0.7-0.1-0.9c-0.1-0.2-0.3-0.6-0.5-0.8  c-0.2-0.3-0.7-1.2-1.1-1.1c-0.4,0-0.6,1.1-0.9,1.4c-0.2,0.1-0.6,0-0.7,0.2c-0.2,0.3,0.2,1,0.1,1.4c-0.1,0.4-0.7,1-0.7,1.4  c-0.1,0.6,0.9,1.8,0.7,2.4c-0.1,0.5-0.9,1.2-1.4,1.3c-0.5,0.1-1.6-0.8-1.6-0.9c0-0.1,0.2-1.3-0.1-1.5c-0.3-0.2-1.2,0.5-1.6,0.5  c-0.5,0-1.4-0.5-1.6-0.9c-0.2-0.4,0.2-1.9,0.2-2c0-0.1-0.5-0.3-0.7-0.4c-0.3-0.3-0.3-1.3-0.6-1.7c-0.2-0.3-1-0.5-1.2-0.8  c-0.2-0.3,0.1-1.2-0.1-1.6c-0.2-0.2-0.8-0.2-1-0.4c-0.2-0.2-0.2-0.7-0.4-0.9c-0.3-0.2-1.1-0.2-1.3-0.5c-0.3-0.4-0.1-1.6-0.5-1.9  c-0.4-0.4-1.8-0.2-2.3-0.5c-0.4-0.2-0.8-1.1-1.2-1.4c-0.3-0.2-1-0.2-1.3-0.4c-0.4-0.4-0.7-1.5-1.1-1.9c-0.3-0.3-1.2-0.6-1.5-0.8  c-0.2-0.2-0.5-0.9-0.8-1.1c-0.3-0.2-1.3-0.6-1.6-0.4c-0.4,0.2-0.3,1.3-0.3,1.7c0,0.3,0.1,0.8,0.2,1.1c0.1,0.3,0.7,0.7,0.7,1  c0,0.2-0.4,0.4-0.5,0.5c-0.2,0.1-0.6,0-0.7,0.1c-0.2,0.2,0.1,0.9,0.1,1.2c0,0.3-0.3,1-0.4,1.3c-0.1,0.3-0.4,1-0.3,1.3  c0.1,0.4,0.7,1,1.1,1.1c0.5,0.2,1.7-0.1,2.3,0c0.5,0.1,1.4,0.5,1.8,0.7c0.6,0.3,1.8,0.7,2.2,1.3c0.4,0.6,0.3,2.2,0.2,3  c0,0.6-0.6,1.9-0.6,2.5c0,0.7,0.3,2,0.6,2.6c0.4,0.9,1.6,2.6,2.4,3.3c0.5,0.4,2.1,0.6,2.4,1.2c0.2,0.5-0.4,1.7-0.8,2.1  c-0.5,0.4-2,0.3-2.4,0.8c-0.5,0.5-0.9,2-1,2.7c-0.1,0.9,0,2.6,0.1,3.5c0.1,0.7,0.5,2.1,0.6,2.8c0,0.7-0.7,2-0.5,2.7  c0.1,0.3,0.9,0.6,1,0.9c0.2,0.5-0.1,1.7-0.2,2.3c-0.1,0.4-0.5,1.2-0.6,1.6c-0.2,0.7-0.2,2.2-0.2,2.9c0,0.4,0,1.3,0.2,1.7  c0.2,0.4,1.1,0.9,1.3,1.3c0.2,0.5,0.1,1.6,0,2.1c-0.1,0.4-0.8,1.1-0.9,1.6c-0.1,0.4-0.3,1.5,0,1.8c0.4,0.5,2.1-0.3,2.4,0.3  c0.2,0.3-0.3,1.1-0.5,1.3c-0.4,0.3-1.6,0.4-2.1,0.4c-0.5,0-1.6,0.1-1.9-0.3c-0.3-0.3,0.1-1.5-0.3-1.7c-0.2-0.1-0.8,0.2-0.9,0.4  c-0.2,0.5,0.3,1.6,0.5,2.1c0.1,0.5,0.5,1.4,0.5,1.9c-0.1,0.4-0.8,1-0.9,1.4c-0.1,0.7,0.8,2.1,1.2,2.7c0.3,0.5,1.2,1.5,1.6,1.9  c0.3,0.3,1,0.9,1.2,1.3c0.2,0.5,0.2,1.7,0.4,2.2c0.2,0.5,0.7,1.6,1.1,2c0.3,0.4,1.4,1,1.6,1.5c0.3,0.6-0.3,2-0.1,2.7  c0.1,0.3,0.6,0.8,0.9,0.8c0.4,0.1,1.1-0.3,1.5-0.3c0.6,0.1,1.8,0.5,2.3,0.9c0.4,0.3,0.7,1.3,1,1.6c0.3,0.4,1.4,0.7,1.6,1.2  c0.2,0.5,0.1,1.6-0.2,2c-0.2,0.5-1.3,1-1.5,1.5c-0.1,0.2,0.1,0.8,0,1.1c-0.2,0.4-1.3,0.8-1.6,1.2c-0.2,0.3-0.4,1.1-0.4,1.5  c0,0.5,0.4,1.6,0.7,2c0.3,0.3,1.3,0.6,1.4,1c0,0.5-1.6,1-1.4,1.4c0.2,0.4,1.3-0.1,1.8,0c0.3,0,1,0.1,1.2,0.3  c0.3,0.4,0.3,1.5,0.2,1.9c-0.1,0.2-0.6,0.5-0.8,0.7c-0.2,0.3-0.4,1-0.7,1.2c-0.5,0.3-1.7-0.2-2.3-0.2c-0.4,0-1.3,0.2-1.7,0.1  c-0.7-0.1-2.1-0.5-2.4-1c-0.2-0.3,0.2-1.2,0.1-1.6c-0.1-0.2-0.5-0.7-0.7-0.8c-0.5-0.2-1.7,0.2-2.3,0.3c-0.4,0.1-1.3,0.5-1.7,0.3  c-0.4-0.2-1.1-1.1-1-1.5c0-0.2,0.6-0.3,0.7-0.5c0.2-0.4,0.1-1.5,0.3-1.9c0.2-0.3,0.9-0.4,1-0.7c0.2-0.3,0.3-1.1,0.1-1.4  c-0.2-0.2-1,0-1.1-0.2c-0.2-0.2-0.1-0.9,0-1.1c0.2-0.3,1.1-0.4,1.3-0.6c0.2-0.2,0.5-0.7,0.5-1c0-0.7-0.6-2-1.1-2.4  c-0.2-0.2-0.9-0.3-1.2-0.2c-0.4,0.2-1,1.1-1.1,1.5c-0.2,0.5,0.1,1.6-0.1,2.1c-0.1,0.3-0.7,0.6-0.8,0.9c-0.2,0.5,0.3,1.8,0,2.3  c-0.2,0.3-1.1,0.5-1.3,0.8c-0.3,0.4-0.4,1.5-0.8,1.8c-0.2,0.2-0.9,0.1-1.2,0.3c-0.4,0.4-0.7,1.6-1.1,2c-0.5,0.7-1.9,1.6-2.3,2.4  c-0.2,0.4,0,1.5-0.2,1.9c-0.2,0.5-1.2,1-1.3,1.5c0,0.4,0.3,1.1,0.7,1.6c-0.6,0-1.3-0.1-1.5-0.3c-0.4-0.2-0.6-1.2-0.9-1.6  c-0.7-0.7-2.4-1.9-3.4-2.2c-0.5-0.1-1.5,0.1-2,0c-1.2-0.1-3.6-0.6-4.7-1.2c-0.8-0.4-2.2-1.5-2.7-2.3c-0.6-0.9-0.6-3.4-1.4-4.1  c-1.1-1-4.4-1.2-5.9-1.4c-1.6-0.1-5,0.9-6.5,0.3c-1.2-0.5-2.8-2.8-3.8-3.6c-0.6-0.5-1.8-1.4-2.6-1.7c-1.1-0.3-3.7,0.6-4.6-0.2  c-0.8-0.7-0.2-3.5-0.9-4.3c-0.8-0.8-3.3-0.5-4.3-1.1c-1.4-1-3.8-5-3.8-5.8s-1.9-2.9-2.7-3.6c-1.4-1.3-5.1-3.3-6.1-5  c-0.8-1.3-0.2-4.8-1.1-6.1c-0.8-1.3-4.3-2.3-5.2-3.6c-1-1.4-0.9-5.1-1.5-6.7C560.3,690.6,560.1,690.2,559.8,689.7z" data-stroke-width="0.2" style="stroke-width: 0.2;" class=" " id="khanh-hoa"></path>
<path fill="#FDBDC4" stroke="#474747" stroke-width="0.2" d="M656.6,684.2c0.4,0.5,0.4,1.7,0.3,2.3c0,0.2-0.2,0.5-0.3,0.7  c-0.1,0.5,0.3,1.7,0.1,2.2c-0.1,0.2-0.4,0.7-0.6,0.8c-0.4,0.2-1.3,0.3-1.7,0.1c-0.3-0.2-0.4-1-0.7-1.2c-0.3-0.2-1.1,0.2-1.4,0  c-0.3-0.3-0.2-1.3-0.3-1.7c0-0.3,0.1-1-0.2-1.2c-0.2-0.2-1-0.1-1.3,0.1c-0.3,0.3-0.3,1.3-0.3,1.8c0,0.4,0.6,1.2,0.6,1.6  c-0.1,0.4-0.8,1.2-1.2,1.3c-0.3,0.1-1.1-0.2-1.4-0.5c-0.3-0.3,0-1.3-0.3-1.5c-0.4-0.4-1.9,0.2-2.3-0.3c-0.2-0.2,0.1-1-0.2-1.2  c-0.4-0.4-1.8,0-2.3-0.3c-0.5-0.3-1.3-1.2-1.5-1.8c-0.2-0.4-0.2-1.3,0-1.7c0.1-0.3,0.7-0.7,1.1-0.7c0.4,0,1.1,0.8,1.2,1.2  c0.1,0.3-0.3,1-0.1,1.3c0.2,0.2,0.7,0.2,1,0.2c0.1-0.1,0.3-0.4,0.4-0.5c0.1-0.4-0.4-1.3-0.3-1.7c0.1-0.4,0.5-1.1,0.9-1.3  c0.3-0.1,1.2,0,1.4,0.3c0.2,0.3-0.4,1-0.2,1.3c0.4,0.5,2,0.1,2.6-0.1c0.4-0.1,0.9-0.9,1.3-0.9c0.4,0,1,0.7,1.2,1.1  c0.1,0.3-0.1,1,0.1,1.2c0.3,0.3,1.5,0.2,1.9-0.1c0.3-0.2,0.2-1.3,0.6-1.4C655.2,683.4,656.3,683.9,656.6,684.2z" data-stroke-width="0.2" style="stroke-width: 0.2;"></path>
<path style="pointer-events: none;" fill="#0A0A0A" d="M405.4,142.3l-3.2-4.4l1.5-1l3.2,4.3L405.4,142.3z M402.9,141.1c-0.6,0-1.2-0.1-1.7-0.3  c-0.5-0.2-1-0.5-1.4-0.9c-0.4-0.4-0.7-0.9-0.9-1.4s-0.3-1.1-0.3-1.7c0-0.6,0.1-1.2,0.3-1.7s0.5-1,0.9-1.4c0.4-0.4,0.9-0.7,1.4-0.9  c0.5-0.2,1.1-0.3,1.7-0.3c0.6,0,1.2,0.1,1.7,0.3c0.5,0.2,1,0.5,1.4,0.9c0.4,0.4,0.7,0.9,0.9,1.4c0.2,0.5,0.3,1.1,0.3,1.7  c0,0.6-0.1,1.2-0.3,1.7c-0.2,0.5-0.5,1-0.9,1.4s-0.9,0.7-1.4,0.9C404.1,141,403.5,141.1,402.9,141.1z M402.9,139.2  c0.3,0,0.6-0.1,0.9-0.2c0.3-0.1,0.5-0.3,0.7-0.5c0.2-0.2,0.4-0.5,0.5-0.8c0.1-0.3,0.2-0.6,0.2-1c0-0.4-0.1-0.7-0.2-1  c-0.1-0.3-0.3-0.6-0.5-0.8c-0.2-0.2-0.4-0.4-0.7-0.5c-0.3-0.1-0.6-0.2-0.9-0.2s-0.6,0.1-0.9,0.2c-0.3,0.1-0.5,0.3-0.7,0.5  c-0.2,0.2-0.4,0.5-0.5,0.8c-0.1,0.3-0.2,0.6-0.2,1c0,0.4,0.1,0.7,0.2,1c0.1,0.3,0.3,0.6,0.5,0.8c0.2,0.2,0.4,0.4,0.7,0.5  C402.2,139.1,402.5,139.2,402.9,139.2z M410.8,141.1c-0.5,0-0.9-0.1-1.2-0.3c-0.3-0.2-0.6-0.5-0.8-0.9c-0.2-0.4-0.3-0.8-0.3-1.4  v-3.9h1.9v3.7c0,0.3,0,0.5,0.1,0.7c0.1,0.2,0.2,0.3,0.4,0.4c0.2,0.1,0.4,0.1,0.6,0.1c0.2,0,0.3,0,0.5-0.1c0.1-0.1,0.3-0.1,0.4-0.2  c0.1-0.1,0.2-0.2,0.2-0.3c0.1-0.1,0.1-0.3,0.1-0.4v-3.8h1.9v6.4h-1.8l-0.1-1.3l0.4-0.1c-0.1,0.3-0.3,0.6-0.5,0.8  c-0.2,0.2-0.5,0.4-0.8,0.6C411.4,141.1,411.1,141.1,410.8,141.1z M418.6,141.1c-0.5,0-1-0.1-1.4-0.4c-0.4-0.3-0.7-0.7-1-1.2  c-0.2-0.5-0.4-1.1-0.4-1.7c0-0.6,0.1-1.2,0.4-1.7c0.2-0.5,0.6-0.9,1-1.2c0.4-0.3,0.9-0.4,1.5-0.4c0.3,0,0.6,0,0.8,0.1  c0.3,0.1,0.5,0.2,0.7,0.4c0.2,0.2,0.4,0.3,0.5,0.5c0.1,0.2,0.2,0.4,0.3,0.6l-0.4,0v-1.5h1.9v6.4h-1.9v-1.5l0.4,0  c-0.1,0.2-0.2,0.4-0.3,0.6c-0.1,0.2-0.3,0.4-0.5,0.5c-0.2,0.2-0.4,0.3-0.7,0.4C419.2,141.1,418.9,141.1,418.6,141.1z M419.2,139.5  c0.3,0,0.6-0.1,0.8-0.2c0.2-0.1,0.4-0.3,0.5-0.6c0.1-0.3,0.2-0.6,0.2-0.9s-0.1-0.6-0.2-0.9c-0.1-0.3-0.3-0.5-0.5-0.6  c-0.2-0.1-0.5-0.2-0.8-0.2c-0.3,0-0.5,0.1-0.8,0.2c-0.2,0.1-0.4,0.3-0.5,0.6c-0.1,0.2-0.2,0.5-0.2,0.9s0.1,0.6,0.2,0.9  c0.1,0.2,0.3,0.4,0.5,0.6C418.6,139.4,418.9,139.5,419.2,139.5z M419.1,133.9c-0.1-0.1-0.1-0.1-0.2-0.2c0-0.1-0.1-0.2-0.1-0.3  c0-0.1,0-0.2,0.1-0.3c0.1-0.1,0.2-0.2,0.3-0.3c0.1-0.1,0.2-0.1,0.3-0.2c0.1-0.1,0.1-0.1,0.1-0.2c0-0.1,0-0.1-0.1-0.2  c-0.1,0-0.1-0.1-0.3-0.1c-0.2,0-0.3,0-0.5,0.1s-0.4,0.1-0.5,0.2l-0.3-1c0.2-0.1,0.4-0.2,0.6-0.3c0.3-0.1,0.5-0.1,0.8-0.1  c0.5,0,0.8,0.1,1.1,0.3c0.3,0.2,0.4,0.5,0.4,0.8c0,0.3-0.1,0.5-0.2,0.6c-0.1,0.1-0.2,0.2-0.4,0.3c-0.1,0.1-0.2,0.1-0.3,0.2  c-0.1,0.1-0.1,0.1-0.1,0.2c0,0,0,0.1,0,0.1c0,0,0,0,0,0.1L419.1,133.9z M424.2,141v-6.4h1.8l0.1,1.3l-0.4,0.1  c0.1-0.3,0.2-0.5,0.5-0.8c0.2-0.2,0.5-0.4,0.8-0.6c0.3-0.1,0.7-0.2,1-0.2c0.5,0,0.9,0.1,1.2,0.3c0.3,0.2,0.6,0.5,0.7,0.9  c0.2,0.4,0.3,0.9,0.3,1.4v3.9h-1.9v-3.8c0-0.3,0-0.5-0.1-0.6s-0.2-0.3-0.3-0.4c-0.1-0.1-0.3-0.1-0.5-0.1c-0.2,0-0.3,0-0.5,0.1  c-0.1,0-0.3,0.1-0.4,0.2c-0.1,0.1-0.2,0.2-0.3,0.3c-0.1,0.1-0.1,0.3-0.1,0.4v3.8h-0.9c-0.2,0-0.4,0-0.6,0S424.3,141,424.2,141z   M434.7,143.8c-0.5,0-1-0.1-1.6-0.2c-0.5-0.2-0.9-0.3-1.2-0.6l0.7-1.3c0.2,0.1,0.4,0.2,0.6,0.3c0.2,0.1,0.4,0.2,0.6,0.2  c0.2,0,0.5,0.1,0.7,0.1c0.4,0,0.7-0.1,1-0.2c0.3-0.1,0.4-0.3,0.6-0.6c0.1-0.2,0.2-0.5,0.2-0.9v-1.1l0.4,0.1  c-0.1,0.3-0.2,0.5-0.4,0.7c-0.2,0.2-0.5,0.4-0.8,0.5c-0.3,0.1-0.7,0.2-1,0.2c-0.6,0-1.1-0.1-1.5-0.4c-0.4-0.3-0.8-0.6-1.1-1.1  c-0.3-0.5-0.4-1-0.4-1.7c0-0.6,0.1-1.2,0.4-1.7c0.3-0.5,0.6-0.9,1.1-1.2c0.4-0.3,1-0.4,1.5-0.4c0.2,0,0.5,0,0.7,0.1  c0.2,0.1,0.4,0.1,0.6,0.2c0.2,0.1,0.4,0.2,0.5,0.3c0.2,0.1,0.3,0.3,0.4,0.4c0.1,0.1,0.2,0.3,0.2,0.4l-0.4,0.1l0.1-1.4h1.8v5.9  c0,0.5-0.1,1-0.2,1.4c-0.2,0.4-0.4,0.8-0.7,1c-0.3,0.3-0.7,0.5-1.1,0.6C435.7,143.7,435.3,143.8,434.7,143.8z M434.8,139.5  c0.3,0,0.6-0.1,0.8-0.2c0.2-0.1,0.4-0.3,0.5-0.6c0.1-0.2,0.2-0.5,0.2-0.9c0-0.3-0.1-0.6-0.2-0.9c-0.1-0.3-0.3-0.5-0.5-0.6  c-0.2-0.1-0.5-0.2-0.8-0.2c-0.3,0-0.6,0.1-0.8,0.2c-0.2,0.1-0.4,0.3-0.5,0.6c-0.1,0.2-0.2,0.5-0.2,0.9c0,0.3,0.1,0.6,0.2,0.9  c0.1,0.2,0.3,0.4,0.5,0.6C434.2,139.4,434.5,139.5,434.8,139.5z M443.9,141v-8.4h1.8l4.4,6l-0.4-0.1c0-0.3-0.1-0.5-0.1-0.8  c0-0.2,0-0.5-0.1-0.7c0-0.2,0-0.5,0-0.7c0-0.2,0-0.5,0-0.8c0-0.3,0-0.6,0-0.9v-2.1h2v8.4h-1.8l-4.6-6.2l0.6,0.1c0,0.4,0.1,0.7,0.1,1  c0,0.3,0.1,0.5,0.1,0.7c0,0.2,0,0.4,0,0.6s0,0.3,0,0.5c0,0.2,0,0.3,0,0.5v2.8H443.9z M455.7,141.1c-0.5,0-1-0.1-1.4-0.4  c-0.4-0.3-0.7-0.7-1-1.2c-0.2-0.5-0.4-1.1-0.4-1.7c0-0.6,0.1-1.2,0.4-1.7c0.2-0.5,0.6-0.9,1-1.2c0.4-0.3,0.9-0.4,1.5-0.4  c0.3,0,0.6,0,0.8,0.1c0.3,0.1,0.5,0.2,0.7,0.4c0.2,0.2,0.4,0.3,0.5,0.5c0.1,0.2,0.2,0.4,0.3,0.6l-0.4,0v-1.5h1.9v6.4h-1.9v-1.5  l0.4,0c-0.1,0.2-0.2,0.4-0.3,0.6c-0.1,0.2-0.3,0.4-0.5,0.5s-0.4,0.3-0.7,0.4C456.3,141.1,456,141.1,455.7,141.1z M456.2,139.5  c0.3,0,0.6-0.1,0.8-0.2c0.2-0.1,0.4-0.3,0.5-0.6c0.1-0.3,0.2-0.6,0.2-0.9s-0.1-0.6-0.2-0.9c-0.1-0.3-0.3-0.5-0.5-0.6  c-0.2-0.1-0.5-0.2-0.8-0.2c-0.3,0-0.5,0.1-0.8,0.2c-0.2,0.1-0.4,0.3-0.5,0.6c-0.1,0.2-0.2,0.5-0.2,0.9s0.1,0.6,0.2,0.9  c0.1,0.2,0.3,0.4,0.5,0.6C455.7,139.4,456,139.5,456.2,139.5z M461.3,141v-6.4h1.8l0.1,1.2l-0.3,0c0.1-0.2,0.2-0.4,0.4-0.6  c0.2-0.2,0.3-0.3,0.5-0.4c0.2-0.1,0.4-0.2,0.6-0.3c0.2-0.1,0.4-0.1,0.6-0.1c0.3,0,0.6,0,0.9,0.1c0.3,0.1,0.5,0.3,0.7,0.5  c0.2,0.2,0.3,0.5,0.5,0.9l-0.3,0l0.1-0.2c0.1-0.2,0.2-0.4,0.4-0.5c0.2-0.2,0.4-0.3,0.6-0.4c0.2-0.1,0.4-0.2,0.6-0.3s0.4-0.1,0.6-0.1  c0.5,0,0.9,0.1,1.3,0.3c0.3,0.2,0.6,0.5,0.8,0.9c0.2,0.4,0.3,0.9,0.3,1.4v3.9h-1.9v-3.7c0-0.3,0-0.5-0.1-0.6  c-0.1-0.2-0.2-0.3-0.3-0.4c-0.1-0.1-0.3-0.1-0.5-0.1c-0.2,0-0.3,0-0.5,0.1c-0.1,0.1-0.3,0.1-0.4,0.2c-0.1,0.1-0.2,0.2-0.2,0.3  s-0.1,0.3-0.1,0.4v3.8h-1.9v-3.7c0-0.2,0-0.4-0.1-0.6c-0.1-0.2-0.2-0.3-0.3-0.4c-0.1-0.1-0.3-0.1-0.5-0.1c-0.2,0-0.3,0-0.5,0.1  c-0.1,0.1-0.3,0.1-0.4,0.2c-0.1,0.1-0.2,0.2-0.2,0.3s-0.1,0.3-0.1,0.4v3.8H461.3z"></path>
<path style="pointer-events: none;" fill="#0A0A0A" d="M395.4,67.5v-1.4h3.9v1.4H395.4z M396.1,71v-8.4h3.5c0.6,0,1.2,0.1,1.7,0.3c0.5,0.2,1,0.5,1.3,0.9  c0.4,0.4,0.7,0.8,0.9,1.3c0.2,0.5,0.3,1.1,0.3,1.7c0,0.6-0.1,1.2-0.3,1.7c-0.2,0.5-0.5,1-0.9,1.3c-0.4,0.4-0.8,0.7-1.3,0.9  c-0.5,0.2-1.1,0.3-1.7,0.3H396.1z M398.1,69.6l-0.3-0.4h1.7c0.3,0,0.6-0.1,0.9-0.2c0.3-0.1,0.5-0.3,0.7-0.5c0.2-0.2,0.3-0.5,0.4-0.8  c0.1-0.3,0.2-0.6,0.2-1s-0.1-0.7-0.2-1c-0.1-0.3-0.3-0.5-0.4-0.8c-0.2-0.2-0.4-0.4-0.7-0.5c-0.3-0.1-0.6-0.2-0.9-0.2h-1.7l0.3-0.4  V69.6z M407.5,71.1c-0.5,0-1-0.1-1.4-0.4c-0.4-0.3-0.7-0.7-1-1.2c-0.2-0.5-0.4-1.1-0.4-1.7c0-0.6,0.1-1.2,0.4-1.7  c0.2-0.5,0.6-0.9,1-1.2c0.4-0.3,0.9-0.4,1.5-0.4c0.3,0,0.6,0,0.8,0.1c0.3,0.1,0.5,0.2,0.7,0.4c0.2,0.2,0.4,0.3,0.5,0.5  c0.1,0.2,0.2,0.4,0.3,0.6l-0.4,0v-1.5h1.9V71h-1.9v-1.5l0.4,0c-0.1,0.2-0.2,0.4-0.3,0.6c-0.1,0.2-0.3,0.4-0.5,0.5  c-0.2,0.2-0.4,0.3-0.7,0.4C408,71.1,407.8,71.1,407.5,71.1z M408,69.5c0.3,0,0.6-0.1,0.8-0.2s0.4-0.3,0.5-0.6  c0.1-0.3,0.2-0.6,0.2-0.9c0-0.3-0.1-0.6-0.2-0.9c-0.1-0.3-0.3-0.5-0.5-0.6c-0.2-0.1-0.5-0.2-0.8-0.2c-0.3,0-0.5,0.1-0.8,0.2  c-0.2,0.1-0.4,0.3-0.5,0.6c-0.1,0.2-0.2,0.5-0.2,0.9c0,0.3,0.1,0.6,0.2,0.9c0.1,0.2,0.3,0.4,0.5,0.6C407.5,69.4,407.7,69.5,408,69.5  z M408.9,63.9l-2.5-1.3l0.9-1.2l2.1,1.7L408.9,63.9z M417.1,71v-8.4h1.8l4.4,6l-0.4-0.1c0-0.3-0.1-0.5-0.1-0.8c0-0.2,0-0.5-0.1-0.7  c0-0.2,0-0.5,0-0.7c0-0.2,0-0.5,0-0.8c0-0.3,0-0.6,0-0.9v-2.1h2V71h-1.8l-4.6-6.2l0.6,0.1c0,0.4,0.1,0.7,0.1,1  c0,0.3,0.1,0.5,0.1,0.7c0,0.2,0,0.4,0,0.6c0,0.2,0,0.3,0,0.5c0,0.2,0,0.3,0,0.5V71H417.1z M428.9,71.1c-0.5,0-1-0.1-1.4-0.4  c-0.4-0.3-0.7-0.7-1-1.2c-0.2-0.5-0.4-1.1-0.4-1.7c0-0.6,0.1-1.2,0.4-1.7c0.2-0.5,0.6-0.9,1-1.2c0.4-0.3,0.9-0.4,1.5-0.4  c0.3,0,0.6,0,0.8,0.1c0.3,0.1,0.5,0.2,0.7,0.4c0.2,0.2,0.4,0.3,0.5,0.5c0.1,0.2,0.2,0.4,0.3,0.6l-0.4,0v-1.5h1.9V71h-1.9v-1.5l0.4,0  c-0.1,0.2-0.2,0.4-0.3,0.6c-0.1,0.2-0.3,0.4-0.5,0.5c-0.2,0.2-0.4,0.3-0.7,0.4C429.5,71.1,429.2,71.1,428.9,71.1z M429.4,69.5  c0.3,0,0.6-0.1,0.8-0.2s0.4-0.3,0.5-0.6c0.1-0.3,0.2-0.6,0.2-0.9c0-0.3-0.1-0.6-0.2-0.9c-0.1-0.3-0.3-0.5-0.5-0.6  c-0.2-0.1-0.5-0.2-0.8-0.2c-0.3,0-0.5,0.1-0.8,0.2c-0.2,0.1-0.4,0.3-0.5,0.6c-0.1,0.2-0.2,0.5-0.2,0.9c0,0.3,0.1,0.6,0.2,0.9  c0.1,0.2,0.3,0.4,0.5,0.6C428.9,69.4,429.1,69.5,429.4,69.5z M429.7,63.9c-0.6,0-1-0.2-1.4-0.5c-0.4-0.3-0.6-0.7-0.7-1.3l1.2-0.1  c0.1,0.3,0.2,0.5,0.4,0.6s0.4,0.2,0.6,0.2c0.2,0,0.4-0.1,0.6-0.2c0.2-0.1,0.3-0.3,0.4-0.6l1.2,0.1c-0.1,0.6-0.4,1-0.7,1.3  S430.2,63.9,429.7,63.9z M430.6,61c-0.2,0-0.3,0-0.5-0.1c-0.2-0.1-0.3-0.1-0.5-0.2c-0.1-0.1-0.2-0.1-0.3-0.1c-0.1,0-0.2,0-0.3,0  c-0.1,0-0.2,0-0.3,0.1c-0.1,0.1-0.1,0.2-0.2,0.3l-1.1-0.2c0-0.4,0.1-0.7,0.4-1c0.2-0.3,0.6-0.4,0.9-0.4c0.1,0,0.3,0,0.4,0.1  c0.2,0,0.3,0.1,0.5,0.2c0.1,0,0.2,0.1,0.3,0.1c0.1,0,0.2,0,0.3,0c0.1,0,0.2,0,0.3-0.1c0.1-0.1,0.1-0.2,0.2-0.3l1.1,0.2  c0,0.3-0.1,0.5-0.2,0.7c-0.1,0.2-0.2,0.4-0.4,0.6C431.1,61,430.9,61,430.6,61z M434.5,71v-6.4h1.8l0.1,1.3l-0.4,0.1  c0.1-0.3,0.2-0.5,0.5-0.8c0.2-0.2,0.5-0.4,0.8-0.6c0.3-0.1,0.7-0.2,1-0.2c0.5,0,0.9,0.1,1.2,0.3c0.3,0.2,0.6,0.5,0.7,0.9  c0.2,0.4,0.3,0.9,0.3,1.4V71h-1.9v-3.8c0-0.3,0-0.5-0.1-0.6c-0.1-0.2-0.2-0.3-0.3-0.4c-0.1-0.1-0.3-0.1-0.5-0.1  c-0.2,0-0.3,0-0.5,0.1c-0.1,0-0.3,0.1-0.4,0.2c-0.1,0.1-0.2,0.2-0.3,0.3c-0.1,0.1-0.1,0.3-0.1,0.4V71h-0.9c-0.2,0-0.4,0-0.6,0  S434.6,71,434.5,71z M445,73.8c-0.5,0-1-0.1-1.6-0.2c-0.5-0.2-0.9-0.3-1.2-0.6l0.7-1.3c0.2,0.1,0.4,0.2,0.6,0.3  c0.2,0.1,0.4,0.2,0.6,0.2c0.2,0,0.5,0.1,0.7,0.1c0.4,0,0.7-0.1,1-0.2c0.3-0.1,0.4-0.3,0.6-0.6c0.1-0.2,0.2-0.5,0.2-0.9v-1.1l0.4,0.1  c-0.1,0.3-0.2,0.5-0.4,0.7c-0.2,0.2-0.5,0.4-0.8,0.5c-0.3,0.1-0.7,0.2-1,0.2c-0.6,0-1.1-0.1-1.5-0.4c-0.4-0.3-0.8-0.6-1.1-1.1  c-0.3-0.5-0.4-1-0.4-1.7c0-0.6,0.1-1.2,0.4-1.7c0.3-0.5,0.6-0.9,1.1-1.2c0.4-0.3,1-0.4,1.5-0.4c0.2,0,0.5,0,0.7,0.1  c0.2,0.1,0.4,0.1,0.6,0.2c0.2,0.1,0.4,0.2,0.5,0.3c0.2,0.1,0.3,0.3,0.4,0.4c0.1,0.1,0.2,0.3,0.2,0.4l-0.4,0.1l0.1-1.4h1.8v5.9  c0,0.5-0.1,1-0.2,1.4c-0.2,0.4-0.4,0.8-0.7,1c-0.3,0.3-0.7,0.5-1.1,0.6C446,73.7,445.5,73.8,445,73.8z M445,69.5  c0.3,0,0.6-0.1,0.8-0.2c0.2-0.1,0.4-0.3,0.5-0.6c0.1-0.2,0.2-0.5,0.2-0.9c0-0.3-0.1-0.6-0.2-0.9c-0.1-0.3-0.3-0.5-0.5-0.6  c-0.2-0.1-0.5-0.2-0.8-0.2c-0.3,0-0.6,0.1-0.8,0.2c-0.2,0.1-0.4,0.3-0.5,0.6c-0.1,0.2-0.2,0.5-0.2,0.9c0,0.3,0.1,0.6,0.2,0.9  c0.1,0.2,0.3,0.4,0.5,0.6C444.5,69.4,444.7,69.5,445,69.5z"></path>
<path style="pointer-events: none;" fill="#0A0A0A" d="M514.4,251.3l-3.2-4.4l1.5-1l3.2,4.3L514.4,251.3z M511.9,250.1c-0.6,0-1.2-0.1-1.7-0.3  c-0.5-0.2-1-0.5-1.4-0.9c-0.4-0.4-0.7-0.9-0.9-1.4s-0.3-1.1-0.3-1.7c0-0.6,0.1-1.2,0.3-1.7s0.5-1,0.9-1.4c0.4-0.4,0.9-0.7,1.4-0.9  c0.5-0.2,1.1-0.3,1.7-0.3s1.2,0.1,1.7,0.3c0.5,0.2,1,0.5,1.4,0.9s0.7,0.9,0.9,1.4c0.2,0.5,0.3,1.1,0.3,1.7c0,0.6-0.1,1.2-0.3,1.7  c-0.2,0.5-0.5,1-0.9,1.4s-0.9,0.7-1.4,0.9C513.1,250,512.5,250.1,511.9,250.1z M511.9,248.2c0.3,0,0.6-0.1,0.9-0.2  c0.3-0.1,0.5-0.3,0.7-0.5c0.2-0.2,0.4-0.5,0.5-0.8c0.1-0.3,0.2-0.6,0.2-1c0-0.4-0.1-0.7-0.2-1c-0.1-0.3-0.3-0.6-0.5-0.8  c-0.2-0.2-0.4-0.4-0.7-0.5c-0.3-0.1-0.6-0.2-0.9-0.2s-0.6,0.1-0.9,0.2c-0.3,0.1-0.5,0.3-0.7,0.5c-0.2,0.2-0.4,0.5-0.5,0.8  c-0.1,0.3-0.2,0.6-0.2,1c0,0.4,0.1,0.7,0.2,1c0.1,0.3,0.3,0.6,0.5,0.8c0.2,0.2,0.4,0.4,0.7,0.5C511.2,248.1,511.5,248.2,511.9,248.2  z M519.8,250.1c-0.5,0-0.9-0.1-1.2-0.3c-0.3-0.2-0.6-0.5-0.8-0.9c-0.2-0.4-0.3-0.8-0.3-1.4v-3.9h1.9v3.7c0,0.3,0,0.5,0.1,0.7  c0.1,0.2,0.2,0.3,0.4,0.4c0.2,0.1,0.4,0.1,0.6,0.1c0.2,0,0.3,0,0.5-0.1c0.1-0.1,0.3-0.1,0.4-0.2c0.1-0.1,0.2-0.2,0.2-0.3  c0.1-0.1,0.1-0.3,0.1-0.4v-3.8h1.9v6.4h-1.8l-0.1-1.3l0.4-0.1c-0.1,0.3-0.3,0.6-0.5,0.8c-0.2,0.2-0.5,0.4-0.8,0.6  C520.4,250.1,520.1,250.1,519.8,250.1z M527.6,250.1c-0.5,0-1-0.1-1.4-0.4c-0.4-0.3-0.7-0.7-1-1.2c-0.2-0.5-0.4-1.1-0.4-1.7  c0-0.6,0.1-1.2,0.4-1.7s0.6-0.9,1-1.2c0.4-0.3,0.9-0.4,1.5-0.4c0.3,0,0.6,0,0.8,0.1c0.3,0.1,0.5,0.2,0.7,0.4  c0.2,0.2,0.4,0.3,0.5,0.5c0.1,0.2,0.2,0.4,0.3,0.6l-0.4,0v-1.5h1.9v6.4h-1.9v-1.5l0.4,0c-0.1,0.2-0.2,0.4-0.3,0.6  c-0.1,0.2-0.3,0.4-0.5,0.5c-0.2,0.2-0.4,0.3-0.7,0.4S527.9,250.1,527.6,250.1z M528.2,248.5c0.3,0,0.6-0.1,0.8-0.2s0.4-0.3,0.5-0.6  c0.1-0.3,0.2-0.6,0.2-0.9s-0.1-0.6-0.2-0.9c-0.1-0.3-0.3-0.5-0.5-0.6c-0.2-0.1-0.5-0.2-0.8-0.2c-0.3,0-0.5,0.1-0.8,0.2  c-0.2,0.1-0.4,0.3-0.5,0.6c-0.1,0.2-0.2,0.5-0.2,0.9s0.1,0.6,0.2,0.9c0.1,0.2,0.3,0.4,0.5,0.6C527.6,248.4,527.9,248.5,528.2,248.5z   M528.1,242.9c-0.1-0.1-0.1-0.1-0.2-0.2c0-0.1-0.1-0.2-0.1-0.3c0-0.1,0-0.2,0.1-0.3c0.1-0.1,0.2-0.2,0.3-0.3  c0.1-0.1,0.2-0.1,0.3-0.2c0.1-0.1,0.1-0.1,0.1-0.2c0-0.1,0-0.1-0.1-0.2c-0.1,0-0.1-0.1-0.3-0.1c-0.2,0-0.3,0-0.5,0.1  c-0.2,0-0.4,0.1-0.5,0.2l-0.3-1c0.2-0.1,0.4-0.2,0.6-0.3c0.3-0.1,0.5-0.1,0.8-0.1c0.5,0,0.8,0.1,1.1,0.3c0.3,0.2,0.4,0.5,0.4,0.8  c0,0.3-0.1,0.5-0.2,0.6s-0.2,0.2-0.4,0.3c-0.1,0.1-0.2,0.1-0.3,0.2c-0.1,0.1-0.1,0.1-0.1,0.2c0,0,0,0.1,0,0.1c0,0,0,0,0,0.1  L528.1,242.9z M533.2,250v-6.4h1.8l0.1,1.3l-0.4,0.1c0.1-0.3,0.2-0.5,0.5-0.8c0.2-0.2,0.5-0.4,0.8-0.6c0.3-0.1,0.7-0.2,1-0.2  c0.5,0,0.9,0.1,1.2,0.3c0.3,0.2,0.6,0.5,0.7,0.9c0.2,0.4,0.3,0.9,0.3,1.4v3.9h-1.9v-3.8c0-0.3,0-0.5-0.1-0.6s-0.2-0.3-0.3-0.4  c-0.1-0.1-0.3-0.1-0.5-0.1c-0.2,0-0.3,0-0.5,0.1c-0.1,0-0.3,0.1-0.4,0.2c-0.1,0.1-0.2,0.2-0.3,0.3c-0.1,0.1-0.1,0.3-0.1,0.4v3.8  h-0.9c-0.2,0-0.4,0-0.6,0S533.3,250,533.2,250z M543.7,252.8c-0.5,0-1-0.1-1.6-0.2c-0.5-0.2-0.9-0.3-1.2-0.6l0.7-1.3  c0.2,0.1,0.4,0.2,0.6,0.3c0.2,0.1,0.4,0.2,0.6,0.2c0.2,0,0.5,0.1,0.7,0.1c0.4,0,0.7-0.1,1-0.2c0.3-0.1,0.4-0.3,0.6-0.6  c0.1-0.2,0.2-0.5,0.2-0.9v-1.1l0.4,0.1c-0.1,0.3-0.2,0.5-0.4,0.7c-0.2,0.2-0.5,0.4-0.8,0.5c-0.3,0.1-0.7,0.2-1,0.2  c-0.6,0-1.1-0.1-1.5-0.4c-0.4-0.3-0.8-0.6-1.1-1.1c-0.3-0.5-0.4-1-0.4-1.7c0-0.6,0.1-1.2,0.4-1.7c0.3-0.5,0.6-0.9,1.1-1.2  c0.4-0.3,1-0.4,1.5-0.4c0.2,0,0.5,0,0.7,0.1c0.2,0.1,0.4,0.1,0.6,0.2c0.2,0.1,0.4,0.2,0.5,0.3c0.2,0.1,0.3,0.3,0.4,0.4  c0.1,0.1,0.2,0.3,0.2,0.4l-0.4,0.1l0.1-1.4h1.8v5.9c0,0.5-0.1,1-0.2,1.4c-0.2,0.4-0.4,0.8-0.7,1c-0.3,0.3-0.7,0.5-1.1,0.6  C544.7,252.7,544.3,252.8,543.7,252.8z M543.8,248.5c0.3,0,0.6-0.1,0.8-0.2c0.2-0.1,0.4-0.3,0.5-0.6c0.1-0.2,0.2-0.5,0.2-0.9  s-0.1-0.6-0.2-0.9c-0.1-0.3-0.3-0.5-0.5-0.6c-0.2-0.1-0.5-0.2-0.8-0.2c-0.3,0-0.6,0.1-0.8,0.2c-0.2,0.1-0.4,0.3-0.5,0.6  c-0.1,0.2-0.2,0.5-0.2,0.9s0.1,0.6,0.2,0.9c0.1,0.2,0.3,0.4,0.5,0.6C543.2,248.4,543.5,248.5,543.8,248.5z M552.9,250v-8.4h1.8  l4.4,6l-0.4-0.1c0-0.3-0.1-0.5-0.1-0.8c0-0.2,0-0.5-0.1-0.7c0-0.2,0-0.5,0-0.7c0-0.2,0-0.5,0-0.8c0-0.3,0-0.6,0-0.9v-2.1h2v8.4h-1.8  l-4.6-6.2l0.6,0.1c0,0.4,0.1,0.7,0.1,1c0,0.3,0.1,0.5,0.1,0.7c0,0.2,0,0.4,0,0.6c0,0.2,0,0.3,0,0.5c0,0.2,0,0.3,0,0.5v2.8H552.9z   M565.3,252.8c-0.5,0-1-0.1-1.6-0.2c-0.5-0.2-0.9-0.3-1.2-0.6l0.7-1.3c0.2,0.1,0.4,0.2,0.6,0.3c0.2,0.1,0.4,0.2,0.6,0.2  c0.2,0,0.5,0.1,0.7,0.1c0.4,0,0.7-0.1,1-0.2c0.3-0.1,0.4-0.3,0.6-0.6c0.1-0.2,0.2-0.5,0.2-0.9v-1.1l0.4,0.1  c-0.1,0.3-0.2,0.5-0.4,0.7c-0.2,0.2-0.5,0.4-0.8,0.5c-0.3,0.1-0.7,0.2-1,0.2c-0.6,0-1.1-0.1-1.5-0.4c-0.4-0.3-0.8-0.6-1.1-1.1  c-0.3-0.5-0.4-1-0.4-1.7c0-0.6,0.1-1.2,0.4-1.7c0.3-0.5,0.6-0.9,1.1-1.2c0.4-0.3,1-0.4,1.5-0.4c0.2,0,0.5,0,0.7,0.1  c0.2,0.1,0.4,0.1,0.6,0.2c0.2,0.1,0.4,0.2,0.5,0.3c0.2,0.1,0.3,0.3,0.4,0.4c0.1,0.1,0.2,0.3,0.2,0.4l-0.4,0.1l0.1-1.4h1.8v5.9  c0,0.5-0.1,1-0.2,1.4c-0.2,0.4-0.4,0.8-0.7,1c-0.3,0.3-0.7,0.5-1.1,0.6C566.3,252.7,565.8,252.8,565.3,252.8z M565.3,248.5  c0.3,0,0.6-0.1,0.8-0.2c0.2-0.1,0.4-0.3,0.5-0.6c0.1-0.2,0.2-0.5,0.2-0.9s-0.1-0.6-0.2-0.9c-0.1-0.3-0.3-0.5-0.5-0.6  c-0.2-0.1-0.5-0.2-0.8-0.2c-0.3,0-0.6,0.1-0.8,0.2c-0.2,0.1-0.4,0.3-0.5,0.6c-0.1,0.2-0.2,0.5-0.2,0.9s0.1,0.6,0.2,0.9  c0.1,0.2,0.3,0.4,0.5,0.6C564.8,248.4,565,248.5,565.3,248.5z M572.7,250.1c-0.5,0-1-0.1-1.4-0.4c-0.4-0.3-0.7-0.7-1-1.2  c-0.2-0.5-0.4-1.1-0.4-1.7c0-0.6,0.1-1.2,0.4-1.7c0.2-0.5,0.6-0.9,1-1.2c0.4-0.3,0.9-0.4,1.5-0.4c0.3,0,0.6,0,0.8,0.1  c0.3,0.1,0.5,0.2,0.7,0.4c0.2,0.2,0.4,0.3,0.5,0.5c0.1,0.2,0.2,0.4,0.3,0.6l-0.4,0v-1.5h1.9v6.4h-1.9v-1.5l0.4,0  c-0.1,0.2-0.2,0.4-0.3,0.6c-0.1,0.2-0.3,0.4-0.5,0.5c-0.2,0.2-0.4,0.3-0.7,0.4S573,250.1,572.7,250.1z M573.3,248.5  c0.3,0,0.6-0.1,0.8-0.2c0.2-0.1,0.4-0.3,0.5-0.6c0.1-0.3,0.2-0.6,0.2-0.9s-0.1-0.6-0.2-0.9c-0.1-0.3-0.3-0.5-0.5-0.6  c-0.2-0.1-0.5-0.2-0.8-0.2c-0.3,0-0.5,0.1-0.8,0.2c-0.2,0.1-0.4,0.3-0.5,0.6c-0.1,0.2-0.2,0.5-0.2,0.9s0.1,0.6,0.2,0.9  c0.1,0.2,0.3,0.4,0.5,0.6C572.7,248.4,573,248.5,573.3,248.5z M574.3,242.6c-0.1,0-0.3,0-0.4-0.1c-0.1,0-0.3-0.1-0.5-0.3  c-0.1-0.1-0.2-0.2-0.3-0.2c-0.1,0-0.2-0.1-0.2-0.1c-0.1,0-0.2,0-0.3,0.1c-0.1,0.1-0.1,0.2-0.2,0.4l-1.1-0.2c0-0.4,0.1-0.8,0.4-1.2  c0.2-0.3,0.6-0.5,1-0.5c0.1,0,0.3,0,0.4,0.1s0.3,0.1,0.5,0.3c0.1,0.1,0.2,0.2,0.3,0.2c0.1,0.1,0.2,0.1,0.3,0.1c0.1,0,0.2,0,0.3-0.1  c0.1-0.1,0.1-0.2,0.2-0.4l1.1,0.2c0,0.3-0.1,0.5-0.2,0.8c-0.1,0.2-0.3,0.4-0.5,0.6C574.8,242.6,574.6,242.6,574.3,242.6z M578.4,250  v-6.4h1.9v6.4H578.4z M579.4,242.4c-0.4,0-0.6-0.1-0.9-0.3c-0.2-0.2-0.3-0.4-0.3-0.7c0-0.3,0.1-0.5,0.3-0.7c0.2-0.2,0.5-0.3,0.8-0.3  c0.4,0,0.6,0.1,0.8,0.3c0.2,0.2,0.3,0.4,0.3,0.7c0,0.3-0.1,0.5-0.3,0.7C580,242.3,579.7,242.4,579.4,242.4z"></path>
<path style="pointer-events: none;" fill="#0A0A0A" d="M564.1,384v-8.4h3.7c0.6,0,1.1,0.1,1.5,0.3c0.4,0.2,0.7,0.4,0.9,0.7c0.2,0.3,0.3,0.7,0.3,1.1  c0,0.5-0.1,0.9-0.4,1.2c-0.2,0.3-0.6,0.5-1,0.7l0-0.2c0.4,0.1,0.7,0.2,1,0.4c0.3,0.2,0.5,0.4,0.6,0.7c0.2,0.3,0.2,0.6,0.2,1  c0,0.4-0.1,0.8-0.2,1.1c-0.1,0.3-0.4,0.6-0.6,0.8c-0.3,0.2-0.6,0.4-1,0.5c-0.4,0.1-0.8,0.2-1.2,0.2H564.1z M566,382.3h1.8  c0.2,0,0.4,0,0.6-0.1c0.2-0.1,0.3-0.2,0.4-0.3c0.1-0.1,0.1-0.3,0.1-0.5c0-0.2,0-0.3-0.1-0.5c-0.1-0.1-0.2-0.2-0.4-0.3  c-0.2-0.1-0.4-0.1-0.6-0.1H566V382.3z M566,379h1.5c0.2,0,0.4,0,0.5-0.1c0.2-0.1,0.3-0.2,0.3-0.3c0.1-0.1,0.1-0.3,0.1-0.5  c0-0.3-0.1-0.5-0.3-0.6c-0.2-0.2-0.4-0.2-0.8-0.2H566V379z M572.2,384v-6.4h1.9v6.4H572.2z M573.8,376.9l-2.5-1.3l0.9-1.2l2.1,1.7  L573.8,376.9z M575.7,384v-6.4h1.8l0.1,1.3l-0.4,0.1c0.1-0.3,0.2-0.5,0.5-0.8c0.2-0.2,0.5-0.4,0.8-0.6c0.3-0.1,0.7-0.2,1-0.2  c0.5,0,0.9,0.1,1.2,0.3c0.3,0.2,0.6,0.5,0.7,0.9c0.2,0.4,0.3,0.9,0.3,1.4v3.9h-1.9v-3.8c0-0.3,0-0.5-0.1-0.6  c-0.1-0.2-0.2-0.3-0.3-0.4c-0.1-0.1-0.3-0.1-0.5-0.1c-0.2,0-0.3,0-0.5,0.1c-0.1,0-0.3,0.1-0.4,0.2c-0.1,0.1-0.2,0.2-0.3,0.3  c-0.1,0.1-0.1,0.3-0.1,0.4v3.8h-0.9c-0.2,0-0.4,0-0.6,0C576,384,575.8,384,575.7,384z M583.4,384v-8.9h1.9v3.8l-0.4,0.1  c0.1-0.3,0.2-0.5,0.5-0.8c0.2-0.2,0.5-0.4,0.8-0.6c0.3-0.1,0.7-0.2,1-0.2c0.5,0,0.9,0.1,1.2,0.3c0.3,0.2,0.6,0.5,0.7,0.9  c0.2,0.4,0.3,0.9,0.3,1.4v3.9h-1.9v-3.8c0-0.3,0-0.5-0.1-0.6c-0.1-0.2-0.2-0.3-0.3-0.4c-0.1-0.1-0.3-0.1-0.5-0.1  c-0.2,0-0.3,0-0.5,0.1c-0.1,0-0.3,0.1-0.4,0.2c-0.1,0.1-0.2,0.2-0.3,0.3c-0.1,0.1-0.1,0.3-0.1,0.4v3.8h-0.9c-0.2,0-0.4,0-0.6,0  S583.5,384,583.4,384z M594.4,380.5v-1.4h3.9v1.4H594.4z M595,384v-8.4h3.5c0.6,0,1.2,0.1,1.7,0.3c0.5,0.2,1,0.5,1.3,0.9  c0.4,0.4,0.7,0.8,0.9,1.3s0.3,1.1,0.3,1.7s-0.1,1.2-0.3,1.7c-0.2,0.5-0.5,1-0.9,1.3c-0.4,0.4-0.8,0.7-1.3,0.9  c-0.5,0.2-1.1,0.3-1.7,0.3H595z M597.1,382.6l-0.3-0.4h1.7c0.3,0,0.6-0.1,0.9-0.2c0.3-0.1,0.5-0.3,0.7-0.5c0.2-0.2,0.3-0.5,0.4-0.8  s0.2-0.6,0.2-1c0-0.4-0.1-0.7-0.2-1c-0.1-0.3-0.3-0.5-0.4-0.8c-0.2-0.2-0.4-0.4-0.7-0.5c-0.3-0.1-0.6-0.2-0.9-0.2h-1.7l0.3-0.4  V382.6z M604.2,384v-6.4h1.9v6.4H604.2z M605.2,376.4c-0.4,0-0.6-0.1-0.9-0.3c-0.2-0.2-0.3-0.4-0.3-0.7c0-0.3,0.1-0.5,0.3-0.7  s0.5-0.3,0.8-0.3c0.4,0,0.6,0.1,0.8,0.3c0.2,0.2,0.3,0.4,0.3,0.7c0,0.3-0.1,0.5-0.3,0.7C605.8,376.3,605.5,376.4,605.2,376.4z   M605.2,386.7c-0.4,0-0.7-0.1-0.9-0.3c-0.2-0.2-0.3-0.4-0.3-0.7c0-0.3,0.1-0.6,0.3-0.7c0.2-0.2,0.5-0.3,0.9-0.3  c0.4,0,0.7,0.1,0.9,0.3c0.2,0.2,0.3,0.4,0.3,0.8c0,0.3-0.1,0.5-0.3,0.7C605.8,386.6,605.5,386.7,605.2,386.7z M607.9,384v-6.4h1.8  l0.1,1.3l-0.4,0.1c0.1-0.3,0.2-0.5,0.5-0.8c0.2-0.2,0.5-0.4,0.8-0.6c0.3-0.1,0.7-0.2,1-0.2c0.5,0,0.9,0.1,1.2,0.3  c0.3,0.2,0.6,0.5,0.7,0.9c0.2,0.4,0.3,0.9,0.3,1.4v3.9H612v-3.8c0-0.3,0-0.5-0.1-0.6c-0.1-0.2-0.2-0.3-0.3-0.4  c-0.1-0.1-0.3-0.1-0.5-0.1c-0.2,0-0.3,0-0.5,0.1c-0.1,0-0.3,0.1-0.4,0.2c-0.1,0.1-0.2,0.2-0.3,0.3c-0.1,0.1-0.1,0.3-0.1,0.4v3.8  h-0.9c-0.2,0-0.4,0-0.6,0C608.2,384,608,384,607.9,384z M615.5,384v-8.9h1.9v3.8l-0.4,0.1c0.1-0.3,0.2-0.5,0.5-0.8  c0.2-0.2,0.5-0.4,0.8-0.6c0.3-0.1,0.7-0.2,1-0.2c0.5,0,0.9,0.1,1.2,0.3c0.3,0.2,0.6,0.5,0.7,0.9c0.2,0.4,0.3,0.9,0.3,1.4v3.9h-1.9  v-3.8c0-0.3,0-0.5-0.1-0.6c-0.1-0.2-0.2-0.3-0.3-0.4c-0.1-0.1-0.3-0.1-0.5-0.1c-0.2,0-0.3,0-0.5,0.1c-0.1,0-0.3,0.1-0.4,0.2  c-0.1,0.1-0.2,0.2-0.3,0.3c-0.1,0.1-0.1,0.3-0.1,0.4v3.8h-0.9c-0.2,0-0.4,0-0.6,0C615.8,384,615.6,384,615.5,384z"></path>
<path style="pointer-events: none;" fill="#0A0A0A" d="M583.1,543v-8.4h3.6c0.5,0,1,0.1,1.4,0.4c0.4,0.2,0.7,0.6,1,1c0.2,0.4,0.4,0.9,0.4,1.4c0,0.5-0.1,1-0.4,1.5  c-0.2,0.4-0.6,0.8-1,1c-0.4,0.2-0.9,0.4-1.4,0.4h-1.6v2.8H583.1z M585.1,538.4h1.3c0.2,0,0.3,0,0.5-0.1s0.3-0.2,0.3-0.4  s0.1-0.3,0.1-0.5c0-0.2,0-0.4-0.1-0.5c-0.1-0.1-0.2-0.3-0.3-0.3c-0.1-0.1-0.3-0.1-0.5-0.1h-1.3V538.4z M590.8,543v-8.9h1.9v3.8  l-0.4,0.1c0.1-0.3,0.2-0.5,0.5-0.8c0.2-0.2,0.5-0.4,0.8-0.6c0.3-0.1,0.7-0.2,1-0.2c0.5,0,0.9,0.1,1.2,0.3c0.3,0.2,0.6,0.5,0.7,0.9  c0.2,0.4,0.3,0.9,0.3,1.4v3.9h-1.9v-3.8c0-0.3,0-0.5-0.1-0.6c-0.1-0.2-0.2-0.3-0.3-0.4c-0.1-0.1-0.3-0.1-0.5-0.1  c-0.2,0-0.3,0-0.5,0.1c-0.1,0-0.3,0.1-0.4,0.2c-0.1,0.1-0.2,0.2-0.3,0.3c-0.1,0.1-0.1,0.3-0.1,0.4v3.8h-0.9c-0.2,0-0.4,0-0.6,0  S590.9,543,590.8,543z M600.6,543.1c-0.5,0-0.9-0.1-1.2-0.3c-0.3-0.2-0.6-0.5-0.8-0.9c-0.2-0.4-0.3-0.8-0.3-1.4v-3.9h1.9v3.7  c0,0.3,0,0.5,0.1,0.7c0.1,0.2,0.2,0.3,0.4,0.4c0.2,0.1,0.4,0.1,0.6,0.1c0.2,0,0.3,0,0.5-0.1c0.1-0.1,0.3-0.1,0.4-0.2  c0.1-0.1,0.2-0.2,0.2-0.3c0.1-0.1,0.1-0.3,0.1-0.4v-3.8h1.9v6.4h-1.8l-0.1-1.3l0.4-0.1c-0.1,0.3-0.3,0.6-0.5,0.8  c-0.2,0.2-0.5,0.4-0.8,0.6C601.3,543.1,600.9,543.1,600.6,543.1z M600.5,535.9l-0.6-0.9l2.1-1.7l0.9,1.3L600.5,535.9z M612.3,543  v-4.2l0.1,0.6l-3.4-4.8h2.3l2.6,3.7l-1.1,0l2.3-3.7h2.2l-3.3,4.9l0.2-0.8v4.3H612.3z M620.3,543.1c-0.7,0-1.3-0.1-1.8-0.4  c-0.5-0.3-0.9-0.7-1.2-1.2c-0.3-0.5-0.4-1.1-0.4-1.7c0-0.5,0.1-0.9,0.2-1.3c0.2-0.4,0.4-0.8,0.7-1.1c0.3-0.3,0.6-0.5,1-0.7  c0.4-0.2,0.8-0.3,1.3-0.3c0.4,0,0.9,0.1,1.2,0.2c0.4,0.2,0.7,0.4,1,0.7c0.3,0.3,0.5,0.6,0.6,1c0.1,0.4,0.2,0.8,0.2,1.3l0,0.5H618  l-0.3-1.1h3.8l-0.2,0.2v-0.2c0-0.2-0.1-0.4-0.2-0.5c-0.1-0.2-0.2-0.3-0.4-0.4c-0.2-0.1-0.4-0.1-0.6-0.1c-0.3,0-0.6,0.1-0.8,0.2  c-0.2,0.1-0.4,0.3-0.5,0.5c-0.1,0.2-0.2,0.5-0.2,0.9c0,0.4,0.1,0.7,0.2,0.9c0.2,0.3,0.4,0.5,0.6,0.6c0.3,0.1,0.6,0.2,1,0.2  c0.3,0,0.5,0,0.7-0.1c0.2-0.1,0.4-0.2,0.7-0.4l0.9,1.3c-0.2,0.2-0.5,0.4-0.8,0.5c-0.3,0.1-0.6,0.2-0.9,0.3  C620.9,543.1,620.6,543.1,620.3,543.1z M618.5,535.8l-0.7-0.6l1.7-1.5h1.2l1.7,1.5l-0.7,0.6l-1.8-1h0.4L618.5,535.8z M624.3,543  v-6.4h1.8l0.1,1.3l-0.4,0.1c0.1-0.3,0.2-0.5,0.5-0.8c0.2-0.2,0.5-0.4,0.8-0.6c0.3-0.1,0.7-0.2,1-0.2c0.5,0,0.9,0.1,1.2,0.3  c0.3,0.2,0.6,0.5,0.7,0.9c0.2,0.4,0.3,0.9,0.3,1.4v3.9h-1.9v-3.8c0-0.3,0-0.5-0.1-0.6c-0.1-0.2-0.2-0.3-0.3-0.4  c-0.1-0.1-0.3-0.1-0.5-0.1c-0.2,0-0.3,0-0.5,0.1c-0.1,0-0.3,0.1-0.4,0.2c-0.1,0.1-0.2,0.2-0.3,0.3c-0.1,0.1-0.1,0.3-0.1,0.4v3.8  h-0.9c-0.2,0-0.4,0-0.6,0C624.5,543,624.4,543,624.3,543z"></path>
<path style="pointer-events: none;" fill="#0A0A0A" d="M564.5,675.5l-0.5-1.7l4.2-4.2h2.4L564.5,675.5z M563.1,678v-8.4h2v8.4H563.1z M568.4,678l-3.1-4.1l1.4-1.2  l4.1,5.3H568.4z M571.7,678v-8.9h1.9v3.8l-0.4,0.1c0.1-0.3,0.2-0.5,0.5-0.8c0.2-0.2,0.5-0.4,0.8-0.6c0.3-0.1,0.7-0.2,1-0.2  c0.5,0,0.9,0.1,1.2,0.3c0.3,0.2,0.6,0.5,0.7,0.9c0.2,0.4,0.3,0.9,0.3,1.4v3.9h-1.9v-3.8c0-0.3,0-0.5-0.1-0.6  c-0.1-0.2-0.2-0.3-0.3-0.4c-0.1-0.1-0.3-0.1-0.5-0.1c-0.2,0-0.3,0-0.5,0.1c-0.1,0-0.3,0.1-0.4,0.2c-0.1,0.1-0.2,0.2-0.3,0.3  c-0.1,0.1-0.1,0.3-0.1,0.4v3.8h-0.9c-0.2,0-0.4,0-0.6,0C572,678,571.8,678,571.7,678z M581.7,678.1c-0.5,0-1-0.1-1.4-0.4  c-0.4-0.3-0.7-0.7-1-1.2c-0.2-0.5-0.4-1.1-0.4-1.7c0-0.6,0.1-1.2,0.4-1.7c0.2-0.5,0.6-0.9,1-1.2c0.4-0.3,0.9-0.4,1.5-0.4  c0.3,0,0.6,0,0.8,0.1c0.3,0.1,0.5,0.2,0.7,0.4c0.2,0.2,0.4,0.3,0.5,0.5c0.1,0.2,0.2,0.4,0.3,0.6l-0.4,0v-1.5h1.9v6.4h-1.9v-1.5  l0.4,0c-0.1,0.2-0.2,0.4-0.3,0.6s-0.3,0.4-0.5,0.5c-0.2,0.2-0.4,0.3-0.7,0.4C582.3,678.1,582,678.1,581.7,678.1z M582.2,676.5  c0.3,0,0.6-0.1,0.8-0.2c0.2-0.1,0.4-0.3,0.5-0.6c0.1-0.3,0.2-0.6,0.2-0.9s-0.1-0.6-0.2-0.9c-0.1-0.3-0.3-0.5-0.5-0.6  c-0.2-0.1-0.5-0.2-0.8-0.2c-0.3,0-0.5,0.1-0.8,0.2c-0.2,0.1-0.4,0.3-0.5,0.6c-0.1,0.2-0.2,0.5-0.2,0.9s0.1,0.6,0.2,0.9  c0.1,0.2,0.3,0.4,0.5,0.6C581.7,676.4,581.9,676.5,582.2,676.5z M581.5,670.9l-0.6-0.9l2.1-1.7l0.9,1.3L581.5,670.9z M587.2,678  v-6.4h1.8l0.1,1.3l-0.4,0.1c0.1-0.3,0.2-0.5,0.5-0.8c0.2-0.2,0.5-0.4,0.8-0.6c0.3-0.1,0.7-0.2,1-0.2c0.5,0,0.9,0.1,1.2,0.3  c0.3,0.2,0.6,0.5,0.7,0.9c0.2,0.4,0.3,0.9,0.3,1.4v3.9h-1.9v-3.8c0-0.3,0-0.5-0.1-0.6c-0.1-0.2-0.2-0.3-0.3-0.4  c-0.1-0.1-0.3-0.1-0.5-0.1c-0.2,0-0.3,0-0.5,0.1c-0.1,0-0.3,0.1-0.4,0.2c-0.1,0.1-0.2,0.2-0.3,0.3c-0.1,0.1-0.1,0.3-0.1,0.4v3.8  h-0.9c-0.2,0-0.4,0-0.6,0S587.4,678,587.2,678z M594.9,678v-8.9h1.9v3.8l-0.4,0.1c0.1-0.3,0.2-0.5,0.5-0.8c0.2-0.2,0.5-0.4,0.8-0.6  c0.3-0.1,0.7-0.2,1-0.2c0.5,0,0.9,0.1,1.2,0.3c0.3,0.2,0.6,0.5,0.7,0.9c0.2,0.4,0.3,0.9,0.3,1.4v3.9h-1.9v-3.8c0-0.3,0-0.5-0.1-0.6  c-0.1-0.2-0.2-0.3-0.3-0.4c-0.1-0.1-0.3-0.1-0.5-0.1c-0.2,0-0.3,0-0.5,0.1c-0.1,0-0.3,0.1-0.4,0.2c-0.1,0.1-0.2,0.2-0.3,0.3  c-0.1,0.1-0.1,0.3-0.1,0.4v3.8h-0.9c-0.2,0-0.4,0-0.6,0C595.1,678,595,678,594.9,678z M611.7,678v-8.4h2v8.4H611.7z M606.5,678v-8.4  h2v8.4H606.5z M607.3,674.7l0-1.8h5.5v1.8H607.3z M618.7,678.1c-0.7,0-1.3-0.1-1.8-0.4c-0.5-0.3-0.9-0.7-1.2-1.2  c-0.3-0.5-0.4-1.1-0.4-1.7c0-0.6,0.1-1.2,0.4-1.7c0.3-0.5,0.7-0.9,1.2-1.2c0.5-0.3,1.1-0.4,1.8-0.4s1.3,0.1,1.8,0.4  c0.5,0.3,0.9,0.7,1.2,1.2c0.3,0.5,0.4,1.1,0.4,1.7c0,0.6-0.1,1.2-0.4,1.7c-0.3,0.5-0.7,0.9-1.2,1.2  C619.9,678,619.3,678.1,618.7,678.1z M618.7,676.5c0.3,0,0.5-0.1,0.8-0.2c0.2-0.1,0.4-0.3,0.5-0.6c0.1-0.2,0.2-0.5,0.2-0.9  c0-0.3-0.1-0.6-0.2-0.9c-0.1-0.3-0.3-0.5-0.5-0.6c-0.2-0.1-0.5-0.2-0.8-0.2s-0.5,0.1-0.8,0.2c-0.2,0.1-0.4,0.3-0.5,0.6  c-0.1,0.2-0.2,0.5-0.2,0.9c0,0.3,0.1,0.6,0.2,0.9c0.1,0.2,0.3,0.4,0.5,0.6C618.1,676.4,618.4,676.5,618.7,676.5z M625.7,678.1  c-0.5,0-1-0.1-1.4-0.4c-0.4-0.3-0.7-0.7-1-1.2c-0.2-0.5-0.4-1.1-0.4-1.7c0-0.6,0.1-1.2,0.4-1.7c0.2-0.5,0.6-0.9,1-1.2  c0.4-0.3,0.9-0.4,1.5-0.4c0.3,0,0.6,0,0.8,0.1c0.3,0.1,0.5,0.2,0.7,0.4c0.2,0.2,0.4,0.3,0.5,0.5c0.1,0.2,0.2,0.4,0.3,0.6l-0.4,0  v-1.5h1.9v6.4h-1.9v-1.5l0.4,0c-0.1,0.2-0.2,0.4-0.3,0.6c-0.1,0.2-0.3,0.4-0.5,0.5c-0.2,0.2-0.4,0.3-0.7,0.4S626,678.1,625.7,678.1z   M626.2,676.5c0.3,0,0.6-0.1,0.8-0.2s0.4-0.3,0.5-0.6c0.1-0.3,0.2-0.6,0.2-0.9s-0.1-0.6-0.2-0.9c-0.1-0.3-0.3-0.5-0.5-0.6  c-0.2-0.1-0.5-0.2-0.8-0.2c-0.3,0-0.5,0.1-0.8,0.2c-0.2,0.1-0.4,0.3-0.5,0.6c-0.1,0.2-0.2,0.5-0.2,0.9s0.1,0.6,0.2,0.9  c0.1,0.2,0.3,0.4,0.5,0.6C625.7,676.4,626,676.5,626.2,676.5z M627.2,670.9l-2.5-1.3l0.9-1.2l2.1,1.7L627.2,670.9z"></path>
<path fill="#FDBDC4" stroke="#474747" stroke-width="0.2" d="M641.5,758.8c0.2,0.5-0.5,1.5-0.7,1.9c-0.2,0.3-0.6,0.9-0.9,1.2  c-0.3,0.3-1.1,0.6-1.3,0.9c-0.3,0.4,0,1.7-0.4,2.1c-0.2,0.2-0.9,0.1-1.2,0c-0.4-0.2-0.9-1.2-1.1-1.7c-0.1-0.4,0.3-1.3,0-1.6  c-0.2-0.2-1.1-0.1-1.3,0.1c-0.2,0.2-0.2,0.8-0.2,1.1c-0.1,0.4-0.2,1.2-0.3,1.6c-0.2,0.6-1,1.6-1.3,2.2c-0.2,0.5-0.2,1.6-0.5,2.1  c-0.3,0.5-1.4,0.9-1.8,1.3c-0.4,0.4-1.2,1.4-1.3,2c-0.1,0.4,0.5,1.2,0.5,1.6c0,0.6-0.4,1.9-0.6,2.5c-0.3,0.8-1,2.4-1.3,3.2  c-0.2,0.5-0.5,1.7-0.8,2.2c-0.2,0.4-1,1.1-1.2,1.5c-0.2,0.4-0.1,1.2-0.2,1.5c-0.2,0.4-0.7,1.2-1,1.4c-0.3,0.2-1,0.3-1.3,0.2  c-0.4-0.1-0.8-1-1.2-1.2c-0.5-0.3-1.6-0.4-2.1-0.7c-0.3-0.2-0.8-1-1.1-1.2c-0.6-0.3-2.2-0.4-2.7,0.1c-0.3,0.2-0.1,1-0.3,1.3  c-0.2,0.2-0.8,0.4-1,0.4c-0.3-0.1-0.7-0.7-0.9-0.8c-0.4-0.3-1.1-0.9-1.5-1c-0.5-0.2-1.8-0.4-2.3-0.2c-0.6,0.3-1.1,1.5-1.3,2.1  c-0.2,0.6-0.4,1.9-0.3,2.5c0.1,0.7,1,1.7,1.3,2.3c0.2,0.4,0.8,1.1,0.8,1.5c0,0.5-0.5,1.3-0.6,1.7c-0.2,0.6-0.7,1.7-0.7,2.2  c0,0.5,0.8,1.4,0.8,1.9c0.1,0.5-0.3,1.5-0.4,2c-0.2,0.7-0.5,2-0.7,2.7c-0.3,0.7-1.4,2.4-1.6,2.6c-0.2,0.1-1.1-0.2-1.4,0  c-0.4,0.3-0.1,1.4-0.1,1.9c0,0.3,0.2,0.9,0.4,1.2c0.2,0.5,0.6,1.3,0.7,1.7c0.1,0.4,0.4,1.3,0.2,1.6c-0.2,0.4-1.2,0.7-1.4,1.1  c-0.2,0.4-0.2,1.4-0.1,1.9c0.1,0.3,0.6,0.8,0.7,1.1c0.2,0.5-0.2,1.7,0,2.2c0.2,0.3,1.1,0.5,1.2,0.8c0.1,0.4,0,1.2-0.2,1.5  c-0.3,0.3-1.1,0.3-1.5,0.4c-0.4,0-1.3-0.2-1.6-0.1c-0.4,0.1-1,0.7-1.2,1c-0.3,0.5-0.1,1.6-0.4,2c-0.4,0.6-1.8,1.2-2.4,1.5  c-0.3,0.1-0.9,0.1-1.2,0.2c-0.5,0.2-1.4,1-1.7,1.4c-0.3,0.5-0.2,1.7-0.5,2.1c-0.3,0.4-1.3,1.2-1.7,1c-0.4-0.1-0.7-1.1-0.8-1.5  c-0.1-0.4,0.1-1.3-0.1-1.6c-0.3-0.4-1.2-0.9-1.6-0.9c-0.5,0-1.4,0.8-1.9,0.8c-0.4,0-1.4-0.1-1.6-0.5c-0.3-0.3,0.1-1.4-0.2-1.7  c-0.3-0.4-1.4-0.7-1.8-0.9c-0.3-0.1-0.8-0.2-1.2-0.3c0.1-0.6,0.2-1.4,0-1.7c-0.5-1-2.8-1.6-3.6-2.3c-0.4-0.4-1.1-1.3-1.6-1.6  c-1.2-0.7-4.9-1.4-5.3-1.4c-0.4,0-3.2-0.4-4-1.1c-0.8-0.7-0.7-3.2-1.4-4c-0.6-0.7-2.8-0.8-3.5-1.4c-1.2-1-1.8-4.5-3.1-5.4  c-1.4-0.9-5.2,0.4-6.5-0.6c-0.9-0.6-1.6-3.8-1.6-4.1s-2.2-0.7-2.8-1.2c-0.7-0.6-0.8-2.8-1.4-3.5c-0.7-0.7-2.9-0.9-3.5-1.7  c-0.5-0.7,0-2.8-0.7-3.4c-0.6-0.5-2.5,0-3.3,0c-1,0-3-0.4-3.9,0c-1.1,0.4-2.6,2.4-3.6,3.4c-0.2-0.9-0.4-2-0.4-2.5  c0-1.3,0.4-3.8,0.8-5c0.2-0.5,1-1.4,1-1.9c0-0.9-1.7-2.2-1.8-3.1c-0.1-1,0.5-3,1-3.9c0.4-0.9,1.6-2.6,2.5-3c1.1-0.4,3.4,0.5,4.6,0.4  c0.7-0.1,2.1-0.4,2.7-0.8c1-0.6,2.3-3.1,3.5-3.3c0.7-0.1,1.7,1.1,2.4,1.2c1.1,0.1,3.6-0.6,4.3-1.5c0.5-0.7-0.3-2.5,0-3.2  c0.2-0.5,1.7-1,1.8-1.6c0.2-1.1-1.2-3.3-2.1-4.1c-1-0.9-4.4-0.7-4.9-1.9c-0.2-0.5,0.7-1.4,0.8-1.9c0.3-1.2,0.9-4,0.1-5  c-0.6-0.7-2.8-0.3-3.7-0.7c-0.9-0.4-2.7-1.3-3.1-2.2c-0.5-1.1,0.2-3.5,0.5-4.6c0.3-1.3,1.2-3.9,2.1-4.8c0.4-0.5,1.9-0.8,2.3-1.3  c0.5-0.5,1-2,1.1-2.7c0.2-0.8-0.4-2.6-0.1-3.4c0.3-0.8,2.1-1.7,2.4-2.5c0.3-1-0.5-3.2-0.5-4.3c0-0.9,0.5-2.7,0.6-3.7  c0.1-0.7,0-2.2,0.2-2.8c0.2-0.6,1.2-1.4,1.3-1.9c0.3-0.9-0.3-2.8-0.1-3.7c0.3-1.3,1.8-3.6,2.5-4.8c0.3-0.5,1.2-1.2,1.3-1.7  c0.2-0.9-0.9-2.7-1.1-3.6c-0.2-0.8-0.5-2.4-0.3-3.1c0.2-0.7,1.3-1.7,1.5-2.3c0.2-0.7-0.3-2.2-0.2-3c0.1-0.8,0.2-2.6,0.7-3.3  c0.2-0.3,1-0.6,1.4-0.9c0.3,0.5,0.5,0.9,0.7,1.2c0.6,1.6,0.6,5.2,1.5,6.6c0.9,1.3,4.3,2.3,5.1,3.6c0.8,1.3,0.3,4.7,1,6  c1,1.7,4.6,3.6,6,4.9c0.8,0.8,2.7,2.8,2.7,3.6c0,0.7,2.3,4.7,3.7,5.7c0.9,0.6,3.4,0.3,4.2,1c0.7,0.8,0.1,3.5,0.9,4.2  c0.9,0.7,3.4-0.2,4.5,0.1c0.7,0.2,1.9,1.2,2.5,1.6c1,0.8,2.5,3.1,3.7,3.6c1.5,0.6,4.8-0.4,6.4-0.3c1.5,0.1,4.7,0.3,5.8,1.3  c0.8,0.7,0.8,3.2,1.3,4c0.5,0.7,1.9,1.8,2.6,2.2c1.1,0.5,3.4,1,4.6,1.1c0.5,0.1,1.5-0.1,1.9,0c1,0.3,2.7,1.5,3.3,2.2  c0.3,0.3,0.5,1.3,0.8,1.5c0.3,0.2,0.9,0.2,1.5,0.3c0.2,0.2,0.4,0.4,0.5,0.5c0.3,0.2,1.1,0.1,1.5,0.2c0.3,0,0.9,0.2,1.1,0  c0.3-0.3,0-1.4,0.1-1.9c0.1-0.5-0.1-1.8,0.3-2.1c0.2-0.1,0.7,0.2,0.9,0.1c0.4-0.2,0.5-1.2,0.9-1.4c0.2-0.1,0.8,0,0.9-0.1  c0.4-0.4,0.1-1.7,0.5-2.1c0.3-0.3,1.1-0.5,1.5-0.4c0.3,0.2,0.5,0.9,0.6,1.3c0,0.3-0.1,1.1-0.4,1.3c-0.2,0.2-1,0.2-1.2,0.5  c-0.2,0.3,0,1-0.1,1.3c-0.2,0.4-1.2,0.7-1.4,1.1c-0.1,0.4,0.3,1.2,0.5,1.5c0.2,0.3,0.9,0.8,1,1.2c0.1,0.4,0.1,1.3,0,1.7  c0,0.3-0.3,0.8-0.3,1.1c0,0.4,0,1.4,0.2,1.8c0.2,0.4,0.9,0.8,1.2,1.2c0.2,0.3,0.5,0.9,0.7,1.1c0.3,0.3,1.1,0.6,1.3,0.9  c0.2,0.3,0.4,1.1,0.6,1.3c0.2,0.2,0.9,0.3,1,0.5c0.2,0.3,0.1,1.2,0.4,1.5c0.3,0.2,1.1-0.1,1.4,0.1c0.3,0.2,0.2,1.2,0.5,1.5  C640.4,758.5,641.4,758.5,641.5,758.8z" data-stroke-width="0.2" style="stroke-width: 0.2;" class=" " id="ninh-thuan"></path>
<path fill="#FDBDC4" stroke="#474747" stroke-width="0.2" d="M 535.9 792.4 C 536.8 791.4 538.3 789.5 539.5 789 C 540.4 788.6 542.4 789 543.4 789 C 544.1999999999999 789 546.1 788.5 546.6999999999999 789 C 547.4 789.5 546.9 791.7 547.4 792.4 C 548 793.1999999999999 550.1999999999999 793.4 550.9 794.1 C 551.5 794.8000000000001 551.6 796.9 552.3 797.6 C 552.9 798.1 555.0999999999999 798.5 555.0999999999999 798.8000000000001 C 555.0999999999999 799.1 555.8 802.2 556.6999999999999 802.9000000000001 C 557.9999999999999 803.9000000000001 561.8 802.6000000000001 563.1999999999999 803.5000000000001 C 564.4999999999999 804.3000000000001 565.0999999999999 807.9000000000001 566.3 808.9000000000001 C 567 809.5000000000001 569.0999999999999 809.6000000000001 569.8 810.3000000000001 C 570.5 811.1 570.4 813.6 571.1999999999999 814.3000000000001 C 571.9 815.0000000000001 574.8 815.4000000000001 575.1999999999999 815.4000000000001 C 575.5999999999999 815.4000000000001 579.3 816.1000000000001 580.4999999999999 816.8000000000001 C 580.9999999999999 817.1 581.6999999999999 818.0000000000001 582.0999999999999 818.4000000000001 C 582.8999999999999 819.1000000000001 585.1999999999999 819.7 585.6999999999999 820.7 C 585.9 821 585.8 821.8000000000001 585.6999999999999 822.4000000000001 C 585.0999999999999 822.3000000000001 584.4999999999999 822.2 584.0999999999999 822.2 C 583.3999999999999 822.1 582.0999999999999 822 581.4999999999999 822.3000000000001 C 580.8999999999999 822.6 580.1999999999999 823.9000000000001 579.6999999999999 824.2 C 579.1999999999999 824.5 577.9999999999999 824.8000000000001 577.4 824.8000000000001 C 576.8 824.8000000000001 575.6999999999999 824.3000000000001 575.1 824.4000000000001 C 574.5 824.5000000000001 573.4 825.2 572.8000000000001 825.4000000000001 C 572.3000000000001 825.6000000000001 571.1 825.4000000000001 570.7 825.8000000000001 C 570.4000000000001 826.1 570.4000000000001 827.2 570.2 827.6 C 570 828.1 569.7 829 569.3000000000001 829.4 C 568.9000000000001 829.8 567.9000000000001 830.1 567.5000000000001 830.3 C 567.3000000000001 830.4 566.8000000000001 830.5999999999999 566.7000000000002 830.8 C 566.5000000000001 831 566.6000000000001 831.6999999999999 566.5000000000001 832 C 566.3000000000001 832.6 565.9000000000001 833.8 565.6000000000001 834.3 C 565.5000000000001 834.5999999999999 565.0000000000001 835 564.9000000000001 835.1999999999999 C 564.7 835.9 565.2 837.5999999999999 564.9000000000001 838.3 C 564.8000000000001 838.5999999999999 564.3000000000001 839 564.1000000000001 839.3 C 563.9000000000001 839.6999999999999 563.4000000000001 840.5 563.4000000000001 840.9 C 563.4000000000001 841.4 564.0000000000001 842.1999999999999 564.1000000000001 842.6 C 564.2000000000002 843.1 564.4000000000001 844.2 564.2000000000002 844.7 C 563.9000000000002 845.2 562.7000000000002 845.6 562.2000000000002 845.8000000000001 C 561.9000000000002 846.0000000000001 561.0000000000001 846.0000000000001 560.9000000000002 846.4000000000001 C 560.8000000000002 846.6000000000001 561.2000000000002 847.1000000000001 561.2000000000002 847.4000000000001 C 561.1000000000001 847.9000000000001 560.4000000000002 848.8000000000001 560.1000000000001 849.2 C 559.8000000000002 849.5 559.2000000000002 850.2 558.8000000000002 850.2 C 558.4000000000002 850.2 557.9000000000002 849.4000000000001 557.8000000000002 849.1 C 557.6000000000001 848.7 557.6000000000001 847.9 557.5000000000002 847.5 C 557.4000000000002 847.2 557.2000000000003 846.4 556.9000000000002 846.2 C 556.6000000000003 845.9000000000001 555.8000000000002 846 555.4000000000002 845.7 C 555.2000000000002 845.6 555.1000000000003 845.2 554.9000000000002 845.1 C 554.4000000000002 844.9 553.4000000000002 844.9 552.9000000000002 844.9 C 552.1000000000003 844.9 550.4000000000002 845.3 549.6000000000003 845.4 C 549.2000000000003 845.4 548.4000000000002 845.4 548.1000000000003 845.5 C 547.6000000000003 845.7 547.0000000000002 846.5 546.5000000000002 846.6 C 546.1000000000003 846.7 545.2000000000003 846.4 544.9000000000002 846.2 C 544.5000000000002 846 544.2000000000002 845 543.9000000000002 844.9000000000001 C 543.5000000000002 844.7 542.7000000000002 844.9000000000001 542.4000000000002 845.1000000000001 C 541.8000000000002 845.3000000000002 541.1000000000003 846.4000000000001 540.6000000000003 846.7000000000002 C 540.1000000000003 847.1000000000001 538.9000000000002 847.6000000000001 538.4000000000002 848.0000000000001 C 537.9000000000002 848.3000000000001 537.2000000000002 849.2000000000002 536.6000000000003 849.5000000000001 C 535.8000000000003 849.9000000000001 534.0000000000002 850.1000000000001 533.2000000000003 850.4000000000001 C 532.5000000000002 850.6000000000001 530.9000000000003 850.9000000000001 530.2000000000003 851.3000000000001 C 529.7000000000003 851.7 529.3000000000003 852.8000000000001 528.9000000000003 853.3000000000001 C 528.7000000000003 853.6 528.1000000000004 854.1 527.9000000000003 854.5000000000001 C 527.5000000000003 855.1000000000001 527.3000000000003 856.7000000000002 526.9000000000003 857.3000000000001 C 526.6000000000004 857.7 525.4000000000003 858.2 525.1000000000004 858.6 C 524.7000000000004 859.2 524.5000000000003 861.2 524.5000000000003 861.3000000000001 C 524.5000000000003 861.4000000000001 523.8000000000003 862.0000000000001 523.6000000000004 862.3000000000001 C 523.3000000000004 862.7 523.0000000000003 863.5000000000001 522.9000000000003 864.0000000000001 C 522.8000000000003 864.4000000000001 523.1000000000004 865.3000000000001 523.1000000000004 865.8000000000001 C 523.1000000000004 866.2 523.0000000000003 867.2 522.6000000000004 867.5000000000001 C 522.4000000000003 867.7000000000002 521.9000000000003 867.6000000000001 521.7000000000004 867.7000000000002 C 521.3000000000004 867.9000000000002 520.8000000000004 868.7000000000002 520.4000000000004 868.8000000000002 C 520.0000000000005 868.9000000000002 519.1000000000005 869.1000000000001 518.9000000000004 868.8000000000002 C 518.7000000000004 868.6000000000001 519.2000000000004 868.0000000000002 519.2000000000004 867.8000000000002 C 519.2000000000004 867.5000000000002 518.8000000000004 867.1000000000001 518.6000000000004 866.9000000000002 C 518.3000000000004 866.7000000000002 517.7000000000004 866.5000000000002 517.3000000000004 866.5000000000002 C 516.7000000000004 866.6000000000003 515.6000000000004 867.1000000000003 515.3000000000004 867.5000000000002 C 515.0000000000005 867.9000000000002 515.4000000000004 869.0000000000002 515.2000000000004 869.4000000000002 C 515.0000000000003 869.9000000000002 514.5000000000003 870.8000000000002 514.1000000000004 871.0000000000002 C 513.8000000000004 871.2000000000003 512.9000000000003 871.2000000000003 512.7000000000004 870.9000000000002 C 512.5000000000003 870.6000000000003 513.0000000000003 869.7000000000002 512.7000000000004 869.5000000000002 C 512.3000000000004 869.3000000000002 511.5000000000004 870.0000000000002 511.10000000000036 870.2000000000003 C 510.80000000000035 870.3000000000003 510.00000000000034 870.7000000000003 509.7000000000004 870.5000000000002 C 509.3000000000004 870.3000000000002 509.8000000000004 869.1000000000003 509.5000000000004 868.8000000000002 C 509.3000000000004 868.6000000000001 508.5000000000004 868.7000000000002 508.2000000000004 868.8000000000002 C 507.5000000000004 869.0000000000002 506.3000000000004 869.9000000000002 505.9000000000004 870.4000000000002 C 505.60000000000036 870.8000000000002 505.10000000000036 872.0000000000002 505.30000000000035 872.5000000000002 C 505.4000000000004 872.9000000000002 506.4000000000004 873.0000000000002 506.60000000000036 873.3000000000002 C 506.80000000000035 873.6000000000001 506.9000000000004 874.3000000000002 506.9000000000004 874.6000000000001 C 506.9000000000004 875.0000000000001 507.2000000000004 876.1000000000001 506.9000000000004 876.4000000000001 C 506.5000000000004 876.7 505.5000000000004 875.9000000000001 505.10000000000036 876.0000000000001 C 504.50000000000034 876.1000000000001 503.4000000000004 876.5000000000001 503.10000000000036 877.0000000000001 C 502.80000000000035 877.5000000000001 503.10000000000036 878.8000000000001 502.80000000000035 879.3000000000001 C 502.70000000000033 879.6 502.00000000000034 879.9000000000001 501.9000000000004 880.2 C 501.80000000000035 880.7 502.5000000000004 881.6 502.4000000000004 882 C 502.30000000000035 882.4 501.60000000000036 882.9 501.2000000000004 883 C 501.0000000000004 883 500.5000000000004 883 500.4000000000004 882.8 C 500.2000000000004 882.5 500.60000000000036 881.8 500.5000000000004 881.5 C 500.4000000000004 881.2 499.8000000000004 880.9 499.6000000000004 880.8 C 499.20000000000044 880.6999999999999 498.40000000000043 880.5 498.1000000000004 880.8 C 497.8000000000004 881 498.0000000000004 882 497.70000000000044 882.3 C 497.30000000000047 882.8 495.90000000000043 883.0999999999999 495.50000000000045 883.5 C 495.20000000000044 883.8 494.90000000000043 884.8 494.50000000000045 884.9 C 494.00000000000045 885 493.00000000000045 884.5 492.6000000000005 884.1999999999999 C 492.30000000000047 883.9999999999999 492.00000000000045 883.1999999999999 491.7000000000005 882.9999999999999 C 491.0000000000005 882.5999999999999 489.4000000000005 882.5999999999999 488.7000000000005 882.3999999999999 C 488.1000000000005 882.2999999999998 486.9000000000005 881.8999999999999 486.3000000000005 881.7999999999998 C 485.3000000000005 881.6999999999998 483.2000000000005 881.8999999999999 482.2000000000005 882.1999999999998 C 481.7000000000005 882.2999999999998 480.6000000000005 882.6999999999998 480.2000000000005 883.0999999999998 C 479.8000000000005 883.4999999999998 479.6000000000005 884.7999999999998 479.2000000000005 884.9999999999998 C 478.7000000000005 885.2999999999997 477.3000000000005 884.9999999999998 476.7000000000005 884.9999999999998 C 476.1000000000005 884.9999999999998 474.9000000000005 885.0999999999998 474.3000000000005 885.1999999999998 C 473.60000000000053 885.2999999999998 472.3000000000005 885.7999999999998 471.60000000000053 885.7999999999998 C 470.90000000000055 885.8999999999999 469.40000000000055 885.6999999999998 468.70000000000056 885.6999999999998 C 468.10000000000053 885.6999999999998 466.90000000000055 885.5999999999998 466.40000000000055 885.8999999999999 C 465.8000000000005 886.1999999999998 465.10000000000053 887.5999999999999 464.50000000000057 887.9999999999999 C 464.00000000000057 888.2999999999998 462.70000000000056 888.4999999999999 462.20000000000056 888.8999999999999 C 461.8000000000006 889.1999999999998 461.3000000000006 890.0999999999999 461.00000000000057 890.4999999999999 C 460.70000000000056 890.8999999999999 460.00000000000057 891.5999999999999 459.70000000000056 891.9999999999999 C 459.40000000000055 892.3999999999999 459.10000000000053 893.1999999999999 458.8000000000006 893.4999999999999 C 458.50000000000057 893.8999999999999 457.4000000000006 894.1999999999999 457.20000000000056 894.6999999999999 C 457.00000000000057 895.0999999999999 457.20000000000056 895.9999999999999 457.20000000000056 896.4 C 457.20000000000056 896.8 457.3000000000006 897.6999999999999 457.20000000000056 898.1 C 457.10000000000053 898.6 456.8000000000006 899.5 456.70000000000056 899.9 C 456.40000000000055 900.5 455.70000000000056 901.5 455.40000000000055 902.1 C 455.20000000000056 902.5 454.60000000000053 903.4 454.50000000000057 903.8000000000001 C 454.3000000000006 904.4000000000001 454.00000000000057 905.6 453.8000000000006 906.2 C 453.50000000000057 906.9000000000001 452.70000000000056 908.2 452.70000000000056 909 C 452.70000000000056 909.7 453.50000000000057 911.1 453.50000000000057 911.8 C 453.50000000000057 912.5 453.1000000000006 913.9 452.8000000000006 914.5 C 452.4000000000006 915.3 451.20000000000056 916.7 450.8000000000006 917.4 C 450.3000000000006 918.1999999999999 449.8000000000006 920.6 448.8000000000006 920.9 C 448.1000000000006 921.1 446.8000000000006 919.9 446.1000000000006 919.8 C 445.50000000000057 919.6999999999999 444.3000000000006 920.0999999999999 443.7000000000006 920.0999999999999 C 442.6000000000006 919.9999999999999 440.5000000000006 919.1999999999999 439.4000000000006 918.8999999999999 C 438.5000000000006 918.5999999999999 436.7000000000006 917.8999999999999 435.7000000000006 917.6999999999998 C 434.80000000000064 917.4999999999998 432.9000000000006 917.2999999999998 432.0000000000006 917.4999999999998 C 431.2000000000006 917.6999999999998 430.0000000000006 918.7999999999997 429.4000000000006 919.1999999999998 C 428.9000000000006 919.4999999999998 427.9000000000006 920.3999999999999 427.2000000000006 920.4999999999998 C 426.5000000000006 920.6999999999998 425.1000000000006 920.3999999999997 424.4000000000006 920.3999999999997 C 423.8000000000006 920.3999999999997 422.6000000000006 920.2999999999997 422.0000000000006 920.4999999999998 C 421.60000000000065 920.5999999999998 420.7000000000006 920.9999999999998 420.4000000000006 921.2999999999997 C 419.8000000000006 921.8999999999997 419.3000000000006 923.4999999999998 418.8000000000006 924.0999999999997 C 418.4000000000006 924.7999999999997 417.50000000000057 926.1999999999997 416.9000000000006 926.6999999999997 C 416.4000000000006 927.0999999999997 415.2000000000006 927.5999999999997 414.7000000000006 927.9999999999997 C 414.2000000000006 928.4999999999997 413.5000000000006 929.8999999999996 412.9000000000006 930.1999999999997 C 412.3000000000006 930.5999999999997 410.7000000000006 930.4999999999997 410.0000000000006 930.7999999999997 C 409.5000000000006 930.9999999999998 408.7000000000006 931.7999999999997 408.10000000000065 931.8999999999997 C 407.20000000000067 932.0999999999998 405.20000000000067 931.6999999999997 404.20000000000067 931.7999999999997 C 403.3000000000007 931.8999999999997 401.60000000000065 932.1999999999997 400.8000000000007 932.5999999999997 C 400.0000000000007 932.9999999999997 399.0000000000007 934.3999999999996 398.3000000000007 934.8999999999996 C 397.0000000000007 935.7999999999996 394.0000000000007 936.7999999999996 392.5000000000007 937.3999999999996 C 391.6000000000007 937.7999999999996 389.90000000000066 938.9999999999997 389.0000000000007 939.1999999999996 C 388.1000000000007 939.3999999999996 386.20000000000067 938.7999999999996 385.40000000000066 939.1999999999996 C 385.30000000000064 939.2999999999996 385.20000000000067 939.3999999999996 385.0000000000007 939.4999999999995 C 384.90000000000066 938.8999999999995 384.70000000000067 938.2999999999995 384.6000000000007 937.9999999999995 C 384.2000000000007 937.1999999999996 382.9000000000007 935.7999999999995 382.5000000000007 934.9999999999995 C 382.0000000000007 933.7999999999995 382.1000000000007 930.8999999999995 381.3000000000007 929.7999999999995 C 380.9000000000007 929.2999999999995 379.5000000000007 928.8999999999995 379.1000000000007 928.4999999999995 C 378.6000000000007 927.9999999999995 377.9000000000007 926.6999999999996 377.8000000000007 925.9999999999995 C 377.6000000000007 924.9999999999995 378.20000000000067 922.8999999999995 378.3000000000007 921.7999999999995 C 378.4000000000007 920.8999999999995 378.9000000000007 918.9999999999995 378.4000000000007 918.1999999999995 C 377.9000000000007 917.2999999999995 375.50000000000074 917.0999999999995 374.7000000000007 916.3999999999995 C 373.7000000000007 915.5999999999996 372.4000000000007 913.3999999999995 371.6000000000007 912.4999999999995 C 371.2000000000007 912.0999999999996 370.3000000000007 911.4999999999995 370.0000000000007 910.9999999999995 C 369.6000000000007 910.3999999999995 369.1000000000007 909.0999999999996 368.90000000000066 908.0999999999996 C 369.40000000000066 907.6999999999996 370.60000000000065 907.2999999999996 371.0000000000007 906.8999999999995 C 371.70000000000067 906.2999999999995 372.5000000000007 904.4999999999995 373.3000000000007 904.0999999999996 C 374.20000000000067 903.5999999999996 376.4000000000007 903.4999999999995 377.5000000000007 903.5999999999996 C 378.0000000000007 903.6999999999996 379.1000000000007 903.9999999999995 379.40000000000066 904.3999999999995 C 379.90000000000066 905.0999999999996 379.20000000000067 906.9999999999995 379.70000000000067 907.6999999999995 C 380.0000000000007 907.9999999999994 381.0000000000007 907.9999999999994 381.3000000000007 908.2999999999995 C 381.8000000000007 908.8999999999995 381.3000000000007 910.7999999999995 381.8000000000007 911.3999999999995 C 382.3000000000007 911.9999999999995 383.8000000000007 912.8999999999995 384.6000000000007 912.8999999999995 C 385.5000000000007 912.7999999999995 387.1000000000007 911.5999999999996 387.5000000000007 910.7999999999995 C 388.0000000000007 909.8999999999995 387.3000000000007 907.6999999999995 387.8000000000007 906.7999999999995 C 388.3000000000007 905.8999999999995 390.8000000000007 905.4999999999995 391.4000000000007 904.5999999999995 C 391.8000000000007 903.8999999999994 391.2000000000007 901.9999999999994 391.6000000000007 901.2999999999995 C 392.0000000000007 900.6999999999995 393.7000000000007 900.2999999999995 394.0000000000007 899.5999999999995 C 394.5000000000007 898.5999999999995 393.8000000000007 896.3999999999994 393.90000000000066 895.2999999999995 C 393.90000000000066 894.6999999999995 394.5000000000007 893.3999999999995 394.30000000000064 892.7999999999995 C 394.10000000000065 892.1999999999995 393.0000000000006 891.2999999999995 392.40000000000066 890.8999999999995 C 391.5000000000007 890.2999999999995 389.60000000000065 889.2999999999995 388.60000000000065 889.1999999999995 C 386.70000000000067 888.9999999999994 382.40000000000066 892.0999999999995 380.90000000000066 890.7999999999995 C 379.70000000000067 889.6999999999995 382.0000000000007 885.7999999999995 381.70000000000067 884.0999999999995 C 381.3000000000007 882.0999999999995 379.20000000000067 878.5999999999995 378.0000000000007 876.9999999999994 C 377.0000000000007 875.6999999999995 374.5000000000007 873.1999999999995 372.90000000000066 872.4999999999994 C 371.40000000000066 871.8999999999994 368.0000000000007 872.6999999999995 366.40000000000066 872.1999999999995 C 364.0000000000007 871.3999999999995 358.40000000000066 868.7999999999995 358.10000000000065 866.2999999999995 C 357.80000000000064 863.8999999999995 364.10000000000065 861.5999999999995 364.5000000000006 859.1999999999995 C 364.80000000000064 857.5999999999995 361.30000000000064 854.7999999999995 361.80000000000064 853.1999999999995 C 362.30000000000064 851.6999999999995 366.2000000000006 851.0999999999995 367.30000000000064 849.8999999999995 C 369.10000000000065 847.6999999999995 370.60000000000065 841.8999999999995 371.5000000000006 839.1999999999995 C 372.7000000000006 835.6999999999995 374.30000000000064 828.4999999999994 375.60000000000065 825.0999999999995 C 376.20000000000067 823.4999999999994 377.40000000000066 820.0999999999995 378.5000000000006 818.6999999999995 C 379.4000000000006 817.4999999999994 381.7000000000006 814.6999999999995 383.2000000000006 814.7999999999995 C 384.6000000000006 814.8999999999995 385.7000000000006 818.2999999999995 386.80000000000064 819.1999999999995 C 388.10000000000065 820.1999999999995 391.10000000000065 821.3999999999995 392.60000000000065 821.8999999999995 C 394.5000000000006 822.4999999999995 398.5000000000006 823.1999999999995 400.5000000000006 823.1999999999995 C 401.80000000000064 823.1999999999995 404.80000000000064 823.2999999999995 405.7000000000006 822.2999999999995 C 406.30000000000064 821.6999999999995 406.7000000000006 819.7999999999995 406.5000000000006 818.5999999999995 C 407.30000000000064 818.1999999999995 408.60000000000065 817.9999999999994 409.2000000000006 817.7999999999995 C 410.4000000000006 817.5999999999995 412.7000000000006 818.1999999999995 413.9000000000006 818.0999999999995 C 415.1000000000006 817.9999999999994 417.3000000000006 816.8999999999994 418.5000000000006 816.7999999999995 C 420.10000000000065 816.5999999999995 423.4000000000006 816.7999999999995 425.10000000000065 816.9999999999995 C 426.10000000000065 817.0999999999996 427.90000000000066 817.7999999999995 428.90000000000066 817.7999999999995 C 429.90000000000066 817.7999999999995 431.70000000000067 817.0999999999995 432.70000000000067 817.0999999999995 C 433.8000000000007 817.0999999999995 435.90000000000066 817.9999999999994 437.0000000000007 818.0999999999995 C 438.5000000000007 818.1999999999995 441.40000000000066 817.5999999999995 442.90000000000066 817.6999999999995 C 444.10000000000065 817.7999999999995 446.60000000000065 818.3999999999995 447.80000000000064 818.6999999999995 C 449.60000000000065 819.1999999999995 454.10000000000065 819.2999999999995 454.90000000000066 820.9999999999994 C 455.20000000000067 821.6999999999995 453.5000000000007 823.0999999999995 453.60000000000065 823.8999999999994 C 453.80000000000064 825.1999999999994 456.70000000000067 827.1999999999994 456.70000000000067 828.3999999999994 C 456.70000000000067 829.5999999999995 456.70000000000067 832.5999999999995 456.70000000000067 832.8999999999994 C 456.70000000000067 833.1999999999994 456.20000000000067 835.5999999999995 456.40000000000066 836.4999999999994 C 456.70000000000067 837.5999999999995 457.90000000000066 840.4999999999994 459.0000000000007 840.2999999999994 C 459.5000000000007 840.1999999999994 459.20000000000067 838.7999999999994 459.3000000000007 838.2999999999994 C 459.4000000000007 837.6999999999994 459.20000000000067 836.4999999999994 459.5000000000007 835.9999999999994 C 459.90000000000066 835.4999999999994 461.40000000000066 835.4999999999994 461.90000000000066 835.0999999999995 C 462.5000000000007 834.6999999999995 463.0000000000007 833.1999999999995 463.70000000000067 832.8999999999994 C 464.20000000000067 832.6999999999994 465.60000000000065 833.3999999999994 466.10000000000065 833.0999999999995 C 466.90000000000066 832.5999999999995 467.5000000000006 829.8999999999994 467.80000000000064 829.8999999999994 C 468.10000000000065 829.8999999999994 470.10000000000065 829.7999999999994 470.90000000000066 829.5999999999995 C 472.30000000000064 829.1999999999995 474.80000000000064 827.4999999999994 476.30000000000064 827.1999999999995 C 477.10000000000065 826.9999999999994 478.80000000000064 827.3999999999995 479.5000000000006 827.0999999999995 C 480.2000000000006 826.7999999999995 481.2000000000006 825.3999999999994 481.7000000000006 824.7999999999995 C 482.6000000000006 823.7999999999995 484.2000000000006 821.4999999999995 485.30000000000064 820.6999999999995 C 486.0000000000006 820.1999999999995 487.80000000000064 819.5999999999995 488.5000000000006 819.0999999999995 C 489.10000000000065 818.6999999999995 490.5000000000006 817.0999999999995 490.80000000000064 817.0999999999995 C 491.10000000000065 817.0999999999995 492.0000000000006 814.3999999999994 492.7000000000006 813.6999999999995 C 493.4000000000006 812.9999999999994 495.7000000000006 812.6999999999995 496.5000000000006 811.9999999999994 C 497.0000000000006 811.4999999999994 498.0000000000006 810.1999999999995 498.0000000000006 809.4999999999994 C 498.0000000000006 808.5999999999995 496.10000000000065 807.4999999999994 495.80000000000064 806.5999999999995 C 495.60000000000065 805.9999999999994 495.7000000000006 804.4999999999994 494.60000000000065 804.4999999999994 C 493.5000000000006 804.4999999999994 492.5000000000006 804.8999999999994 492.0000000000006 804.4999999999994 C 491.30000000000064 803.9999999999994 490.7000000000006 802.1999999999995 490.80000000000064 801.3999999999994 C 490.90000000000066 800.7999999999994 492.0000000000006 799.7999999999994 492.10000000000065 799.1999999999994 C 492.20000000000067 798.4999999999993 491.0000000000006 797.1999999999994 491.30000000000064 796.4999999999993 C 491.5000000000006 795.8999999999993 493.0000000000006 795.4999999999993 493.60000000000065 795.1999999999994 C 494.20000000000067 794.7999999999994 495.30000000000064 793.7999999999994 496.0000000000006 793.5999999999993 C 496.9000000000006 793.2999999999994 498.80000000000064 793.7999999999994 499.7000000000006 793.5999999999993 C 500.30000000000064 793.3999999999993 501.4000000000006 792.3999999999993 502.1000000000006 792.3999999999993 C 503.6000000000006 792.2999999999993 506.00000000000057 794.7999999999993 507.50000000000057 794.5999999999993 C 508.1000000000006 794.4999999999993 508.70000000000056 793.1999999999994 509.3000000000006 793.0999999999993 C 509.9000000000006 792.9999999999993 511.1000000000006 793.7999999999994 511.8000000000006 793.7999999999994 C 512.6000000000006 793.7999999999994 513.9000000000005 792.7999999999994 514.7000000000006 792.8999999999994 C 515.3000000000006 792.9999999999994 516.2000000000006 794.0999999999995 516.8000000000006 794.2999999999994 C 517.6000000000006 794.4999999999994 519.7000000000006 794.1999999999994 520.2000000000006 794.1999999999994 C 520.7000000000006 794.1999999999994 524.5000000000006 791.5999999999993 526.2000000000006 791.4999999999993 C 527.5000000000006 791.4999999999993 529.7000000000006 792.8999999999993 530.9000000000007 793.3999999999993 C 531.8000000000006 793.7999999999993 533.6000000000007 795.2999999999993 534.6000000000007 795.0999999999993 C 535.6000000000007 794.8999999999993 536.7000000000007 792.8999999999993 537.4000000000007 792.1999999999994 C 535.8 792.5 535.9 792.4 535.9 792.4 Z" data-stroke-width="0.2" style="stroke-width: 0.2;" class=" " id="binh-thuan"></path>
<path style="pointer-events: none;" fill="#0A0A0A" d="M420.2,860.8v-8.4h3.7c0.6,0,1.1,0.1,1.5,0.3c0.4,0.2,0.7,0.4,0.9,0.7c0.2,0.3,0.3,0.7,0.3,1.1  c0,0.5-0.1,0.9-0.4,1.2c-0.2,0.3-0.6,0.5-1,0.7l0-0.2c0.4,0.1,0.7,0.2,1,0.4c0.3,0.2,0.5,0.4,0.6,0.7c0.2,0.3,0.2,0.6,0.2,1  c0,0.4-0.1,0.8-0.2,1.1c-0.1,0.3-0.4,0.6-0.6,0.8s-0.6,0.4-1,0.5c-0.4,0.1-0.8,0.2-1.2,0.2H420.2z M422.1,859h1.8  c0.2,0,0.4,0,0.6-0.1c0.2-0.1,0.3-0.2,0.4-0.3c0.1-0.1,0.1-0.3,0.1-0.5c0-0.2,0-0.3-0.1-0.5c-0.1-0.1-0.2-0.2-0.4-0.3  c-0.2-0.1-0.4-0.1-0.6-0.1h-1.8V859z M422.1,855.7h1.5c0.2,0,0.4,0,0.5-0.1c0.2-0.1,0.3-0.2,0.3-0.3c0.1-0.1,0.1-0.3,0.1-0.5  c0-0.3-0.1-0.5-0.3-0.6c-0.2-0.2-0.4-0.2-0.8-0.2h-1.4V855.7z M428.4,860.8v-6.4h1.9v6.4H428.4z M430,853.7l-2.5-1.3l0.9-1.2  l2.1,1.7L430,853.7z M431.9,860.8v-6.4h1.8l0.1,1.3l-0.4,0.1c0.1-0.3,0.2-0.5,0.5-0.8c0.2-0.2,0.5-0.4,0.8-0.6s0.7-0.2,1-0.2  c0.5,0,0.9,0.1,1.2,0.3c0.3,0.2,0.6,0.5,0.7,0.9c0.2,0.4,0.3,0.9,0.3,1.4v3.9H436V857c0-0.3,0-0.5-0.1-0.6s-0.2-0.3-0.3-0.4  c-0.1-0.1-0.3-0.1-0.5-0.1c-0.2,0-0.3,0-0.5,0.1c-0.1,0-0.3,0.1-0.4,0.2c-0.1,0.1-0.2,0.2-0.3,0.3c-0.1,0.1-0.1,0.3-0.1,0.4v3.8  h-0.9c-0.2,0-0.4,0-0.6,0S432,860.8,431.9,860.8z M439.5,860.8v-8.9h1.9v3.8l-0.4,0.1c0.1-0.3,0.2-0.5,0.5-0.8  c0.2-0.2,0.5-0.4,0.8-0.6c0.3-0.1,0.7-0.2,1-0.2c0.5,0,0.9,0.1,1.2,0.3c0.3,0.2,0.6,0.5,0.7,0.9c0.2,0.4,0.3,0.9,0.3,1.4v3.9h-1.9  V857c0-0.3,0-0.5-0.1-0.6s-0.2-0.3-0.3-0.4c-0.1-0.1-0.3-0.1-0.5-0.1c-0.2,0-0.3,0-0.5,0.1c-0.1,0-0.3,0.1-0.4,0.2  c-0.1,0.1-0.2,0.2-0.3,0.3c-0.1,0.1-0.1,0.3-0.1,0.4v3.8h-0.9c-0.2,0-0.4,0-0.6,0C439.8,860.8,439.6,860.8,439.5,860.8z M453,860.8  v-6.6h-2.5v-1.8h7.1v1.8H455v6.6H453z M458.8,860.8v-8.9h1.9v3.8l-0.4,0.1c0.1-0.3,0.2-0.5,0.5-0.8c0.2-0.2,0.5-0.4,0.8-0.6  c0.3-0.1,0.7-0.2,1-0.2c0.5,0,0.9,0.1,1.2,0.3c0.3,0.2,0.6,0.5,0.7,0.9c0.2,0.4,0.3,0.9,0.3,1.4v3.9h-1.9V857c0-0.3,0-0.5-0.1-0.6  c-0.1-0.2-0.2-0.3-0.3-0.4c-0.1-0.1-0.3-0.1-0.5-0.1c-0.2,0-0.3,0-0.5,0.1c-0.1,0-0.3,0.1-0.4,0.2c-0.1,0.1-0.2,0.2-0.3,0.3  c-0.1,0.1-0.1,0.3-0.1,0.4v3.8h-0.9c-0.2,0-0.4,0-0.6,0S458.9,860.8,458.8,860.8z M468.6,860.9c-0.5,0-0.9-0.1-1.2-0.3  c-0.3-0.2-0.6-0.5-0.8-0.9c-0.2-0.4-0.3-0.8-0.3-1.4v-3.9h1.9v3.7c0,0.3,0,0.5,0.1,0.7c0.1,0.2,0.2,0.3,0.4,0.4  c0.2,0.1,0.4,0.1,0.6,0.1c0.2,0,0.3,0,0.5-0.1c0.1-0.1,0.3-0.1,0.4-0.2c0.1-0.1,0.2-0.2,0.2-0.3c0.1-0.1,0.1-0.3,0.1-0.4v-3.8h1.9  v6.4h-1.8l-0.1-1.3l0.4-0.1c-0.1,0.3-0.3,0.6-0.5,0.8c-0.2,0.2-0.5,0.4-0.8,0.6C469.3,860.8,469,860.9,468.6,860.9z M476.5,860.9  c-0.5,0-1-0.1-1.4-0.4c-0.4-0.3-0.7-0.7-1-1.2c-0.2-0.5-0.4-1.1-0.4-1.7c0-0.6,0.1-1.2,0.4-1.7c0.2-0.5,0.6-0.9,1-1.2  c0.4-0.3,0.9-0.4,1.5-0.4c0.3,0,0.6,0,0.8,0.1c0.3,0.1,0.5,0.2,0.7,0.4c0.2,0.2,0.4,0.3,0.5,0.5c0.1,0.2,0.2,0.4,0.3,0.6l-0.4,0  v-1.5h1.9v6.4h-1.9v-1.5l0.4,0c-0.1,0.2-0.2,0.4-0.3,0.6c-0.1,0.2-0.3,0.4-0.5,0.5s-0.4,0.3-0.7,0.4  C477.1,860.8,476.8,860.9,476.5,860.9z M477,859.2c0.3,0,0.6-0.1,0.8-0.2c0.2-0.1,0.4-0.3,0.5-0.6c0.1-0.3,0.2-0.6,0.2-0.9  s-0.1-0.6-0.2-0.9c-0.1-0.3-0.3-0.5-0.5-0.6c-0.2-0.1-0.5-0.2-0.8-0.2c-0.3,0-0.5,0.1-0.8,0.2c-0.2,0.1-0.4,0.3-0.5,0.6  c-0.1,0.2-0.2,0.5-0.2,0.9s0.1,0.6,0.2,0.9c0.1,0.2,0.3,0.4,0.5,0.6C476.5,859.2,476.8,859.2,477,859.2z M477.3,863.4  c-0.4,0-0.7-0.1-0.9-0.3c-0.2-0.2-0.3-0.4-0.3-0.7c0-0.3,0.1-0.6,0.3-0.7c0.2-0.2,0.5-0.3,0.9-0.3c0.4,0,0.7,0.1,0.9,0.3  c0.2,0.2,0.3,0.4,0.3,0.8c0,0.3-0.1,0.5-0.3,0.7C477.9,863.3,477.6,863.4,477.3,863.4z M475.7,853.5l-0.7-0.6l1.7-1.5h1.2l1.7,1.5  l-0.7,0.6l-1.8-1h0.4L475.7,853.5z M482.1,860.8v-6.4h1.8l0.1,1.3l-0.4,0.1c0.1-0.3,0.2-0.5,0.5-0.8c0.2-0.2,0.5-0.4,0.8-0.6  s0.7-0.2,1-0.2c0.5,0,0.9,0.1,1.2,0.3c0.3,0.2,0.6,0.5,0.7,0.9c0.2,0.4,0.3,0.9,0.3,1.4v3.9h-1.9V857c0-0.3,0-0.5-0.1-0.6  s-0.2-0.3-0.3-0.4c-0.1-0.1-0.3-0.1-0.5-0.1c-0.2,0-0.3,0-0.5,0.1c-0.1,0-0.3,0.1-0.4,0.2c-0.1,0.1-0.2,0.2-0.3,0.3  c-0.1,0.1-0.1,0.3-0.1,0.4v3.8H483c-0.2,0-0.4,0-0.6,0S482.2,860.8,482.1,860.8z"></path>
<path style="pointer-events: none;" fill="#0A0A0A" d="M553.2,765.8v-8.4h1.8l4.4,6l-0.4-0.1c0-0.3-0.1-0.5-0.1-0.8c0-0.2,0-0.5-0.1-0.7c0-0.2,0-0.5,0-0.7  c0-0.2,0-0.5,0-0.8c0-0.3,0-0.6,0-0.9v-2.1h2v8.4h-1.8l-4.6-6.2l0.6,0.1c0,0.4,0.1,0.7,0.1,1c0,0.3,0.1,0.5,0.1,0.7  c0,0.2,0,0.4,0,0.6c0,0.2,0,0.3,0,0.5c0,0.2,0,0.3,0,0.5v2.8H553.2z M562.8,765.8v-6.4h1.9v6.4H562.8z M563.8,758.1  c-0.4,0-0.6-0.1-0.9-0.3c-0.2-0.2-0.3-0.4-0.3-0.7c0-0.3,0.1-0.5,0.3-0.7c0.2-0.2,0.5-0.3,0.8-0.3c0.4,0,0.6,0.1,0.8,0.3  c0.2,0.2,0.3,0.4,0.3,0.7c0,0.3-0.1,0.5-0.3,0.7C564.4,758,564.1,758.1,563.8,758.1z M566.5,765.8v-6.4h1.8l0.1,1.3l-0.4,0.1  c0.1-0.3,0.2-0.5,0.5-0.8c0.2-0.2,0.5-0.4,0.8-0.6s0.7-0.2,1-0.2c0.5,0,0.9,0.1,1.2,0.3c0.3,0.2,0.6,0.5,0.7,0.9  c0.2,0.4,0.3,0.9,0.3,1.4v3.9h-1.9V762c0-0.3,0-0.5-0.1-0.6c-0.1-0.2-0.2-0.3-0.3-0.4c-0.1-0.1-0.3-0.1-0.5-0.1  c-0.2,0-0.3,0-0.5,0.1c-0.1,0-0.3,0.1-0.4,0.2c-0.1,0.1-0.2,0.2-0.3,0.3c-0.1,0.1-0.1,0.3-0.1,0.4v3.8h-0.9c-0.2,0-0.4,0-0.6,0  C566.8,765.8,566.6,765.8,566.5,765.8z M574.1,765.8v-8.9h1.9v3.8l-0.4,0.1c0.1-0.3,0.2-0.5,0.5-0.8c0.2-0.2,0.5-0.4,0.8-0.6  s0.7-0.2,1-0.2c0.5,0,0.9,0.1,1.2,0.3c0.3,0.2,0.6,0.5,0.7,0.9c0.2,0.4,0.3,0.9,0.3,1.4v3.9h-1.9V762c0-0.3,0-0.5-0.1-0.6  c-0.1-0.2-0.2-0.3-0.3-0.4c-0.1-0.1-0.3-0.1-0.5-0.1c-0.2,0-0.3,0-0.5,0.1c-0.1,0-0.3,0.1-0.4,0.2c-0.1,0.1-0.2,0.2-0.3,0.3  c-0.1,0.1-0.1,0.3-0.1,0.4v3.8h-0.9c-0.2,0-0.4,0-0.6,0C574.4,765.8,574.3,765.8,574.1,765.8z M587.6,765.8v-6.6h-2.5v-1.8h7.1v1.8  h-2.6v6.6H587.6z M593.5,765.8v-8.9h1.9v3.8l-0.4,0.1c0.1-0.3,0.2-0.5,0.5-0.8c0.2-0.2,0.5-0.4,0.8-0.6c0.3-0.1,0.7-0.2,1-0.2  c0.5,0,0.9,0.1,1.2,0.3c0.3,0.2,0.6,0.5,0.7,0.9c0.2,0.4,0.3,0.9,0.3,1.4v3.9h-1.9V762c0-0.3,0-0.5-0.1-0.6  c-0.1-0.2-0.2-0.3-0.3-0.4c-0.1-0.1-0.3-0.1-0.5-0.1c-0.2,0-0.3,0-0.5,0.1c-0.1,0-0.3,0.1-0.4,0.2c-0.1,0.1-0.2,0.2-0.3,0.3  c-0.1,0.1-0.1,0.3-0.1,0.4v3.8h-0.9c-0.2,0-0.4,0-0.6,0S593.6,765.8,593.5,765.8z M603.3,765.9c-0.5,0-0.9-0.1-1.2-0.3  c-0.3-0.2-0.6-0.5-0.8-0.9c-0.2-0.4-0.3-0.8-0.3-1.4v-3.9h1.9v3.7c0,0.3,0,0.5,0.1,0.7c0.1,0.2,0.2,0.3,0.4,0.4  c0.2,0.1,0.4,0.1,0.6,0.1c0.2,0,0.3,0,0.5-0.1c0.1-0.1,0.3-0.1,0.4-0.2c0.1-0.1,0.2-0.2,0.2-0.3c0.1-0.1,0.1-0.3,0.1-0.4v-3.8h1.9  v6.4h-1.8l-0.1-1.3l0.4-0.1c-0.1,0.3-0.3,0.6-0.5,0.8c-0.2,0.2-0.5,0.4-0.8,0.6C603.9,765.8,603.6,765.9,603.3,765.9z M611.1,765.9  c-0.5,0-1-0.1-1.4-0.4c-0.4-0.3-0.7-0.7-1-1.2c-0.2-0.5-0.4-1.1-0.4-1.7c0-0.6,0.1-1.2,0.4-1.7c0.2-0.5,0.6-0.9,1-1.2  c0.4-0.3,0.9-0.4,1.5-0.4c0.3,0,0.6,0,0.8,0.1c0.3,0.1,0.5,0.2,0.7,0.4c0.2,0.2,0.4,0.3,0.5,0.5c0.1,0.2,0.2,0.4,0.3,0.6l-0.4,0  v-1.5h1.9v6.4h-1.9v-1.5l0.4,0c-0.1,0.2-0.2,0.4-0.3,0.6c-0.1,0.2-0.3,0.4-0.5,0.5c-0.2,0.2-0.4,0.3-0.7,0.4  C611.7,765.8,611.4,765.9,611.1,765.9z M611.7,764.2c0.3,0,0.6-0.1,0.8-0.2c0.2-0.1,0.4-0.3,0.5-0.6c0.1-0.3,0.2-0.6,0.2-0.9  s-0.1-0.6-0.2-0.9c-0.1-0.3-0.3-0.5-0.5-0.6c-0.2-0.1-0.5-0.2-0.8-0.2c-0.3,0-0.5,0.1-0.8,0.2c-0.2,0.1-0.4,0.3-0.5,0.6  c-0.1,0.2-0.2,0.5-0.2,0.9s0.1,0.6,0.2,0.9c0.1,0.2,0.3,0.4,0.5,0.6C611.1,764.2,611.4,764.2,611.7,764.2z M611.9,768.4  c-0.4,0-0.7-0.1-0.9-0.3c-0.2-0.2-0.3-0.4-0.3-0.7c0-0.3,0.1-0.6,0.3-0.7c0.2-0.2,0.5-0.3,0.9-0.3c0.4,0,0.7,0.1,0.9,0.3  c0.2,0.2,0.3,0.4,0.3,0.8c0,0.3-0.1,0.5-0.3,0.7C612.5,768.3,612.3,768.4,611.9,768.4z M610.3,758.5l-0.7-0.6l1.7-1.5h1.2l1.7,1.5  l-0.7,0.6l-1.8-1h0.4L610.3,758.5z M616.7,765.8v-6.4h1.8l0.1,1.3l-0.4,0.1c0.1-0.3,0.2-0.5,0.5-0.8c0.2-0.2,0.5-0.4,0.8-0.6  c0.3-0.1,0.7-0.2,1-0.2c0.5,0,0.9,0.1,1.2,0.3c0.3,0.2,0.6,0.5,0.7,0.9c0.2,0.4,0.3,0.9,0.3,1.4v3.9h-1.9V762c0-0.3,0-0.5-0.1-0.6  s-0.2-0.3-0.3-0.4c-0.1-0.1-0.3-0.1-0.5-0.1c-0.2,0-0.3,0-0.5,0.1c-0.1,0-0.3,0.1-0.4,0.2c-0.1,0.1-0.2,0.2-0.3,0.3  c-0.1,0.1-0.1,0.3-0.1,0.4v3.8h-0.9c-0.2,0-0.4,0-0.6,0S616.8,765.8,616.7,765.8z"></path>
</svg>