<svg xmlns="http://www.w3.org/2000/svg" xmlns:xlink="http://www.w3.org/1999/xlink" version="1.1" id="Layer_1" x="0px" y="0px" viewBox="0 0 1000 1000" enable-background="new 0 0 1000 1000" xml:space="preserve" preserveAspectRatio="xMidYMid meet" style="width: 1000px;">
<path fill="#F9BDC4" stroke="#484848" stroke-width="0.2" d="M332.1,326.3c-1.7-1-5-4-5.4-6c-0.3-1.8,1.8-5.2,2.8-6.8  c1-1.6,3.8-4.3,4.9-5.8c1.3-1.7,3.8-5.4,4.9-7.3c1.1-1.8,3.3-5.5,4.1-7.5c0.7-1.8,1.7-5.6,1.6-7.5c-0.1-2-1.9-5.8-2.3-7.8  c-0.4-1.6-1.4-5-1-6.7c0.4-2.1,4-5.2,4.6-7.3c0.7-2.3-1.1-7.3,0-9.4c0.6-1.3,3.1-3.2,4.5-3.3c1.3-0.1,3.5,1.9,4.8,2.2  c1.3,0.3,4.2,0.9,5.2,0.1c0.8-0.6,0.9-2.8,1.2-3.8c0.7-2.4,1.7-7.4,2.6-9.7c0.7-1.9,3-5.3,3.5-7.3c0.6-2.6,0.2-8.2,0.3-10.9  c0.1-2.4-0.2-7.4,0.6-9.7c0.6-1.8,3.5-4.5,4.2-6.2c1.4-3.3,2.5-10.6,2.9-14.2c0.2-1.3,0.5-4,0.2-5.2c-0.5-2.2-3.1-6.2-4.4-8.1  c-0.7-1.1-2.7-2.9-3.3-4.1c-0.8-1.6-2-5-2-6.8c0-1.4,0.8-4.4,1.7-5.5c1.1-1.4,4.5-2.8,6.1-3.6c1.6-0.9,5.3-2.2,6.7-3.5  c1.4-1.3,3.5-4.6,4.1-6.4c0.4-1.4,0.9-4.6,0-5.7c-0.8-1-3.8-0.6-4.9-1c-0.9-0.3-2.6-1.5-3.5-1.9c-2.1-1-6.6-2.4-8.6-3.6  c-2.4-1.5-6.7-5.2-8.3-7.5c-1.4-2.1-3.2-7.1-3.3-9.6c-0.1-1,0.2-3.3,0.9-4.1c1.6-1.8,6.9-1.9,9-2.9c1.3-0.6,3.3-2.6,4.6-3  c1.5-0.5,4.8-0.6,6.4-0.3c1.8,0.4,4.7,3.3,6.5,3.2c1.5-0.1,4.5-1.8,5.1-3.2c0.5-1-0.8-3.4-0.9-4.5c-0.1-1.8,0.2-5.4,0.9-7.1  c0.6-1.5,3.3-3.6,3.6-5.1c0.4-1.8-0.6-5.4-1.3-7.1c-0.6-1.4-2.7-3.6-3.3-4.9c-0.6-1.2-2-3.6-1.7-4.9c0.2-0.8,1.6-1.9,2.2-2.5  c1.1-1,4.2-2.4,4.6-3.8c0.4-1.3-1.2-4-1.4-5.4c-0.3-1.4-0.9-4.2-0.7-5.7c0.2-1.6,1.9-4.6,2-6.2c0.1-1.2-0.4-3.6-0.7-4.8  c-0.6-2-3.4-5.5-3.8-7.5c-0.2-1.3,0.1-3.8,0.4-5.1c0.3-1.4,2.3-3.9,2.2-5.4c-0.1-1-1.1-2.7-2.1-3.6c1.2-0.8,2.7-1.7,3.5-1.6  c1.4,0.3,2.4,3.8,3.7,4.4c1,0.4,3.3-1,4.1-0.4c1.8,1.1,2.5,6,3,8.1c0.4,1.7-0.2,5.4,0.9,6.7c0.7,0.9,3.5,0.9,4.4,1.7  c1.3,1.3,1.3,5.8,2.8,6.7c1.7,1.1,7.6-0.2,8.3-0.2c0.7,0,3,3,2.6,4.1c-0.4,1.1-3.3,1.5-4.1,2.4c-1.6,1.8-4.8,6.8-3.7,8.9  c0.8,1.6,5.2,1.7,7,2c1.8,0.3,5.7-0.3,7.4,0.4c1,0.4,2.2,2.7,3.3,3c1.6,0.6,5.1-0.3,6.7-0.4c1.6-0.1,4.9-1.2,6.3-0.4  c1,0.5,1,3.4,2,3.9c1.4,0.8,4.7-0.1,6.3-0.2c2.5-0.2,7.7-2.6,9.8-1.3c1.6,1,0.9,6.2,2.4,7.4c1.7,1.3,6.8-0.9,8.4,0.4  c0.6,0.5,0.3,2.5,0.9,3c1,1,4.6,0.2,5.4,1.3c0.7,1-0.2,3.9-0.6,5.1c-0.3,1.1-1.8,3.1-2,4.2c-0.2,1,0.7,3.3,0.1,4.2  c-0.6,1-3.3,1-4.1,1.9c-0.7,0.8-0.4,3.5-1.3,4.2c-1,0.8-4.3-0.7-5.2,0.1c-1.1,1-1.2,4.5-0.6,5.8c0.5,1.1,3.3,1.8,4.1,2.8  c1.1,1.4,1.2,5.7,2.8,6.7c1.1,0.6,3.7-0.7,4.9-0.4c2.2,0.5,5.5,4.8,7.7,4.6c1-0.1,2.2-2.7,3.2-2.5c1.3,0.3,1.1,4.1,2.2,4.8  c1.1,0.7,4.1-0.6,5.2,0c1.1,0.6,1.4,3.9,2.6,4.4c1.5,0.6,4.4-1.6,5.9-1.9c0.9-0.2,2.9,0.3,3.8-0.1c1.2-0.7,2.6-3.3,3.2-4.5  c0.9-1.9,2.3-6.2,2-8.3c-0.2-1.7-3.5-4.3-3.3-6c0.2-1.5,2.6-4.3,4.1-4.6c1.8-0.5,5.4,1.3,6.8,2.5c1,0.8,1.9,3.5,2.9,4.4  c0.9,0.7,3.2,1.8,4.4,1.7c1.1-0.1,3.5-0.8,4.6-1.9c0.8,0.8,1.7,1.7,2,2.4c0.7,1.7,0,5.5,0.7,7.2c0.8,2.2,3.6,6,5.2,7.6  c1.4,1.4,5.5,2.8,6.7,4.4c1,1.2,2,5.2,2,5.9c0,0.7,2.8-0.1,3.5,0.4c1.2,0.8,0.9,4.3,1.7,5.4c1.5,2,6.8,3.6,8.1,5.7  c0.8,1.3-0.1,4.9,0.9,6.1c2.2,2.9,10.9,3,13.5,5.7c0.9,1,0.8,4.3,2,5c1.6,1,5.8-1.1,7.6-0.7c1.5,0.3,4.1,2,5.2,3  c1.2,1.1,3.6,3.8,3.7,5.4c0.1,0.9-1.3,2.6-1.5,3.5c-0.4,1.6-0.4,4.9-0.4,6.5c0,1.4,0.6,4.1,0.2,5.4c-0.4,1.7-3.2,4.4-3.7,6.1  c-0.4,1.3-0.6,4.1-0.4,5.4c0.1,0.9,0.4,2.8,1.1,3.3c1.4,1,5.5-1.2,7-0.2c1.1,0.7,1.1,3.9,1.7,5c0.7,1.1,2.4,3.2,3.5,3.9  c0.7,0.5,1.9,0.8,3,1.2c-0.9,0.8-2.8,1.5-3.7,1.6c-0.4,0-1.1-0.5-1.4-0.4c-0.9,0.2-2.1,1.7-2.9,2.2c-1.1,0.7-3.4,2.7-4.8,2.6  c-0.9,0-2.1-1.7-2.9-1.9c-1.6-0.4-4.8,0.5-6.4,0.7c-1.6,0.2-5,1.8-6.4,1c-0.8-0.4-0.7-2.8-1.4-3.3c-1.1-0.8-4.3,0.4-5.2-0.6  c-0.9-1,0.4-4.2-0.3-5.4c-0.7-1.1-3.2-2.5-4.5-2.5c-1.4,0-4,1.7-4.9,2.8c-0.9,1-2.2,3.5-2.2,4.8c0,1.2,1.9,2.9,2.2,4.1  c0.2,0.8-0.4,2.4-0.1,3.2c0.4,1.3,3.4,3,3.3,4.4c0,0.8-1.4,1.9-2,2.3c-1.1,0.7-3.8,0.6-4.8,1.3c-0.9,0.6-2.3,2.5-2.8,3.5  c-0.7,1.4-0.5,4.7-1.5,6c-0.6,0.8-2.8,1.3-3.5,2c-1.1,1.4-1,5.6-2.3,6.8c-0.9,0.8-3.9,0.2-4.8,1c-1.1,1.1-0.4,5-1.6,5.9  c-0.7,0.6-2.8,0.2-3.8,0.2c-2.3-0.1-6.9-1.4-9.1-0.9c-1.7,0.4-4.6,2.5-6.1,3.5c-1.6,1-4.2,4.4-6.1,4.5c-1,0.1-2.4-1.6-3.3-1.9  c-1.9-0.5-6.2-1-8,0c-1.3,0.7-2.5,3.8-3.3,5.1c-0.6,0.9-2,2.8-2.6,3.8c-0.7,1.1-1.7,3.8-2.8,4.6c-1.1,0.7-4.1,0.1-5.2,0.9  c-1.8,1.3-2.9,6.2-4.4,7.8c-0.7,0.8-2.8,1.6-3.5,2.4c-1,1-1.7,4-2.8,4.8c-1.5,1-5.2,0.6-7,0.9c-1.4,0.2-4.2,1.2-5.7,1.3  c-1.1,0.1-4.6-0.2-4.4-1.3c0.2-1.1,1.8-6.3,0.4-7.6c-1.3-1.4-5.9,0.7-7.6,0c-1.5-0.7-3-4.2-4.6-4.8c-1.5-0.5-5-0.1-6.3,0.9  c-1.4,1.1-2.4,4.9-3,6.5c-0.5,1.3-0.8,4.5-2,5.2c-1.3,0.8-4.6-0.8-6.1-0.4c-1.4,0.4-3.4,2.9-4.8,3.3c-2.9,0.7-8.8-1.4-11.8-1.1  c-2.6,0.3-7.4,3.1-10,3.5c-0.9,0.1-2.9-0.9-3.5-0.2c-0.9,1.1,1.8,3.9,1.5,5.2c-0.5,2-5,4.1-5.7,6.1c-0.4,1.3,0.6,4.1,0.4,5.4  c-0.2,1.6-1.7,4.5-1.7,6.1c-0.1,2,2.8,6,1.7,7.6c-1.2,1.8-6.7,0.4-8.5,1.5c-1.3,0.9-3,3.8-3.7,5.2c-0.7,1.4-0.4,5.2-1.7,5.9  c-1.3,0.6-3.8-2.2-5.2-2c-1.2,0.2-2.8,2.6-3.9,3c-1.2,0.5-4.3-0.4-5.2,0.4c-1.1,1,0,4.9-1.1,5.9c-1,0.9-4.3-0.3-5.4,0.4  c-0.8,0.6-1,3-1.7,3.7c-1,1.1-3.9,2.2-5.2,2.8c-0.9,0.4-2.7,0.5-4.2,0.8c-0.5-2.6-1.1-6-2.4-7.3c-1.4-1.4-5.5-2.5-7.4-2.8  c-1.8-0.3-5.5,0.9-7.3,0.3c-1.3-0.5-3.6-2.4-4.4-3.6c-1-1.8-2.1-6.1-1.3-8c0.5-1.3,3.6-2,4.4-3.2c0.7-1.1,1.6-3.9,0.9-4.9  C336.7,326.3,333.3,327,332.1,326.3z" data-stroke-width="0.2" style="stroke-width: 0.2;" class="  " id="kon-tum"></path>
<path fill="#F9BDC4" stroke="#484848" stroke-width="0.2" d="M632.4,728.6c-1,1.4-3,2.9-4.2,3.3c-1.1,0.4-3.5-0.5-4.6-0.2  c-1.3,0.4-3,3.2-4.4,3.5c-1.3,0.3-3.9-1.6-5.2-1.3c-0.9,0.2-2,1.9-2.9,2c-2,0.2-5.6-2.5-7.5-3c-1.2-0.3-3.8-1.4-4.9-0.9  c-1.2,0.5-1.6,3.8-2.8,4.4c-1.3,0.6-4.7,0.5-5.5-0.6c-0.9-1.2,1.6-4.5,1-5.8c-0.4-1-2.6-2.4-3.6-2.3c-1.4,0.1-3.9,2.3-4.5,3.6  c-0.6,1.3,1,4.4,0.1,5.5c-0.9,1.2-4.5,0.5-5.8,1.2c-1.8,0.8-4.4,4.1-6.2,4.9c-1.6,0.7-5.2,1.5-7,1.3c-2.1-0.2-5.8-4.3-7.8-3.5  c-1.7,0.6-1.6,5.3-2.9,6.5c-0.7,0.6-2.6,0.8-3.5,1.2c-1.6,0.7-4.2,3.4-6,3.5c-0.9,0-2.5-1.7-3.5-1.6c-1.8,0.2-4.7,3-5.4,4.6  c-0.4,1,0.8,3.4,0.4,4.5c-0.4,1-2.1,3.2-3.2,3c-0.6-0.1-0.5-1.7-1-2c-0.9-0.6-3.4,0.5-4.4,0c-0.7-0.3-1.3-2.1-2-2.3  c-1.6-0.5-4.7,2.2-6.4,1.9c-1.5-0.3-3.5-3-4.9-3.6c-1.6-0.7-5-1.7-6.7-1.4c-1.2,0.2-3.5,0.8-5.1,1.7c-0.1-0.2-0.2-0.3-0.2-0.5  c-1.1-1.9-5.5-3.9-6.7-5.7c-1.3-1.8-1.7-6.7-3-8.5c-1.1-1.5-4.6-3.3-5.9-4.8c-1-1.1-1.7-4.5-3-5.2c-2.2-1.3-7.7,0.7-10-0.2  c-1.1-0.5-2.6-2.6-3.7-3.3c-1.3-0.8-4.9-1-5.9-2.2c-1.4-1.8-0.3-6.8-1.1-8.9c-0.9-2.3-5.4-5.6-5.9-8.1c-0.3-1.6,0.5-5.2,1.5-6.5  c1.3-1.6,5.5-2.9,7.4-3.7c2.2-1,7.8-1.3,9.1-3.3c1.2-1.7,0.8-6.5-0.2-8.3c-0.8-1.4-4.4-2.4-5.7-3.5c-1-0.9-2-3.8-3.3-4.4  c-1.7-0.8-5.8,1.2-7.6,0.7c-1.5-0.5-4-2.8-4.8-4.1c-0.8-1.2-2.1-4.3-1.5-5.7c1-2.3,7.5-2.5,8.9-4.6c0.9-1.4,1.2-5,0.7-6.5  c-0.6-1.8-4.6-3.8-5.2-5.7c-0.9-2.6,1.2-8.2,1.1-10.9c-0.1-2.2-1.3-6.4-1.7-8.5c-0.2-1.3-0.1-4-0.9-5c-1.7-2.1-9-1.3-10.2-3.7  c-0.6-1.3,2-4,1.7-5.4c-0.2-1.5-2.1-4.3-3.5-4.8c-1.7-0.6-5.5,0.9-7,2c-1,0.7-1.5,3.6-2.6,3.9c-1.9,0.6-5.4-2.7-7.4-2.8  c-2-0.1-5.7,2.1-7.6,2c-1.8-0.1-5.1-2-6.7-2.6c-2.3-0.9-6.7-3.3-9.1-3.5c-2-0.1-5.7,1.7-7.6,1.7c-1.7,0-4.9-1.3-6.5-1.1  c-1.8,0.3-4.8,2.7-6.5,3.3c-0.7,0.2-2.1,0.5-3.3,0.6c-0.5-1.1-1-2.1-1.4-2.8c-1-1.8-4-4.6-5.2-6.2c-1.5-2.1-4.3-6.7-5.5-9  c-1.6-3.1-5.1-9.3-5.5-12.8c-0.4-3.2,1.8-9.6,2.2-12.8c0.4-3.4-0.2-10.4,0.7-13.6c0.9-3.1,4.7-8.3,6.1-11.2c1.9-4,4.7-12.5,6.5-16.5  c2-4.6,7.1-13.3,8.9-18c0.8-2.2,1.7-6.9,2.5-9.1c0.7-2,2.4-5.1,3.7-7.9c1.5,0,3.5,0,4.3-0.4c1.4-0.7,2.3-4.6,3.8-5.1  c0.6-0.2,1.9,0.8,2.6,0.7c1.2-0.1,3.5-1.3,4.5-2c0.7-0.5,1.7-2.2,2.5-2.6c0.8-0.5,2.6-0.9,3.5-0.9c1.1,0.1,3,1.4,4.1,1.5  c1.3,0,3.7-1.6,5.1-1.6c1.2,0,3.4,1.7,4.6,1.6c2-0.2,5.4-2.8,6.8-4.2c0.8-0.8,1.5-3.1,2.5-3.6c1.8-1,6.2-0.7,8.1-0.2  c1.8,0.5,4.7,3.5,6.5,3.9c1.8,0.4,5.7-0.3,7.5-0.7c1.1-0.3,3.2-1.9,4.4-1.6c1.1,0.3,2.1,3,3,3.6c0.8,0.5,2.6,1.2,3.5,1  c1.1-0.3,2.3-2.4,3.2-3c0.8-0.5,2.4-1.5,3.3-1.5c1.2,0.1,3.1,2,4.2,2.3c0.7,0.2,2.1,0.6,2.8,0.3c0.9-0.4,1.6-2.7,2.5-3.2  c0.8-0.4,2.9,0.3,3.5-0.3c0.6-0.6-0.5-2.9,0.2-3.5c1-1,4.3-0.9,5.7-0.6c1.2,0.3,3.1,2.3,4.4,2.5c0.8,0.1,2.6-0.1,3.3-0.6  c0.5-0.3,0.8-1.5,1.3-1.7c1-0.6,3.5-0.8,4.6-0.4c1,0.3,2.1,2.4,3,2.9c0.9,0.5,3.3,0.2,4.2,0.7c0.8,0.5,1.4,2.7,2.2,3.2  c1.1,0.7,3.9,0.4,5.2,0.7c0.6,0.2,1.9,0.5,2.3,0.9c0.4,0.4,0.5,1.7,1,2c1.7,1.1,6.1,0.4,8.1,0.4c1.6,0,5.1-0.9,6.4,0  c0.8,0.5,0.8,3.1,1.6,3.6c1.3,0.9,4.9-0.3,6.4,0.3c1,0.4,2.5,2.3,3.5,2.8c1.1,0.5,3.7,0.1,4.6,0.9c0.8,0.7,0.6,3.5,1.4,4.2  c1,0.8,4.4-0.4,5.2,0.6c0.7,0.8-0.1,3-0.1,4.1c-0.1,1.6-1.3,4.7-0.9,6.2c0.2,0.8,1.2,2.1,1.9,2.5c0.9,0.5,3.2,0.3,4.2,0  c0.6-0.2,1.6-1.3,2.2-1.2c0.7,0.1,1.7,1.4,2,2c0.4,0.7,0.9,2.1,1,2.9c0.1,1-0.6,3.2-0.3,4.2c0.2,0.5,1.2,1.2,1.4,1.7  c0.4,1-0.1,3.3,0.3,4.4c0.4,0.9,2.2,2.1,2.5,3c0.2,0.7-0.9,2.5-0.4,3c1,1.2,5.1-1,6.2,0c0.7,0.6,0.2,2.6,0.4,3.5  c0.2,1.1,1.2,3.2,1.3,4.4c0.1,0.9-0.8,3-0.3,3.8c0.7,1,3.8,0.5,4.6,1.4c0.8,0.9,0.2,3.9,0.9,4.9c0.6,1,3.2,1.6,3.8,2.6  c0.7,1.1,0,4,0.6,5.2c0.6,1.3,2.6,3.6,3.9,4.4c1.1,0.6,3.7,0.4,4.8,0.9c1,0.4,2.5,2.6,3.6,2.6c1.2,0,2.8-2.3,3.9-2.5  c1.1-0.2,3.4,0.6,4.4,1.2c0.9,0.6,1.9,2.8,2.9,3.2c1.3,0.5,4.3-0.7,5.5-0.1c0.7,0.3,1.1,2,1.7,2.3c1.2,0.6,4.1,0.5,5.4,0.1  c1-0.3,2.4-2,3.3-2.2c0.2,0,0.6,0,1.1,0c-0.2,0.6-0.4,1.3-0.5,1.7c-0.3,1.5-1.2,5-0.3,6.2c1,1.3,4.9,0.9,6.2,1.7  c1,0.6,2.2,2.9,3.2,3.6c1.5,1,5.7,1,6.7,2.5c0.6,0.9-0.5,3.5,0,4.5c0.8,1.6,4.4,3,5.5,4.4c1.1,1.4,1.4,5.8,3,6.7  c0.9,0.5,2.9-0.6,3.9-0.7c1.7-0.1,5.2-0.7,6.7,0.1c1.6,0.9,2.8,4.7,3.6,6.4c0.6,1.3,1.2,4.2,2.2,5.2c0.7,0.8,2.6,1.8,3.6,2  c1.9,0.4,5.9-1,7.8-0.7c1.3,0.2,3.6,2.1,4.9,2c0.9,0,2.3-1.4,3.2-1.4c0.9,0,2.8,0.6,3.3,1.3c0.6,0.8,0.3,3,0.7,3.9  c0.5,1.2,2.7,2.8,3.3,3.9c0.4,0.8,1,2.6,0.9,3.5c-0.2,1.4-2.7,3.8-2.6,5.2c0.1,1.4,2.5,3.2,3.3,4.8c0.2,0.3,0.2,0.6,0.2,0.9  c-0.2,1.7-3.3,4.4-4.9,4.9c-1,0.4-3.3-0.7-4.4-0.6c-1.4,0.1-4,1.5-5.4,1.6c-1.1,0.1-3.6-1.5-4.5-0.9c-1.1,0.7-1,3.8-1,5.1  c0,1.4,1.6,4.3,1.2,5.7c-0.2,0.6-1.5,1.3-1.9,1.9c-0.6,0.9-1.3,2.9-1.7,3.9c-0.6,1.3-2.4,3.7-2.5,5.1c-0.1,1.5,1.8,4.3,1.7,5.8  c0,1.2-1.3,3.5-1.7,4.6c-0.6,1.5-2.2,5.5-2.2,6c0,0.4,0.3,3.5,0,4.6c-0.4,1.3-3,3-2.9,4.4c0.1,0.9,2.3,1.9,2.5,2.8  c0.2,0.9-0.2,3.2-1,3.6c-1.4,0.6-4.1-1.8-5.4-2.6c-1.2-0.8-3.2-3.1-4.5-3.6c-1.2-0.5-4.1,0.3-5.1-0.4c-0.5-0.4-0.4-2-0.9-2.3  c-1.7-1.3-6.4-1.2-8.4-0.6c-0.8,0.3-1.9,1.8-2.8,2.2c-1.9,0.8-6.5-0.5-8,0.9c-0.6,0.5-0.2,2.4-0.7,2.9c-0.9,0.9-4.1-0.1-5.1,0.7  c-1,0.9-1.5,3.9-1.4,5.2c0.1,1.1,1.5,3.1,1.6,4.2c0.1,1.6-2,4.8-1.6,6.4c0.3,1.1,2.7,2.1,3,3.2c0.3,0.9-0.2,2.8-0.4,3.8  c-0.4,1.8-2.3,5.1-2.5,7c-0.1,1,0.9,2.9,0.6,3.8C632.9,727.8,632.7,728.2,632.4,728.6z" data-stroke-width="0.2" style="stroke-width: 0.2;" class=" " id="dak-lak"></path>
<path fill="#F9BDC4" stroke="#484848" stroke-width="0.2" d="M621,229.4c0.5,1,0.9,2,1.2,2.7c1.1,2.5,4.9,7.7,3.9,10.2  c-0.4,1.1-3.2,1.8-4.4,2.2c-1.6,0.4-5.6-0.8-6.6,0.5c-1,1.4,0.6,5.1,1.3,6.6c0.7,1.4,3.3,3.2,4,4.6c0.8,1.4,1.9,4.4,1.8,6  c-0.1,1.5-2.4,4-2.2,5.4c0.2,1.9,3.4,4.5,4.4,6.1c0.6,1,1.6,3.9,1.6,4.2c0,0.3-1,5.6-0.7,7.4c0.4,1.8,2.9,4.9,3.6,6.6  c0.8,1.9,1.8,5.8,2.5,7.7c0.5,1.4,2.5,4,2.4,5.5c-0.2,1.6-3.6,3.7-3.6,5.3c0,0.9,1.4,2.2,2,2.9c0.9,1.2,3.3,3.2,3.9,4.6  c0.5,1.2-0.2,3.9,0.4,5c0.6,1.2,3.5,2.3,4.2,3.5c0.7,1.2,0.7,4.2,1.3,5.4c0.5,1.1,2.2,2.9,3.2,3.6c0.8,0.6,2.7,1.2,3.6,1.5  c0.7,0.2,2.4,0.2,2.9,0.8c1.1,1.2,1.3,4.6,1.1,6.2c-0.1,0.9-1,2.5-1.5,3.3c-0.4,0.6-1.5,1.6-2,2.2c-0.5,0.7-1.4,2.8-1.4,3.2  c0,0.3,0.1,3.7,0,4.9c-0.1,0.8-0.7,2.3-0.8,3.2c-0.1,1.4,0.5,4.2,0.5,5.7c0,1-0.7,3.1-0.2,3.9c0.3,0.6,2.1,0.8,2.5,1.4  c0.4,0.6-0.1,2.2,0.3,2.6c0.6,0.6,2.5,0.4,3.4,0.4c0.5,0,1.7-0.6,2.2-0.3c1.2,0.7,1.6,3.9,1.8,5.3c0.1,0.7,0,2.4,0,2.8  c0,0.4,1.2,1.9,1.5,2.6c0.2,0.7-0.2,2.4,0.3,3c0.5,0.7,2.5,0.6,3,1.2c0.8,0.8,1.2,3.2,1.7,4.3c0.3,0.8,1.3,2.3,1.4,3.2  c0.1,0.7-0.5,2-0.3,2.7c0.2,0.6,1.4,1.5,1.6,2.1c0.5,1.4,0.4,4.6,0,6c-0.2,0.8-1.4,2-1.5,2.8c-0.2,0.7,0.5,2.2,0.2,2.9  c-0.4,0.8-2.7,1.2-3,2.1c-0.4,1.4,2.6,4,2.4,5.4c-0.1,0.8-1.9,1.6-2.1,2.4c-0.2,1,0.4,3,0.9,3.8c0.6,0.9,3,1.5,3.6,2.4  c0.7,1.3-0.2,4.4,0.3,5.7c0.4,1,2.4,2.2,2.6,3.2c0.2,0.8-1.1,2.4-0.9,3.3c0.2,0.9,2.5,1.8,2.3,2.7c0,0.1-0.1,0.2-0.1,0.3  c-0.6,0.9-2.7,1.5-3.6,1.4c-1,0-2.8-1.1-3.6-1.7c-0.6-0.4-1.2-1.8-1.9-2c-0.8-0.2-2.7,0.3-3.4,0.9c-0.5,0.4-0.7,1.9-1.3,2.3  c-0.8,0.5-2.9,0.2-3.8,0c-0.9-0.2-2.5-1.4-3.5-1.4c-0.7,0-2.2,0.4-2.8,0.9c-0.5,0.4-1.3,1.8-1.5,2c-0.1,0.2-2.9-0.6-3.8-0.1  c-1.3,0.7-2.4,3.6-2.7,5c-0.2,1.2,0.9,3.7,0.6,4.9c-0.4,1.4-3.8,3.2-3.6,4.6c0.1,1.1,3,1.9,3.5,2.9c0.5,1.1-1.1,4-0.3,4.9  c0.9,1,3.9,0.7,5.1,0.3c1.2-0.4,2.8-3,4.1-3.2c1.1-0.1,2.9,2.1,3.9,1.7c0.7-0.3,0.6-2.2,1.2-2.6c0.6-0.4,2.5-0.8,3-0.3  c1,0.9-0.2,4.2,0.4,5.4c0.5,0.9,2.9,1.6,3.2,2.6c0.4,1.3-1.9,3.8-1.9,5.2c0,1.8,1.9,5.1,2.2,6.8c0.3,1.8-0.5,5.6,0.1,7.3  c0.3,0.8,1.8,1.9,2.3,2.6c1.4,1.7,4,5.5,5.7,7c0.8,0.8,3.2,1.5,3.8,2.5c0.7,1,0.7,3.5,0.9,4.6c0.3,1.6,1.3,4.8,1.2,6.4  c-0.2,1.8-1.5,5.2-2.5,6.7c-0.6,1-2.9,2.1-3.2,3.2c-0.3,1,0.8,3,0.7,4.1c-0.1,1.6-0.6,5.1-1.7,6.2c-1.9,2-8.2,1.7-10.3,3.3  c-1.2,1-2,4.5-3.3,5.4c-0.9,0.6-3.3,0.2-4.1,0.9c-0.8,0.7-1.1,3.1-1.4,4.1c-0.6,1.5-2.3,4.5-2.5,6.1c-0.2,1.8,1.5,5.3,1.6,7.1  c0.1,1.1,0.2,3.7-0.6,4.5c-0.7,0.8-3.2,0.2-4.2,0.6c-1,0.4-2.6,2-3.6,2.2c-1.2,0.2-3.8-1.3-4.9-0.7c-0.3,0.2-0.6,0.7-0.8,1.3  c-0.4,0-0.8,0-1.1,0c-1,0.2-2.4,1.9-3.3,2.2c-1.3,0.4-4.2,0.5-5.4-0.1c-0.6-0.3-1.1-2-1.7-2.3c-1.2-0.6-4.3,0.7-5.5,0.1  c-1-0.4-2-2.6-2.9-3.2c-1-0.6-3.2-1.3-4.4-1.2c-1.1,0.2-2.8,2.5-3.9,2.5c-1.1,0-2.6-2.2-3.6-2.6c-1.1-0.5-3.7-0.3-4.8-0.9  c-1.3-0.7-3.3-3-3.9-4.4c-0.5-1.2,0.1-4.1-0.6-5.2c-0.6-1-3.2-1.6-3.8-2.6c-0.7-1.1,0-4-0.9-4.9c-0.8-0.9-4-0.4-4.6-1.4  c-0.5-0.8,0.4-2.8,0.3-3.8c-0.1-1.1-1.1-3.2-1.3-4.4c-0.2-0.9,0.2-2.9-0.4-3.5c-1.2-1-5.2,1.2-6.2,0c-0.5-0.6,0.6-2.3,0.4-3  c-0.3-0.9-2.1-2.1-2.5-3c-0.4-1,0.1-3.3-0.3-4.4c-0.2-0.5-1.3-1.2-1.4-1.7c-0.3-1,0.4-3.2,0.3-4.2c-0.1-0.8-0.6-2.3-1-2.9  c-0.4-0.6-1.3-1.9-2-2c-0.6-0.1-1.6,1-2.2,1.2c-1,0.3-3.3,0.5-4.2,0c-0.7-0.3-1.7-1.7-1.9-2.5c-0.4-1.5,0.7-4.7,0.9-6.2  c0.1-1,0.8-3.3,0.1-4.1c-0.9-1-4.2,0.2-5.2-0.6c-0.9-0.7-0.6-3.5-1.4-4.2c-0.9-0.8-3.6-0.4-4.6-0.9c-1-0.5-2.4-2.4-3.5-2.8  c-1.5-0.6-5.1,0.6-6.4-0.3c-0.8-0.6-0.8-3.1-1.6-3.6c-1.3-0.9-4.8,0-6.4,0c-2-0.1-6.4,0.7-8.1-0.4c-0.5-0.3-0.6-1.7-1-2  c-0.5-0.4-1.7-0.7-2.3-0.9c-1.3-0.3-4.1,0-5.2-0.7c-0.8-0.5-1.4-2.7-2.2-3.2c-0.9-0.6-3.3-0.2-4.2-0.7c-0.9-0.5-2.1-2.6-3-2.9  c-1.1-0.4-3.6-0.1-4.6,0.4c-0.5,0.3-0.8,1.5-1.3,1.7c-0.7,0.4-2.5,0.7-3.3,0.6c-1.2-0.2-3.1-2.2-4.4-2.5c-1.4-0.3-4.7-0.5-5.7,0.6  c-0.6,0.6,0.5,2.9-0.2,3.5c-0.6,0.6-2.7-0.1-3.5,0.3c-0.9,0.5-1.5,2.8-2.5,3.2c-0.6,0.3-2.1-0.1-2.8-0.3c-1.1-0.4-3-2.3-4.2-2.3  c-0.9,0-2.6,1-3.3,1.5c-0.9,0.6-2.1,2.8-3.2,3c-0.9,0.2-2.7-0.5-3.5-1c-1-0.6-1.9-3.3-3-3.6c-1.1-0.3-3.2,1.3-4.4,1.6  c-1.8,0.4-5.7,1.1-7.5,0.7c-1.9-0.4-4.7-3.4-6.5-3.9c-2-0.5-6.3-0.8-8.1,0.2c-1,0.5-1.7,2.9-2.5,3.6c-1.4,1.4-4.8,4-6.8,4.2  c-1.2,0.1-3.4-1.6-4.6-1.6c-1.3,0-3.7,1.6-5.1,1.6c-1.1,0-3-1.4-4.1-1.5c-0.9,0-2.7,0.4-3.5,0.9c-0.8,0.5-1.7,2.1-2.5,2.6  c-1,0.7-3.3,1.9-4.5,2c-0.7,0.1-2-0.9-2.6-0.7c-1.5,0.5-2.4,4.3-3.8,5.1c-0.8,0.4-2.8,0.4-4.3,0.4c0.8-1.6,1.4-3,1.8-4.2  c0.7-2.3,1.9-6.9,1.9-9.3c0-2.3-1.7-6.6-1.9-8.9c-0.2-3.2,1.5-9.7,1.2-12.9c-0.4-3.5-3.1-10.2-4.4-13.5c-0.7-2-2.3-5.8-3.2-7.7  c-1-2.3-3.7-6.5-4.5-8.9c-1.2-3.5-1.7-10.9-2.9-14.4c-1.1-3.1-4-9.1-5.8-11.9c-1.5-2.3-4.8-6.8-7.1-8.3c-1.7-1.1-6.4-0.8-8-2  c-1.2-0.9-2.7-3.7-2.9-5.2c-0.3-2.2,2.3-6.3,2.3-8.6c0-1.8-1.7-5.3-1.7-7.1c-0.1-2.5,1.8-7.4,1.7-9.9c-0.1-1.8-1.4-5.3-1.9-7.1  c-0.2-0.6-0.3-1.4-0.5-2.2c1.5-0.3,3.3-0.4,4.2-0.8c1.4-0.6,4.2-1.7,5.2-2.8c0.7-0.7,0.9-3.1,1.7-3.7c1.1-0.8,4.4,0.5,5.4-0.4  c1.1-1,0-4.9,1.1-5.9c1-0.9,4,0,5.2-0.4c1.2-0.5,2.7-2.9,3.9-3c1.4-0.2,4,2.6,5.2,2c1.4-0.7,1.1-4.5,1.7-5.9  c0.7-1.4,2.4-4.4,3.7-5.2c1.8-1.2,7.3,0.3,8.5-1.5c1.1-1.6-1.8-5.7-1.7-7.6c0-1.6,1.6-4.5,1.7-6.1c0.1-1.4-0.9-4.2-0.4-5.4  c0.7-2,5.2-4.1,5.7-6.1c0.3-1.3-2.4-4.2-1.5-5.2c0.5-0.7,2.6,0.3,3.5,0.2c2.6-0.4,7.4-3.2,10-3.5c2.9-0.4,8.9,1.8,11.8,1.1  c1.4-0.4,3.4-2.9,4.8-3.3c1.5-0.4,4.8,1.3,6.1,0.4c1.2-0.8,1.4-3.9,2-5.2c0.7-1.7,1.6-5.5,3-6.5c1.3-0.9,4.8-1.4,6.3-0.9  c1.6,0.5,3,4.1,4.6,4.8c1.7,0.7,6.3-1.4,7.6,0c1.3,1.4-0.2,6.5-0.4,7.6c-0.2,1.1,3.2,1.4,4.4,1.3c1.4-0.1,4.2-1.1,5.7-1.3  c1.7-0.3,5.5,0.1,7-0.9c1.2-0.8,1.9-3.8,2.8-4.8c0.7-0.8,2.8-1.6,3.5-2.4c1.5-1.7,2.5-6.5,4.4-7.8c1.1-0.8,4.1-0.1,5.2-0.9  c1.1-0.7,2.1-3.4,2.8-4.6c0.6-1,2-2.8,2.6-3.8c0.9-1.3,2-4.4,3.3-5.1c1.8-1,6.1-0.5,8,0c0.9,0.2,2.4,1.9,3.3,1.9  c1.9-0.1,4.5-3.5,6.1-4.5c1.5-1,4.4-3.1,6.1-3.5c2.2-0.5,6.8,0.8,9.1,0.9c0.9,0,3,0.4,3.8-0.2c1.2-1,0.5-4.9,1.6-5.9  c0.9-0.8,3.9-0.2,4.8-1c1.3-1.2,1.2-5.4,2.3-6.8c0.6-0.8,2.9-1.2,3.5-2c0.9-1.2,0.8-4.6,1.5-6c0.5-1,1.8-2.9,2.8-3.5  c1-0.7,3.7-0.6,4.8-1.3c0.7-0.4,2-1.6,2-2.3c0-1.4-2.9-3-3.3-4.4c-0.2-0.8,0.3-2.4,0.1-3.2c-0.2-1.1-2.1-2.9-2.2-4.1  c0-1.3,1.3-3.8,2.2-4.8c1-1,3.5-2.8,4.9-2.8c1.3,0,3.8,1.4,4.5,2.5c0.7,1.1-0.6,4.4,0.3,5.4c0.9,0.9,4.2-0.2,5.2,0.6  c0.7,0.5,0.7,2.9,1.4,3.3c1.4,0.8,4.8-0.8,6.4-1c1.6-0.2,4.8-1.1,6.4-0.7c0.8,0.2,2,1.9,2.9,1.9c1.4,0.1,3.6-1.9,4.8-2.6  c0.8-0.5,2-2,2.9-2.2c0.4-0.1,1.1,0.5,1.4,0.4c0.9-0.1,2.8-0.8,3.7-1.6c1.3,0.4,2.6,0.8,3.3,1.4c1,0.9,1.5,3.8,2.4,4.8  c1.2,1.2,4.7,1.9,5.9,3C619.4,226,620.3,227.8,621,229.4z" data-stroke-width="0.2" style="stroke-width: 0.2;" class=" " id="gia-lai"></path>
<path fill="#F9BDC4" stroke="#484848" stroke-width="0.2" d="M341.9,853.6c0.5,0.7,1.1,1.3,1.6,1.4c1.2,0.4,4,0.4,5-0.4  c0.4-0.4,0.2-1.9,0.7-2.2c1.1-0.7,3.9,1.5,5.2,1.1c1.4-0.4,3.2-3,4.1-4.1c1.1-1.4,2.1-5.1,3.7-5.9c1.2-0.6,4.1,0.2,5.4,0.4  c2.4,0.5,7.1,4.4,9.4,3.3c1.3-0.7,0.9-4.5,1.7-5.7c1.2-1.6,5.3-3,6.7-4.4c1.4-1.4,4.1-5.9,5.2-5.9c1.1,0,5.2,0.7,6.7,0  c1.9-0.9,4.5-4.4,5.4-6.3c0.7-1.4,0.2-5.2,1.3-6.3c1.2-1.2,4.9-1.6,6.5-1.5c1.7,0.1,5.6,0.5,6.3,2c0.8,1.6-2.2,5.9-2.2,6.7  c0,0.9,1.7,1.8,2.4,2.2c2.2,1.2,6.2,5,8.7,5c2.3,0,5.8-3.9,8.1-4.4c1.5-0.3,4.7,0.6,6.3,0.4c2.8-0.4,7.9-4,10.7-3.7  c1.6,0.2,5,1.7,5.4,3.3c0.6,2.1-4,5.5-3.9,7.6c0,1.6,1.9,4.8,3.3,5.7c1.4,0.9,5,1.5,6.5,0.9c1.1-0.4,1.9-3.6,3-3.7  c1.7-0.2,4.3,2.7,5.4,3.9c0.7,0.7,1.3,2.9,2.2,3c2,0.4,4.8-3.8,6.7-4.4c1.8-0.6,5.9,0.6,7.6-0.2c1.6-0.8,3.2-4.1,4.4-5.4  c1.4-1.7,4.4-5.1,5.9-6.7c1-1.1,3.3-3.2,3.9-4.6c0.5-1.3,1.3-4.5,0.4-5.7c-0.8-1.1-4.2-0.2-5.2-1.1c-1-0.9-0.6-4.2-1.5-5.2  c-0.9-0.9-3.9-0.8-4.8-1.7c-1.2-1.3-0.6-5.4-1.7-6.7c-1-1.3-4.7-1.7-5.9-2.8c-1.1-1.2-2.4-4.3-2.6-5.9c-0.3-2.5,2.5-7.4,1.7-9.8  c-0.7-2-5.1-4.1-6.3-5.9c-0.9-1.3-2.8-4.2-2.4-5.7c0.6-2,5-4,7-4.8c2.9-1.2,9.1-2.7,12.2-2.6c1.6,0,4.6,1.9,6.1,1.5  c1.4-0.4,3.8-2.5,4.4-3.9c0.7-1.8,0-5.7-0.9-7.8c1.7-0.9,3.9-1.5,5.1-1.7c1.7-0.2,5.1,0.7,6.7,1.4c1.4,0.6,3.4,3.4,4.9,3.6  c1.6,0.3,4.8-2.4,6.4-1.9c0.7,0.2,1.3,2,2,2.3c1,0.5,3.4-0.6,4.4,0c0.5,0.3,0.5,1.9,1,2c1.1,0.2,2.8-2,3.2-3  c0.4-1.1-0.9-3.4-0.4-4.5c0.7-1.7,3.6-4.4,5.4-4.6c1-0.1,2.5,1.6,3.5,1.6c1.7-0.1,4.4-2.8,5.9-3.5c0.8-0.4,2.8-0.5,3.5-1.2  c1.3-1.2,1.2-5.9,2.9-6.5c2-0.8,5.7,3.2,7.8,3.5c1.8,0.2,5.4-0.6,7-1.3c1.8-0.8,4.4-4.1,6.2-4.9c1.3-0.6,4.9,0,5.8-1.2  c0.9-1.1-0.7-4.3-0.1-5.5c0.6-1.3,3.1-3.6,4.5-3.6c1.1-0.1,3.2,1.3,3.6,2.3c0.6,1.4-1.9,4.6-1,5.8c0.8,1.1,4.3,1.2,5.5,0.6  c1.2-0.6,1.6-3.8,2.8-4.4c1.1-0.5,3.7,0.5,4.9,0.9c2,0.6,5.5,3.3,7.5,3c0.9-0.1,2-1.9,2.9-2c1.3-0.2,3.9,1.6,5.2,1.3  c1.4-0.3,3-3,4.4-3.5c1.1-0.4,3.6,0.6,4.6,0.2c1.2-0.4,3.1-1.9,4.2-3.3c1.4,0.6,3,1.3,3.3,2.1c0.4,1.1-1.2,3.2-1.1,4.4  c0.2,1.7,3.1,4.4,3.5,6.1c0.6,2.3-0.8,7.1-0.2,9.4c0.5,1.8,2.5,4.4,3.8,6.5c-0.7,0.5-1.8,0.9-2.1,1.4c-0.6,1-0.9,3.6-1,4.8  c-0.1,1.1,0.6,3.3,0.3,4.4c-0.2,1-1.9,2.4-2.2,3.4c-0.3,1.1,0.2,3.4,0.4,4.6c0.3,1.3,1.9,3.9,1.6,5.2c-0.1,0.8-1.4,1.8-1.8,2.5  c-1.1,1.7-3.2,5-3.7,7c-0.3,1.3,0.5,4.1,0.1,5.3c-0.2,0.8-1.7,2-2,2.8c-0.3,1-0.2,3.1-0.3,4.1c-0.2,1.3-0.8,4-0.9,5.3  c0,1.6,1.2,4.8,0.7,6.3c-0.4,1.2-3,2.5-3.5,3.7c-0.4,1.1,0.3,3.7,0.1,4.9c-0.2,1-0.9,3.1-1.6,3.9c-0.6,0.7-2.7,1.1-3.4,1.8  c-1.3,1.4-2.5,5.2-3,7c-0.4,1.6-1.4,5.1-0.7,6.7c0.6,1.3,3.2,2.7,4.5,3.2c1.3,0.5,4.5,0,5.4,1c1.1,1.4,0.2,5.5-0.1,7.3  c-0.2,0.7-1.5,2.1-1.2,2.8c0.7,1.8,5.7,1.5,7.1,2.8c1.2,1.1,3.4,4.3,3,6c-0.2,0.9-2.3,1.5-2.6,2.3c-0.5,1.1,0.7,3.7,0,4.6  c-1,1.3-4.6,2.3-6.2,2.2c-1-0.1-2.5-1.9-3.5-1.7c-1.7,0.2-3.6,3.9-5.1,4.8c-0.9,0.5-2.9,1.1-3.9,1.2c-1.7,0.2-5.1-1.2-6.7-0.6  c-1.3,0.5-3,3.1-3.6,4.4c-0.7,1.3-1.7,4.2-1.4,5.7c0.2,1.3,2.6,3.2,2.6,4.5c0,0.8-1.2,2-1.5,2.8c-0.6,1.8-1.2,5.5-1.2,7.3  c0,0.8,0.3,2.4,0.5,3.7c-0.1,0.1-0.1,0.1-0.2,0.2c-1,1-2.6,3.9-4.1,4.2c-1.4,0.3-4-1.9-5.4-2.5c-1.7-0.7-5-2.8-6.8-2.8  c-2.4,0.1-8,3.9-8.7,3.9c-0.7,0-3.7,0.5-4.9,0.1c-0.9-0.2-2.1-1.9-3-2c-1.1-0.2-3.1,1.3-4.2,1.3c-0.9,0-2.7-1.2-3.6-1  c-0.8,0.2-1.8,2-2.6,2.2c-2.1,0.3-5.7-3.3-7.8-3.2c-1,0-2.5,1.5-3.5,1.7c-1.3,0.3-4.1-0.4-5.4,0c-1,0.3-2.6,1.8-3.5,2.3  c-0.8,0.5-3,1-3.3,1.9c-0.4,0.9,1.3,2.9,1.2,3.9c-0.1,0.9-1.8,2.3-1.9,3.2c-0.1,1.2,0.7,3.8,1.7,4.5c0.8,0.5,2.2,0,3.8,0  c1.6,0,1.4,2.2,1.7,3c0.5,1.2,3.1,2.9,3.2,4.2c0.1,1.1-1.4,2.9-2.2,3.6c-1.1,1-4.4,1.4-5.5,2.5c-1,1-2.3,4.9-2.8,4.9  c-0.4,0-2.4,2.3-3.3,2.9c-1,0.8-3.6,1.5-4.6,2.3c-1.6,1.2-3.9,4.5-5.2,5.9c-0.8,0.9-2.1,2.9-3.2,3.3c-1.1,0.5-3.5-0.1-4.6,0.1  c-2.1,0.5-5.8,2.9-7.8,3.5c-1.1,0.3-4.1,0.4-4.5,0.4c-0.4,0-1.3,4-2.5,4.6c-0.8,0.4-2.7-0.6-3.5-0.3c-0.9,0.4-1.8,2.6-2.6,3.2  c-0.8,0.5-2.9,0.6-3.5,1.3c-0.5,0.7-0.2,2.5-0.3,3.3c-0.1,0.7,0.3,2.7-0.4,2.9c-1.6,0.4-3.4-3.9-3.8-5.5c-0.3-1.3,0.4-4.8,0.4-5.2  c0-0.4,0-4.8,0-6.5c0-1.7-4.2-4.6-4.5-6.5c-0.2-1.1,2.4-3.2,1.9-4.2c-1.1-2.5-7.7-2.6-10.3-3.3c-1.8-0.5-5.3-1.3-7.1-1.5  c-2.1-0.1-6.4,0.8-8.6,0.6c-1.6-0.1-4.6-1.4-6.2-1.5c-1.4,0-4.1,1-5.5,1c-1.4,0-4.1-1-5.5-1.2c-2.4-0.3-7.2-0.6-9.6-0.3  c-1.7,0.2-5,1.7-6.7,1.9c-1.7,0.2-5.1-0.7-6.8-0.4c-0.9,0.2-2.7,0.5-3.9,1.1c-0.1-0.4-0.2-0.7-0.4-0.9c-1.4-1.8-7-0.6-9.1-1.3  c-1.7-0.6-4.6-2.6-6.2-3.3c-1.2-0.5-3.7-1.3-4.9-1.9c-1.7-0.8-4.8-2.9-6.5-3.6c-3.2-1.3-10.1-2.7-13.4-3.8c-1.3-0.4-4.2-1.1-5.2-2  c-1.1-1-1.4-4.3-2.5-5.4c-0.8-0.9-4-1-4.2-2.2c-0.2-1.3,3.2-2.4,3.6-3.6c0.4-1,0.2-3.5-0.6-4.4c-1.1-1.2-5-0.6-6.2-1.6  c-1.2-0.9-1.7-4.2-2.9-5.1c-1.5-1.2-5.8-1.2-7.5-2.2c-1.1-0.6-2.6-2.8-3.8-3.3c-1.8-0.8-5.9-0.7-7.8-1c-1.7-0.3-4.9-1.8-6.5-1.4  c-0.9,0.2-2.1,1.1-3.2,2c-0.5-0.4-0.9-0.7-1.2-0.9c-1.6-1.1-6.1-1.2-7-2.8c-1-1.9,2.5-6.3,1.7-8.3c-0.6-1.6-4.4-2.9-5.4-4.4  c-0.9-1.2-2-4.2-2-5.7c0.1-2,2.8-5.3,3.3-7.2c0.3-1.3,0-4.1,0.2-5.4c0.2-1.6,0.3-5.1,1.5-6.1c1.5-1.2,5.9,0.7,7.6,0  c1.7-0.7,3.5-4.3,5-5.2c1.8-1.1,6-3.1,8.1-2.6C340.1,851.1,341,852.5,341.9,853.6z" data-stroke-width="0.2" style="stroke-width: 0.2;" class=" " id="lam-dong"></path>
<path fill="#F9BDC4" stroke="#484848" stroke-width="0.2" d="M 502.1 756.7 C 503 758.7 503.6 762.7 503 764.5 C 502.5 765.9 500.1 768.1 498.6 768.4 C 497.1 768.8 494.1 766.9 492.5 766.9 C 489.4 766.8 483.2 768.3 480.3 769.5 C 478.40000000000003 770.3 473.90000000000003 772.3 473.3 774.3 C 472.90000000000003 775.8 474.8 778.6999999999999 475.7 780 C 476.9 781.8 481.3 783.8 482 785.9 C 482.8 788.3 480 793.1999999999999 480.3 795.6999999999999 C 480.5 797.3 481.8 800.4 482.90000000000003 801.5999999999999 C 484.00000000000006 802.8 487.70000000000005 803.1999999999999 488.8 804.3999999999999 C 489.90000000000003 805.6999999999998 489.40000000000003 809.8999999999999 490.5 811.0999999999999 C 491.4 811.9999999999999 494.4 811.8999999999999 495.3 812.8 C 496.2 813.8 495.8 817.0999999999999 496.8 818 C 497.8 818.9 501.2 818 502 819.1 C 502.9 820.2 502.1 823.5 501.6 824.8000000000001 C 501 826.2 498.70000000000005 828.2 497.70000000000005 829.4000000000001 C 496.20000000000005 831.1000000000001 493.20000000000005 834.4000000000001 491.80000000000007 836.1000000000001 C 490.70000000000005 837.4000000000001 489.00000000000006 840.8000000000002 487.4000000000001 841.5000000000001 C 485.7000000000001 842.4000000000001 481.6000000000001 841.2000000000002 479.80000000000007 841.7000000000002 C 477.9000000000001 842.3000000000002 475.00000000000006 846.4000000000002 473.1000000000001 846.1000000000001 C 472.2000000000001 845.9000000000001 471.6000000000001 843.7000000000002 470.9000000000001 843.1000000000001 C 469.7000000000001 841.9000000000001 467.1000000000001 839.0000000000001 465.5000000000001 839.2000000000002 C 464.3000000000001 839.4000000000002 463.60000000000014 842.5000000000001 462.5000000000001 842.9000000000002 C 461.0000000000001 843.5000000000002 457.3000000000001 842.9000000000002 456.0000000000001 842.0000000000002 C 454.60000000000014 841.1000000000003 452.8000000000001 838.0000000000002 452.7000000000001 836.3000000000002 C 452.6000000000001 834.2000000000002 457.2000000000001 830.7000000000002 456.6000000000001 828.7000000000002 C 456.2000000000001 827.2000000000002 452.7000000000001 825.6000000000001 451.2000000000001 825.4000000000002 C 448.4000000000001 825.1000000000003 443.3000000000001 828.7000000000002 440.5000000000001 829.1000000000003 C 438.9000000000001 829.3000000000003 435.7000000000001 828.3000000000003 434.2000000000001 828.7000000000003 C 432.0000000000001 829.2000000000003 428.4000000000001 833.1000000000003 426.1000000000001 833.1000000000003 C 423.6000000000001 833.1000000000003 419.6000000000001 829.3000000000003 417.4000000000001 828.1000000000003 C 416.7000000000001 827.7000000000003 415.0000000000001 826.8000000000003 415.0000000000001 825.9000000000002 C 415.0000000000001 825.0000000000002 418.0000000000001 820.7000000000002 417.2000000000001 819.2000000000002 C 416.5000000000001 817.7000000000002 412.5000000000001 817.3000000000002 410.9000000000001 817.2000000000002 C 409.2000000000001 817.1000000000001 405.5000000000001 817.5000000000001 404.4000000000001 818.7000000000002 C 403.30000000000007 819.9000000000002 403.80000000000007 823.6000000000001 403.1000000000001 825.0000000000001 C 402.2000000000001 826.9000000000001 399.50000000000006 830.4000000000001 397.7000000000001 831.3000000000001 C 396.2000000000001 832.0000000000001 392.0000000000001 831.3000000000001 391.0000000000001 831.3000000000001 C 389.9000000000001 831.3000000000001 387.2000000000001 835.8000000000001 385.8000000000001 837.2 C 384.40000000000015 838.6 380.3000000000001 840 379.10000000000014 841.6 C 378.20000000000016 842.8000000000001 378.70000000000016 846.6 377.40000000000015 847.3000000000001 C 375.20000000000016 848.4000000000001 370.50000000000017 844.5000000000001 368.00000000000017 844.0000000000001 C 366.70000000000016 843.7000000000002 363.8000000000002 843.0000000000001 362.6000000000002 843.6000000000001 C 361.00000000000017 844.4000000000001 360.00000000000017 848.1000000000001 358.9000000000002 849.5000000000001 C 358.0000000000002 850.6000000000001 356.2000000000002 853.2000000000002 354.8000000000002 853.6000000000001 C 353.50000000000017 854.0000000000001 350.70000000000016 851.8000000000002 349.6000000000002 852.5000000000001 C 349.1000000000002 852.8000000000001 349.4000000000002 854.3000000000001 348.9000000000002 854.7000000000002 C 347.9000000000002 855.5000000000001 345.1000000000002 855.6000000000001 343.9000000000002 855.1000000000001 C 343.4000000000002 854.9000000000001 342.8000000000002 854.3000000000002 342.3000000000002 853.7000000000002 C 342.70000000000016 852.7000000000002 343.20000000000016 851.6000000000001 343.3000000000002 851.0000000000001 C 343.6000000000002 848.0000000000001 340.70000000000016 842.1000000000001 341.6000000000002 839.2000000000002 C 342.1000000000002 837.6000000000001 345.1000000000002 835.8000000000002 346.00000000000017 834.4000000000002 C 346.70000000000016 833.2000000000002 347.90000000000015 830.4000000000002 348.00000000000017 829.0000000000002 C 348.1000000000002 827.1000000000003 347.1000000000002 823.4000000000002 346.00000000000017 821.8000000000002 C 344.50000000000017 819.6000000000001 338.90000000000015 817.5000000000002 337.50000000000017 815.3000000000002 C 336.6000000000002 813.9000000000002 337.3000000000002 810.2000000000002 336.20000000000016 809.0000000000002 C 334.90000000000015 807.5000000000002 330.3000000000002 807.6000000000003 328.8000000000002 806.4000000000002 C 327.00000000000017 804.9000000000002 325.70000000000016 799.7000000000002 323.8000000000002 798.3000000000002 C 322.4000000000002 797.2000000000002 318.50000000000017 797.3000000000002 316.8000000000002 796.6000000000001 C 315.20000000000016 795.9000000000001 312.6000000000002 793.7000000000002 311.1000000000002 792.9000000000001 C 309.3000000000002 792.0000000000001 304.7000000000002 791.6000000000001 303.7000000000002 789.9000000000001 C 302.80000000000024 788.3000000000001 304.5000000000002 784.4000000000001 304.80000000000024 782.5000000000001 C 305.0000000000002 781.2000000000002 305.80000000000024 778.5000000000001 305.5000000000002 777.3000000000001 C 305.10000000000025 775.6 301.5000000000002 773.4000000000001 301.4000000000002 771.6 C 301.2000000000002 769.8000000000001 304.3000000000002 766.9 304.4000000000002 765.1 C 304.7000000000002 762.3000000000001 302.5000000000002 757 302.0000000000002 754.2 C 301.4000000000002 750.7 301.10000000000025 743.7 300.5000000000002 740.3000000000001 C 300.10000000000025 738.3000000000001 298.80000000000024 734.9000000000001 298.0000000000002 732.1 C 301.9000000000002 730.4 306.2000000000002 729 308.9000000000002 728.2 C 311.9000000000002 727.3000000000001 318.0000000000002 726.1 321.1000000000002 725.9000000000001 C 323.9000000000002 725.7 329.8000000000002 725.6000000000001 332.4000000000002 726.6000000000001 C 334.5000000000002 727.4000000000001 338.0000000000002 730.4000000000001 339.4000000000002 732.1000000000001 C 341.6000000000002 734.9000000000001 342.1000000000002 744.1000000000001 345.5000000000002 745.0000000000001 C 347.4000000000002 745.5000000000001 350.9000000000002 742.0000000000001 352.2000000000002 740.5000000000001 C 354.4000000000002 737.9000000000001 355.7000000000002 730.6000000000001 358.0000000000002 728.0000000000001 C 360.30000000000024 725.5000000000001 366.60000000000025 722.5000000000001 369.60000000000025 721.0000000000001 C 371.30000000000024 720.1000000000001 375.90000000000026 719.8000000000001 376.90000000000026 718.1000000000001 C 378.10000000000025 715.9000000000001 374.5000000000003 710.7000000000002 374.7000000000003 708.2000000000002 C 375.0000000000003 705.2000000000002 378.40000000000026 700.0000000000001 379.5000000000003 697.2000000000002 C 380.2000000000003 695.3000000000002 381.7000000000003 691.5000000000001 382.0000000000003 689.5000000000001 C 382.3000000000003 687.0000000000001 380.8000000000003 682.0000000000001 381.40000000000026 679.6000000000001 C 382.0000000000003 677.4000000000001 386.10000000000025 674.2000000000002 386.60000000000025 671.9000000000001 C 387.2000000000003 669.3000000000001 385.5000000000002 664.0000000000001 384.90000000000026 661.4000000000001 C 384.40000000000026 659.5000000000001 382.80000000000024 655.9000000000001 382.30000000000024 654.0000000000001 C 381.5000000000002 651.1000000000001 380.2000000000002 645.1000000000001 380.0000000000002 642.1000000000001 C 379.7000000000002 638.0000000000001 381.5000000000002 629.9000000000001 380.9000000000002 625.8000000000002 C 380.6000000000002 624.1000000000001 379.7000000000002 621.3000000000002 378.7000000000002 619.0000000000002 C 379.9000000000002 618.8000000000002 381.30000000000024 618.6000000000003 382.0000000000002 618.4000000000002 C 383.7000000000002 617.8000000000002 386.7000000000002 615.4000000000002 388.5000000000002 615.1000000000003 C 390.10000000000025 614.9000000000002 393.4000000000002 616.2000000000003 395.0000000000002 616.2000000000003 C 397.0000000000002 616.1000000000003 400.7000000000002 614.3000000000003 402.60000000000025 614.5000000000002 C 405.0000000000002 614.7000000000003 409.5000000000002 617.1000000000003 411.7000000000003 618.0000000000002 C 413.40000000000026 618.6000000000003 416.60000000000025 620.5000000000002 418.5000000000003 620.6000000000003 C 420.5000000000003 620.7000000000003 424.2000000000003 618.5000000000002 426.1000000000003 618.6000000000003 C 428.1000000000003 618.7000000000003 431.6000000000003 622.0000000000002 433.5000000000003 621.4000000000002 C 434.6000000000003 621.0000000000002 435.2000000000003 618.2000000000002 436.1000000000003 617.5000000000002 C 437.6000000000003 616.4000000000002 441.4000000000003 614.9000000000002 443.1000000000003 615.5000000000002 C 444.5000000000003 616.0000000000002 446.4000000000003 618.8000000000002 446.6000000000003 620.3000000000002 C 446.8000000000003 621.7000000000002 444.20000000000033 624.5000000000002 444.9000000000003 625.7000000000002 C 446.1000000000003 628.1000000000001 453.4000000000003 627.3000000000002 455.1000000000003 629.4000000000002 C 455.9000000000003 630.4000000000002 455.70000000000033 633.2000000000002 456.0000000000003 634.4000000000002 C 456.40000000000026 636.5000000000002 457.6000000000003 640.7000000000002 457.7000000000003 642.9000000000002 C 457.8000000000003 645.6000000000003 455.7000000000003 651.2000000000002 456.60000000000025 653.8000000000002 C 457.2000000000003 655.6000000000001 461.2000000000003 657.6000000000001 461.80000000000024 659.5000000000002 C 462.30000000000024 661.1000000000003 462.10000000000025 664.7000000000003 461.10000000000025 666.0000000000002 C 459.7000000000003 668.1000000000003 453.2000000000003 668.3000000000002 452.2000000000003 670.6000000000003 C 451.60000000000025 671.9000000000002 452.90000000000026 675.0000000000002 453.7000000000003 676.3000000000003 C 454.5000000000003 677.6000000000003 457.0000000000003 679.9000000000003 458.5000000000003 680.4000000000003 C 460.3000000000003 681.0000000000003 464.40000000000026 679.0000000000003 466.1000000000003 679.7000000000003 C 467.3000000000003 680.3000000000003 468.4000000000003 683.1000000000003 469.4000000000003 684.1000000000003 C 470.6000000000003 685.2000000000003 474.20000000000033 686.1000000000003 475.1000000000003 687.6000000000003 C 476.1000000000003 689.4000000000002 476.5000000000003 694.2000000000003 475.3000000000003 695.9000000000002 C 473.9000000000003 697.9000000000002 468.4000000000003 698.2000000000002 466.2000000000003 699.2000000000002 C 464.3000000000003 700.0000000000001 460.10000000000025 701.3000000000002 458.8000000000003 702.9000000000002 C 457.8000000000003 704.2000000000002 456.9000000000003 707.8000000000002 457.3000000000003 709.4000000000002 C 457.8000000000003 711.8000000000002 462.3000000000003 715.1000000000003 463.2000000000003 717.5000000000002 C 464.0000000000003 719.6000000000003 462.90000000000026 724.7000000000003 464.3000000000003 726.4000000000002 C 465.3000000000003 727.6000000000003 468.8000000000003 727.8000000000002 470.2000000000003 728.6000000000003 C 471.3000000000003 729.2000000000003 472.7000000000003 731.4000000000002 473.90000000000026 731.9000000000002 C 476.2000000000003 732.8000000000002 481.80000000000024 730.8000000000002 483.90000000000026 732.1000000000003 C 485.2000000000003 732.9000000000002 486.0000000000003 736.2000000000003 486.90000000000026 737.3000000000003 C 488.10000000000025 738.7000000000003 491.7000000000003 740.5000000000003 492.80000000000024 742.1000000000003 C 494.10000000000025 743.9000000000002 494.60000000000025 748.7000000000003 495.80000000000024 750.6000000000003 C 497.10000000000025 752.4000000000002 501.5000000000002 754.3000000000003 502.5000000000002 756.3000000000003 C 501.9 756.3 502 756.5 502.1 756.7 Z" data-stroke-width="0.2" style="stroke-width: 0.2;" class=" " id="dak-nong"></path>
<path style="pointer-events: none;" fill="#0C0C0C" d="M426.1,195.2l-0.6-2.7l7.1-7.2h3.6L426.1,195.2z M423.8,199.4v-14h3v14H423.8z M432.9,199.4l-5.3-7l2.1-1.8  l6.8,8.8H432.9z M442.3,199.6c-1.1,0-2.1-0.2-2.9-0.7c-0.8-0.5-1.5-1.1-2-2c-0.5-0.8-0.7-1.8-0.7-2.8c0-1.1,0.2-2,0.7-2.8  c0.5-0.8,1.2-1.5,2-2c0.9-0.5,1.8-0.7,2.9-0.7c1.1,0,2,0.2,2.9,0.7c0.9,0.5,1.5,1.1,2,2c0.5,0.8,0.7,1.8,0.7,2.8  c0,1.1-0.2,2-0.7,2.8c-0.5,0.8-1.1,1.5-2,2C444.3,199.3,443.3,199.6,442.3,199.6z M442.3,197.1c0.5,0,1-0.1,1.4-0.4  c0.4-0.3,0.7-0.6,1-1.1c0.2-0.5,0.4-1,0.4-1.6c0-0.6-0.1-1.1-0.4-1.6c-0.2-0.5-0.5-0.8-1-1.1c-0.4-0.3-0.9-0.4-1.4-0.4  c-0.5,0-1,0.1-1.4,0.4c-0.4,0.3-0.7,0.6-1,1.1c-0.2,0.5-0.4,1-0.3,1.6c0,0.6,0.1,1.1,0.3,1.6c0.2,0.5,0.6,0.8,1,1.1  C441.2,196.9,441.7,197.1,442.3,197.1z M450,199.4v-10.6h2.7l0.1,2.2l-0.6,0.2c0.1-0.5,0.4-0.9,0.8-1.3c0.4-0.4,0.8-0.7,1.4-1  c0.5-0.2,1.1-0.4,1.7-0.4c0.8,0,1.5,0.2,2,0.5c0.5,0.3,1,0.8,1.2,1.5c0.3,0.6,0.4,1.4,0.4,2.4v6.5h-2.8v-6.3c0-0.5-0.1-0.9-0.2-1.2  c-0.1-0.3-0.3-0.6-0.6-0.7c-0.3-0.2-0.6-0.2-1-0.2c-0.3,0-0.6,0.1-0.9,0.2c-0.3,0.1-0.5,0.2-0.7,0.4c-0.2,0.2-0.3,0.4-0.5,0.6  c-0.1,0.2-0.2,0.5-0.2,0.8v6.4h-1.4c-0.3,0-0.6,0-0.8,0C450.4,199.4,450.2,199.4,450,199.4z M471.9,199.4V188h-4.1v-2.7h11.3v2.7  h-4.2v11.3H471.9z M482.9,199.6c-0.8,0-1.4-0.2-2-0.5c-0.5-0.3-1-0.8-1.3-1.5c-0.3-0.6-0.4-1.4-0.4-2.3v-6.5h2.8v6.1  c0,0.5,0.1,0.9,0.2,1.3c0.2,0.3,0.4,0.6,0.7,0.8c0.3,0.2,0.7,0.3,1.1,0.3c0.3,0,0.6,0,0.9-0.1c0.3-0.1,0.5-0.3,0.7-0.4  c0.2-0.2,0.3-0.4,0.4-0.7c0.1-0.3,0.2-0.5,0.2-0.8v-6.4h2.8v10.6h-2.7l-0.1-2.2l0.5-0.2c-0.2,0.5-0.4,0.9-0.8,1.3  c-0.4,0.4-0.8,0.7-1.3,0.9C484,199.4,483.5,199.6,482.9,199.6z M491.8,199.4v-10.6h2.7l0.1,2l-0.4,0.1c0.1-0.3,0.3-0.7,0.6-0.9  c0.2-0.3,0.5-0.5,0.8-0.7c0.3-0.2,0.7-0.4,1-0.5c0.4-0.1,0.7-0.2,1.1-0.2c0.5,0,1,0.1,1.5,0.3c0.4,0.2,0.8,0.4,1.1,0.8  c0.3,0.4,0.5,0.8,0.7,1.4l-0.4,0l0.1-0.3c0.2-0.3,0.4-0.6,0.7-0.9c0.3-0.3,0.6-0.5,0.9-0.7c0.3-0.2,0.7-0.4,1-0.5  c0.4-0.1,0.7-0.2,1.1-0.2c0.8,0,1.5,0.2,2.1,0.5c0.5,0.3,1,0.8,1.2,1.5c0.3,0.7,0.4,1.5,0.4,2.4v6.4h-2.8v-6.2  c0-0.5-0.1-0.9-0.2-1.2c-0.1-0.3-0.3-0.5-0.6-0.7c-0.3-0.2-0.6-0.2-1-0.2c-0.3,0-0.6,0.1-0.9,0.2c-0.3,0.1-0.5,0.2-0.7,0.4  c-0.2,0.2-0.3,0.4-0.4,0.6c-0.1,0.2-0.2,0.5-0.2,0.8v6.3h-2.8v-6.3c0-0.4-0.1-0.8-0.2-1.1c-0.1-0.3-0.3-0.6-0.6-0.7  c-0.3-0.2-0.6-0.2-0.9-0.2c-0.3,0-0.6,0.1-0.9,0.2c-0.3,0.1-0.5,0.2-0.7,0.4c-0.2,0.2-0.3,0.4-0.5,0.6c-0.1,0.2-0.2,0.5-0.2,0.8v6.4  H491.8z"></path>
<path style="pointer-events: none;" fill="#0C0C0C" d="M503.3,387.1c-1.1,0-2.1-0.2-3-0.5c-0.9-0.4-1.7-0.9-2.3-1.5c-0.7-0.7-1.2-1.4-1.5-2.3  c-0.3-0.9-0.5-1.8-0.5-2.9c0-1,0.2-2,0.5-2.8c0.4-0.9,0.9-1.6,1.6-2.3c0.7-0.7,1.5-1.2,2.4-1.5c0.9-0.4,1.9-0.5,3-0.5  c0.7,0,1.5,0.1,2.1,0.3c0.7,0.2,1.3,0.5,1.9,0.8c0.6,0.3,1,0.7,1.4,1.2l-1.9,2c-0.3-0.3-0.7-0.6-1.1-0.8c-0.4-0.2-0.8-0.4-1.2-0.5  c-0.4-0.1-0.8-0.2-1.3-0.2c-0.6,0-1.2,0.1-1.7,0.3c-0.5,0.2-1,0.5-1.4,0.9s-0.7,0.9-0.9,1.4c-0.2,0.5-0.3,1.1-0.3,1.8  c0,0.6,0.1,1.2,0.3,1.8c0.2,0.5,0.6,1,1,1.4c0.4,0.4,0.9,0.7,1.4,1c0.5,0.2,1.1,0.3,1.8,0.3c0.4,0,0.9-0.1,1.3-0.2  c0.4-0.1,0.7-0.3,1-0.6c0.3-0.3,0.5-0.5,0.7-0.9c0.2-0.3,0.3-0.7,0.3-1.1v-0.5l0.4,0.6h-4v-2.5h6.5c0,0.1,0,0.3,0,0.5  c0,0.2,0,0.4,0,0.6c0,0.2,0,0.4,0,0.5c0,0.9-0.2,1.7-0.5,2.5c-0.3,0.8-0.8,1.4-1.4,2c-0.6,0.5-1.3,1-2,1.3  C505.1,387,504.2,387.1,503.3,387.1z M512.3,386.9v-10.6h2.8v10.6H512.3z M513.7,374.1c-0.5,0-1-0.1-1.3-0.4  c-0.3-0.3-0.5-0.6-0.5-1.1c0-0.5,0.2-0.8,0.5-1.1c0.3-0.3,0.7-0.4,1.3-0.4c0.5,0,1,0.1,1.3,0.4c0.3,0.3,0.5,0.6,0.5,1.1  c0,0.5-0.2,0.8-0.5,1.1C514.6,374,514.2,374.1,513.7,374.1z M522.1,387.1c-0.9,0-1.7-0.2-2.4-0.7c-0.7-0.5-1.3-1.1-1.7-2  c-0.4-0.8-0.6-1.8-0.6-2.8c0-1.1,0.2-2,0.6-2.8c0.4-0.8,1-1.5,1.7-1.9c0.7-0.5,1.5-0.7,2.5-0.7c0.5,0,1,0.1,1.4,0.2  c0.4,0.1,0.8,0.4,1.1,0.6c0.3,0.3,0.6,0.6,0.8,0.9c0.2,0.3,0.4,0.7,0.5,1.1l-0.6-0.1v-2.6h2.8v10.6h-2.9v-2.5l0.6-0.1  c-0.1,0.4-0.3,0.7-0.5,1.1s-0.5,0.6-0.9,0.9c-0.3,0.3-0.7,0.5-1.2,0.6C523.1,387.1,522.6,387.1,522.1,387.1z M522.9,384.7  c0.5,0,1-0.1,1.4-0.4c0.4-0.3,0.7-0.6,0.9-1.1c0.2-0.5,0.3-1,0.3-1.6c0-0.6-0.1-1.1-0.3-1.6c-0.2-0.5-0.5-0.8-0.9-1.1  c-0.4-0.3-0.9-0.4-1.4-0.4c-0.5,0-1,0.1-1.4,0.4c-0.4,0.3-0.7,0.6-0.9,1.1c-0.2,0.5-0.3,1-0.3,1.6c0,0.6,0.1,1.2,0.3,1.6  c0.2,0.5,0.5,0.8,0.9,1.1C521.9,384.5,522.4,384.7,522.9,384.7z M537.8,386.9v-14h3v11.3h6.4v2.7H537.8z M553.1,387.1  c-0.9,0-1.7-0.2-2.4-0.7c-0.7-0.5-1.3-1.1-1.7-2c-0.4-0.8-0.6-1.8-0.6-2.8c0-1.1,0.2-2,0.6-2.8c0.4-0.8,1-1.5,1.7-1.9  c0.7-0.5,1.5-0.7,2.5-0.7c0.5,0,1,0.1,1.4,0.2c0.4,0.1,0.8,0.4,1.1,0.6c0.3,0.3,0.6,0.6,0.8,0.9c0.2,0.3,0.4,0.7,0.5,1.1l-0.6-0.1  v-2.6h2.8v10.6h-2.9v-2.5l0.6-0.1c-0.1,0.4-0.3,0.7-0.5,1.1s-0.5,0.6-0.9,0.9c-0.3,0.3-0.7,0.5-1.2,0.6  C554.1,387.1,553.6,387.1,553.1,387.1z M553.9,384.7c0.5,0,1-0.1,1.4-0.4c0.4-0.3,0.7-0.6,0.9-1.1c0.2-0.5,0.3-1,0.3-1.6  c0-0.6-0.1-1.1-0.3-1.6c-0.2-0.5-0.5-0.8-0.9-1.1c-0.4-0.3-0.9-0.4-1.4-0.4c-0.5,0-1,0.1-1.4,0.4c-0.4,0.3-0.7,0.6-0.9,1.1  c-0.2,0.5-0.3,1-0.3,1.6c0,0.6,0.1,1.2,0.3,1.6c0.2,0.5,0.5,0.8,0.9,1.1C552.9,384.5,553.4,384.7,553.9,384.7z M562.4,386.9v-10.6  h2.8v10.6H562.4z M563.8,374.1c-0.5,0-1-0.1-1.3-0.4c-0.3-0.3-0.5-0.6-0.5-1.1c0-0.5,0.2-0.8,0.5-1.1c0.3-0.3,0.7-0.4,1.3-0.4  c0.5,0,1,0.1,1.3,0.4c0.3,0.3,0.5,0.6,0.5,1.1c0,0.5-0.2,0.8-0.5,1.1C564.8,374,564.4,374.1,563.8,374.1z"></path>
<path style="pointer-events: none;" fill="#0C0C0C" d="M495.8,615.8v-2.2h6.2v2.2H495.8z M496.9,621.7v-14h5.8c1,0,2,0.2,2.8,0.5c0.8,0.3,1.6,0.8,2.2,1.4  c0.6,0.6,1.1,1.4,1.4,2.2c0.3,0.9,0.5,1.8,0.5,2.8c0,1-0.2,2-0.5,2.8c-0.3,0.9-0.8,1.6-1.4,2.2c-0.6,0.6-1.3,1.1-2.2,1.4  c-0.8,0.3-1.8,0.5-2.8,0.5H496.9z M499.9,619.6l-0.3-0.5h3c0.6,0,1.1-0.1,1.6-0.3c0.5-0.2,0.9-0.5,1.2-0.9c0.3-0.4,0.6-0.8,0.8-1.4  c0.2-0.5,0.3-1.1,0.3-1.8c0-0.7-0.1-1.2-0.3-1.8c-0.2-0.5-0.4-1-0.8-1.4c-0.3-0.4-0.7-0.7-1.2-0.9c-0.5-0.2-1-0.3-1.6-0.3h-3  l0.4-0.5V619.6z M515.7,621.9c-0.9,0-1.7-0.2-2.4-0.7c-0.7-0.5-1.3-1.1-1.7-2c-0.4-0.8-0.6-1.8-0.6-2.8s0.2-2,0.6-2.8  c0.4-0.8,1-1.5,1.7-1.9c0.7-0.5,1.5-0.7,2.5-0.7c0.5,0,1,0.1,1.4,0.2c0.4,0.1,0.8,0.4,1.1,0.6c0.3,0.3,0.6,0.6,0.8,0.9  c0.2,0.3,0.4,0.7,0.5,1.1l-0.6-0.1v-2.6h2.8v10.6h-2.9v-2.5l0.6-0.1c-0.1,0.4-0.3,0.7-0.5,1.1c-0.2,0.3-0.5,0.6-0.9,0.9  c-0.3,0.3-0.7,0.5-1.2,0.6C516.7,621.9,516.2,621.9,515.7,621.9z M516.5,619.5c0.5,0,1-0.1,1.4-0.4s0.7-0.6,0.9-1.1  c0.2-0.5,0.3-1,0.3-1.6c0-0.6-0.1-1.1-0.3-1.6c-0.2-0.5-0.5-0.8-0.9-1.1c-0.4-0.3-0.9-0.4-1.4-0.4c-0.5,0-1,0.1-1.4,0.4  c-0.4,0.3-0.7,0.6-0.9,1.1c-0.2,0.5-0.3,1-0.3,1.6c0,0.6,0.1,1.2,0.3,1.6c0.2,0.5,0.5,0.8,0.9,1.1  C515.5,619.3,516,619.5,516.5,619.5z M516.9,609.9c-0.9,0-1.6-0.2-2.3-0.7c-0.6-0.5-1-1.2-1.2-2.1l1.8-0.2c0.2,0.4,0.4,0.7,0.7,0.9  c0.3,0.2,0.6,0.3,1,0.3c0.4,0,0.7-0.1,1-0.3c0.3-0.2,0.5-0.5,0.7-0.9l1.8,0.2c-0.2,0.9-0.6,1.6-1.2,2.1  C518.5,609.6,517.8,609.9,516.9,609.9z M517.1,606.4l-1.2-0.8l1.8-3.2l1.9,1.4L517.1,606.4z M527.5,618.6l-0.8-2.3l5-5.1h3.7  L527.5,618.6z M524.8,621.7v-14.8h2.8v14.8H524.8z M532,621.7l-3.8-4.8l2-1.6l5.2,6.4H532z M543.6,621.7v-14h3V619h6.4v2.7H543.6z   M558.9,621.9c-0.9,0-1.7-0.2-2.4-0.7c-0.7-0.5-1.3-1.1-1.7-2c-0.4-0.8-0.6-1.8-0.6-2.8s0.2-2,0.6-2.8c0.4-0.8,1-1.5,1.7-1.9  c0.7-0.5,1.5-0.7,2.5-0.7c0.5,0,1,0.1,1.4,0.2c0.4,0.1,0.8,0.4,1.1,0.6c0.3,0.3,0.6,0.6,0.8,0.9c0.2,0.3,0.4,0.7,0.5,1.1l-0.6-0.1  v-2.6h2.8v10.6h-2.9v-2.5l0.6-0.1c-0.1,0.4-0.3,0.7-0.5,1.1c-0.2,0.3-0.5,0.6-0.9,0.9c-0.3,0.3-0.7,0.5-1.2,0.6  C559.8,621.9,559.4,621.9,558.9,621.9z M559.7,619.5c0.5,0,1-0.1,1.4-0.4c0.4-0.3,0.7-0.6,0.9-1.1c0.2-0.5,0.3-1,0.3-1.6  c0-0.6-0.1-1.1-0.3-1.6c-0.2-0.5-0.5-0.8-0.9-1.1c-0.4-0.3-0.9-0.4-1.4-0.4c-0.5,0-1,0.1-1.4,0.4c-0.4,0.3-0.7,0.6-0.9,1.1  c-0.2,0.5-0.3,1-0.3,1.6c0,0.6,0.1,1.2,0.3,1.6c0.2,0.5,0.5,0.8,0.9,1.1C558.7,619.3,559.1,619.5,559.7,619.5z M560,609.9  c-0.9,0-1.6-0.2-2.3-0.7c-0.6-0.5-1-1.2-1.2-2.1l1.8-0.2c0.2,0.4,0.4,0.7,0.7,0.9c0.3,0.2,0.6,0.3,1,0.3s0.7-0.1,1-0.3  c0.3-0.2,0.5-0.5,0.7-0.9l1.8,0.2c-0.2,0.9-0.6,1.6-1.2,2.1C561.7,609.6,560.9,609.9,560,609.9z M560.2,606.4l-1.2-0.8l1.8-3.2  l1.9,1.4L560.2,606.4z M570.7,618.6l-0.8-2.3l5-5.1h3.7L570.7,618.6z M568,621.7v-14.8h2.8v14.8H568z M575.1,621.7l-3.8-4.8l2-1.6  l5.2,6.4H575.1z"></path>
<path style="pointer-events: none;" fill="#0C0C0C" d="M358.4,763.3v-2.2h6.2v2.2H358.4z M359.4,769.2v-14h5.8c1,0,2,0.2,2.8,0.5c0.8,0.3,1.6,0.8,2.2,1.4  c0.6,0.6,1.1,1.4,1.4,2.2c0.3,0.9,0.5,1.8,0.5,2.8c0,1-0.2,2-0.5,2.8c-0.3,0.9-0.8,1.6-1.4,2.2c-0.6,0.6-1.3,1.1-2.2,1.4  c-0.8,0.3-1.8,0.5-2.8,0.5H359.4z M362.4,767l-0.3-0.5h3c0.6,0,1.1-0.1,1.6-0.3c0.5-0.2,0.9-0.5,1.2-0.9c0.3-0.4,0.6-0.8,0.8-1.4  s0.3-1.1,0.3-1.8c0-0.7-0.1-1.2-0.3-1.8c-0.2-0.5-0.4-1-0.8-1.4c-0.3-0.4-0.7-0.7-1.2-0.9c-0.5-0.2-1-0.3-1.6-0.3h-3l0.4-0.5V767z   M378.3,769.4c-0.9,0-1.7-0.2-2.4-0.7c-0.7-0.5-1.3-1.1-1.7-2c-0.4-0.8-0.6-1.8-0.6-2.8s0.2-2,0.6-2.8c0.4-0.8,1-1.5,1.7-1.9  c0.7-0.5,1.5-0.7,2.5-0.7c0.5,0,1,0.1,1.4,0.2c0.4,0.1,0.8,0.4,1.1,0.6c0.3,0.3,0.6,0.6,0.8,0.9c0.2,0.3,0.4,0.7,0.5,1.1l-0.6-0.1  v-2.6h2.8v10.6h-2.9v-2.5l0.6-0.1c-0.1,0.4-0.3,0.7-0.5,1.1c-0.2,0.3-0.5,0.6-0.9,0.9c-0.3,0.3-0.7,0.5-1.2,0.6  C379.3,769.3,378.8,769.4,378.3,769.4z M379.1,766.9c0.5,0,1-0.1,1.4-0.4c0.4-0.3,0.7-0.6,0.9-1.1c0.2-0.5,0.3-1,0.3-1.6  c0-0.6-0.1-1.1-0.3-1.6c-0.2-0.5-0.5-0.8-0.9-1.1c-0.4-0.3-0.9-0.4-1.4-0.4c-0.5,0-1,0.1-1.4,0.4c-0.4,0.3-0.7,0.6-0.9,1.1  c-0.2,0.5-0.3,1-0.3,1.6c0,0.6,0.1,1.2,0.3,1.6c0.2,0.5,0.5,0.8,0.9,1.1C378.1,766.8,378.5,766.9,379.1,766.9z M379.4,757.3  c-0.9,0-1.6-0.2-2.3-0.7c-0.6-0.5-1-1.2-1.2-2.1l1.8-0.2c0.2,0.4,0.4,0.7,0.7,0.9c0.3,0.2,0.6,0.3,1,0.3c0.4,0,0.7-0.1,1-0.3  c0.3-0.2,0.5-0.5,0.7-0.9l1.8,0.2c-0.2,0.9-0.6,1.6-1.2,2.1C381.1,757.1,380.3,757.3,379.4,757.3z M379.6,753.9l-1.2-0.8l1.8-3.2  l1.9,1.4L379.6,753.9z M390.1,766l-0.8-2.3l5-5.1h3.7L390.1,766z M387.4,769.2v-14.8h2.8v14.8H387.4z M394.6,769.2l-3.8-4.8l2-1.6  l5.2,6.4H394.6z M406.1,769.2v-14h2.7l7.8,10.5H416c-0.1-0.4-0.1-0.8-0.1-1.2c0-0.4-0.1-0.8-0.1-1.2c0-0.4-0.1-0.8-0.1-1.3  c0-0.4,0-0.9,0-1.4c0-0.5,0-1,0-1.6v-3.8h2.9v14h-2.7l-7.9-10.6l0.8,0c0.1,0.7,0.1,1.3,0.2,1.8c0.1,0.5,0.1,0.9,0.1,1.3  c0,0.4,0,0.7,0.1,0.9c0,0.3,0,0.5,0,0.8c0,0.2,0,0.5,0,0.8v5.1H406.1z M426.7,769.4c-1.1,0-2.1-0.2-2.9-0.7c-0.8-0.5-1.5-1.1-2-2  c-0.5-0.8-0.7-1.8-0.7-2.8c0-1.1,0.2-2,0.7-2.8c0.5-0.8,1.2-1.5,2-2c0.9-0.5,1.8-0.7,2.9-0.7c1.1,0,2,0.2,2.9,0.7  c0.9,0.5,1.5,1.1,2,2c0.5,0.8,0.7,1.8,0.7,2.8c0,1.1-0.2,2-0.7,2.8c-0.5,0.8-1.1,1.5-2,2C428.7,769.2,427.8,769.4,426.7,769.4z   M426.7,766.9c0.5,0,1-0.1,1.4-0.4c0.4-0.3,0.7-0.6,1-1.1c0.2-0.5,0.4-1,0.4-1.6c0-0.6-0.1-1.1-0.4-1.6c-0.2-0.5-0.5-0.8-1-1.1  c-0.4-0.3-0.9-0.4-1.4-0.4c-0.5,0-1,0.1-1.4,0.4s-0.7,0.6-1,1.1c-0.2,0.5-0.4,1-0.3,1.6c0,0.6,0.1,1.1,0.3,1.6  c0.2,0.5,0.6,0.8,1,1.1C425.7,766.8,426.2,766.9,426.7,766.9z M424.1,757.1l-1-0.9l2.7-2.5h1.8l2.7,2.5l-1,0.9l-2.9-1.6h0.6  L424.1,757.1z M434.4,769.2v-10.6h2.7l0.1,2.2l-0.6,0.2c0.1-0.5,0.4-0.9,0.8-1.3c0.4-0.4,0.8-0.7,1.4-1c0.5-0.2,1.1-0.4,1.7-0.4  c0.8,0,1.5,0.2,2,0.5c0.5,0.3,1,0.8,1.2,1.5c0.3,0.6,0.4,1.4,0.4,2.4v6.5h-2.8v-6.3c0-0.5-0.1-0.9-0.2-1.2c-0.1-0.3-0.3-0.6-0.6-0.7  c-0.3-0.2-0.6-0.2-1-0.2c-0.3,0-0.6,0.1-0.9,0.2c-0.3,0.1-0.5,0.2-0.7,0.4c-0.2,0.2-0.3,0.4-0.5,0.6c-0.1,0.2-0.2,0.5-0.2,0.8v6.4  h-1.4c-0.3,0-0.6,0-0.8,0S434.6,769.2,434.4,769.2z M451.7,773.8c-0.8,0-1.7-0.1-2.5-0.4c-0.8-0.2-1.5-0.6-2-0.9l1-2  c0.3,0.2,0.6,0.4,0.9,0.5c0.3,0.1,0.7,0.3,1.1,0.3c0.4,0.1,0.8,0.1,1.2,0.1c0.7,0,1.3-0.1,1.7-0.3c0.5-0.2,0.8-0.5,1-1  c0.2-0.4,0.3-0.9,0.3-1.6v-1.8l0.5,0.1c-0.1,0.4-0.3,0.8-0.7,1.2c-0.4,0.4-0.8,0.7-1.4,0.9c-0.5,0.2-1.1,0.3-1.7,0.3  c-1,0-1.9-0.2-2.6-0.7s-1.4-1.1-1.8-1.9c-0.4-0.8-0.7-1.7-0.7-2.8c0-1.1,0.2-2,0.6-2.8c0.4-0.8,1-1.5,1.8-1.9  c0.8-0.5,1.6-0.7,2.6-0.7c0.4,0,0.8,0,1.1,0.1c0.4,0.1,0.7,0.2,1,0.4c0.3,0.2,0.6,0.3,0.8,0.6c0.3,0.2,0.5,0.4,0.6,0.7  c0.2,0.2,0.3,0.5,0.3,0.7l-0.6,0.2l0.1-2.4h2.7v9.8c0,0.9-0.1,1.6-0.4,2.3c-0.3,0.7-0.6,1.2-1.1,1.7c-0.5,0.5-1.1,0.8-1.8,1.1  C453.4,773.7,452.6,773.8,451.7,773.8z M451.8,766.9c0.6,0,1-0.1,1.5-0.4c0.4-0.3,0.8-0.6,1-1.1c0.2-0.5,0.3-1,0.3-1.6  c0-0.6-0.1-1.1-0.3-1.6c-0.2-0.5-0.6-0.8-1-1.1c-0.4-0.3-0.9-0.4-1.5-0.4c-0.5,0-1,0.1-1.5,0.4c-0.4,0.3-0.7,0.6-1,1.1  c-0.2,0.5-0.3,1-0.3,1.6s0.1,1.1,0.3,1.6c0.2,0.5,0.5,0.8,1,1.1C450.8,766.8,451.3,766.9,451.8,766.9z"></path>
<path style="pointer-events: none;" fill="#0C0C0C" d="M465.4,879.5v-14h3v11.3h6.4v2.7H465.4z M480.7,879.7c-0.9,0-1.7-0.2-2.4-0.7c-0.7-0.5-1.3-1.1-1.7-2  c-0.4-0.8-0.6-1.8-0.6-2.8c0-1.1,0.2-2,0.6-2.8c0.4-0.8,1-1.5,1.7-1.9c0.7-0.5,1.5-0.7,2.5-0.7c0.5,0,1,0.1,1.4,0.2  c0.4,0.1,0.8,0.4,1.1,0.6c0.3,0.3,0.6,0.6,0.8,0.9c0.2,0.3,0.4,0.7,0.5,1.1l-0.6-0.1v-2.6h2.8v10.6h-2.9v-2.5l0.6-0.1  c-0.1,0.4-0.3,0.7-0.5,1.1c-0.2,0.3-0.5,0.6-0.9,0.9c-0.3,0.3-0.7,0.5-1.2,0.6C481.7,879.6,481.2,879.7,480.7,879.7z M481.5,877.2  c0.5,0,1-0.1,1.4-0.4c0.4-0.3,0.7-0.6,0.9-1.1c0.2-0.5,0.3-1,0.3-1.6c0-0.6-0.1-1.1-0.3-1.6c-0.2-0.5-0.5-0.8-0.9-1.1  c-0.4-0.3-0.9-0.4-1.4-0.4c-0.5,0-1,0.1-1.4,0.4c-0.4,0.3-0.7,0.6-0.9,1.1c-0.2,0.5-0.3,1-0.3,1.6c0,0.6,0.1,1.2,0.3,1.6  c0.2,0.5,0.5,0.8,0.9,1.1C480.5,877.1,481,877.2,481.5,877.2z M479.2,867.4l-1-0.9l2.7-2.5h1.8l2.7,2.5l-1,0.9l-2.9-1.6h0.6  L479.2,867.4z M489.8,879.5v-10.6h2.7l0.1,2l-0.4,0.1c0.1-0.3,0.3-0.7,0.6-0.9c0.2-0.3,0.5-0.5,0.8-0.7c0.3-0.2,0.7-0.4,1-0.5  c0.4-0.1,0.7-0.2,1.1-0.2c0.5,0,1,0.1,1.5,0.3c0.4,0.2,0.8,0.4,1.1,0.8c0.3,0.4,0.5,0.8,0.7,1.4l-0.4,0l0.1-0.3  c0.2-0.3,0.4-0.6,0.7-0.9c0.3-0.3,0.6-0.5,0.9-0.7c0.3-0.2,0.7-0.4,1-0.5c0.4-0.1,0.7-0.2,1.1-0.2c0.8,0,1.5,0.2,2.1,0.5  c0.5,0.3,1,0.8,1.2,1.5c0.3,0.7,0.4,1.5,0.4,2.4v6.4h-2.8v-6.2c0-0.5-0.1-0.9-0.2-1.2c-0.1-0.3-0.3-0.5-0.6-0.7  c-0.3-0.2-0.6-0.2-1-0.2c-0.3,0-0.6,0.1-0.9,0.2c-0.3,0.1-0.5,0.2-0.7,0.4c-0.2,0.2-0.3,0.4-0.4,0.6c-0.1,0.2-0.2,0.5-0.2,0.8v6.3  h-2.8v-6.3c0-0.4-0.1-0.8-0.2-1.1c-0.1-0.3-0.3-0.6-0.6-0.7c-0.3-0.2-0.6-0.2-0.9-0.2c-0.3,0-0.6,0.1-0.9,0.2  c-0.3,0.1-0.5,0.2-0.7,0.4c-0.2,0.2-0.3,0.4-0.5,0.6c-0.1,0.2-0.2,0.5-0.2,0.8v6.4H489.8z M514.3,873.5v-2.2h6.2v2.2H514.3z   M515.4,879.5v-14h5.8c1,0,2,0.2,2.8,0.5c0.8,0.3,1.6,0.8,2.2,1.4c0.6,0.6,1.1,1.4,1.4,2.2c0.3,0.9,0.5,1.8,0.5,2.8  c0,1-0.2,2-0.5,2.8c-0.3,0.9-0.8,1.6-1.4,2.2c-0.6,0.6-1.3,1.1-2.2,1.4c-0.8,0.3-1.8,0.5-2.8,0.5H515.4z M518.4,877.3l-0.3-0.5h3  c0.6,0,1.1-0.1,1.6-0.3c0.5-0.2,0.9-0.5,1.2-0.9c0.3-0.4,0.6-0.8,0.8-1.4c0.2-0.5,0.3-1.1,0.3-1.8c0-0.7-0.1-1.2-0.3-1.8  c-0.2-0.5-0.4-1-0.8-1.4c-0.3-0.4-0.7-0.7-1.2-0.9c-0.5-0.2-1-0.3-1.6-0.3h-3l0.4-0.5V877.3z M535.2,879.7c-1.1,0-2.1-0.2-2.9-0.7  c-0.8-0.5-1.5-1.1-2-2c-0.5-0.8-0.7-1.8-0.7-2.8s0.2-2,0.7-2.8c0.5-0.8,1.2-1.5,2-2c0.9-0.5,1.8-0.7,2.9-0.7c1.1,0,2,0.2,2.9,0.7  c0.9,0.5,1.5,1.1,2,2c0.5,0.8,0.7,1.8,0.7,2.8s-0.2,2-0.7,2.8c-0.5,0.8-1.1,1.5-2,2C537.2,879.4,536.3,879.7,535.2,879.7z   M535.2,877.2c0.5,0,1-0.1,1.4-0.4c0.4-0.3,0.7-0.6,1-1.1c0.2-0.5,0.4-1,0.4-1.6c0-0.6-0.1-1.1-0.4-1.6c-0.2-0.5-0.5-0.8-1-1.1  c-0.4-0.3-0.9-0.4-1.4-0.4c-0.5,0-1,0.1-1.4,0.4c-0.4,0.3-0.7,0.6-1,1.1s-0.4,1-0.3,1.6c0,0.6,0.1,1.1,0.3,1.6  c0.2,0.5,0.6,0.8,1,1.1C534.2,877.1,534.7,877.2,535.2,877.2z M532.6,867.4l-0.9-0.9l2.5-2.2h1.8l2.5,2.2l-0.9,0.9l-2.9-1.4h0.6  L532.6,867.4z M538.5,864.4l-2.6-2.6l1.9-1.4l1.8,3.2L538.5,864.4z M542.9,879.5v-10.6h2.7l0.1,2.2l-0.6,0.2  c0.1-0.5,0.4-0.9,0.8-1.3c0.4-0.4,0.8-0.7,1.4-1s1.1-0.4,1.7-0.4c0.8,0,1.5,0.2,2,0.5c0.5,0.3,1,0.8,1.2,1.5  c0.3,0.6,0.4,1.4,0.4,2.4v6.5h-2.8v-6.3c0-0.5-0.1-0.9-0.2-1.2c-0.1-0.3-0.3-0.6-0.6-0.7c-0.3-0.2-0.6-0.2-1-0.2  c-0.3,0-0.6,0.1-0.9,0.2c-0.3,0.1-0.5,0.2-0.7,0.4c-0.2,0.2-0.3,0.4-0.5,0.6c-0.1,0.2-0.2,0.5-0.2,0.8v6.4h-1.4c-0.3,0-0.6,0-0.8,0  S543.1,879.5,542.9,879.5z M560.2,884.1c-0.8,0-1.7-0.1-2.5-0.4c-0.8-0.2-1.5-0.6-2-0.9l1-2c0.3,0.2,0.6,0.4,0.9,0.5  c0.3,0.1,0.7,0.3,1.1,0.3c0.4,0.1,0.8,0.1,1.2,0.1c0.7,0,1.3-0.1,1.7-0.3c0.5-0.2,0.8-0.5,1-1c0.2-0.4,0.3-0.9,0.3-1.6v-1.8l0.5,0.1  c-0.1,0.4-0.3,0.8-0.7,1.2c-0.4,0.4-0.8,0.7-1.4,0.9c-0.5,0.2-1.1,0.3-1.7,0.3c-1,0-1.9-0.2-2.6-0.7c-0.8-0.5-1.4-1.1-1.8-1.9  c-0.4-0.8-0.7-1.7-0.7-2.8c0-1.1,0.2-2,0.6-2.8c0.4-0.8,1-1.5,1.8-1.9c0.8-0.5,1.6-0.7,2.6-0.7c0.4,0,0.8,0,1.1,0.1  c0.4,0.1,0.7,0.2,1,0.4c0.3,0.2,0.6,0.3,0.8,0.6c0.3,0.2,0.5,0.4,0.6,0.7c0.2,0.2,0.3,0.5,0.3,0.7l-0.6,0.2l0.1-2.4h2.7v9.8  c0,0.9-0.1,1.6-0.4,2.3c-0.3,0.7-0.6,1.2-1.1,1.7c-0.5,0.5-1.1,0.8-1.8,1.1C561.9,884,561.1,884.1,560.2,884.1z M560.3,877.2  c0.6,0,1-0.1,1.5-0.4c0.4-0.3,0.8-0.6,1-1.1c0.2-0.5,0.3-1,0.3-1.6c0-0.6-0.1-1.1-0.3-1.6c-0.2-0.5-0.6-0.8-1-1.1  c-0.4-0.3-0.9-0.4-1.5-0.4c-0.5,0-1,0.1-1.5,0.4c-0.4,0.3-0.7,0.6-1,1.1c-0.2,0.5-0.3,1-0.3,1.6c0,0.6,0.1,1.1,0.3,1.6  c0.2,0.5,0.5,0.8,1,1.1C559.3,877.1,559.8,877.2,560.3,877.2z"></path>
</svg>