<svg xmlns="http://www.w3.org/2000/svg" xmlns:xlink="http://www.w3.org/1999/xlink" version="1.1" id="Layer_1" x="0px" y="0px" viewBox="0 0 1000 1000" enable-background="new 0 0 1000 1000" xml:space="preserve" preserveAspectRatio="xMidYMid meet" style="width: 1000px;">
<g>
	<path fill="#FDBDC4" stroke="#474747" stroke-width="0.2" d="M879.3,799.4c-0.4-0.1-0.7-0.2-1-0.1c-1.6,0.4-3.3,4.3-5,4.5   c-3.3,0.3-8.2-6-11.4-6.6c-2.6-0.5-7.8,1.6-10.4,1.4c-2.8-0.1-8.2-1.7-10.9-2.6c-3.3-1.1-9.3-4.3-12.6-5.5   c-3-1.1-10.1-1.5-12.3-3.8c-1-1-1.2-4-1.2-5.4c0-1.4-9.4-3.4-11.4-5.9c-1.3-1.6-0.7-6.3-1.4-8.3c-0.5-1.3-1.9-4-3.1-4.7   c-2.8-1.6-9.9,0.9-12.8-0.5c-2.4-1.2-6.4-7.6-6.6-8.3c-0.2-0.7-6.2-6.6-9-7.1c-2.4-0.4-7.2,1.7-9.5,2.6c-2.4,0.9-6.7,5.2-9.2,4.7   c-2.1-0.4-4.4-4.5-5.7-6.2c-0.9-1.2-2-4.1-3.1-5.2c-1.6-1.6-6.4-2.8-7.6-4.7c-0.9-1.4,0.7-5.5-0.5-6.6c-1.7-1.6-7.1,1-9.2,0   c-1.8-0.8-3.1-5.3-5-5.9c-1.6-0.5-4.9,1.5-6.6,1.7c-1.4,0.1-4.6,0.8-6.7,0.7c-0.4-1.7-1.1-3.6-0.9-4.8c0.3-2,3.6-5.3,3.5-7.3   c-0.1-1.6-3.3-3.7-3.5-5.2c-0.2-1.3,0.7-4.2,1.7-4.9c1-0.7,4,0.8,5.1,0.2c0.9-0.5,1.1-3.3,2.1-3.8c2.1-1,7.1,0.8,9.3,1.7   c1,0.5,2.6,2.3,3.6,2.7c1.3,0.5,4.1,0.2,5.4,0.8c1,0.5,2.2,2.3,3.2,2.8c2.3,1.2,7.9,3.7,10.3,2.5c1.2-0.6,2.5-3.5,2.2-4.7   c-0.2-1-2.8-1.9-3.2-2.8c-0.5-1.2-0.4-4.2,0.3-5.4c0.5-0.9,3-1.3,3.6-2.2c0.7-1,1.4-3.6,0.8-4.6c-0.7-1.1-4.3-0.4-4.9-1.6   c-0.6-1.2,1.8-3.6,1.9-4.9c0.1-1.4-0.1-4.5-0.9-5.7c-0.8-1.1-4.4-1.3-5.1-2.5c-0.7-1.3,0.7-4.5,0.5-6c-0.3-1.6-1.5-4.7-2.7-5.7   c-1-0.8-4-0.4-5.1-1.3c-1.3-1.1-2-4.5-2.8-6c-1-1.8-2.9-5.4-4.3-6.8c-1.1-1.1-4.2-2.1-5.2-3.3c-1.2-1.5-1.7-5.7-2.8-7.3   c-0.7-1-3.3-3-4-3.2c-0.6-0.2-4.5-3.6-5.2-5.4c-0.8-2.1-1.5-7.1-0.3-9c1-1.5,5-2,6.6-2.7c1.6-0.6,5.2-1.3,6.2-2.7   c0.2-0.3,0.3-0.7,0.3-1.3c1.5,0.9,3.4,2.1,3.9,3c0.9,1.7-0.7,6,0.3,7.6c1.4,2.1,6.8,3.5,9.2,4.4c2.7,1.1,10.4,3.2,11.4,3.2   c1,0,5.9,1.1,7.6,2.2c1.9,1.2,4.3,5.5,6.3,6.6c1.1,0.7,3.8,1,5.1,1.6c1.3,0.6,4.4,6.5,6.3,8.2c1.9,1.6,6.5,3.8,8.8,4.4   c1.5,0.4,4.8,0.7,6.3,0.3c1.8-0.4,4.7-4.7,6.3-3.8c0.5,0.3-0.2,1.9,0,2.5c0.5,1.3,2.1,4.1,3.5,4.4c1.5,0.4,4.2-1.9,5.7-2.2   c2-0.4,6.3-1.1,8.2-0.3c1.4,0.5,3.5,3.5,4.4,3.8c1,0.3,6.1-0.9,7.9-1.9c1.9-1,6-3.3,6.6-5.4c0.9-2.8-1.7-8.8-3.2-11.4   c-0.4-0.7-1.1-1.4-1.9-2.2c0.9-0.8,2.3-2,3.1-2.2c1.5-0.5,4.8-0.5,6.3,0c1,0.3,2.2,2.5,3.2,2.5c2.1,0,4.6-4.9,6.6-5.4   c1.2-0.3,3.5,0.8,4.7,0.9c2.3,0.3,7.1,1.6,9.2,0.6c1.5-0.7,2.5-4.9,4.1-5.4c2.4-0.7,7.5,1.6,9.5,3.2c1.3,1,3.2,4.1,3.5,5.7   c0.3,1.5-1.2,4.5-1,6c0.4,2.2,2.5,4.7,5.4,7.3c2.8,2.5,3.6,4.2,3.8,6c0.2,1.6-0.5,4.8,0,6.3c0.9,2.5,6.8,5.6,6.6,8.2   c-0.1,1.1-2.7,2.2-3.2,3.2c-0.7,1.5,0.2,5.2-0.6,6.6c-0.5,0.9-3,1.3-3.5,2.2c-0.7,1.2-1.2,4.5-0.3,5.7c1.1,1.4,5.2,1.9,7,1.6   c0.9-0.1,2.8-1,3.2-1.9c0.7-1.7-2.6-5.5-1.9-7.3c0.5-1.4,3.5-3.4,5.1-3.5c1.6-0.1,4,2.4,5.4,3.2c1.6,0.8,5,1.9,6.3,3.2   c1.4,1.4,3,5.1,3.8,7c0.6,1.3,1.9,3.9,1.9,5.4c-0.1,2.8-3.8,9.2-4.1,10.4c-0.3,1.3,3.6,3.5,3.8,5.1c0.3,2-4.6,4.9-4.4,7   c0.1,1.5,3.1,3.2,3.8,4.4c0.7,1.2,1.7,3.7,1.9,5.1c0.3,1.4-0.7,4.5,0,5.7c1.1,1.8,5.5,3.2,7.6,3.8c1.7,0.5,5.5-0.3,7,0.6   c2.2,1.3,4.7,7.3,5.7,8.5c1,1.3,2.5,1.8,3.2,2.5c0.2,0.2,0.3,0.4,0.5,0.7c1.2,2,2.3,5.7,3,7.6c0.4,1.1,1.5,3.3,1.6,4.4   c0.2,1.7-1.8,5.2-1,6.6c1.5,2.5,8.7,2.3,11.1,4.1c1.4,1.1,3.5,4,4.1,5.7c0.5,1.2,0.6,3.5,0.6,5.3c-2.4,1-4.8,2.1-6.5,2.7   c-1.4,0.4-4.1,1.9-5.5,1.7c-1.5-0.3-3.6-2.8-4.7-3.8c-1.5-1.3-3.7-5.7-5.7-5.5c-1.7,0.3-3,4.3-3.3,5.9c-0.3,1.5,1,4.7,0.5,6.2   c-0.7,1.7-3.6,4.9-5.5,5c-2.4,0-5.5-4.7-7.3-6.2c-1.2-1-3.4-3.8-5-3.8c-1.8,0-3.7,4.1-5.5,4.5c-1.4,0.4-4.4-1.8-5.7-1.2   c-1.5,0.7-1.6,5.2-3.1,5.9c-2.8,1.3-9-3.4-12.1-2.8c-1.5,0.3-3.7,3.1-5.2,3.3C882.4,801.1,880.6,799.8,879.3,799.4L879.3,799.4z" data-stroke-width="0.2" style="stroke-width: 0.2;" class=" " id="hoa-binh"></path>
	<path fill="#FDBDC4" stroke="#474747" stroke-width="0.2" d="M 99.7 232.6 C 99.2 231.2 99.10000000000001 227.79999999999998 100 226.6 C 101.2 225.1 105.6 224.9 107.6 224.7 C 109 224.6 111.8 225.7 113.1 225.2 C 114.5 224.6 116.6 222.1 117.19999999999999 220.6 C 117.99999999999999 218.6 116.69999999999999 214.1 117.39999999999999 212.1 C 117.99999999999999 210.1 120.1 206.2 121.8 205.1 C 123.2 204.2 126.8 203.9 128.4 204.29999999999998 C 131.4 204.99999999999997 136.6 208.6 138.70000000000002 210.79999999999998 C 140.10000000000002 212.2 141.20000000000002 216.49999999999997 142.8 217.79999999999998 C 144.20000000000002 218.89999999999998 147.70000000000002 220.29999999999998 149.4 219.99999999999997 C 150.8 219.79999999999998 152.3 216.59999999999997 153.70000000000002 216.49999999999997 C 155.70000000000002 216.39999999999998 158.70000000000002 219.69999999999996 160.3 220.79999999999998 C 161.9 221.79999999999998 164.8 224.29999999999998 166.60000000000002 224.89999999999998 C 169.00000000000003 225.7 174.10000000000002 224.99999999999997 176.60000000000002 225.49999999999997 C 179.3 225.99999999999997 184.60000000000002 227.69999999999996 186.90000000000003 229.09999999999997 C 189.50000000000003 230.79999999999995 192.90000000000003 235.99999999999997 195.30000000000004 237.89999999999998 C 197.10000000000005 239.39999999999998 201.00000000000003 242.09999999999997 203.20000000000005 242.79999999999998 C 205.30000000000004 243.49999999999997 209.90000000000003 242.79999999999998 212.00000000000006 243.39999999999998 C 214.30000000000007 244.09999999999997 218.60000000000005 246.49999999999997 220.20000000000005 248.29999999999998 C 222.90000000000003 251.29999999999998 224.90000000000003 259.59999999999997 226.80000000000004 263.2 C 228.60000000000005 266.59999999999997 232.00000000000003 273.9 235.00000000000003 276.3 C 236.80000000000004 277.7 241.30000000000004 278.90000000000003 243.50000000000003 279.3 C 245.20000000000002 279.6 248.70000000000002 278.8 250.30000000000004 279.5 C 252.50000000000003 280.4 255.00000000000003 284.8 257.1 285.8 C 258.70000000000005 286.5 262.20000000000005 286.40000000000003 263.90000000000003 286.6 C 266.3 286.8 271.70000000000005 289.1 273.40000000000003 287.40000000000003 C 274.40000000000003 286.40000000000003 273.40000000000003 283.00000000000006 272.90000000000003 281.50000000000006 C 272.3 279.6000000000001 268.50000000000006 276.40000000000003 268.90000000000003 274.40000000000003 C 269.20000000000005 272.70000000000005 272.70000000000005 271.00000000000006 274.3 270.3 C 276.40000000000003 269.40000000000003 281.3 269.90000000000003 283.3 268.7 C 284.90000000000003 267.8 286.40000000000003 264.09999999999997 287.90000000000003 263 C 289.6 261.7 294.90000000000003 261.7 296.00000000000006 259.8 C 296.80000000000007 258.40000000000003 295.50000000000006 254.9 294.90000000000003 253.3 C 294.3 251.70000000000002 291.70000000000005 247.9 291.6 247.10000000000002 C 291.40000000000003 246.3 293.3 240.8 294.90000000000003 239.50000000000003 C 296.6 238.10000000000002 301.20000000000005 237.70000000000002 303.3 237.30000000000004 C 304.7 237.00000000000003 307.6 236.80000000000004 309 236.40000000000003 C 311.7 235.40000000000003 316.8 232.70000000000005 318.8 230.70000000000005 C 319.90000000000003 229.60000000000005 321.2 226.80000000000004 321.8 225.30000000000004 C 322.7 222.90000000000003 323.40000000000003 217.80000000000004 324.2 215.30000000000004 C 324.5 214.20000000000005 325.4 212.10000000000005 325.8 211.00000000000003 C 326.40000000000003 209.30000000000004 327.1 205.70000000000002 327.90000000000003 204.00000000000003 C 328.70000000000005 202.10000000000002 330.1 197.70000000000002 332.00000000000006 196.70000000000002 C 334.50000000000006 195.50000000000003 340.6000000000001 197.3 343.20000000000005 198.3 C 347.00000000000006 199.8 353.80000000000007 204.70000000000002 356.80000000000007 207.5 C 358.1000000000001 208.7 360.80000000000007 211.3 361.1000000000001 213 C 361.30000000000007 214.7 358.1000000000001 217.6 358.4000000000001 219.3 C 358.7000000000001 220.9 362.1000000000001 222.5 363.0000000000001 223.9 C 364.8000000000001 226.4 366.5000000000001 232.5 368.2000000000001 235.1 C 370.4000000000001 238.4 375.4000000000001 244.6 378.6000000000001 246.79999999999998 C 379.6000000000001 247.39999999999998 381.50000000000006 248.49999999999997 383.00000000000006 248.79999999999998 C 383.70000000000005 250.2 384.30000000000007 251.49999999999997 384.30000000000007 251.89999999999998 C 384.30000000000007 252.79999999999998 383.6000000000001 258.29999999999995 383.6000000000001 259.2 C 383.6000000000001 260.2 390.50000000000006 266.5 391.4000000000001 266.8 C 392.30000000000007 267 395.30000000000007 271.6 395.0000000000001 273.40000000000003 C 394.60000000000014 275.50000000000006 389.4000000000001 277.70000000000005 389.3000000000001 279.8 C 389.2000000000001 282 393.2000000000001 285 394.5000000000001 286.7 C 395.60000000000014 288 397.7000000000001 290.8 399.0000000000001 291.9 C 400.10000000000014 292.79999999999995 402.7000000000001 293.59999999999997 403.7000000000001 294.5 C 404.9000000000001 295.5 406.0000000000001 298.9 407.5000000000001 299.5 C 409.2000000000001 300.2 413.0000000000001 298.5 414.8000000000001 298.1 C 416.60000000000014 297.70000000000005 420.3000000000001 296 422.10000000000014 296.20000000000005 C 422.90000000000015 296.30000000000007 424.40000000000015 297.30000000000007 425.20000000000016 297.6 C 427.10000000000014 298.40000000000003 431.20000000000016 299.20000000000005 432.8000000000002 300.40000000000003 C 433.9000000000002 301.3 434.70000000000016 304.50000000000006 435.9000000000002 305.40000000000003 C 437.0000000000002 306.3 440.4000000000002 306.20000000000005 441.4000000000002 307.3 C 442.3000000000002 308.3 442.0000000000002 311.3 442.6000000000002 312.5 C 443.50000000000017 314.4 446.4000000000002 317.4 447.8000000000002 318.9 C 449.00000000000017 320.29999999999995 451.70000000000016 322.7 452.9000000000002 324.09999999999997 C 454.2000000000002 325.79999999999995 456.7000000000002 329.29999999999995 457.6000000000002 331.2 C 458.4000000000002 332.7 459.50000000000017 336 460.00000000000017 337.59999999999997 C 460.50000000000017 339.2 460.8000000000002 342.59999999999997 461.50000000000017 344.09999999999997 C 462.50000000000017 345.99999999999994 465.6000000000002 349.29999999999995 467.3000000000002 350.59999999999997 C 468.20000000000016 351.29999999999995 470.6000000000002 351.99999999999994 471.3000000000002 352.9 C 472.20000000000016 354 473.1000000000002 357.59999999999997 473.4000000000002 358.2 C 473.8000000000002 358.8 476.6000000000002 360.2 477.8000000000002 360.7 C 479.20000000000016 361.3 482.6000000000002 361.7 483.50000000000017 363 C 484.70000000000016 364.7 484.1000000000002 369.2 484.1000000000002 371.2 C 484.1000000000002 373.3 483.00000000000017 377.4 483.50000000000017 379.4 C 483.90000000000015 381.09999999999997 486.50000000000017 383.7 487.00000000000017 385.4 C 487.8000000000002 387.9 486.90000000000015 393.29999999999995 487.6000000000002 395.79999999999995 C 488.1000000000002 397.49999999999994 490.50000000000017 400.4 491.1000000000002 402.09999999999997 C 491.7000000000002 403.99999999999994 490.8000000000002 408.4 492.1000000000002 409.99999999999994 C 492.1000000000002 409.99999999999994 492.2000000000002 410.09999999999997 492.2000000000002 410.09999999999997 C 491.5000000000002 411.99999999999994 489.4000000000002 414.4 488.1000000000002 415.4 C 487.4000000000002 415.9 485.6000000000002 416.4 484.8000000000002 416.29999999999995 C 483.70000000000016 416.29999999999995 481.6000000000002 414.79999999999995 480.50000000000017 414.99999999999994 C 479.6000000000002 415.19999999999993 478.6000000000002 417.19999999999993 477.70000000000016 417.49999999999994 C 476.90000000000015 417.79999999999995 474.90000000000015 416.69999999999993 474.20000000000016 417.19999999999993 C 472.70000000000016 418.29999999999995 472.60000000000014 423.69999999999993 472.90000000000015 424.5999999999999 C 473.20000000000016 425.4999999999999 476.50000000000017 430.2999999999999 476.50000000000017 430.7999999999999 C 476.50000000000017 431.2999999999999 475.90000000000015 436.1999999999999 476.8000000000002 437.5999999999999 C 477.9000000000002 439.2999999999999 482.70000000000016 439.4999999999999 483.9000000000002 441.0999999999999 C 485.1000000000002 442.69999999999993 485.0000000000002 447.8999999999999 485.5000000000002 448.7999999999999 C 486.0000000000002 449.7999999999999 489.5000000000002 454.5999999999999 488.80000000000024 456.4999999999999 C 488.30000000000024 457.7999999999999 485.0000000000002 458.1999999999999 483.90000000000026 458.9999999999999 C 482.40000000000026 459.9999999999999 479.10000000000025 462.1999999999999 478.7000000000003 463.89999999999986 C 478.40000000000026 465.29999999999984 481.7000000000003 468.09999999999985 480.90000000000026 469.29999999999984 C 480.2000000000003 470.39999999999986 476.90000000000026 469.09999999999985 475.7000000000003 469.49999999999983 C 475.10000000000025 469.6999999999998 474.3000000000003 470.1999999999998 473.5000000000003 470.6999999999998 C 472.2000000000003 471.49999999999983 470.90000000000026 472.3999999999998 470.5000000000003 472.29999999999984 C 469.90000000000026 472.09999999999985 465.40000000000026 471.79999999999984 464.0000000000003 470.89999999999986 C 462.1000000000003 469.59999999999985 460.5000000000003 464.89999999999986 458.8000000000003 463.29999999999984 C 457.7000000000003 462.29999999999984 454.5000000000003 460.79999999999984 453.7000000000003 460.29999999999984 C 452.90000000000026 459.79999999999984 448.60000000000025 456.79999999999984 447.10000000000025 455.39999999999986 C 445.60000000000025 453.9999999999999 443.2000000000003 450.6999999999999 441.7000000000003 449.1999999999999 C 440.60000000000025 448.09999999999985 437.90000000000026 445.6999999999999 437.90000000000026 444.09999999999985 C 437.90000000000026 442.49999999999983 437.30000000000024 439.1999999999999 436.2000000000003 438.1999999999999 C 434.90000000000026 437.09999999999985 431.0000000000003 437.59999999999985 429.60000000000025 436.59999999999985 C 429.10000000000025 436.1999999999999 428.10000000000025 435.1999999999999 428.0000000000002 434.49999999999983 C 427.7000000000002 432.79999999999984 430.30000000000024 429.6999999999998 430.2000000000002 427.99999999999983 C 430.2000000000002 426.59999999999985 428.30000000000024 423.3999999999998 427.7000000000002 423.09999999999985 C 427.1000000000002 422.79999999999984 425.1000000000002 420.29999999999984 424.5000000000002 419.09999999999985 C 423.80000000000024 417.6999999999999 423.60000000000025 414.39999999999986 422.80000000000024 413.09999999999985 C 422.2000000000002 412.1999999999999 420.40000000000026 411.1999999999999 419.60000000000025 410.39999999999986 C 418.10000000000025 408.89999999999986 415.80000000000024 405.4999999999999 414.40000000000026 403.89999999999986 C 413.30000000000024 402.59999999999985 410.10000000000025 399.29999999999984 409.7000000000003 399.1999999999999 C 409.2000000000003 398.9999999999999 400.8000000000003 394.4999999999999 397.7000000000003 393.1999999999999 C 395.40000000000026 392.2999999999999 390.7000000000003 390.09999999999985 388.2000000000003 390.1999999999999 C 387.0000000000003 390.2999999999999 384.7000000000003 391.59999999999985 383.60000000000025 392.2999999999999 C 381.7000000000003 393.5999999999999 377.7000000000003 396.5999999999999 376.80000000000024 398.7999999999999 C 376.2000000000002 400.3999999999999 378.80000000000024 404.8999999999999 377.30000000000024 405.7999999999999 C 377.10000000000025 405.8999999999999 376.80000000000024 405.8999999999999 376.5000000000002 405.8999999999999 C 375.10000000000025 405.49999999999994 373.30000000000024 403.19999999999993 372.2000000000002 402.49999999999994 C 370.5000000000002 401.3999999999999 366.0000000000002 399.99999999999994 365.6000000000002 398.09999999999997 C 365.1000000000002 395.9 369.9000000000002 392.49999999999994 370.00000000000017 390.2 C 370.1000000000002 388.59999999999997 368.8000000000002 385.2 367.50000000000017 384.2 C 366.20000000000016 383.2 362.20000000000016 384.2 360.90000000000015 383.3 C 358.10000000000014 381.2 356.50000000000017 373.8 354.90000000000015 370.7 C 353.40000000000015 367.8 351.70000000000016 360.8 348.90000000000015 359 C 346.8000000000001 357.7 341.50000000000017 358.2 339.10000000000014 358.7 C 336.20000000000016 359.3 330.20000000000016 361.4 328.40000000000015 363.8 C 327.10000000000014 365.40000000000003 327.90000000000015 370.2 326.50000000000017 371.7 C 325.90000000000015 372.3 323.6000000000002 372 323.00000000000017 372.59999999999997 C 321.40000000000015 374.4 321.70000000000016 380.49999999999994 322.1000000000002 382.09999999999997 C 322.4000000000002 383.7 326.4000000000002 388.49999999999994 325.6000000000002 390.59999999999997 C 325.3000000000002 391.4 323.3000000000002 391.99999999999994 322.4000000000002 391.9 C 319.3000000000002 391.29999999999995 316.1000000000002 384.4 313.2000000000002 383.09999999999997 C 311.80000000000024 382.4 308.30000000000024 383.09999999999997 306.9000000000002 382.49999999999994 C 304.8000000000002 381.49999999999994 302.5000000000002 376.49999999999994 300.3000000000002 375.8999999999999 C 298.4000000000002 375.2999999999999 294.4000000000002 376.99999999999994 292.4000000000002 377.49999999999994 C 290.5000000000002 377.99999999999994 286.7000000000002 380.19999999999993 284.8000000000002 379.69999999999993 C 283.70000000000016 379.3999999999999 282.4000000000002 377.0999999999999 281.6000000000002 376.19999999999993 C 280.8000000000002 375.29999999999995 279.6000000000002 372.99999999999994 278.4000000000002 372.69999999999993 C 276.9000000000002 372.3999999999999 274.1000000000002 374.19999999999993 273.0000000000002 375.19999999999993 C 271.30000000000024 376.8999999999999 270.9000000000002 382.49999999999994 268.9000000000002 383.69999999999993 C 267.1000000000002 384.79999999999995 262.4000000000002 383.0999999999999 260.4000000000002 383.69999999999993 C 259.2000000000002 383.99999999999994 257.5000000000002 385.99999999999994 256.3000000000002 386.19999999999993 C 253.90000000000018 386.69999999999993 248.80000000000018 383.69999999999993 246.50000000000017 384.5999999999999 C 245.50000000000017 384.9999999999999 244.90000000000018 387.4999999999999 244.00000000000017 388.0999999999999 C 242.50000000000017 388.9999999999999 238.50000000000017 390.0999999999999 237.00000000000017 388.9999999999999 C 235.50000000000017 387.89999999999986 236.60000000000016 383.1999999999999 235.40000000000018 381.6999999999999 C 234.40000000000018 380.4999999999999 230.80000000000018 380.2999999999999 229.7000000000002 379.1999999999999 C 228.6000000000002 377.9999999999999 228.90000000000018 373.9999999999999 227.5000000000002 373.1999999999999 C 225.1000000000002 371.7999999999999 219.3000000000002 373.9999999999999 216.8000000000002 375.09999999999985 C 214.60000000000022 375.99999999999983 211.5000000000002 380.09999999999985 209.20000000000022 380.79999999999984 C 206.60000000000022 381.49999999999983 201.10000000000022 380.29999999999984 198.50000000000023 379.89999999999986 C 195.80000000000024 379.4999999999999 189.80000000000024 379.39999999999986 188.10000000000022 377.39999999999986 C 187.10000000000022 376.1999999999999 188.00000000000023 372.59999999999985 187.50000000000023 371.09999999999985 C 187.00000000000023 369.79999999999984 185.10000000000022 367.79999999999984 184.30000000000024 366.6999999999999 C 182.90000000000023 364.6999999999999 180.00000000000023 360.89999999999986 178.90000000000023 358.7999999999999 C 178.10000000000022 357.1999999999999 176.20000000000024 353.6999999999999 176.40000000000023 351.7999999999999 C 176.50000000000023 350.4999999999999 178.20000000000024 348.3999999999999 178.90000000000023 347.3999999999999 C 180.00000000000023 345.69999999999993 183.80000000000024 342.99999999999994 183.60000000000022 341.0999999999999 C 183.50000000000023 339.4999999999999 180.60000000000022 337.19999999999993 179.20000000000022 336.3999999999999 C 177.10000000000022 335.0999999999999 171.70000000000022 334.99999999999994 169.70000000000022 333.5999999999999 C 168.20000000000022 332.4999999999999 167.20000000000022 328.4999999999999 165.60000000000022 327.5999999999999 C 164.50000000000023 326.9999999999999 161.70000000000022 326.5999999999999 160.50000000000023 327.0999999999999 C 159.20000000000022 327.69999999999993 156.80000000000024 330.0999999999999 157.00000000000023 331.4999999999999 C 157.40000000000023 333.5999999999999 162.90000000000023 334.2999999999999 164.10000000000022 335.89999999999986 C 165.00000000000023 337.09999999999985 165.90000000000023 340.29999999999984 165.8000000000002 341.89999999999986 C 165.8000000000002 343.1999999999999 164.20000000000022 345.4999999999999 164.10000000000022 346.79999999999984 C 163.90000000000023 348.09999999999985 165.40000000000023 351.1999999999998 164.40000000000023 352.1999999999998 C 163.10000000000022 353.49999999999983 158.70000000000024 352.5999999999998 157.00000000000023 351.8999999999998 C 155.80000000000024 351.3999999999998 153.70000000000022 348.6999999999998 153.10000000000022 348.6999999999998 C 152.50000000000023 348.6999999999998 149.50000000000023 348.6999999999998 148.50000000000023 348.0999999999998 C 146.90000000000023 347.0999999999998 144.50000000000023 343.7999999999998 144.40000000000023 341.8999999999998 C 144.40000000000023 340.3999999999998 147.70000000000024 338.1999999999998 147.40000000000023 336.6999999999998 C 147.10000000000022 335.1999999999998 143.00000000000023 333.3999999999998 142.70000000000024 332.8999999999998 C 142.40000000000023 332.3999999999998 136.40000000000023 327.6999999999998 136.40000000000023 327.1999999999998 C 136.40000000000023 326.6999999999998 133.70000000000024 325.49999999999983 132.80000000000024 325.79999999999984 C 131.00000000000023 326.39999999999986 129.70000000000024 330.89999999999986 128.10000000000025 331.79999999999984 C 127.20000000000024 332.29999999999984 124.80000000000025 332.59999999999985 123.80000000000025 332.09999999999985 C 122.10000000000025 331.09999999999985 121.40000000000025 326.49999999999983 120.20000000000026 324.99999999999983 C 119.10000000000026 323.6999999999998 116.00000000000026 321.99999999999983 114.80000000000025 320.6999999999998 C 112.70000000000026 318.1999999999998 110.30000000000025 311.99999999999983 108.20000000000026 309.49999999999983 C 106.60000000000026 307.59999999999985 102.10000000000026 304.99999999999983 100.60000000000026 302.99999999999983 C 99.60000000000026 301.59999999999985 99.00000000000027 297.8999999999998 97.80000000000027 296.6999999999998 C 96.60000000000026 295.49999999999983 92.90000000000026 294.79999999999984 91.50000000000027 293.8999999999998 C 90.40000000000028 293.1999999999998 88.00000000000027 291.5999999999998 87.50000000000027 290.3999999999998 C 87.00000000000027 288.99999999999983 88.00000000000027 285.99999999999983 88.00000000000027 284.5999999999998 C 87.90000000000028 283.1999999999998 86.80000000000027 280.5999999999998 87.10000000000026 279.1999999999998 C 87.40000000000026 277.79999999999984 89.90000000000026 275.5999999999998 90.10000000000026 274.0999999999998 C 90.40000000000026 272.1999999999998 88.30000000000027 268.5999999999998 88.20000000000026 266.6999999999998 C 88.10000000000026 265.3999999999998 89.00000000000026 262.79999999999984 88.80000000000025 261.49999999999983 C 88.70000000000026 260.8999999999998 88.40000000000025 260.1999999999998 88.00000000000026 259.3999999999998 C 89.20000000000026 258.49999999999983 91.10000000000025 257.2999999999998 91.80000000000025 256.2999999999998 C 92.70000000000026 254.89999999999978 92.40000000000025 251.1999999999998 93.50000000000026 249.99999999999977 C 94.50000000000026 248.99999999999977 97.50000000000026 248.59999999999977 98.90000000000026 248.09999999999977 C 100.10000000000026 247.59999999999977 102.90000000000026 247.09999999999977 103.60000000000026 245.99999999999977 C 104.90000000000026 244.39999999999978 105.50000000000027 239.79999999999978 104.90000000000026 237.79999999999978 C 104.4 236.5 100.4 234.4 99.7 232.6 L 99.7 232.6 Z" data-stroke-width="0.2" style="stroke-width: 0.2;" class="  " id="lai-chau"></path>
	<path fill="#FDBDC4" stroke="#474747" stroke-width="0.2" d="M 44.5 301.5 C 43.2 299.5 40.9 294.6 41.7 292.3 C 42.2 291 45.1 289.6 46.400000000000006 289.1 C 49.300000000000004 288.20000000000005 55.7 288.5 58.7 288.8 C 61.1 289 65.9 291.5 68 290.5 C 69.2 289.9 70.3 287.1 70.7 285.8 C 71.3 283.40000000000003 69.8 278.1 70.7 275.7 C 71.8 272.8 76.3 268.4 78.60000000000001 266.4 C 80.60000000000001 264.59999999999997 85.4 261.9 87.60000000000001 260.2 C 87.7 260.09999999999997 87.9 260 88.10000000000001 259.9 C 88.50000000000001 260.7 88.80000000000001 261.4 88.9 262 C 89 263.3 88.2 265.9 88.30000000000001 267.2 C 88.4 269.09999999999997 90.50000000000001 272.7 90.20000000000002 274.59999999999997 C 90.00000000000001 276.09999999999997 87.50000000000001 278.2 87.20000000000002 279.7 C 87.00000000000001 281 88.10000000000002 283.7 88.10000000000002 285.09999999999997 C 88.20000000000002 286.59999999999997 87.10000000000002 289.59999999999997 87.60000000000002 290.9 C 88.10000000000002 292.09999999999997 90.40000000000002 293.7 91.60000000000002 294.4 C 93.10000000000002 295.29999999999995 96.70000000000002 296 97.90000000000002 297.2 C 99.10000000000002 298.4 99.70000000000002 302.09999999999997 100.70000000000002 303.5 C 102.20000000000002 305.5 106.70000000000002 308.1 108.30000000000001 310 C 110.4 312.5 112.80000000000001 318.8 114.9 321.2 C 116 322.5 119.2 324.09999999999997 120.30000000000001 325.5 C 121.60000000000001 327 122.20000000000002 331.6 123.9 332.6 C 124.80000000000001 333.1 127.2 332.8 128.20000000000002 332.3 C 129.9 331.40000000000003 131.10000000000002 326.90000000000003 132.9 326.3 C 133.8 326 136.5 327.2 136.5 327.7 C 136.5 328.2 142.5 332.9 142.8 333.4 C 143.10000000000002 333.9 147.20000000000002 335.7 147.5 337.2 C 147.8 338.7 144.4 340.9 144.5 342.4 C 144.6 344.2 147.1 347.59999999999997 148.6 348.59999999999997 C 149.6 349.2 152.6 349.2 153.2 349.2 C 153.79999999999998 349.2 156 351.9 157.1 352.4 C 158.79999999999998 353.09999999999997 163.2 354 164.5 352.7 C 165.4 351.7 164 348.7 164.2 347.3 C 164.39999999999998 346 165.89999999999998 343.7 165.89999999999998 342.40000000000003 C 165.89999999999998 340.8 165.09999999999997 337.6 164.2 336.40000000000003 C 162.89999999999998 334.70000000000005 157.5 334.00000000000006 157.1 332.00000000000006 C 156.9 330.6000000000001 159.29999999999998 328.1000000000001 160.6 327.6000000000001 C 161.79999999999998 327.1000000000001 164.6 327.4000000000001 165.7 328.1000000000001 C 167.29999999999998 329.00000000000006 168.29999999999998 333.00000000000006 169.79999999999998 334.1000000000001 C 171.79999999999998 335.6000000000001 177.2 335.6000000000001 179.29999999999998 336.9000000000001 C 180.7 337.80000000000007 183.6 340.0000000000001 183.7 341.6000000000001 C 183.79999999999998 343.6000000000001 180 346.30000000000007 179 347.9000000000001 C 178.3 349.0000000000001 176.6 351.1000000000001 176.5 352.30000000000007 C 176.3 354.1000000000001 178.2 357.6000000000001 179 359.30000000000007 C 180.1 361.4000000000001 183 365.20000000000005 184.4 367.20000000000005 C 185.20000000000002 368.30000000000007 187.1 370.40000000000003 187.6 371.6 C 188.2 373.1 187.2 376.70000000000005 188.2 377.90000000000003 C 190 379.90000000000003 196 380.00000000000006 198.6 380.40000000000003 C 201.29999999999998 380.8 206.79999999999998 382.1 209.29999999999998 381.3 C 211.6 380.7 214.7 376.6 216.89999999999998 375.6 C 219.39999999999998 374.5 225.29999999999998 372.3 227.59999999999997 373.70000000000005 C 228.99999999999997 374.50000000000006 228.69999999999996 378.50000000000006 229.79999999999995 379.70000000000005 C 230.89999999999995 380.80000000000007 234.49999999999994 381.00000000000006 235.49999999999994 382.20000000000005 C 236.69999999999993 383.6 235.59999999999994 388.40000000000003 237.09999999999994 389.50000000000006 C 238.49999999999994 390.50000000000006 242.59999999999994 389.50000000000006 244.09999999999994 388.6000000000001 C 244.99999999999994 388.1000000000001 245.59999999999994 385.50000000000006 246.59999999999994 385.1000000000001 C 248.89999999999995 384.2000000000001 253.99999999999994 387.2000000000001 256.3999999999999 386.7000000000001 C 257.5999999999999 386.5000000000001 259.2999999999999 384.5000000000001 260.49999999999994 384.2000000000001 C 262.59999999999997 383.6000000000001 267.19999999999993 385.3000000000001 268.99999999999994 384.2000000000001 C 270.99999999999994 382.9000000000001 271.3999999999999 377.3000000000001 273.09999999999997 375.7000000000001 C 274.2 374.7000000000001 276.99999999999994 372.9000000000001 278.49999999999994 373.2000000000001 C 279.59999999999997 373.4000000000001 280.8999999999999 375.8000000000001 281.69999999999993 376.7000000000001 C 282.49999999999994 377.6000000000001 283.69999999999993 379.9000000000001 284.8999999999999 380.2000000000001 C 286.7999999999999 380.7000000000001 290.5999999999999 378.5000000000001 292.49999999999994 378.0000000000001 C 294.49999999999994 377.5000000000001 298.49999999999994 375.8000000000001 300.3999999999999 376.4000000000001 C 302.5999999999999 377.1000000000001 304.8999999999999 382.0000000000001 306.99999999999994 383.0000000000001 C 308.3999999999999 383.7000000000001 311.8999999999999 383.0000000000001 313.29999999999995 383.60000000000014 C 316.19999999999993 384.90000000000015 319.29999999999995 391.8000000000001 322.49999999999994 392.40000000000015 C 323.29999999999995 392.60000000000014 325.29999999999995 391.90000000000015 325.69999999999993 391.10000000000014 C 326.5999999999999 389.0000000000001 322.49999999999994 384.10000000000014 322.19999999999993 382.60000000000014 C 321.8999999999999 381.0000000000001 321.5999999999999 374.90000000000015 323.0999999999999 373.10000000000014 C 323.69999999999993 372.40000000000015 325.8999999999999 372.8000000000001 326.5999999999999 372.20000000000016 C 327.9999999999999 370.70000000000016 327.19999999999993 365.90000000000015 328.4999999999999 364.3000000000002 C 330.39999999999986 362.00000000000017 336.2999999999999 359.8000000000002 339.1999999999999 359.20000000000016 C 341.59999999999985 358.70000000000016 346.89999999999986 358.20000000000016 348.9999999999999 359.50000000000017 C 351.7999999999999 361.3000000000002 353.4999999999999 368.20000000000016 354.9999999999999 371.20000000000016 C 356.5999999999999 374.3000000000002 358.1999999999999 381.8000000000002 360.9999999999999 383.8000000000002 C 362.39999999999986 384.8000000000002 366.2999999999999 383.70000000000016 367.5999999999999 384.70000000000016 C 368.8999999999999 385.70000000000016 370.19999999999993 389.10000000000014 370.0999999999999 390.70000000000016 C 369.9999999999999 393.00000000000017 365.19999999999993 396.40000000000015 365.69999999999993 398.60000000000014 C 366.19999999999993 400.5000000000001 370.69999999999993 401.90000000000015 372.29999999999995 403.0000000000001 C 373.29999999999995 403.7000000000001 375.19999999999993 406.0000000000001 376.59999999999997 406.4000000000001 C 376.9 407.9000000000001 377.09999999999997 409.6000000000001 376.79999999999995 410.6000000000001 C 376.4 411.7000000000001 374.09999999999997 413.00000000000006 373.49999999999994 414.1000000000001 C 372.59999999999997 415.80000000000007 371.29999999999995 419.80000000000007 371.79999999999995 421.7000000000001 C 372.19999999999993 423.4000000000001 374.9 426.0000000000001 376.19999999999993 427.1000000000001 C 376.99999999999994 427.7000000000001 379.29999999999995 428.1000000000001 379.79999999999995 429.00000000000006 C 380.9 430.80000000000007 379.09999999999997 435.30000000000007 379.79999999999995 437.20000000000005 C 380.29999999999995 438.6 382.59999999999997 440.6 383.4 441.80000000000007 C 384.5 443.50000000000006 386.29999999999995 447.20000000000005 387.2 449.1000000000001 C 388.2 451.1000000000001 389.7 455.2000000000001 390.8 457.00000000000006 C 391.7 458.40000000000003 394.5 460.70000000000005 395.2 462.20000000000005 C 395.7 463.40000000000003 395.9 466.00000000000006 396 467.30000000000007 C 396.2 469.30000000000007 397 473.50000000000006 396.2 475.4000000000001 C 395.7 476.5000000000001 393 477.5000000000001 392.4 478.6000000000001 C 391.2 480.80000000000007 390.7 485.9000000000001 390.79999999999995 488.4000000000001 C 390.9 490.1000000000001 392.79999999999995 493.5000000000001 392.4 495.2000000000001 C 391.9 497.3000000000001 388.09999999999997 500.0000000000001 386.9 501.8000000000001 C 385.79999999999995 503.5000000000001 384.7 507.8000000000001 383.09999999999997 509.10000000000014 C 381.59999999999997 510.3000000000001 377.4 510.20000000000016 375.79999999999995 511.3000000000001 C 374.49999999999994 512.2000000000002 373.29999999999995 515.2000000000002 371.99999999999994 516.0000000000001 C 370.49999999999994 517.0000000000001 366.19999999999993 516.5000000000001 364.99999999999994 517.9000000000001 C 362.99999999999994 520.2 364.19999999999993 526.9000000000001 363.69999999999993 529.9000000000001 C 363.3999999999999 531.6000000000001 363.79999999999995 535.7 362.3999999999999 536.9000000000001 C 360.7999999999999 538.2 356.19999999999993 536.4000000000001 354.19999999999993 536.9000000000001 C 352.5999999999999 537.3000000000001 349.79999999999995 539.6000000000001 348.19999999999993 539.7 C 345.8999999999999 539.9000000000001 341.3999999999999 537.2 338.99999999999994 537.5 C 337.49999999999994 537.7 334.29999999999995 540 334.29999999999995 541.3 C 334.29999999999995 542.5999999999999 337.09999999999997 546.6999999999999 338.99999999999994 547.5999999999999 C 340.8999999999999 548.4999999999999 344.49999999999994 548.4999999999999 345.59999999999997 549.8 C 346.99999999999994 551.4 347.49999999999994 556.1999999999999 346.49999999999994 558 C 345.99999999999994 559 342.29999999999995 559.1 342.3999999999999 560.2 C 342.49999999999994 563.2 350.5999999999999 564 353.49999999999994 564.9000000000001 C 354.79999999999995 565.3000000000001 358.09999999999997 565.1000000000001 358.8999999999999 566.2 C 360.8999999999999 568.9000000000001 357.5999999999999 576.2 357.99999999999994 579.5 C 358.29999999999995 582 360.69999999999993 586.5 360.79999999999995 589 C 361.09999999999997 592.3 361.19999999999993 599.8 358.9 602.3 C 358.2 603.0999999999999 355.5 602.4 354.79999999999995 603.1999999999999 C 353.79999999999995 604.3 355.19999999999993 607.9 354.49999999999994 609.1999999999999 C 353.8999999999999 610.3 350.69999999999993 611.0999999999999 350.3999999999999 612.4 C 349.5999999999999 615.6 356.8999999999999 621.1999999999999 356.0999999999999 624.4 C 355.69999999999993 626 352.3999999999999 628 350.69999999999993 628.1999999999999 C 348.79999999999995 628.4 345.3999999999999 625.6999999999999 343.3999999999999 625.4 C 342.0999999999999 625.1999999999999 339.2999999999999 626.1999999999999 337.99999999999994 625.6999999999999 C 335.99999999999994 624.9 333.99999999999994 620.1999999999999 331.99999999999994 619.6999999999999 C 330.29999999999995 619.1999999999999 325.8999999999999 619.9999999999999 324.99999999999994 621.5999999999999 C 324.3999999999999 622.5999999999999 326.8999999999999 624.9999999999999 326.29999999999995 625.9999999999999 C 325.59999999999997 627.0999999999999 321.99999999999994 625.8999999999999 321.19999999999993 626.9999999999999 C 319.8999999999999 628.7999999999998 322.79999999999995 633.5999999999999 322.49999999999994 635.7999999999998 C 322.29999999999995 636.9999999999999 320.49999999999994 638.9999999999999 320.59999999999997 640.1999999999998 C 320.9 643.2999999999998 326.59999999999997 647.5999999999998 327.59999999999997 650.5999999999998 C 327.99999999999994 651.9999999999998 328.49999999999994 655.1999999999998 327.59999999999997 656.2999999999998 C 326.9 657.2999999999998 323.59999999999997 656.5999999999998 322.9 657.5999999999998 C 321.29999999999995 659.5999999999998 323.5 665.5999999999998 322.59999999999997 667.9999999999998 C 322.09999999999997 669.2999999999997 320.4 671.7999999999997 319.09999999999997 672.3999999999997 C 317.99999999999994 672.8999999999997 315.49999999999994 671.8999999999997 314.4 672.3999999999997 C 313.09999999999997 672.8999999999997 311.09999999999997 675.1999999999997 309.59999999999997 676.7999999999997 C 309.59999999999997 675.5999999999997 309.59999999999997 674.4999999999998 309.29999999999995 673.7999999999997 C 308.4 671.7999999999997 305.09999999999997 668.6999999999997 303.29999999999995 667.4999999999998 C 301.69999999999993 666.4999999999998 298.09999999999997 665.0999999999998 296.19999999999993 664.9999999999998 C 293.5999999999999 664.7999999999997 288.49999999999994 667.2999999999997 285.8999999999999 666.6999999999998 C 283.0999999999999 666.0999999999998 278.19999999999993 662.3999999999999 276.5999999999999 660.0999999999998 C 275.19999999999993 658.1999999999998 275.19999999999993 652.9999999999998 274.0999999999999 650.8999999999997 C 272.7999999999999 648.5999999999998 268.19999999999993 645.5999999999998 266.7999999999999 643.2999999999997 C 265.2999999999999 640.8999999999997 263.2999999999999 632.9999999999998 263.1999999999999 632.5999999999997 C 262.9999999999999 632.0999999999997 258.6999999999999 628.2999999999997 256.6999999999999 627.4999999999997 C 254.69999999999987 626.7999999999996 248.79999999999987 626.8999999999996 248.29999999999987 626.5999999999997 C 247.79999999999987 626.2999999999997 242.49999999999986 622.2999999999997 242.49999999999986 621.8999999999996 C 242.49999999999986 621.4999999999995 243.09999999999985 617.1999999999996 242.49999999999986 615.6999999999996 C 241.99999999999986 614.3999999999996 239.49999999999986 612.7999999999996 238.69999999999985 611.5999999999996 C 237.39999999999984 609.6999999999996 236.49999999999986 604.7999999999996 234.69999999999985 603.3999999999995 C 233.59999999999985 602.5999999999996 230.49999999999986 603.1999999999995 229.49999999999986 602.2999999999995 C 228.49999999999986 601.3999999999995 227.49999999999986 598.5999999999995 227.59999999999985 597.1999999999995 C 227.69999999999985 594.8999999999995 231.79999999999984 591.3999999999995 231.69999999999985 589.0999999999995 C 231.59999999999985 587.2999999999995 229.39999999999984 583.8999999999994 227.89999999999984 582.7999999999995 C 226.29999999999984 581.6999999999995 222.29999999999984 580.9999999999995 220.29999999999984 581.0999999999995 C 218.39999999999984 581.0999999999995 214.79999999999984 583.1999999999995 212.89999999999984 582.9999999999994 C 210.89999999999984 582.7999999999994 206.79999999999984 581.2999999999994 205.79999999999984 579.6999999999995 C 205.19999999999985 578.7999999999995 205.29999999999984 576.3999999999995 205.79999999999984 575.3999999999995 C 206.29999999999984 574.3999999999995 208.29999999999984 573.3999999999995 209.29999999999984 572.8999999999995 C 211.19999999999985 571.7999999999995 215.19999999999985 569.9999999999995 217.39999999999984 569.3999999999995 C 218.79999999999984 569.0999999999996 221.69999999999985 569.1999999999995 223.09999999999982 568.8999999999995 C 224.49999999999983 568.5999999999996 227.59999999999982 568.0999999999996 228.49999999999983 566.9999999999995 C 229.49999999999983 565.7999999999995 229.69999999999982 562.3999999999995 229.49999999999983 560.7999999999995 C 229.09999999999982 558.6999999999995 225.69999999999982 555.4999999999995 225.59999999999982 553.3999999999995 C 225.49999999999983 551.7999999999995 226.49999999999983 548.4999999999995 227.69999999999982 547.3999999999995 C 228.49999999999983 546.5999999999996 231.2999999999998 546.7999999999995 232.09999999999982 545.9999999999995 C 233.59999999999982 544.2999999999995 232.39999999999984 538.5999999999996 233.99999999999983 536.9999999999995 C 234.89999999999984 536.0999999999996 238.09999999999982 536.8999999999995 238.89999999999984 535.8999999999995 C 239.59999999999982 534.9999999999995 239.39999999999984 532.1999999999995 238.69999999999985 531.2999999999995 C 238.09999999999985 530.3999999999995 235.69999999999985 529.4999999999995 234.59999999999985 529.6999999999995 C 232.99999999999986 530.0999999999995 231.69999999999985 533.9999999999994 230.19999999999985 534.5999999999995 C 229.29999999999984 534.9999999999994 226.99999999999986 534.9999999999994 226.29999999999984 534.2999999999995 C 224.69999999999985 532.7999999999995 224.19999999999985 527.4999999999995 224.99999999999983 525.4999999999995 C 225.59999999999982 524.0999999999996 228.79999999999984 522.7999999999995 229.89999999999984 521.6999999999996 C 231.99999999999983 519.5999999999996 234.59999999999982 513.9999999999995 236.89999999999984 512.0999999999996 C 238.09999999999982 511.09999999999957 241.29999999999984 510.29999999999956 242.39999999999984 509.29999999999956 C 243.79999999999984 508.09999999999957 245.49999999999983 504.59999999999957 246.69999999999985 503.09999999999957 C 247.79999999999984 501.6999999999996 250.89999999999984 499.59999999999957 251.29999999999984 497.8999999999996 C 251.69999999999985 496.1999999999996 249.69999999999985 492.9999999999996 249.39999999999984 491.29999999999956 C 248.99999999999983 488.99999999999955 248.99999999999983 484.29999999999956 248.79999999999984 481.99999999999955 C 248.59999999999985 479.99999999999955 247.69999999999985 476.09999999999957 247.99999999999983 474.09999999999957 C 248.19999999999982 472.49999999999955 250.59999999999982 469.6999999999996 250.39999999999984 468.09999999999957 C 250.19999999999985 466.29999999999956 247.89999999999984 462.99999999999955 246.29999999999984 462.1999999999996 C 245.39999999999984 461.6999999999996 243.19999999999985 462.2999999999996 242.19999999999985 462.3999999999996 C 240.69999999999985 462.3999999999996 237.59999999999985 461.8999999999996 236.19999999999985 462.3999999999996 C 233.99999999999986 463.09999999999957 230.69999999999985 466.3999999999996 228.79999999999984 467.59999999999957 C 227.59999999999985 468.3999999999996 225.29999999999984 470.6999999999996 223.89999999999984 470.59999999999957 C 221.59999999999982 470.3999999999996 217.99999999999983 466.59999999999957 217.29999999999984 464.3999999999996 C 216.69999999999985 462.59999999999957 218.19999999999985 458.79999999999956 218.19999999999985 456.9999999999996 C 218.19999999999985 455.3999999999996 217.49999999999986 452.1999999999996 217.39999999999984 450.4999999999996 C 217.29999999999984 448.4999999999996 217.89999999999984 444.4999999999996 217.69999999999985 442.3999999999996 C 217.59999999999985 440.8999999999996 217.69999999999985 437.1999999999996 216.39999999999984 436.3999999999996 C 214.59999999999982 435.1999999999996 209.59999999999982 436.79999999999956 207.99999999999983 438.29999999999956 C 206.59999999999982 439.69999999999953 205.79999999999984 443.8999999999996 205.79999999999984 445.8999999999996 C 205.69999999999985 448.4999999999996 207.79999999999984 453.29999999999956 207.99999999999983 455.8999999999996 C 208.19999999999982 457.8999999999996 208.79999999999984 462.29999999999956 207.69999999999982 463.9999999999996 C 207.19999999999982 464.6999999999996 205.09999999999982 464.8999999999996 204.3999999999998 465.3999999999996 C 202.5999999999998 466.79999999999956 200.5999999999998 471.1999999999996 198.8999999999998 472.6999999999996 C 197.4999999999998 473.8999999999996 193.69999999999982 474.6999999999996 192.2999999999998 475.8999999999996 C 191.09999999999982 476.8999999999996 190.09999999999982 480.1999999999996 188.69999999999982 480.9999999999996 C 185.7999999999998 482.4999999999996 178.49999999999983 482.4999999999996 175.59999999999982 480.9999999999996 C 173.59999999999982 479.9999999999996 171.49999999999983 475.4999999999996 170.19999999999982 473.5999999999996 C 169.09999999999982 471.89999999999964 166.99999999999983 468.39999999999964 166.2999999999998 466.4999999999996 C 165.3999999999998 464.3999999999996 163.2999999999998 459.9999999999996 163.7999999999998 457.7999999999996 C 164.19999999999982 455.89999999999964 168.69999999999982 452.2999999999996 168.69999999999982 451.5999999999996 C 168.69999999999982 450.9999999999996 168.59999999999982 440.89999999999964 167.3999999999998 437.4999999999996 C 166.7999999999998 435.7999999999996 164.8999999999998 432.7999999999996 163.5999999999998 431.4999999999996 C 161.9999999999998 429.8999999999996 157.0999999999998 428.5999999999996 156.1999999999998 426.5999999999996 C 155.29999999999978 424.69999999999965 157.89999999999978 420.39999999999964 157.29999999999978 418.39999999999964 C 156.79999999999978 416.69999999999965 153.99999999999977 413.7999999999996 152.39999999999978 412.99999999999966 C 150.99999999999977 412.29999999999967 147.59999999999977 412.89999999999964 146.09999999999977 412.39999999999964 C 143.39999999999978 411.49999999999966 138.49999999999977 408.49999999999966 136.29999999999976 406.69999999999965 C 134.49999999999974 405.19999999999965 130.99999999999974 401.89999999999964 129.99999999999974 399.69999999999965 C 129.39999999999975 398.39999999999964 128.49999999999974 395.19999999999965 128.99999999999974 393.89999999999964 C 129.69999999999973 392.19999999999965 134.99999999999974 391.2999999999996 134.89999999999975 389.49999999999966 C 134.69999999999976 387.49999999999966 129.09999999999974 387.49999999999966 127.79999999999976 385.99999999999966 C 126.89999999999975 384.99999999999966 126.59999999999975 382.0999999999997 125.69999999999976 381.0999999999997 C 124.19999999999976 379.29999999999967 119.49999999999976 377.49999999999966 117.79999999999976 375.6999999999997 C 116.39999999999975 374.2999999999997 115.19999999999976 370.2999999999997 113.69999999999976 369.0999999999997 C 112.39999999999976 367.99999999999966 108.99999999999976 367.49999999999966 107.49999999999976 366.6999999999997 C 105.39999999999976 365.5999999999997 101.39999999999976 362.7999999999997 99.79999999999976 360.9999999999997 C 98.49999999999976 359.59999999999974 96.99999999999976 355.6999999999997 95.49999999999976 354.4999999999997 C 94.29999999999976 353.4999999999997 90.89999999999976 353.2999999999997 89.59999999999975 352.2999999999997 C 87.99999999999976 350.9999999999997 86.69999999999975 346.4999999999997 84.89999999999975 345.4999999999997 C 83.59999999999975 344.7999999999997 80.39999999999975 345.09999999999974 78.89999999999975 344.9999999999997 C 77.69999999999975 344.8999999999997 74.99999999999974 345.4999999999997 73.99999999999974 344.7999999999997 C 72.79999999999974 343.9999999999997 72.49999999999974 340.4999999999997 71.29999999999974 339.59999999999974 C 70.29999999999974 338.7999999999997 67.19999999999975 339.4999999999997 66.19999999999975 338.59999999999974 C 65.59999999999975 338.09999999999974 65.39999999999975 336.2999999999997 65.09999999999975 335.59999999999974 C 64.29999999999976 333.59999999999974 63.49999999999975 329.09999999999974 61.89999999999975 327.69999999999976 C 60.49999999999975 326.4999999999998 56.39999999999975 326.69999999999976 54.79999999999975 325.7999999999998 C 53.39999999999975 324.8999999999998 50.39999999999975 322.5999999999998 50.19999999999975 320.8999999999998 C 49.999999999999744 319.49999999999983 52.999999999999744 317.49999999999983 52.89999999999975 316.1999999999998 C 52.79999999999975 314.6999999999998 50.09999999999975 312.6999999999998 49.39999999999975 311.29999999999984 C 48.79999999999975 309.89999999999986 47.99999999999975 306.09999999999985 47.99999999999975 305.49999999999983 C 47.9 304.8 45.1 302.6 44.5 301.5 L 44.5 301.5 Z" data-stroke-width="0.2" style="stroke-width: 0.2;" class="   " id="dien-bien"></path>
	<path fill="#FDBDC4" stroke="#474747" stroke-width="0.2" d="M315.9,685.1c-1.8-0.7-4.8-3.5-5.7-5.2c-0.3-0.7-0.3-1.8-0.3-3   c1.4-1.7,3.5-3.9,4.8-4.4c1.1-0.5,3.7,0.5,4.7,0c1.3-0.6,3-3.1,3.5-4.4c0.9-2.5-1.3-8.4,0.3-10.4c0.8-1,4-0.3,4.7-1.3   c0.9-1.1,0.4-4.3,0-5.7c-0.9-3-6.7-7.3-7-10.4c-0.1-1.2,1.7-3.2,1.9-4.4c0.3-2.2-2.6-7-1.3-8.8c0.7-1.1,4.4,0.1,5.1-1   c0.6-1-1.8-3.4-1.3-4.4c0.9-1.6,5.2-2.4,7-1.9c2,0.5,4,5.2,6,6c1.3,0.5,4-0.5,5.4-0.3c1.9,0.3,5.3,3.1,7.3,2.8   c1.6-0.2,4.9-2.2,5.4-3.8c0.8-3.2-6.5-8.8-5.7-12c0.3-1.3,3.5-2,4.1-3.2c0.7-1.3-0.6-4.9,0.3-6c0.7-0.8,3.4-0.2,4.1-0.9   c2.3-2.5,2.2-9.9,1.9-13.3c-0.2-2.5-2.6-7-2.8-9.5c-0.4-3.3,2.9-10.6,0.9-13.3c-0.8-1.1-4.1-0.8-5.4-1.3   c-2.9-0.9-10.9-1.7-11.1-4.7c0-1.2,3.6-1.2,4.1-2.2c1-1.8,0.4-6.7-0.9-8.2c-1.1-1.3-4.7-1.3-6.6-2.2c-1.9-1-4.7-5.1-4.7-6.3   c0-1.3,3.2-3.6,4.7-3.8c2.3-0.3,6.8,2.5,9.2,2.2c1.7-0.2,4.4-2.5,6-2.8c2-0.5,6.6,1.3,8.2,0c1.4-1.1,1-5.2,1.3-7   c0.4-3-0.7-9.7,1.3-12c1.2-1.4,5.5-0.9,7-1.9c1.3-0.8,2.5-3.9,3.8-4.7c1.6-1.1,5.8-1,7.3-2.2c1.6-1.3,2.7-5.6,3.8-7.3   c1.2-1.8,5-4.5,5.5-6.6c0.4-1.7-1.5-5.1-1.6-6.8c-0.1-2.5,0.4-7.6,1.6-9.8c0.6-1.1,3.3-2,3.8-3.2c0.8-1.8,0-6.1-0.2-8.1   c-0.1-1.3-0.3-3.9-0.8-5.1c-0.7-1.6-3.5-3.8-4.4-5.2c-1.2-1.8-2.7-6-3.6-7.9c-0.9-1.8-2.7-5.5-3.8-7.3c-0.8-1.2-3.2-3.2-3.6-4.6   c-0.7-1.9,1.1-6.5,0-8.2c-0.5-0.9-2.8-1.2-3.6-1.9c-1.4-1.1-4-3.7-4.4-5.4c-0.4-1.9,0.8-5.9,1.7-7.6c0.6-1.1,2.9-2.3,3.3-3.5   c0.4-1,0.1-2.7-0.2-4.2c0.3,0.1,0.6,0.1,0.8-0.1c1.5-0.9-1.1-5.3-0.5-7c0.8-2.2,4.8-5.2,6.8-6.5c1-0.7,3.3-2,4.6-2.1   c2.5-0.1,7.2,2.1,9.5,3c3.1,1.3,11.5,5.8,12,6c0.5,0.2,3.6,3.5,4.7,4.7c1.4,1.6,3.8,5,5.2,6.5c0.7,0.7,2.6,1.8,3.2,2.7   c0.8,1.3,1.1,4.6,1.7,6c0.5,1.1,2.5,3.6,3.2,4c0.6,0.3,2.5,3.5,2.5,4.9c0,1.7-2.5,4.8-2.2,6.5c0.1,0.6,1,1.7,1.6,2.1   c1.4,0.9,5.3,0.5,6.6,1.6c1.2,1,1.7,4.3,1.7,5.9c0,1.6,2.7,3.9,3.8,5.1c1.4,1.5,3.9,4.8,5.4,6.2c1.5,1.4,5.9,4.4,6.6,4.9   c0.8,0.5,4,2,5.1,3c1.7,1.6,3.3,6.3,5.2,7.6c1.4,0.9,5.8,1.3,6.5,1.4c0.4,0.1,1.7-0.8,3-1.6c2.4,0.8,6.4,0.8,7.8,1.9   c1.3,1,2.4,4.5,3.8,5.2c2.8,1.4,9.4-0.2,12.6,0c2.4,0.1,7.2,0.2,9.5,0.9c2.1,0.7,5.3,4,7.3,4.7c2.5,0.9,8,0.6,10.7,0.9   c4.6,0.5,14.5,5,18.5,2.6c1.2-0.7,1.7-4.7,2.4-5c0.7-0.2,6.1-5.6,8.8-5.9c2.9-0.3,8.1,3.6,10.9,4.5c2.7,0.9,8.7,1.2,11.1,2.6   c1.4,0.8,4.8,3.1,4.5,4.7c-0.3,1.6-4.9,1.7-5.7,3.1c-0.7,1.2,1.2,4.7,0.2,5.7c-0.9,1-4.5-1-5.5,0c-1.1,1.2,0.3,5,0.5,6.6   c0.2,2.3,1.7,6.8,1.2,9c-0.3,1.3-2.4,3.8-2.6,4.7c-0.2,0.9-0.2,8.9,0.9,11.6c0.7,1.8,3.7,4.3,4.7,5.9c0.7,1.1,1.4,4.1,2.6,4.7   c2.1,1.2,7.3-1.1,9.5-0.2c2.5,1,5.2,6.2,7.6,7.3c2.1,1,7.1,0.3,9.2,1.2c2.2,0.9,5.3,5.1,7.6,5.9c2.6,1,9.1,2.7,10.9,0.7   c1.3-1.4-2.1-5.9-1.2-7.6c0.8-1.6,5.2-1.8,6.4-3.1c0.9-0.9,1.7-4.3,2.8-4.3c1.2,0,6.3,3.1,8.5,3.6c2.1,0.4,6.4-0.9,8.5-0.5   c2.4,0.5,6.5,3.8,8.8,4.7c2.6,1.1,8,3.7,10.7,3.1c2-0.5,4.1-5.3,6.2-5.7c2-0.4,6.4,1.2,7.6,2.8c1.6,2-0.7,8.3,0.9,10.2   c2,2.3,8.9,1.8,11.9,2.6c1.8,0.5,5.3,2.7,7.1,2.4c1.8-0.3,4-3.7,5.7-4.3c1.4-0.5,4.2-0.6,6.8-0.5c-0.7,0.5-1.9,1-2.3,1.5   c-0.8,1.1-0.8,4.1-1.4,5.4c-0.3,0.7-1.5,1.9-1.9,2.5c-0.5,0.8-1.6,2.5-1.9,3.5c-0.4,1.2-0.5,4.6-0.6,5.2c-0.2,0.6,1.9,4.3,2.7,5.7   c0.9,1.6,3.4,4.5,3.6,6.3c0.2,1.6-1.5,4.6-1.4,6.2c0.1,1.8,1.5,5.1,2.4,6.6c0.6,1,2.4,2.6,2.8,3.6c0.6,1.4,0.3,4.6,1.1,5.8   c1,1.5,5,2.5,5.9,4.1c0.3,0.5,0.4,1.5,0.3,2.4c0,0.5-0.1,1-0.3,1.3c-0.9,1.4-4.6,2-6.2,2.7c-1.7,0.7-5.7,1.2-6.6,2.7   c-1.2,1.9-0.5,6.9,0.3,9c0.7,1.7,4.6,5.2,5.2,5.4c0.6,0.2,3.2,2.1,4,3.2c1.1,1.6,1.6,5.8,2.8,7.3c1,1.2,4.1,2.2,5.2,3.3   c1.4,1.4,3.3,5,4.3,6.8c0.8,1.5,1.6,5,2.8,6c1,0.8,4,0.4,5.1,1.3c1.2,1,2.4,4.1,2.7,5.7c0.3,1.5-1.2,4.7-0.5,6   c0.7,1.2,4.2,1.4,5.1,2.5c0.9,1.2,1.1,4.3,0.9,5.7c-0.1,1.3-2.5,3.7-1.9,4.9c0.5,1.2,4.2,0.5,4.9,1.6c0.6,1-0.1,3.6-0.8,4.6   c-0.6,0.9-3.1,1.3-3.6,2.2c-0.7,1.1-0.8,4.1-0.3,5.4c0.4,1,2.9,1.8,3.2,2.8c0.3,1.3-1,4.2-2.2,4.7c-2.4,1.1-7.9-1.3-10.3-2.5   c-0.9-0.5-2.2-2.4-3.2-2.8c-1.2-0.6-4.1-0.3-5.4-0.8c-1-0.4-2.6-2.2-3.6-2.7c-2.2-0.9-7.2-2.8-9.3-1.7c-1,0.5-1.1,3.2-2.1,3.8   c-1.1,0.6-4-0.9-5.1-0.2c-1.1,0.7-1.9,3.6-1.7,4.9c0.2,1.6,3.4,3.7,3.5,5.2c0.1,2-3.2,5.3-3.5,7.3c-0.2,1.1,0.5,3.1,0.9,4.8   c0.2,1.1,0.4,2,0,2.7c-0.8,1.6-4.8,2.6-6.3,3.6c-1.1,0.8-3.5,2.4-4.1,3.6c-0.7,1.6,0,5.2-0.3,7c-0.2,1.5-0.2,5.2-1.6,5.7   c-2.1,0.7-4.8-5.1-7-5.2c-2-0.1-5,4.1-7,3.8c-2.3-0.4-4.1-6.2-6.3-7.1c-1.8-0.7-6,1.4-7.7,0.6c-2.4-1.1-4.2-6.7-6.2-8.4   c-0.9-0.8-3.3-1.3-5.1-2c0.7-1.8,1.3-4.1,0.7-5.2c-0.8-1.5-4.7-1.5-6.2-2.4c-1.5-0.8-4-3.1-5.2-4.3c-1.5-1.5-4.9-6.5-5.4-6.5   c-0.5,0-6-1.6-7.9-1.1c-1.5,0.4-3.7,3.4-5.2,3.6c-1.2,0.2-3.8-0.4-4.6-1.3c-1.2-1.2-1.2-4.9-1.6-6.5c-0.7-2.6-0.9-8.4-2.7-10.4   c-1.7-1.8-7.2-2.2-9.5-3.3c-2.1-1-5.9-3.9-7.9-5.1c-3.2-1.8-10-4.4-13-6.5c-1.9-1.4-5.6-4.5-7-6.5c-1.4-2-2.4-7.1-3.8-9.2   c-1.2-1.7-6-5.4-6.6-5.4c-0.6,0-6.6,1-7.4,1c-0.8,0-4.1-1.8-5.5-2.4c-2-0.9-6.4-2.1-8.4-3c-1.8-0.8-5-3.7-7-3.9   c-1.8-0.2-5.3,2.2-7.1,1.9c-2.1-0.3-5-4.3-7.1-4.7c-1.3-0.3-4,0.6-5.4,0.8c-2,0.2-6.7-0.6-8.2,0.8c-1.6,1.5-0.6,6.6-1.6,8.5   c-0.9,1.7-3.9,4.8-5.7,5.5c-1.4,0.6-4.5,0.2-6,0.2c-2.6-0.1-7.8-1.4-10.3-0.8c-1.7,0.5-4.1,3.9-5.9,3.9c-1.6,0.1-4-2.7-5.5-3   c-2.6-0.6-8.5-0.9-10.7,0.5c-2,1.2-2.5,6.8-4.4,8.1c-1.3,0.8-4.7-0.2-6.2,0.3c-1.6,0.6-4.6,2.8-5.5,4.3c-1,1.5-0.6,5.5-1.4,7.1   c-0.6,1.2-3.1,2.7-3.5,4c-0.5,1.6,1.2,5.1,0.9,6.8c-0.2,1.3-2,3.5-2.5,4.7c-0.6,1.4-0.8,4.8-2.1,5.7c-1.4,1-5.3-0.8-6.8,0   c-1.1,0.6-2.7,3-2.8,4.3c-0.1,1.3,2,3.6,2.2,4.9c0.3,1.8-0.1,5.5-1,7.1c-0.7,1.3-3.3,3.4-4.7,3.8c-2,0.5-6.4-0.3-8.2-1.3   c-2.6-1.3-6.1-6.4-8.4-8.4c-1.8-1.6-5.9-4-7.6-5.7c-1.2-1.2-2.6-4.4-3.9-5.4c-2.1-1.5-7.1-3.1-9.6-3c-1.5,0-4.2,2-5.7,2.1   c-2.2,0-6.6-1.5-8.4-2.8c-0.9-0.8-1.9-3.1-2.5-4.1c-0.7-1.2-2.6-3.3-3-4.6c-0.4-1.2,0.7-4.1,0-5.2c-0.9-1.6-4.6-3.7-6.5-3.5   c-1.5,0.2-3.5,2.9-4.6,3.9c-1.2,1.1-3.5,3.7-4.9,4.6c-1.7,1-5.4,3-7.3,2.5c-2-0.5-3.6-5.3-5.4-6.3c-2-1.2-7.1-1.1-9.3-1.9   c-2-0.7-5.4-3.4-7.4-3.9C324.7,684.4,318.6,686.2,315.9,685.1L315.9,685.1z" data-stroke-width="0.2" style="stroke-width: 0.2;" class=" " id="son-la"></path>
</g>
<path style="pointer-events: none;" fill="#0A0A0A" d="M233.9,335.2v-12.9h3.1v10.2h5.8v2.8H233.9z M248.1,335.3c-0.8,0-1.6-0.2-2.2-0.6c-0.6-0.4-1.2-1-1.5-1.8  c-0.4-0.8-0.6-1.7-0.6-2.6c0-1,0.2-1.9,0.6-2.6c0.4-0.8,0.9-1.4,1.6-1.8c0.7-0.4,1.4-0.7,2.3-0.7c0.5,0,0.9,0.1,1.3,0.2  c0.4,0.1,0.7,0.3,1,0.6c0.3,0.2,0.5,0.5,0.8,0.8c0.2,0.3,0.4,0.6,0.5,1l-0.6-0.1v-2.3h2.9v9.8h-3v-2.4l0.7,0c-0.1,0.3-0.3,0.7-0.5,1  c-0.2,0.3-0.5,0.6-0.8,0.8s-0.7,0.4-1.1,0.6C249,335.3,248.6,335.3,248.1,335.3L248.1,335.3z M249,332.9c0.5,0,0.8-0.1,1.2-0.3  c0.3-0.2,0.6-0.5,0.8-0.9c0.2-0.4,0.3-0.9,0.3-1.4s-0.1-1-0.3-1.4c-0.2-0.4-0.4-0.7-0.8-0.9c-0.3-0.2-0.7-0.3-1.2-0.3  c-0.4,0-0.8,0.1-1.2,0.3c-0.3,0.2-0.6,0.5-0.8,0.9c-0.2,0.4-0.3,0.8-0.3,1.4s0.1,1,0.3,1.4c0.2,0.4,0.4,0.7,0.8,0.9  C248.1,332.8,248.5,332.9,249,332.9z M256.9,335.2v-9.8h3v9.8H256.9z M258.3,323.4c-0.6,0-1-0.1-1.3-0.4c-0.3-0.3-0.5-0.7-0.5-1.1  c0-0.4,0.2-0.8,0.5-1.1s0.8-0.4,1.3-0.4c0.6,0,1,0.1,1.3,0.4c0.3,0.3,0.5,0.6,0.5,1.1c0,0.5-0.2,0.8-0.5,1.1  C259.3,323.3,258.9,323.4,258.3,323.4L258.3,323.4z M274.7,335.4c-1,0-1.9-0.2-2.7-0.5c-0.8-0.3-1.5-0.8-2.1-1.4  c-0.6-0.6-1.1-1.3-1.4-2.1c-0.3-0.8-0.5-1.7-0.5-2.7c0-1,0.2-1.8,0.5-2.7c0.3-0.8,0.8-1.5,1.4-2.1c0.6-0.6,1.3-1.1,2.2-1.4  c0.8-0.3,1.7-0.5,2.7-0.5c0.6,0,1.2,0.1,1.8,0.2c0.6,0.2,1.1,0.4,1.6,0.7c0.5,0.3,1,0.7,1.3,1.1l-1.9,2.2c-0.3-0.3-0.5-0.5-0.8-0.7  c-0.3-0.2-0.6-0.4-0.9-0.5c-0.3-0.1-0.7-0.2-1.1-0.2c-0.5,0-1,0.1-1.4,0.3c-0.4,0.2-0.8,0.4-1.1,0.8c-0.3,0.3-0.6,0.7-0.8,1.2  c-0.2,0.5-0.3,1-0.3,1.6c0,0.6,0.1,1.1,0.3,1.6c0.2,0.5,0.4,0.8,0.8,1.2c0.3,0.3,0.7,0.6,1.2,0.8c0.5,0.2,1,0.3,1.6,0.3  c0.4,0,0.8-0.1,1.1-0.2c0.4-0.1,0.7-0.3,1-0.4c0.3-0.2,0.6-0.4,0.8-0.7l1.5,2.4c-0.3,0.3-0.7,0.7-1.2,0.9c-0.5,0.3-1.1,0.5-1.7,0.6  C276,335.3,275.3,335.4,274.7,335.4L274.7,335.4z M281.3,335.2v-13.7h2.9v5.9l-0.6,0.2c0.1-0.4,0.4-0.8,0.7-1.2  c0.4-0.4,0.8-0.7,1.3-0.9c0.5-0.2,1-0.3,1.6-0.3c0.7,0,1.4,0.2,1.9,0.5c0.5,0.3,0.9,0.7,1.1,1.3c0.3,0.6,0.4,1.3,0.4,2.2v6h-3v-5.8  c0-0.4-0.1-0.7-0.2-1c-0.1-0.3-0.3-0.4-0.5-0.6c-0.2-0.1-0.5-0.2-0.8-0.2c-0.3,0-0.5,0-0.7,0.1c-0.2,0.1-0.4,0.2-0.6,0.4  c-0.2,0.1-0.3,0.3-0.4,0.5c-0.1,0.2-0.1,0.4-0.1,0.6v5.9h-1.5c-0.3,0-0.6,0-0.9,0C281.7,335.2,281.5,335.2,281.3,335.2L281.3,335.2z   M296.7,335.3c-0.8,0-1.6-0.2-2.2-0.6c-0.6-0.4-1.2-1-1.5-1.8c-0.4-0.8-0.6-1.7-0.6-2.6c0-1,0.2-1.9,0.6-2.6  c0.4-0.8,0.9-1.4,1.6-1.8c0.7-0.4,1.4-0.7,2.3-0.7c0.5,0,0.9,0.1,1.3,0.2c0.4,0.1,0.7,0.3,1,0.6c0.3,0.2,0.5,0.5,0.8,0.8  c0.2,0.3,0.4,0.6,0.5,1l-0.6-0.1v-2.3h2.9v9.8h-3v-2.4l0.7,0c-0.1,0.3-0.3,0.7-0.5,1c-0.2,0.3-0.5,0.6-0.8,0.8  c-0.3,0.2-0.7,0.4-1.1,0.6S297.1,335.3,296.7,335.3L296.7,335.3z M297.5,332.9c0.5,0,0.8-0.1,1.2-0.3c0.3-0.2,0.6-0.5,0.8-0.9  c0.2-0.4,0.3-0.9,0.3-1.4c0-0.5-0.1-1-0.3-1.4c-0.2-0.4-0.4-0.7-0.8-0.9c-0.3-0.2-0.7-0.3-1.2-0.3c-0.4,0-0.8,0.1-1.2,0.3  c-0.3,0.2-0.6,0.5-0.8,0.9c-0.2,0.4-0.3,0.8-0.3,1.4c0,0.5,0.1,1,0.3,1.4c0.2,0.4,0.4,0.7,0.8,0.9  C296.7,332.8,297.1,332.9,297.5,332.9z M295.4,324.1l-1.1-0.9l2.7-2.4h1.8l2.7,2.4l-1.1,0.9l-2.8-1.6h0.6L295.4,324.1z M308.4,335.4  c-0.7,0-1.3-0.2-1.9-0.5c-0.5-0.3-0.9-0.8-1.2-1.4c-0.3-0.6-0.4-1.3-0.4-2.1v-6.1h3v5.7c0,0.4,0.1,0.7,0.2,1s0.3,0.5,0.6,0.7  c0.2,0.1,0.5,0.2,0.9,0.2c0.3,0,0.5,0,0.7-0.1c0.2-0.1,0.4-0.2,0.6-0.4c0.2-0.2,0.3-0.3,0.4-0.5c0.1-0.2,0.1-0.4,0.1-0.7v-5.9h3v9.8  h-2.8l-0.1-2l0.6-0.2c-0.1,0.5-0.4,0.9-0.7,1.3c-0.3,0.4-0.8,0.6-1.2,0.9C309.5,335.3,308.9,335.4,308.4,335.4L308.4,335.4z"></path>
<path style="pointer-events: none;" fill="#0A0A0A" d="M260.7,452.9v-2.2h6v2.2H260.7z M261.7,458.3v-12.9h5.4c0.9,0,1.8,0.2,2.6,0.5c0.8,0.3,1.5,0.8,2,1.3  c0.6,0.6,1,1.3,1.3,2.1c0.3,0.8,0.5,1.7,0.5,2.6c0,0.9-0.2,1.8-0.5,2.6c-0.3,0.8-0.8,1.5-1.3,2.1c-0.6,0.6-1.2,1-2,1.3  c-0.8,0.3-1.7,0.5-2.6,0.5L261.7,458.3z M264.8,456.2l-0.4-0.6h2.6c0.5,0,1-0.1,1.4-0.3c0.4-0.2,0.8-0.4,1-0.8  c0.3-0.3,0.5-0.7,0.7-1.2s0.2-1,0.2-1.5s-0.1-1.1-0.2-1.5s-0.4-0.8-0.7-1.2c-0.3-0.3-0.6-0.6-1-0.7c-0.4-0.2-0.9-0.3-1.4-0.3h-2.7  l0.5-0.6V456.2z M275.8,458.3v-9.8h3v9.8H275.8z M277.3,446.6c-0.6,0-1-0.1-1.3-0.4c-0.3-0.3-0.5-0.7-0.5-1.1c0-0.4,0.2-0.8,0.5-1.1  c0.3-0.3,0.8-0.4,1.3-0.4c0.6,0,1,0.1,1.3,0.4c0.3,0.3,0.5,0.6,0.5,1.1c0,0.5-0.2,0.8-0.5,1.1C278.2,446.4,277.8,446.6,277.3,446.6  L277.3,446.6z M286.2,458.5c-1.1,0-2-0.2-2.8-0.6c-0.8-0.4-1.4-1-1.9-1.8c-0.4-0.8-0.7-1.6-0.7-2.6c0-0.8,0.1-1.4,0.4-2.1  c0.2-0.6,0.6-1.2,1-1.6c0.4-0.5,1-0.8,1.6-1.1c0.6-0.3,1.3-0.4,2-0.4c0.7,0,1.3,0.1,1.9,0.4c0.6,0.2,1.1,0.6,1.5,1  c0.4,0.4,0.7,1,1,1.6s0.3,1.3,0.3,2l0,0.8h-7.8l-0.4-1.7h5.8l-0.3,0.4v-0.4c0-0.3-0.1-0.6-0.3-0.8c-0.2-0.2-0.4-0.4-0.6-0.6  c-0.3-0.1-0.6-0.2-0.9-0.2c-0.5,0-0.9,0.1-1.2,0.3c-0.3,0.2-0.6,0.5-0.8,0.8c-0.2,0.4-0.3,0.8-0.3,1.3c0,0.5,0.1,1,0.3,1.4  c0.2,0.4,0.6,0.7,1,0.9c0.4,0.2,1,0.3,1.6,0.3c0.4,0,0.8-0.1,1.1-0.2c0.3-0.1,0.7-0.3,1.1-0.6l1.4,2c-0.4,0.3-0.8,0.6-1.2,0.8  c-0.4,0.2-0.9,0.4-1.3,0.5C287.1,458.5,286.6,458.5,286.2,458.5L286.2,458.5z M286.2,462.5c-0.6,0-1-0.1-1.3-0.4  c-0.3-0.3-0.5-0.7-0.5-1.1c0-0.5,0.2-0.8,0.5-1.1c0.3-0.3,0.8-0.4,1.3-0.4c0.6,0,1,0.1,1.3,0.4s0.5,0.7,0.5,1.2  c0,0.5-0.2,0.8-0.5,1.1C287.2,462.3,286.7,462.5,286.2,462.5L286.2,462.5z M283.3,447.2l-1.1-0.9l2.7-2.4h1.8l2.7,2.4l-1.1,0.9  l-2.8-1.6h0.6L283.3,447.2z M292.3,458.3v-9.8h2.8l0.1,2l-0.6,0.2c0.1-0.4,0.4-0.8,0.7-1.2c0.4-0.4,0.8-0.7,1.3-0.9  c0.5-0.2,1-0.3,1.6-0.3c0.7,0,1.4,0.2,1.9,0.5c0.5,0.3,0.9,0.7,1.1,1.3c0.3,0.6,0.4,1.3,0.4,2.2v6h-3v-5.8c0-0.4-0.1-0.7-0.2-1  c-0.1-0.3-0.3-0.4-0.5-0.6c-0.2-0.1-0.5-0.2-0.8-0.2c-0.3,0-0.5,0-0.7,0.1c-0.2,0.1-0.4,0.2-0.6,0.4c-0.2,0.1-0.3,0.3-0.4,0.5  c-0.1,0.2-0.1,0.4-0.1,0.6v5.9h-1.5c-0.3,0-0.6,0-0.9,0C292.7,458.3,292.5,458.3,292.3,458.3L292.3,458.3z M310.3,458.3v-12.9h5.7  c0.9,0,1.6,0.1,2.3,0.4c0.6,0.2,1.1,0.6,1.4,1.1c0.3,0.5,0.5,1,0.5,1.7c0,0.7-0.2,1.4-0.6,1.9c-0.4,0.5-0.9,0.8-1.6,1l0-0.4  c0.6,0.1,1.1,0.3,1.5,0.6c0.4,0.3,0.8,0.7,1,1.1c0.2,0.4,0.4,0.9,0.4,1.5c0,0.7-0.1,1.2-0.3,1.7c-0.2,0.5-0.5,0.9-1,1.2  s-0.9,0.6-1.5,0.7c-0.6,0.2-1.2,0.2-1.8,0.2L310.3,458.3z M313.2,455.7h2.8c0.3,0,0.6-0.1,0.9-0.2c0.2-0.1,0.4-0.3,0.6-0.5  c0.1-0.2,0.2-0.5,0.2-0.8c0-0.3-0.1-0.5-0.2-0.7c-0.1-0.2-0.3-0.3-0.6-0.4c-0.3-0.1-0.6-0.2-0.9-0.2h-2.7L313.2,455.7z M313.2,450.6  h2.3c0.3,0,0.6,0,0.8-0.1c0.2-0.1,0.4-0.3,0.5-0.4c0.1-0.2,0.2-0.4,0.2-0.7c0-0.4-0.1-0.7-0.4-0.9c-0.3-0.2-0.7-0.4-1.2-0.4h-2.2  L313.2,450.6z M323.1,458.3v-9.8h3v9.8H323.1z M324.6,446.6c-0.6,0-1-0.1-1.3-0.4c-0.3-0.3-0.5-0.7-0.5-1.1c0-0.4,0.2-0.8,0.5-1.1  c0.3-0.3,0.8-0.4,1.3-0.4c0.6,0,1,0.1,1.3,0.4c0.3,0.3,0.5,0.6,0.5,1.1c0,0.5-0.2,0.8-0.5,1.1C325.5,446.4,325.1,446.6,324.6,446.6  L324.6,446.6z M333.5,458.5c-1.1,0-2-0.2-2.8-0.6c-0.8-0.4-1.4-1-1.9-1.8c-0.4-0.8-0.7-1.6-0.7-2.6c0-0.8,0.1-1.4,0.4-2.1  c0.2-0.6,0.6-1.2,1-1.6c0.4-0.5,1-0.8,1.6-1.1c0.6-0.3,1.3-0.4,2-0.4c0.7,0,1.3,0.1,1.9,0.4c0.6,0.2,1.1,0.6,1.5,1  c0.4,0.4,0.7,1,1,1.6s0.3,1.3,0.3,2l0,0.8h-7.8l-0.4-1.7h5.8l-0.3,0.4v-0.4c0-0.3-0.1-0.6-0.3-0.8c-0.2-0.2-0.4-0.4-0.6-0.6  c-0.3-0.1-0.6-0.2-0.9-0.2c-0.5,0-0.9,0.1-1.2,0.3c-0.3,0.2-0.6,0.5-0.8,0.8c-0.2,0.4-0.3,0.8-0.3,1.3c0,0.5,0.1,1,0.3,1.4  c0.2,0.4,0.6,0.7,1,0.9c0.4,0.2,1,0.3,1.6,0.3c0.4,0,0.8-0.1,1.1-0.2c0.3-0.1,0.7-0.3,1.1-0.6l1.4,2c-0.4,0.3-0.8,0.6-1.2,0.8  c-0.4,0.2-0.9,0.4-1.3,0.5C334.4,458.5,333.9,458.5,333.5,458.5L333.5,458.5z M330.6,447.2l-1.1-0.9l2.7-2.4h1.8l2.7,2.4l-1.1,0.9  l-2.8-1.6h0.6L330.6,447.2z M339.6,458.3v-9.8h2.8l0.1,2l-0.6,0.2c0.1-0.4,0.4-0.8,0.7-1.2c0.4-0.4,0.8-0.7,1.3-0.9  c0.5-0.2,1-0.3,1.6-0.3c0.7,0,1.4,0.2,1.9,0.5c0.5,0.3,0.9,0.7,1.1,1.3c0.3,0.6,0.4,1.3,0.4,2.2v6h-3v-5.8c0-0.4-0.1-0.7-0.2-1  c-0.1-0.3-0.3-0.4-0.5-0.6c-0.2-0.1-0.5-0.2-0.8-0.2c-0.3,0-0.5,0-0.7,0.1c-0.2,0.1-0.4,0.2-0.6,0.4c-0.2,0.1-0.3,0.3-0.4,0.5  c-0.1,0.2-0.1,0.4-0.1,0.6v5.9h-1.5c-0.3,0-0.6,0-0.9,0C340,458.3,339.8,458.3,339.6,458.3L339.6,458.3z"></path>
<path style="pointer-events: none;" fill="#0A0A0A" d="M486.1,578.6c-0.8,0-1.6-0.1-2.3-0.3c-0.7-0.2-1.3-0.5-1.8-0.9c-0.5-0.4-1-0.9-1.4-1.4l1.9-2.2  c0.6,0.8,1.2,1.4,1.8,1.7c0.6,0.3,1.3,0.4,1.9,0.4c0.3,0,0.6,0,0.9-0.1c0.3-0.1,0.5-0.2,0.6-0.4c0.1-0.2,0.2-0.4,0.2-0.6  c0-0.2,0-0.4-0.1-0.5c-0.1-0.1-0.2-0.3-0.4-0.4c-0.2-0.1-0.4-0.2-0.6-0.3c-0.2-0.1-0.5-0.2-0.7-0.2c-0.2-0.1-0.5-0.1-0.8-0.2  c-0.7-0.2-1.3-0.4-1.9-0.6c-0.5-0.2-1-0.5-1.3-0.8c-0.3-0.3-0.6-0.7-0.8-1.2c-0.2-0.4-0.3-0.9-0.3-1.5c0-0.6,0.1-1.1,0.4-1.6  c0.3-0.5,0.6-0.9,1.1-1.3c0.5-0.4,1-0.6,1.6-0.8c0.6-0.2,1.2-0.3,1.8-0.3c0.8,0,1.6,0.1,2.2,0.3c0.6,0.2,1.1,0.4,1.6,0.8  c0.4,0.3,0.8,0.7,1.1,1.2l-1.9,1.9c-0.3-0.3-0.5-0.6-0.8-0.8c-0.3-0.2-0.6-0.4-1-0.5c-0.3-0.1-0.7-0.2-1-0.2c-0.4,0-0.7,0-1,0.1  c-0.3,0.1-0.5,0.2-0.6,0.4c-0.1,0.2-0.2,0.4-0.2,0.6c0,0.2,0.1,0.4,0.2,0.5c0.1,0.1,0.3,0.3,0.5,0.4c0.2,0.1,0.4,0.2,0.7,0.3  c0.3,0.1,0.6,0.1,0.8,0.2c0.7,0.1,1.3,0.3,1.8,0.5c0.6,0.2,1,0.5,1.4,0.8c0.4,0.3,0.7,0.7,0.9,1.1c0.2,0.4,0.3,0.9,0.3,1.5  c0,0.9-0.2,1.7-0.7,2.3c-0.4,0.6-1,1.1-1.8,1.4C487.9,578.4,487,578.6,486.1,578.6L486.1,578.6z M497.8,578.6c-1,0-1.9-0.2-2.7-0.7  c-0.8-0.4-1.4-1-1.9-1.8c-0.5-0.8-0.7-1.6-0.7-2.6s0.2-1.9,0.7-2.6c0.5-0.8,1.1-1.4,1.9-1.8c0.8-0.4,1.7-0.7,2.7-0.7  c0.2,0,0.4,0,0.6,0.1c0.2,0,0.4,0,0.6,0.1c0.1,0,0.3,0,0.4,0.1c0.1,0,0.2,0,0.3,0c0.5,0,0.9-0.2,1.1-0.5c0.3-0.4,0.4-0.9,0.4-1.6  h2.3c0,0.6-0.1,1.1-0.3,1.6c-0.2,0.5-0.4,0.9-0.8,1.3c-0.4,0.3-0.8,0.6-1.4,0.7l0.2-0.4c0.6,0.4,1,1,1.3,1.7s0.5,1.4,0.5,2.3  c0,1-0.2,1.9-0.7,2.6s-1.1,1.4-1.9,1.8C499.7,578.4,498.8,578.6,497.8,578.6L497.8,578.6z M497.8,576c0.4,0,0.8-0.1,1.2-0.3  s0.6-0.5,0.8-0.9c0.2-0.4,0.3-0.8,0.3-1.3c0-0.5-0.1-0.9-0.3-1.3c-0.2-0.4-0.5-0.7-0.8-0.9s-0.7-0.3-1.2-0.3c-0.4,0-0.8,0.1-1.2,0.3  c-0.3,0.2-0.6,0.5-0.8,0.9c-0.2,0.4-0.3,0.8-0.3,1.3c0,0.5,0.1,0.9,0.3,1.3c0.2,0.4,0.5,0.7,0.8,0.9  C496.9,575.9,497.3,576,497.8,576z M505,578.4v-9.8h2.8l0.1,2l-0.6,0.2c0.1-0.4,0.4-0.8,0.7-1.2c0.4-0.4,0.8-0.7,1.3-0.9  s1-0.3,1.6-0.3c0.7,0,1.4,0.2,1.9,0.5c0.5,0.3,0.9,0.7,1.1,1.3c0.3,0.6,0.4,1.3,0.4,2.2v6h-3v-5.8c0-0.4-0.1-0.7-0.2-1  s-0.3-0.4-0.5-0.6c-0.2-0.1-0.5-0.2-0.8-0.2c-0.3,0-0.5,0-0.7,0.1c-0.2,0.1-0.4,0.2-0.6,0.4c-0.2,0.1-0.3,0.3-0.4,0.5  c-0.1,0.2-0.1,0.4-0.1,0.6v5.9h-1.5c-0.3,0-0.6,0-0.9,0C505.4,578.4,505.2,578.4,505,578.4L505,578.4z M523,578.4v-12.9h3.1v10.2  h5.8v2.8L523,578.4z M537.2,578.6c-0.8,0-1.6-0.2-2.2-0.6c-0.6-0.4-1.2-1-1.5-1.8c-0.4-0.8-0.6-1.7-0.6-2.6c0-1,0.2-1.9,0.6-2.6  s0.9-1.4,1.6-1.8c0.7-0.4,1.4-0.7,2.3-0.7c0.5,0,0.9,0.1,1.3,0.2c0.4,0.1,0.7,0.3,1,0.6c0.3,0.2,0.5,0.5,0.8,0.8  c0.2,0.3,0.4,0.6,0.5,1l-0.6-0.1v-2.3h2.9v9.8h-3V576l0.7,0c-0.1,0.3-0.3,0.7-0.5,1c-0.2,0.3-0.5,0.6-0.8,0.8s-0.7,0.4-1.1,0.6  C538,578.5,537.6,578.6,537.2,578.6L537.2,578.6z M538,576.1c0.5,0,0.8-0.1,1.2-0.3c0.3-0.2,0.6-0.5,0.8-0.9  c0.2-0.4,0.3-0.9,0.3-1.4c0-0.5-0.1-1-0.3-1.4c-0.2-0.4-0.4-0.7-0.8-0.9c-0.3-0.2-0.7-0.3-1.2-0.3c-0.4,0-0.8,0.1-1.2,0.3  c-0.3,0.2-0.6,0.5-0.8,0.9c-0.2,0.4-0.3,0.8-0.3,1.4c0,0.5,0.1,1,0.3,1.4c0.2,0.4,0.4,0.7,0.8,0.9C537.1,576,537.5,576.1,538,576.1z  "></path>
<path style="pointer-events: none;" fill="#0A0A0A" d="M788.4,712.3v-12.9h3.1v12.9H788.4z M780.4,712.3v-12.9h3.1v12.9H780.4z M781.6,707.3l0-2.8h8.4v2.8H781.6z   M799.1,712.5c-1,0-1.9-0.2-2.7-0.7c-0.8-0.4-1.4-1-1.9-1.8c-0.5-0.8-0.7-1.6-0.7-2.6c0-1,0.2-1.9,0.7-2.6c0.5-0.8,1.1-1.4,1.9-1.8  c0.8-0.4,1.7-0.7,2.7-0.7c1,0,1.9,0.2,2.7,0.7c0.8,0.4,1.4,1,1.9,1.8c0.5,0.8,0.7,1.6,0.7,2.6c0,1-0.2,1.9-0.7,2.6s-1.1,1.4-1.9,1.8  C801,712.3,800.1,712.5,799.1,712.5z M799.1,709.9c0.4,0,0.8-0.1,1.2-0.3c0.3-0.2,0.6-0.5,0.8-0.9s0.3-0.8,0.3-1.3  c0-0.5-0.1-0.9-0.3-1.3c-0.2-0.4-0.5-0.7-0.8-0.9c-0.3-0.2-0.7-0.3-1.2-0.3c-0.4,0-0.8,0.1-1.2,0.3c-0.3,0.2-0.6,0.5-0.8,0.9  c-0.2,0.4-0.3,0.8-0.3,1.3c0,0.5,0.1,0.9,0.3,1.3s0.5,0.7,0.8,0.9C798.2,709.8,798.6,709.9,799.1,709.9z M809.9,712.5  c-0.8,0-1.6-0.2-2.2-0.6c-0.6-0.4-1.2-1-1.5-1.8c-0.4-0.8-0.6-1.7-0.6-2.6c0-1,0.2-1.9,0.6-2.6c0.4-0.8,0.9-1.4,1.6-1.8  c0.7-0.4,1.4-0.7,2.3-0.7c0.5,0,0.9,0.1,1.3,0.2c0.4,0.1,0.7,0.3,1,0.6c0.3,0.2,0.5,0.5,0.8,0.8c0.2,0.3,0.4,0.6,0.5,1l-0.6-0.1  v-2.3h2.9v9.8h-3v-2.4l0.7,0c-0.1,0.3-0.3,0.7-0.5,1c-0.2,0.3-0.5,0.6-0.8,0.8c-0.3,0.2-0.7,0.4-1.1,0.6  C810.8,712.4,810.4,712.5,809.9,712.5L809.9,712.5z M810.7,710c0.5,0,0.8-0.1,1.2-0.3c0.3-0.2,0.6-0.5,0.8-0.9  c0.2-0.4,0.3-0.9,0.3-1.4c0-0.5-0.1-1-0.3-1.4c-0.2-0.4-0.4-0.7-0.8-0.9c-0.3-0.2-0.7-0.3-1.2-0.3c-0.4,0-0.8,0.1-1.2,0.3  c-0.3,0.2-0.6,0.5-0.8,0.9c-0.2,0.4-0.3,0.8-0.3,1.4c0,0.5,0.1,1,0.3,1.4c0.2,0.4,0.4,0.7,0.8,0.9C809.9,709.9,810.3,710,810.7,710z   M812.2,701.4l-3.8-2l1.3-1.9l3.3,2.6L812.2,701.4z M824.7,712.3v-12.9h5.7c0.9,0,1.6,0.1,2.3,0.4c0.6,0.2,1.1,0.6,1.4,1.1  c0.3,0.5,0.5,1,0.5,1.7c0,0.7-0.2,1.4-0.6,1.9c-0.4,0.5-0.9,0.8-1.6,1l0-0.4c0.6,0.1,1.1,0.3,1.5,0.6c0.4,0.3,0.8,0.7,1,1.1  c0.2,0.4,0.4,0.9,0.4,1.5c0,0.7-0.1,1.2-0.3,1.7c-0.2,0.5-0.5,0.9-1,1.2c-0.4,0.3-0.9,0.6-1.5,0.7c-0.6,0.2-1.2,0.2-1.8,0.2  L824.7,712.3z M827.7,709.7h2.8c0.3,0,0.6-0.1,0.9-0.2c0.2-0.1,0.4-0.3,0.6-0.5c0.1-0.2,0.2-0.5,0.2-0.8c0-0.3-0.1-0.5-0.2-0.7  c-0.1-0.2-0.3-0.3-0.6-0.4c-0.3-0.1-0.6-0.2-0.9-0.2h-2.7L827.7,709.7z M827.7,704.6h2.3c0.3,0,0.6,0,0.8-0.1  c0.2-0.1,0.4-0.3,0.5-0.4c0.1-0.2,0.2-0.4,0.2-0.7c0-0.4-0.1-0.7-0.4-0.9c-0.3-0.2-0.7-0.4-1.2-0.4h-2.2L827.7,704.6z M837.2,712.3  v-9.8h3v9.8H837.2z M839.8,701.4l-3.8-2l1.3-1.9l3.3,2.6L839.8,701.4z M842.7,712.3v-9.8h2.8l0.1,2l-0.6,0.2  c0.1-0.4,0.4-0.8,0.7-1.2c0.4-0.4,0.8-0.7,1.3-0.9c0.5-0.2,1-0.3,1.6-0.3c0.7,0,1.4,0.2,1.9,0.5c0.5,0.3,0.9,0.7,1.1,1.3  c0.3,0.6,0.4,1.3,0.4,2.2v6h-3v-5.8c0-0.4-0.1-0.7-0.2-1c-0.1-0.3-0.3-0.4-0.5-0.6c-0.2-0.1-0.5-0.2-0.8-0.2c-0.3,0-0.5,0-0.7,0.1  c-0.2,0.1-0.4,0.2-0.6,0.4c-0.2,0.1-0.3,0.3-0.4,0.5c-0.1,0.2-0.1,0.4-0.1,0.6v5.9h-1.5c-0.3,0-0.6,0-0.9,0  C843.1,712.3,842.8,712.3,842.7,712.3L842.7,712.3z M854.4,712.3v-13.7h2.9v5.9l-0.6,0.2c0.1-0.4,0.4-0.8,0.7-1.2  c0.4-0.4,0.8-0.7,1.3-0.9c0.5-0.2,1-0.3,1.6-0.3c0.7,0,1.4,0.2,1.9,0.5c0.5,0.3,0.9,0.7,1.1,1.3c0.3,0.6,0.4,1.3,0.4,2.2v6h-3v-5.8  c0-0.4-0.1-0.7-0.2-1s-0.3-0.4-0.5-0.6c-0.2-0.1-0.5-0.2-0.8-0.2c-0.3,0-0.5,0-0.7,0.1c-0.2,0.1-0.4,0.2-0.6,0.4  c-0.2,0.1-0.3,0.3-0.4,0.5c-0.1,0.2-0.1,0.4-0.1,0.6v5.9h-1.5c-0.3,0-0.6,0-0.9,0C854.8,712.3,854.6,712.3,854.4,712.3L854.4,712.3z  "></path>
</svg>